M48
; DRILL file {KiCad (5.1.4)-1} date 10/13/19 10:07:25
; FORMAT={-:-/ absolute / metric / decimal}
; #@! TF.CreationDate,2019-10-13T10:07:25+02:00
; #@! TF.GenerationSoftware,Kicad,Pcbnew,(5.1.4)-1
; #@! TF.FileFunction,Plated,1,2,PTH
FMAT,2
METRIC
T1C0.300
T2C0.400
T3C0.500
T4C0.800
T5C0.914
T6C1.000
T7C1.100
T8C1.200
T9C1.500
T10C1.600
T11C1.700
T12C3.000
%
G90
G05
T1
X55.626Y-26.289
X55.753Y-28.321
X56.261Y-24.765
X56.896Y-28.956
X57.15Y-71.628
X62.484Y-179.578
X63.119Y-23.114
X63.373Y-26.416
X64.897Y-47.498
X65.151Y-65.659
X66.421Y-90.17
X66.548Y-23.495
X70.739Y-22.733
X71.755Y-25.4
X72.136Y-88.519
X73.036Y-75.565
X73.279Y-85.09
X73.787Y-73.914
X73.939Y-84.534
X74.168Y-56.492
X74.422Y-63.119
X74.676Y-83.947
X75.438Y-83.439
X75.934Y-48.018
X76.327Y-83.312
X77.216Y-83.82
X77.597Y-58.547
X77.724Y-84.582
X78.359Y-47.368
X79.502Y-25.019
X86.57Y-179.622
X86.868Y-84.836
X88.138Y-71.501
X90.043Y-65.532
X90.678Y-67.325
X91.313Y-20.523
X91.313Y-91.567
X92.456Y-22.098
X98.044Y-82.423
X98.679Y-84.074
X99.568Y-82.931
X99.999Y-66.979
X100.457Y-82.931
X101.407Y-82.997
X101.473Y-19.812
X101.473Y-22.987
X101.473Y-35.941
X102.743Y-51.308
X103.124Y-68.707
X103.124Y-69.85
X107.442Y-35.56
X107.696Y-21.971
X108.585Y-27.686
X112.014Y-84.201
X112.185Y-179.622
X112.54Y-69.596
X115.062Y-66.04
X116.078Y-50.419
X116.078Y-84.201
X116.713Y-91.44
X118.11Y-27.813
X120.572Y-25.146
X121.285Y-27.813
X123.825Y-83.82
X124.206Y-63.219
X124.841Y-83.82
X125.476Y-50.419
X125.984Y-83.82
X126.492Y-71.501
X130.175Y-35.963
X130.683Y-36.83
X131.191Y-37.719
X131.826Y-38.608
X132.334Y-70.358
X132.461Y-135.763
X135.001Y-83.439
X137.839Y-179.622
X138.557Y-70.104
X139.74Y-55.992
X140.716Y-70.358
X141.478Y-34.417
X141.478Y-35.433
X141.478Y-36.449
X141.478Y-37.465
X141.478Y-38.481
X142.113Y-64.262
X142.113Y-83.439
X142.113Y-91.44
X144.09Y-71.7
X147.066Y-76.073
X149.225Y-66.802
X151.003Y-33.401
X151.13Y-26.416
X152.019Y-66.167
X152.781Y-53.975
X153.397Y-64.027
X153.67Y-33.528
X153.797Y-26.416
X156.337Y-179.07
X158.75Y-66.04
X160.147Y-15.367
X160.528Y-68.834
X160.909Y-42.799
X163.112Y-179.622
X163.322Y-66.04
X163.641Y-79.183
X164.719Y-74.803
X164.973Y-59.563
X165.735Y-84.328
X167.005Y-41.275
X167.64Y-63.881
X167.64Y-91.313
X168.783Y-84.328
X169.926Y-17.526
X169.926Y-20.955
X172.085Y-15.479
X172.72Y-83.566
X172.974Y-16.129
X173.101Y-62.738
X173.482Y-82.931
X174.894Y-44.831
X175.006Y-82.931
X175.514Y-90.17
X175.768Y-17.272
X177.546Y-57.912
X177.927Y-21.336
X178.181Y-50.292
X178.689Y-83.185
X178.689Y-84.201
X180.848Y-67.945
X184.023Y-21.59
X187.071Y-24.765
X188.214Y-84.836
X188.551Y-179.622
X188.976Y-67.437
X189.992Y-17.018
X189.992Y-20.574
X192.024Y-62.611
X192.913Y-91.313
X193.548Y-84.328
X196.723Y-20.701
X197.231Y-64.12
X197.866Y-83.947
X199.22Y-25.172
X200.66Y-70.485
X201.041Y-101.219
X201.549Y-56.515
X201.549Y-83.566
X202.057Y-35.433
X202.113Y-48.585
X202.349Y-83.566
X203.2Y-20.32
X203.2Y-83.566
X203.327Y-17.272
X203.327Y-66.548
X204.216Y-73.406
X204.216Y-83.566
X204.47Y-59.436
X204.724Y-52.07
X205.994Y-62.357
X205.994Y-88.392
X210.185Y-20.44
X211.201Y-24.892
X214.078Y-179.622
X216.408Y-16.891
X216.535Y-19.939
X216.535Y-62.738
X216.916Y-90.17
X217.17Y-22.479
X217.79Y-84.709
X222.25Y-22.352
X223.139Y-19.939
X224.028Y-24.892
X224.663Y-55.753
X225.425Y-84.455
X225.974Y-47.285
X226.187Y-83.82
X227.076Y-83.82
X227.084Y-65.42
X228.092Y-83.947
X228.346Y-73.406
X229.108Y-83.947
X229.616Y-74.93
X230.632Y-22.098
X231.532Y-22.098
X232.537Y-22.098
X233.337Y-22.098
X239.649Y-66.167
X240.665Y-179.578
X241.681Y-62.865
X242.062Y-90.17
T2
X57.15Y-57.785
X57.404Y-106.172
X58.42Y-109.728
X58.42Y-110.871
X58.42Y-112.014
X59.182Y-164.465
X61.722Y-129.794
X62.103Y-55.753
X65.659Y-131.052
X66.167Y-47.879
X66.421Y-140.97
X66.929Y-67.056
X67.818Y-64.897
X69.215Y-63.119
X71.501Y-165.735
X72.136Y-41.783
X78.613Y-45.339
X82.804Y-131.802
X87.63Y-128.397
X87.757Y-133.604
X88.138Y-136.779
X88.392Y-183.769
X88.9Y-58.039
X88.9Y-59.563
X89.281Y-137.922
X89.916Y-132.552
X91.567Y-39.497
X91.567Y-140.97
X93.853Y-65.913
X97.536Y-59.055
X97.663Y-65.151
X98.044Y-66.675
X98.171Y-72.771
X98.806Y-127.254
X99.06Y-46.609
X99.06Y-116.205
X99.568Y-48.641
X99.568Y-126.238
X100.076Y-115.189
X100.33Y-29.845
X100.33Y-127.127
X100.584Y-137.16
X100.838Y-117.221
X101.716Y-137.194
X101.727Y-157.607
X101.727Y-159.258
X101.981Y-44.323
X102.743Y-137.16
X102.87Y-126.619
X103.124Y-173.228
X103.759Y-125.984
X104.003Y-137.16
X104.013Y-176.149
X104.267Y-109.982
X105.002Y-137.187
X105.283Y-183.261
X106.045Y-137.16
X106.934Y-177.038
X108.585Y-43.053
X109.474Y-63.119
X110.744Y-67.564
X111.252Y-163.449
X111.252Y-164.592
X112.141Y-133.858
X113.141Y-133.858
X113.665Y-109.474
X116.586Y-141.478
X116.84Y-48.768
X117.475Y-76.708
X118.237Y-176.022
X118.872Y-43.18
X121.412Y-43.18
X122.301Y-49.911
X122.301Y-59.69
X122.44Y-68.834
X123.19Y-72.39
X123.571Y-46.609
X123.698Y-50.292
X129.159Y-114.935
X129.794Y-115.951
X130.429Y-116.84
X131.953Y-158.877
X132.207Y-125.603
X134.112Y-142.113
X136.525Y-63.246
X136.525Y-64.516
X136.95Y-125.647
X138.176Y-127.254
X138.811Y-135.89
X141.732Y-67.945
X142.113Y-141.732
X142.367Y-50.292
X142.84Y-61.595
X143.256Y-76.835
X143.764Y-54.991
X144.145Y-138.303
X144.526Y-60.579
X145.542Y-74.511
X145.923Y-160.147
X146.304Y-138.303
X146.812Y-43.434
X147.193Y-57.023
X147.193Y-67.564
X148.59Y-110.363
X148.828Y-43.86
X148.908Y-125.73
X149.733Y-43.434
X149.733Y-109.601
X149.908Y-125.73
X150.495Y-51.054
X150.495Y-63.119
X150.495Y-68.453
X150.876Y-56.769
X150.876Y-108.839
X150.908Y-125.73
X151.257Y-45.974
X151.511Y-41.402
X151.638Y-105.918
X151.908Y-125.73
X152.4Y-141.859
X152.908Y-125.73
X153.924Y-110.998
X153.924Y-125.73
X154.178Y-36.068
X154.178Y-56.769
X154.305Y-50.165
X154.305Y-67.818
X154.686Y-37.973
X154.686Y-43.688
X154.686Y-112.014
X154.94Y-125.73
X155.575Y-113.411
X155.94Y-125.73
X156.337Y-146.05
X156.464Y-114.808
X156.769Y-40.081
X156.972Y-131.953
X156.972Y-133.096
X157.353Y-42.291
X157.607Y-56.388
X157.734Y-44.069
X157.734Y-67.945
X157.875Y-45.059
X158.877Y-164.465
X160.02Y-33.909
X162.179Y-63.373
X162.56Y-22.733
X162.56Y-30.607
X163.195Y-62.484
X164.592Y-29.337
X166.116Y-141.732
X166.497Y-122.555
X166.497Y-123.952
X167.132Y-77.343
X168.402Y-52.197
X168.783Y-145.161
X171.45Y-59.817
X171.831Y-165.608
X171.958Y-77.077
X172.466Y-136.779
X173.101Y-36.703
X173.609Y-28.702
X174.244Y-30.48
X175.514Y-129.667
X175.514Y-135.001
X178.816Y-76.327
X179.578Y-64.008
X180.975Y-122.301
X184.15Y-166.497
X186.055Y-57.658
X187.325Y-57.658
X191.262Y-50.419
X191.516Y-141.605
X192.151Y-76.708
X192.278Y-121.793
X193.294Y-63.881
X193.421Y-51.054
X197.485Y-168.148
X197.866Y-137.414
X198.812Y-102.292
X199.263Y-132.334
X199.39Y-127.635
X199.771Y-115.697
X200.025Y-96.774
X200.533Y-126.238
X200.533Y-142.494
X201.295Y-117.475
X201.676Y-126.238
X201.803Y-137.16
X202.819Y-138.811
X203.073Y-39.624
X203.2Y-31.242
X203.708Y-151.257
X203.835Y-138.811
X204.851Y-138.811
X204.978Y-152.527
X205.74Y-97.155
X205.994Y-138.811
X206.629Y-124.841
X207.01Y-94.234
X207.01Y-123.444
X207.518Y-173.101
X207.899Y-122.555
X209.423Y-64.008
X210.82Y-42.926
X211.328Y-56.261
X212.217Y-57.15
X214.249Y-93.472
X214.376Y-63.373
X214.94Y-50.729
X216.281Y-49.022
X216.916Y-141.351
X217.551Y-66.929
X218.567Y-49.784
X220.726Y-66.421
X220.98Y-42.926
X221.234Y-174.625
X221.742Y-134.62
X221.869Y-162.687
X221.869Y-164.338
X221.869Y-165.862
X221.869Y-167.259
X222.885Y-134.62
X223.393Y-42.799
X224.028Y-134.62
X224.282Y-50.038
X224.663Y-45.885
X225.171Y-134.62
X229.87Y-110.49
X229.87Y-111.887
X229.87Y-113.411
X229.87Y-114.808
X234.188Y-29.845
X234.188Y-32.131
X234.442Y-154.178
X236.22Y-55.753
X237.109Y-56.642
X240.919Y-124.206
X242.189Y-48.006
X242.189Y-140.716
X242.824Y-65.786
X243.459Y-30.48
X244.729Y-48.387
X246.126Y-66.294
X246.888Y-153.162
T3
X150.277Y-98.171
X150.936Y-96.58
X150.936Y-99.762
X152.527Y-95.921
X152.527Y-100.421
X154.118Y-96.58
X154.118Y-99.762
X154.777Y-98.171
X73.95Y-176.022
X74.609Y-174.431
X74.609Y-177.613
X76.2Y-173.772
X76.2Y-178.272
X77.791Y-174.431
X77.791Y-177.613
X78.45Y-176.022
X226.35Y-176.022
X227.009Y-174.431
X227.009Y-177.613
X228.6Y-173.772
X228.6Y-178.272
X230.191Y-174.431
X230.191Y-177.613
X230.85Y-176.022
X239.05Y-38.1
X239.709Y-36.509
X239.709Y-39.691
X241.3Y-35.85
X241.3Y-40.35
X242.891Y-36.509
X242.891Y-39.691
X243.55Y-38.1
X60.996Y-38.1
X61.655Y-36.509
X61.655Y-39.691
X63.246Y-35.85
X63.246Y-40.35
X64.837Y-36.509
X64.837Y-39.691
X65.496Y-38.1
T4
X181.356Y-17.145
X183.356Y-17.145
X185.356Y-17.145
X207.01Y-34.163
X207.01Y-41.783
X209.55Y-34.163
X209.55Y-41.783
X212.09Y-34.163
X212.09Y-41.783
X214.63Y-34.163
X214.63Y-41.783
X217.17Y-34.163
X217.17Y-41.783
X219.71Y-34.163
X219.71Y-41.783
X222.25Y-34.163
X222.25Y-41.783
X224.79Y-34.163
X224.79Y-41.783
X227.33Y-34.163
X227.33Y-41.783
X194.564Y-17.145
X196.564Y-17.145
X198.564Y-17.145
X77.47Y-34.163
X77.47Y-41.783
X80.01Y-34.163
X80.01Y-41.783
X82.55Y-34.163
X82.55Y-41.783
X85.09Y-34.163
X85.09Y-41.783
X87.63Y-34.163
X87.63Y-41.783
X90.17Y-34.163
X90.17Y-41.783
X92.71Y-34.163
X92.71Y-41.783
X95.25Y-34.163
X95.25Y-41.783
X97.79Y-34.163
X97.79Y-41.783
X104.902Y-34.163
X104.902Y-41.783
X107.442Y-34.163
X107.442Y-41.783
X109.982Y-34.163
X109.982Y-41.783
X112.522Y-34.163
X112.522Y-41.783
X115.062Y-34.163
X115.062Y-41.783
X117.602Y-34.163
X117.602Y-41.783
X120.142Y-34.163
X120.142Y-41.783
X122.682Y-34.163
X122.682Y-41.783
X125.222Y-34.163
X125.222Y-41.783
X106.172Y-17.145
X108.172Y-17.145
X110.172Y-17.145
X179.07Y-34.163
X179.07Y-41.783
X181.61Y-34.163
X181.61Y-41.783
X184.15Y-34.163
X184.15Y-41.783
X186.69Y-34.163
X186.69Y-41.783
X189.23Y-34.163
X189.23Y-41.783
X191.77Y-34.163
X191.77Y-41.783
X194.31Y-34.163
X194.31Y-41.783
X196.85Y-34.163
X196.85Y-41.783
X199.39Y-34.163
X199.39Y-41.783
X79.756Y-17.145
X81.756Y-17.145
X83.756Y-17.145
X92.964Y-17.145
X94.964Y-17.145
X96.964Y-17.145
X220.98Y-17.145
X222.98Y-17.145
X224.98Y-17.145
X119.38Y-17.145
X121.38Y-17.145
X123.38Y-17.145
X207.84Y-17.145
X209.84Y-17.145
X211.84Y-17.145
T5
X177.8Y-23.5
X177.8Y-31.12
X180.34Y-23.5
X180.34Y-31.12
X182.88Y-23.5
X182.88Y-31.12
X185.42Y-23.5
X185.42Y-31.12
X187.96Y-23.5
X187.96Y-31.12
X190.5Y-23.5
X190.5Y-31.12
X193.04Y-23.5
X193.04Y-31.12
X195.58Y-23.5
X195.58Y-31.12
X198.12Y-23.5
X198.12Y-31.12
X200.66Y-23.5
X200.66Y-31.12
X205.74Y-23.495
X205.74Y-31.115
X208.28Y-23.495
X208.28Y-31.115
X210.82Y-23.495
X210.82Y-31.115
X213.36Y-23.495
X213.36Y-31.115
X215.9Y-23.495
X215.9Y-31.115
X218.44Y-23.495
X218.44Y-31.115
X220.98Y-23.495
X220.98Y-31.115
X223.52Y-23.495
X223.52Y-31.115
X226.06Y-23.495
X226.06Y-31.115
X228.6Y-23.495
X228.6Y-31.115
X76.14Y-23.5
X76.14Y-31.12
X78.68Y-23.5
X78.68Y-31.12
X81.22Y-23.5
X81.22Y-31.12
X83.76Y-23.5
X83.76Y-31.12
X86.3Y-23.5
X86.3Y-31.12
X88.84Y-23.5
X88.84Y-31.12
X91.38Y-23.5
X91.38Y-31.12
X93.92Y-23.5
X93.92Y-31.12
X96.46Y-23.5
X96.46Y-31.12
X99.0Y-23.5
X99.0Y-31.12
X103.632Y-23.495
X103.632Y-31.115
X106.172Y-23.495
X106.172Y-31.115
X108.712Y-23.495
X108.712Y-31.115
X111.252Y-23.495
X111.252Y-31.115
X113.792Y-23.495
X113.792Y-31.115
X116.332Y-23.495
X116.332Y-31.115
X118.872Y-23.495
X118.872Y-31.115
X121.412Y-23.495
X121.412Y-31.115
X123.952Y-23.495
X123.952Y-31.115
X126.492Y-23.495
X126.492Y-31.115
T6
X61.04Y-73.152
X61.04Y-87.652
X63.54Y-73.152
X66.04Y-73.152
X66.04Y-87.652
X111.84Y-45.212
X111.84Y-59.712
X114.34Y-45.212
X116.84Y-45.212
X116.84Y-59.712
X61.04Y-18.796
X63.54Y-18.796
X66.04Y-18.796
X86.44Y-45.212
X86.44Y-59.712
X88.94Y-45.212
X91.44Y-45.212
X91.44Y-59.712
X238.84Y-73.152
X238.84Y-87.652
X241.34Y-73.152
X243.84Y-73.152
X243.84Y-87.652
X137.24Y-45.212
X137.24Y-59.712
X139.74Y-45.212
X142.24Y-45.212
X142.24Y-59.712
X86.44Y-73.152
X86.44Y-87.652
X88.94Y-73.152
X91.44Y-73.152
X91.44Y-87.652
X142.24Y-17.78
X142.24Y-20.32
X144.78Y-17.78
X144.78Y-20.32
X147.32Y-17.78
X147.32Y-20.32
X149.86Y-17.78
X149.86Y-20.32
X152.4Y-17.78
X152.4Y-20.32
X154.94Y-17.78
X154.94Y-20.32
X157.48Y-17.78
X157.48Y-20.32
X160.02Y-17.78
X160.02Y-20.32
X162.56Y-17.78
X162.56Y-20.32
X165.1Y-17.78
X165.1Y-20.32
X188.04Y-45.212
X188.04Y-59.712
X190.54Y-45.212
X193.04Y-45.212
X193.04Y-59.712
X213.44Y-73.152
X213.44Y-87.652
X215.94Y-73.152
X218.44Y-73.152
X218.44Y-87.652
X111.84Y-73.152
X111.84Y-87.652
X114.34Y-73.152
X116.84Y-73.152
X116.84Y-87.652
X238.84Y-45.212
X238.84Y-59.712
X241.34Y-45.212
X243.84Y-45.212
X243.84Y-59.712
X213.44Y-45.212
X213.44Y-59.712
X215.94Y-45.212
X218.44Y-45.212
X218.44Y-59.712
X61.04Y-45.212
X61.04Y-59.712
X63.54Y-45.212
X66.04Y-45.212
X66.04Y-59.712
X137.24Y-73.152
X137.24Y-87.652
X139.74Y-73.152
X142.24Y-73.152
X142.24Y-87.652
X188.04Y-73.152
X188.04Y-87.652
X190.54Y-73.152
X193.04Y-73.152
X193.04Y-87.652
X238.84Y-18.796
X241.34Y-18.796
X243.84Y-18.796
X162.64Y-45.212
X162.64Y-59.712
X165.14Y-45.212
X167.64Y-45.212
X167.64Y-59.712
X162.64Y-73.152
X162.64Y-87.652
X165.14Y-73.152
X167.64Y-73.152
X167.64Y-87.652
T8
X61.75Y-102.292
X61.75Y-176.092
X65.25Y-176.092
X188.75Y-102.292
X188.75Y-176.092
X192.25Y-176.092
X163.35Y-102.292
X163.35Y-176.092
X166.85Y-176.092
X137.95Y-102.292
X137.95Y-176.092
X141.45Y-176.092
X112.55Y-102.292
X112.55Y-176.092
X116.05Y-176.092
X239.55Y-102.292
X239.55Y-176.092
X243.05Y-176.092
X87.15Y-102.292
X87.15Y-176.092
X90.65Y-176.092
X214.15Y-102.292
X214.15Y-176.092
X217.65Y-176.092
T9
X104.072Y-17.145
X112.272Y-17.145
X77.656Y-17.145
X85.856Y-17.145
X90.864Y-17.145
X99.064Y-17.145
X218.88Y-17.145
X227.08Y-17.145
X117.28Y-17.145
X125.48Y-17.145
X205.74Y-17.145
X213.94Y-17.145
X179.256Y-17.145
X187.456Y-17.145
X192.464Y-17.145
X200.664Y-17.145
T10
X194.75Y-106.592
X169.35Y-106.592
X245.55Y-106.592
X93.15Y-106.592
X67.75Y-106.592
X143.95Y-106.592
X118.55Y-106.592
X220.15Y-106.592
T11
X160.85Y-107.792
X160.85Y-170.592
X169.35Y-171.792
X135.45Y-107.792
X135.45Y-170.592
X143.95Y-171.792
X110.05Y-107.792
X110.05Y-170.592
X118.55Y-171.792
X237.05Y-107.792
X237.05Y-170.592
X245.55Y-171.792
X84.65Y-107.792
X84.65Y-170.592
X93.15Y-171.792
X211.65Y-107.792
X211.65Y-170.592
X220.15Y-171.792
X59.25Y-107.792
X59.25Y-170.592
X67.75Y-171.792
X186.25Y-107.792
X186.25Y-170.592
X194.75Y-171.792
T12
X76.2Y-176.022
X228.6Y-176.022
X241.3Y-38.1
X63.246Y-38.1
X152.527Y-98.171
T7
G00X236.54Y-25.946
M15
G01X236.54Y-26.646
M16
G05
G00X246.14Y-25.946
M15
G01X246.14Y-26.646
M16
G05
G00X58.74Y-25.946
M15
G01X58.74Y-26.646
M16
G05
G00X68.34Y-25.946
M15
G01X68.34Y-26.646
M16
G05
T9
G00X108.74Y-80.002
M15
G01X108.74Y-81.302
M16
G05
G00X119.94Y-80.002
M15
G01X119.94Y-81.302
M16
G05
G00X235.74Y-52.062
M15
G01X235.74Y-53.362
M16
G05
G00X246.94Y-52.062
M15
G01X246.94Y-53.362
M16
G05
G00X210.34Y-52.062
M15
G01X210.34Y-53.362
M16
G05
G00X221.54Y-52.062
M15
G01X221.54Y-53.362
M16
G05
G00X57.94Y-52.062
M15
G01X57.94Y-53.362
M16
G05
G00X69.14Y-52.062
M15
G01X69.14Y-53.362
M16
G05
G00X134.14Y-80.002
M15
G01X134.14Y-81.302
M16
G05
G00X145.34Y-80.002
M15
G01X145.34Y-81.302
M16
G05
G00X184.94Y-80.002
M15
G01X184.94Y-81.302
M16
G05
G00X196.14Y-80.002
M15
G01X196.14Y-81.302
M16
G05
G00X159.54Y-52.062
M15
G01X159.54Y-53.362
M16
G05
G00X170.74Y-52.062
M15
G01X170.74Y-53.362
M16
G05
G00X159.54Y-80.002
M15
G01X159.54Y-81.302
M16
G05
G00X170.74Y-80.002
M15
G01X170.74Y-81.302
M16
G05
G00X57.94Y-80.002
M15
G01X57.94Y-81.302
M16
G05
G00X69.14Y-80.002
M15
G01X69.14Y-81.302
M16
G05
G00X108.74Y-52.062
M15
G01X108.74Y-53.362
M16
G05
G00X119.94Y-52.062
M15
G01X119.94Y-53.362
M16
G05
G00X83.34Y-52.062
M15
G01X83.34Y-53.362
M16
G05
G00X94.54Y-52.062
M15
G01X94.54Y-53.362
M16
G05
G00X235.74Y-80.002
M15
G01X235.74Y-81.302
M16
G05
G00X246.94Y-80.002
M15
G01X246.94Y-81.302
M16
G05
G00X134.14Y-52.062
M15
G01X134.14Y-53.362
M16
G05
G00X145.34Y-52.062
M15
G01X145.34Y-53.362
M16
G05
G00X83.34Y-80.002
M15
G01X83.34Y-81.302
M16
G05
G00X94.54Y-80.002
M15
G01X94.54Y-81.302
M16
G05
G00X184.94Y-52.062
M15
G01X184.94Y-53.362
M16
G05
G00X196.14Y-52.062
M15
G01X196.14Y-53.362
M16
G05
G00X210.34Y-80.002
M15
G01X210.34Y-81.302
M16
G05
G00X221.54Y-80.002
M15
G01X221.54Y-81.302
M16
G05
T0
M30
