G04 #@! TF.GenerationSoftware,KiCad,Pcbnew,(5.1.4)-1*
G04 #@! TF.CreationDate,2019-10-13T10:06:27+02:00*
G04 #@! TF.ProjectId,ctrl_interface,6374726c-5f69-46e7-9465-72666163652e,rev?*
G04 #@! TF.SameCoordinates,Original*
G04 #@! TF.FileFunction,Legend,Top*
G04 #@! TF.FilePolarity,Positive*
%FSLAX46Y46*%
G04 Gerber Fmt 4.6, Leading zero omitted, Abs format (unit mm)*
G04 Created by KiCad (PCBNEW (5.1.4)-1) date 2019-10-13 10:06:27*
%MOMM*%
%LPD*%
G04 APERTURE LIST*
%ADD10C,0.500000*%
%ADD11C,1.000000*%
%ADD12C,2.000000*%
%ADD13C,0.120000*%
%ADD14C,0.150000*%
G04 APERTURE END LIST*
D10*
X230854285Y-45362857D02*
X230568571Y-45220000D01*
X230425714Y-45077142D01*
X230282857Y-44791428D01*
X230282857Y-44648571D01*
X230425714Y-44362857D01*
X230568571Y-44220000D01*
X230854285Y-44077142D01*
X231425714Y-44077142D01*
X231711428Y-44220000D01*
X231854285Y-44362857D01*
X231997142Y-44648571D01*
X231997142Y-44791428D01*
X231854285Y-45077142D01*
X231711428Y-45220000D01*
X231425714Y-45362857D01*
X230854285Y-45362857D01*
X230568571Y-45505714D01*
X230425714Y-45648571D01*
X230282857Y-45934285D01*
X230282857Y-46505714D01*
X230425714Y-46791428D01*
X230568571Y-46934285D01*
X230854285Y-47077142D01*
X231425714Y-47077142D01*
X231711428Y-46934285D01*
X231854285Y-46791428D01*
X231997142Y-46505714D01*
X231997142Y-45934285D01*
X231854285Y-45648571D01*
X231711428Y-45505714D01*
X231425714Y-45362857D01*
X225060000Y-44077142D02*
X227060000Y-44077142D01*
X225774285Y-47077142D01*
X201231428Y-44077142D02*
X200660000Y-44077142D01*
X200374285Y-44220000D01*
X200231428Y-44362857D01*
X199945714Y-44791428D01*
X199802857Y-45362857D01*
X199802857Y-46505714D01*
X199945714Y-46791428D01*
X200088571Y-46934285D01*
X200374285Y-47077142D01*
X200945714Y-47077142D01*
X201231428Y-46934285D01*
X201374285Y-46791428D01*
X201517142Y-46505714D01*
X201517142Y-45791428D01*
X201374285Y-45505714D01*
X201231428Y-45362857D01*
X200945714Y-45220000D01*
X200374285Y-45220000D01*
X200088571Y-45362857D01*
X199945714Y-45505714D01*
X199802857Y-45791428D01*
X175974285Y-44077142D02*
X174545714Y-44077142D01*
X174402857Y-45505714D01*
X174545714Y-45362857D01*
X174831428Y-45220000D01*
X175545714Y-45220000D01*
X175831428Y-45362857D01*
X175974285Y-45505714D01*
X176117142Y-45791428D01*
X176117142Y-46505714D01*
X175974285Y-46791428D01*
X175831428Y-46934285D01*
X175545714Y-47077142D01*
X174831428Y-47077142D01*
X174545714Y-46934285D01*
X174402857Y-46791428D01*
X150431428Y-45077142D02*
X150431428Y-47077142D01*
X149717142Y-43934285D02*
X149002857Y-46077142D01*
X150860000Y-46077142D01*
X123460000Y-44077142D02*
X125317142Y-44077142D01*
X124317142Y-45220000D01*
X124745714Y-45220000D01*
X125031428Y-45362857D01*
X125174285Y-45505714D01*
X125317142Y-45791428D01*
X125317142Y-46505714D01*
X125174285Y-46791428D01*
X125031428Y-46934285D01*
X124745714Y-47077142D01*
X123888571Y-47077142D01*
X123602857Y-46934285D01*
X123460000Y-46791428D01*
X98202857Y-44362857D02*
X98345714Y-44220000D01*
X98631428Y-44077142D01*
X99345714Y-44077142D01*
X99631428Y-44220000D01*
X99774285Y-44362857D01*
X99917142Y-44648571D01*
X99917142Y-44934285D01*
X99774285Y-45362857D01*
X98060000Y-47077142D01*
X99917142Y-47077142D01*
X74517142Y-47077142D02*
X72802857Y-47077142D01*
X73660000Y-47077142D02*
X73660000Y-44077142D01*
X73374285Y-44505714D01*
X73088571Y-44791428D01*
X72802857Y-44934285D01*
X195985714Y-36057142D02*
X196557142Y-36057142D01*
X196842857Y-36200000D01*
X197128571Y-36485714D01*
X197271428Y-37057142D01*
X197271428Y-38057142D01*
X197128571Y-38628571D01*
X196842857Y-38914285D01*
X196557142Y-39057142D01*
X195985714Y-39057142D01*
X195700000Y-38914285D01*
X195414285Y-38628571D01*
X195271428Y-38057142D01*
X195271428Y-37057142D01*
X195414285Y-36485714D01*
X195700000Y-36200000D01*
X195985714Y-36057142D01*
X198557142Y-36057142D02*
X198557142Y-38485714D01*
X198700000Y-38771428D01*
X198842857Y-38914285D01*
X199128571Y-39057142D01*
X199700000Y-39057142D01*
X199985714Y-38914285D01*
X200128571Y-38771428D01*
X200271428Y-38485714D01*
X200271428Y-36057142D01*
X201271428Y-36057142D02*
X202985714Y-36057142D01*
X202128571Y-39057142D02*
X202128571Y-36057142D01*
X203985714Y-39057142D02*
X203985714Y-36057142D01*
X205128571Y-36057142D01*
X205414285Y-36200000D01*
X205557142Y-36342857D01*
X205700000Y-36628571D01*
X205700000Y-37057142D01*
X205557142Y-37342857D01*
X205414285Y-37485714D01*
X205128571Y-37628571D01*
X203985714Y-37628571D01*
X206985714Y-36057142D02*
X206985714Y-38485714D01*
X207128571Y-38771428D01*
X207271428Y-38914285D01*
X207557142Y-39057142D01*
X208128571Y-39057142D01*
X208414285Y-38914285D01*
X208557142Y-38771428D01*
X208700000Y-38485714D01*
X208700000Y-36057142D01*
X209700000Y-36057142D02*
X211414285Y-36057142D01*
X210557142Y-39057142D02*
X210557142Y-36057142D01*
X95814285Y-39057142D02*
X95814285Y-36057142D01*
X97242857Y-39057142D02*
X97242857Y-36057142D01*
X98957142Y-39057142D01*
X98957142Y-36057142D01*
X100385714Y-39057142D02*
X100385714Y-36057142D01*
X101528571Y-36057142D01*
X101814285Y-36200000D01*
X101957142Y-36342857D01*
X102100000Y-36628571D01*
X102100000Y-37057142D01*
X101957142Y-37342857D01*
X101814285Y-37485714D01*
X101528571Y-37628571D01*
X100385714Y-37628571D01*
X103385714Y-36057142D02*
X103385714Y-38485714D01*
X103528571Y-38771428D01*
X103671428Y-38914285D01*
X103957142Y-39057142D01*
X104528571Y-39057142D01*
X104814285Y-38914285D01*
X104957142Y-38771428D01*
X105100000Y-38485714D01*
X105100000Y-36057142D01*
X106100000Y-36057142D02*
X107814285Y-36057142D01*
X106957142Y-39057142D02*
X106957142Y-36057142D01*
D11*
X57023000Y-40132000D02*
X247523000Y-40132000D01*
X127127000Y-45212000D02*
X127127000Y-179324000D01*
X152527000Y-45212000D02*
X152527000Y-179324000D01*
X228727000Y-45339000D02*
X228727000Y-179451000D01*
X203327000Y-45339000D02*
X203327000Y-179451000D01*
X177927000Y-45339000D02*
X177927000Y-179451000D01*
X101727000Y-45339000D02*
X101727000Y-179451000D01*
X76327000Y-45339000D02*
X76327000Y-179451000D01*
D12*
X54864000Y-184912000D02*
X249936000Y-184912000D01*
X54864000Y-15240000D02*
X249936000Y-15240000D01*
X249936000Y-15240000D02*
X249936000Y-184912000D01*
X54864000Y-15240000D02*
X54864000Y-184912000D01*
D13*
X215940000Y-80152000D02*
X215940000Y-81152000D01*
X216440000Y-80652000D02*
X215440000Y-80652000D01*
X212440000Y-86752000D02*
X210040000Y-86752000D01*
X217240000Y-86752000D02*
X214640000Y-86752000D01*
X221840000Y-86752000D02*
X219440000Y-86752000D01*
X220040000Y-73452000D02*
X219740000Y-73152000D01*
X220040000Y-72852000D02*
X220040000Y-73452000D01*
X219740000Y-73152000D02*
X220040000Y-72852000D01*
X221840000Y-74552000D02*
X210040000Y-74552000D01*
X221840000Y-78652000D02*
X221840000Y-74552000D01*
X210040000Y-78652000D02*
X210040000Y-74552000D01*
X210040000Y-86752000D02*
X210040000Y-82652000D01*
X221840000Y-82652000D02*
X221840000Y-86752000D01*
X218940000Y-80652000D02*
G75*
G03X218940000Y-80652000I-3000000J0D01*
G01*
X59000000Y-176692000D02*
X59000000Y-139192000D01*
X68000000Y-176692000D02*
X59000000Y-176692000D01*
X68000000Y-139192000D02*
X68000000Y-176692000D01*
X68000000Y-101692000D02*
X68000000Y-139192000D01*
X59000000Y-101692000D02*
X68000000Y-101692000D01*
X59000000Y-139192000D02*
X59000000Y-101692000D01*
X64100000Y-141692000D02*
X64100000Y-139192000D01*
X62900000Y-141692000D02*
X64100000Y-141692000D01*
X62900000Y-139192000D02*
X62900000Y-141692000D01*
X62900000Y-137992000D02*
X62900000Y-139192000D01*
X62900000Y-136692000D02*
X62900000Y-137992000D01*
X64100000Y-136692000D02*
X62900000Y-136692000D01*
X64100000Y-139192000D02*
X64100000Y-136692000D01*
X62000000Y-106692000D02*
X63500000Y-106692000D01*
X62000000Y-171692000D02*
X62000000Y-106692000D01*
X65000000Y-171692000D02*
X62000000Y-171692000D01*
X65000000Y-139192000D02*
X65000000Y-171692000D01*
X65000000Y-106692000D02*
X65000000Y-139192000D01*
X64400000Y-106692000D02*
X65000000Y-106692000D01*
X63500000Y-106692000D02*
X64400000Y-106692000D01*
X139700000Y-106692000D02*
X140600000Y-106692000D01*
X140600000Y-106692000D02*
X141200000Y-106692000D01*
X141200000Y-106692000D02*
X141200000Y-139192000D01*
X141200000Y-139192000D02*
X141200000Y-171692000D01*
X141200000Y-171692000D02*
X138200000Y-171692000D01*
X138200000Y-171692000D02*
X138200000Y-106692000D01*
X138200000Y-106692000D02*
X139700000Y-106692000D01*
X140300000Y-139192000D02*
X140300000Y-136692000D01*
X140300000Y-136692000D02*
X139100000Y-136692000D01*
X139100000Y-136692000D02*
X139100000Y-137992000D01*
X139100000Y-137992000D02*
X139100000Y-139192000D01*
X139100000Y-139192000D02*
X139100000Y-141692000D01*
X139100000Y-141692000D02*
X140300000Y-141692000D01*
X140300000Y-141692000D02*
X140300000Y-139192000D01*
X135200000Y-139192000D02*
X135200000Y-101692000D01*
X135200000Y-101692000D02*
X144200000Y-101692000D01*
X144200000Y-101692000D02*
X144200000Y-139192000D01*
X144200000Y-139192000D02*
X144200000Y-176692000D01*
X144200000Y-176692000D02*
X135200000Y-176692000D01*
X135200000Y-176692000D02*
X135200000Y-139192000D01*
X109800000Y-176692000D02*
X109800000Y-139192000D01*
X118800000Y-176692000D02*
X109800000Y-176692000D01*
X118800000Y-139192000D02*
X118800000Y-176692000D01*
X118800000Y-101692000D02*
X118800000Y-139192000D01*
X109800000Y-101692000D02*
X118800000Y-101692000D01*
X109800000Y-139192000D02*
X109800000Y-101692000D01*
X114900000Y-141692000D02*
X114900000Y-139192000D01*
X113700000Y-141692000D02*
X114900000Y-141692000D01*
X113700000Y-139192000D02*
X113700000Y-141692000D01*
X113700000Y-137992000D02*
X113700000Y-139192000D01*
X113700000Y-136692000D02*
X113700000Y-137992000D01*
X114900000Y-136692000D02*
X113700000Y-136692000D01*
X114900000Y-139192000D02*
X114900000Y-136692000D01*
X112800000Y-106692000D02*
X114300000Y-106692000D01*
X112800000Y-171692000D02*
X112800000Y-106692000D01*
X115800000Y-171692000D02*
X112800000Y-171692000D01*
X115800000Y-139192000D02*
X115800000Y-171692000D01*
X115800000Y-106692000D02*
X115800000Y-139192000D01*
X115200000Y-106692000D02*
X115800000Y-106692000D01*
X114300000Y-106692000D02*
X115200000Y-106692000D01*
X88900000Y-106692000D02*
X89800000Y-106692000D01*
X89800000Y-106692000D02*
X90400000Y-106692000D01*
X90400000Y-106692000D02*
X90400000Y-139192000D01*
X90400000Y-139192000D02*
X90400000Y-171692000D01*
X90400000Y-171692000D02*
X87400000Y-171692000D01*
X87400000Y-171692000D02*
X87400000Y-106692000D01*
X87400000Y-106692000D02*
X88900000Y-106692000D01*
X89500000Y-139192000D02*
X89500000Y-136692000D01*
X89500000Y-136692000D02*
X88300000Y-136692000D01*
X88300000Y-136692000D02*
X88300000Y-137992000D01*
X88300000Y-137992000D02*
X88300000Y-139192000D01*
X88300000Y-139192000D02*
X88300000Y-141692000D01*
X88300000Y-141692000D02*
X89500000Y-141692000D01*
X89500000Y-141692000D02*
X89500000Y-139192000D01*
X84400000Y-139192000D02*
X84400000Y-101692000D01*
X84400000Y-101692000D02*
X93400000Y-101692000D01*
X93400000Y-101692000D02*
X93400000Y-139192000D01*
X93400000Y-139192000D02*
X93400000Y-176692000D01*
X93400000Y-176692000D02*
X84400000Y-176692000D01*
X84400000Y-176692000D02*
X84400000Y-139192000D01*
X215940000Y-52212000D02*
X215940000Y-53212000D01*
X216440000Y-52712000D02*
X215440000Y-52712000D01*
X212440000Y-58812000D02*
X210040000Y-58812000D01*
X217240000Y-58812000D02*
X214640000Y-58812000D01*
X221840000Y-58812000D02*
X219440000Y-58812000D01*
X220040000Y-45512000D02*
X219740000Y-45212000D01*
X220040000Y-44912000D02*
X220040000Y-45512000D01*
X219740000Y-45212000D02*
X220040000Y-44912000D01*
X221840000Y-46612000D02*
X210040000Y-46612000D01*
X221840000Y-50712000D02*
X221840000Y-46612000D01*
X210040000Y-50712000D02*
X210040000Y-46612000D01*
X210040000Y-58812000D02*
X210040000Y-54712000D01*
X221840000Y-54712000D02*
X221840000Y-58812000D01*
X218940000Y-52712000D02*
G75*
G03X218940000Y-52712000I-3000000J0D01*
G01*
X168140000Y-52712000D02*
G75*
G03X168140000Y-52712000I-3000000J0D01*
G01*
X171040000Y-54712000D02*
X171040000Y-58812000D01*
X159240000Y-58812000D02*
X159240000Y-54712000D01*
X159240000Y-50712000D02*
X159240000Y-46612000D01*
X171040000Y-50712000D02*
X171040000Y-46612000D01*
X171040000Y-46612000D02*
X159240000Y-46612000D01*
X168940000Y-45212000D02*
X169240000Y-44912000D01*
X169240000Y-44912000D02*
X169240000Y-45512000D01*
X169240000Y-45512000D02*
X168940000Y-45212000D01*
X171040000Y-58812000D02*
X168640000Y-58812000D01*
X166440000Y-58812000D02*
X163840000Y-58812000D01*
X161640000Y-58812000D02*
X159240000Y-58812000D01*
X165640000Y-52712000D02*
X164640000Y-52712000D01*
X165140000Y-52212000D02*
X165140000Y-53212000D01*
X241300000Y-106692000D02*
X242200000Y-106692000D01*
X242200000Y-106692000D02*
X242800000Y-106692000D01*
X242800000Y-106692000D02*
X242800000Y-139192000D01*
X242800000Y-139192000D02*
X242800000Y-171692000D01*
X242800000Y-171692000D02*
X239800000Y-171692000D01*
X239800000Y-171692000D02*
X239800000Y-106692000D01*
X239800000Y-106692000D02*
X241300000Y-106692000D01*
X241900000Y-139192000D02*
X241900000Y-136692000D01*
X241900000Y-136692000D02*
X240700000Y-136692000D01*
X240700000Y-136692000D02*
X240700000Y-137992000D01*
X240700000Y-137992000D02*
X240700000Y-139192000D01*
X240700000Y-139192000D02*
X240700000Y-141692000D01*
X240700000Y-141692000D02*
X241900000Y-141692000D01*
X241900000Y-141692000D02*
X241900000Y-139192000D01*
X236800000Y-139192000D02*
X236800000Y-101692000D01*
X236800000Y-101692000D02*
X245800000Y-101692000D01*
X245800000Y-101692000D02*
X245800000Y-139192000D01*
X245800000Y-139192000D02*
X245800000Y-176692000D01*
X245800000Y-176692000D02*
X236800000Y-176692000D01*
X236800000Y-176692000D02*
X236800000Y-139192000D01*
X193540000Y-52712000D02*
G75*
G03X193540000Y-52712000I-3000000J0D01*
G01*
X196440000Y-54712000D02*
X196440000Y-58812000D01*
X184640000Y-58812000D02*
X184640000Y-54712000D01*
X184640000Y-50712000D02*
X184640000Y-46612000D01*
X196440000Y-50712000D02*
X196440000Y-46612000D01*
X196440000Y-46612000D02*
X184640000Y-46612000D01*
X194340000Y-45212000D02*
X194640000Y-44912000D01*
X194640000Y-44912000D02*
X194640000Y-45512000D01*
X194640000Y-45512000D02*
X194340000Y-45212000D01*
X196440000Y-58812000D02*
X194040000Y-58812000D01*
X191840000Y-58812000D02*
X189240000Y-58812000D01*
X187040000Y-58812000D02*
X184640000Y-58812000D01*
X191040000Y-52712000D02*
X190040000Y-52712000D01*
X190540000Y-52212000D02*
X190540000Y-53212000D01*
X66540000Y-52712000D02*
G75*
G03X66540000Y-52712000I-3000000J0D01*
G01*
X69440000Y-54712000D02*
X69440000Y-58812000D01*
X57640000Y-58812000D02*
X57640000Y-54712000D01*
X57640000Y-50712000D02*
X57640000Y-46612000D01*
X69440000Y-50712000D02*
X69440000Y-46612000D01*
X69440000Y-46612000D02*
X57640000Y-46612000D01*
X67340000Y-45212000D02*
X67640000Y-44912000D01*
X67640000Y-44912000D02*
X67640000Y-45512000D01*
X67640000Y-45512000D02*
X67340000Y-45212000D01*
X69440000Y-58812000D02*
X67040000Y-58812000D01*
X64840000Y-58812000D02*
X62240000Y-58812000D01*
X60040000Y-58812000D02*
X57640000Y-58812000D01*
X64040000Y-52712000D02*
X63040000Y-52712000D01*
X63540000Y-52212000D02*
X63540000Y-53212000D01*
X100410000Y-32530000D02*
X74730000Y-32530000D01*
X100410000Y-22090000D02*
X100410000Y-32530000D01*
X74730000Y-22090000D02*
X100410000Y-22090000D01*
X74730000Y-32530000D02*
X74730000Y-22090000D01*
X100700000Y-21800000D02*
X99000000Y-21800000D01*
X100700000Y-23500000D02*
X100700000Y-21800000D01*
X101932000Y-31115000D02*
X101932000Y-32815000D01*
X101932000Y-32815000D02*
X103632000Y-32815000D01*
X127902000Y-22085000D02*
X127902000Y-32525000D01*
X127902000Y-32525000D02*
X102222000Y-32525000D01*
X102222000Y-32525000D02*
X102222000Y-22085000D01*
X102222000Y-22085000D02*
X127902000Y-22085000D01*
X202360000Y-23500000D02*
X202360000Y-21800000D01*
X202360000Y-21800000D02*
X200660000Y-21800000D01*
X176390000Y-32530000D02*
X176390000Y-22090000D01*
X176390000Y-22090000D02*
X202070000Y-22090000D01*
X202070000Y-22090000D02*
X202070000Y-32530000D01*
X202070000Y-32530000D02*
X176390000Y-32530000D01*
X204330000Y-22085000D02*
X230010000Y-22085000D01*
X204330000Y-32525000D02*
X204330000Y-22085000D01*
X230010000Y-32525000D02*
X204330000Y-32525000D01*
X230010000Y-22085000D02*
X230010000Y-32525000D01*
X204040000Y-32815000D02*
X205740000Y-32815000D01*
X204040000Y-31115000D02*
X204040000Y-32815000D01*
X64578500Y-63048000D02*
X61893500Y-63048000D01*
X61893500Y-63048000D02*
X61893500Y-64968000D01*
X61893500Y-64968000D02*
X64578500Y-64968000D01*
X61893500Y-92908000D02*
X64578500Y-92908000D01*
X61893500Y-90988000D02*
X61893500Y-92908000D01*
X64578500Y-90988000D02*
X61893500Y-90988000D01*
X89978500Y-63048000D02*
X87293500Y-63048000D01*
X87293500Y-63048000D02*
X87293500Y-64968000D01*
X87293500Y-64968000D02*
X89978500Y-64968000D01*
X87293500Y-92908000D02*
X89978500Y-92908000D01*
X87293500Y-90988000D02*
X87293500Y-92908000D01*
X89978500Y-90988000D02*
X87293500Y-90988000D01*
X115378500Y-63048000D02*
X112693500Y-63048000D01*
X112693500Y-63048000D02*
X112693500Y-64968000D01*
X112693500Y-64968000D02*
X115378500Y-64968000D01*
X112693500Y-92908000D02*
X115378500Y-92908000D01*
X112693500Y-90988000D02*
X112693500Y-92908000D01*
X115378500Y-90988000D02*
X112693500Y-90988000D01*
X140778500Y-63048000D02*
X138093500Y-63048000D01*
X138093500Y-63048000D02*
X138093500Y-64968000D01*
X138093500Y-64968000D02*
X140778500Y-64968000D01*
X138093500Y-92908000D02*
X140778500Y-92908000D01*
X138093500Y-90988000D02*
X138093500Y-92908000D01*
X140778500Y-90988000D02*
X138093500Y-90988000D01*
X166178500Y-63048000D02*
X163493500Y-63048000D01*
X163493500Y-63048000D02*
X163493500Y-64968000D01*
X163493500Y-64968000D02*
X166178500Y-64968000D01*
X163493500Y-92908000D02*
X166178500Y-92908000D01*
X163493500Y-90988000D02*
X163493500Y-92908000D01*
X166178500Y-90988000D02*
X163493500Y-90988000D01*
X188893500Y-64968000D02*
X191578500Y-64968000D01*
X188893500Y-63048000D02*
X188893500Y-64968000D01*
X191578500Y-63048000D02*
X188893500Y-63048000D01*
X191578500Y-90988000D02*
X188893500Y-90988000D01*
X188893500Y-90988000D02*
X188893500Y-92908000D01*
X188893500Y-92908000D02*
X191578500Y-92908000D01*
X214293500Y-64968000D02*
X216978500Y-64968000D01*
X214293500Y-63048000D02*
X214293500Y-64968000D01*
X216978500Y-63048000D02*
X214293500Y-63048000D01*
X216978500Y-90988000D02*
X214293500Y-90988000D01*
X214293500Y-90988000D02*
X214293500Y-92908000D01*
X214293500Y-92908000D02*
X216978500Y-92908000D01*
X239693500Y-64968000D02*
X242378500Y-64968000D01*
X239693500Y-63048000D02*
X239693500Y-64968000D01*
X242378500Y-63048000D02*
X239693500Y-63048000D01*
X242378500Y-90988000D02*
X239693500Y-90988000D01*
X239693500Y-90988000D02*
X239693500Y-92908000D01*
X239693500Y-92908000D02*
X242378500Y-92908000D01*
X62820500Y-180904000D02*
X60135500Y-180904000D01*
X62820500Y-182824000D02*
X62820500Y-180904000D01*
X60135500Y-182824000D02*
X62820500Y-182824000D01*
X64405000Y-182824000D02*
X67090000Y-182824000D01*
X67090000Y-182824000D02*
X67090000Y-180904000D01*
X67090000Y-180904000D02*
X64405000Y-180904000D01*
X88172000Y-180904000D02*
X85487000Y-180904000D01*
X88172000Y-182824000D02*
X88172000Y-180904000D01*
X85487000Y-182824000D02*
X88172000Y-182824000D01*
X89805000Y-182824000D02*
X92490000Y-182824000D01*
X92490000Y-182824000D02*
X92490000Y-180904000D01*
X92490000Y-180904000D02*
X89805000Y-180904000D01*
X113826000Y-180904000D02*
X111141000Y-180904000D01*
X113826000Y-182824000D02*
X113826000Y-180904000D01*
X111141000Y-182824000D02*
X113826000Y-182824000D01*
X115459000Y-182824000D02*
X118144000Y-182824000D01*
X118144000Y-182824000D02*
X118144000Y-180904000D01*
X118144000Y-180904000D02*
X115459000Y-180904000D01*
X139226000Y-180904000D02*
X136541000Y-180904000D01*
X139226000Y-182824000D02*
X139226000Y-180904000D01*
X136541000Y-182824000D02*
X139226000Y-182824000D01*
X140859000Y-182824000D02*
X143544000Y-182824000D01*
X143544000Y-182824000D02*
X143544000Y-180904000D01*
X143544000Y-180904000D02*
X140859000Y-180904000D01*
X160600000Y-176692000D02*
X160600000Y-139192000D01*
X169600000Y-176692000D02*
X160600000Y-176692000D01*
X169600000Y-139192000D02*
X169600000Y-176692000D01*
X169600000Y-101692000D02*
X169600000Y-139192000D01*
X160600000Y-101692000D02*
X169600000Y-101692000D01*
X160600000Y-139192000D02*
X160600000Y-101692000D01*
X165700000Y-141692000D02*
X165700000Y-139192000D01*
X164500000Y-141692000D02*
X165700000Y-141692000D01*
X164500000Y-139192000D02*
X164500000Y-141692000D01*
X164500000Y-137992000D02*
X164500000Y-139192000D01*
X164500000Y-136692000D02*
X164500000Y-137992000D01*
X165700000Y-136692000D02*
X164500000Y-136692000D01*
X165700000Y-139192000D02*
X165700000Y-136692000D01*
X163600000Y-106692000D02*
X165100000Y-106692000D01*
X163600000Y-171692000D02*
X163600000Y-106692000D01*
X166600000Y-171692000D02*
X163600000Y-171692000D01*
X166600000Y-139192000D02*
X166600000Y-171692000D01*
X166600000Y-106692000D02*
X166600000Y-139192000D01*
X166000000Y-106692000D02*
X166600000Y-106692000D01*
X165100000Y-106692000D02*
X166000000Y-106692000D01*
X190500000Y-106692000D02*
X191400000Y-106692000D01*
X191400000Y-106692000D02*
X192000000Y-106692000D01*
X192000000Y-106692000D02*
X192000000Y-139192000D01*
X192000000Y-139192000D02*
X192000000Y-171692000D01*
X192000000Y-171692000D02*
X189000000Y-171692000D01*
X189000000Y-171692000D02*
X189000000Y-106692000D01*
X189000000Y-106692000D02*
X190500000Y-106692000D01*
X191100000Y-139192000D02*
X191100000Y-136692000D01*
X191100000Y-136692000D02*
X189900000Y-136692000D01*
X189900000Y-136692000D02*
X189900000Y-137992000D01*
X189900000Y-137992000D02*
X189900000Y-139192000D01*
X189900000Y-139192000D02*
X189900000Y-141692000D01*
X189900000Y-141692000D02*
X191100000Y-141692000D01*
X191100000Y-141692000D02*
X191100000Y-139192000D01*
X186000000Y-139192000D02*
X186000000Y-101692000D01*
X186000000Y-101692000D02*
X195000000Y-101692000D01*
X195000000Y-101692000D02*
X195000000Y-139192000D01*
X195000000Y-139192000D02*
X195000000Y-176692000D01*
X195000000Y-176692000D02*
X186000000Y-176692000D01*
X186000000Y-176692000D02*
X186000000Y-139192000D01*
X211400000Y-176692000D02*
X211400000Y-139192000D01*
X220400000Y-176692000D02*
X211400000Y-176692000D01*
X220400000Y-139192000D02*
X220400000Y-176692000D01*
X220400000Y-101692000D02*
X220400000Y-139192000D01*
X211400000Y-101692000D02*
X220400000Y-101692000D01*
X211400000Y-139192000D02*
X211400000Y-101692000D01*
X216500000Y-141692000D02*
X216500000Y-139192000D01*
X215300000Y-141692000D02*
X216500000Y-141692000D01*
X215300000Y-139192000D02*
X215300000Y-141692000D01*
X215300000Y-137992000D02*
X215300000Y-139192000D01*
X215300000Y-136692000D02*
X215300000Y-137992000D01*
X216500000Y-136692000D02*
X215300000Y-136692000D01*
X216500000Y-139192000D02*
X216500000Y-136692000D01*
X214400000Y-106692000D02*
X215900000Y-106692000D01*
X214400000Y-171692000D02*
X214400000Y-106692000D01*
X217400000Y-171692000D02*
X214400000Y-171692000D01*
X217400000Y-139192000D02*
X217400000Y-171692000D01*
X217400000Y-106692000D02*
X217400000Y-139192000D01*
X216800000Y-106692000D02*
X217400000Y-106692000D01*
X215900000Y-106692000D02*
X216800000Y-106692000D01*
X80256000Y-14185000D02*
X79256000Y-14185000D01*
X79756000Y-14685000D02*
X80256000Y-14185000D01*
X79256000Y-14185000D02*
X79756000Y-14685000D01*
X86166000Y-19405000D02*
X86166000Y-19095000D01*
X77346000Y-19405000D02*
X77346000Y-19095000D01*
X77346000Y-15195000D02*
X77346000Y-14885000D01*
X86166000Y-19405000D02*
X77346000Y-19405000D01*
X86166000Y-14885000D02*
X86166000Y-15195000D01*
X77346000Y-14885000D02*
X86166000Y-14885000D01*
X93464000Y-14185000D02*
X92464000Y-14185000D01*
X92964000Y-14685000D02*
X93464000Y-14185000D01*
X92464000Y-14185000D02*
X92964000Y-14685000D01*
X99374000Y-19405000D02*
X99374000Y-19095000D01*
X90554000Y-19405000D02*
X90554000Y-19095000D01*
X90554000Y-15195000D02*
X90554000Y-14885000D01*
X99374000Y-19405000D02*
X90554000Y-19405000D01*
X99374000Y-14885000D02*
X99374000Y-15195000D01*
X90554000Y-14885000D02*
X99374000Y-14885000D01*
X103762000Y-14885000D02*
X112582000Y-14885000D01*
X112582000Y-14885000D02*
X112582000Y-15195000D01*
X112582000Y-19405000D02*
X103762000Y-19405000D01*
X103762000Y-15195000D02*
X103762000Y-14885000D01*
X103762000Y-19405000D02*
X103762000Y-19095000D01*
X112582000Y-19405000D02*
X112582000Y-19095000D01*
X105672000Y-14185000D02*
X106172000Y-14685000D01*
X106172000Y-14685000D02*
X106672000Y-14185000D01*
X106672000Y-14185000D02*
X105672000Y-14185000D01*
X119880000Y-14185000D02*
X118880000Y-14185000D01*
X119380000Y-14685000D02*
X119880000Y-14185000D01*
X118880000Y-14185000D02*
X119380000Y-14685000D01*
X125790000Y-19405000D02*
X125790000Y-19095000D01*
X116970000Y-19405000D02*
X116970000Y-19095000D01*
X116970000Y-15195000D02*
X116970000Y-14885000D01*
X125790000Y-19405000D02*
X116970000Y-19405000D01*
X125790000Y-14885000D02*
X125790000Y-15195000D01*
X116970000Y-14885000D02*
X125790000Y-14885000D01*
X178946000Y-14885000D02*
X187766000Y-14885000D01*
X187766000Y-14885000D02*
X187766000Y-15195000D01*
X187766000Y-19405000D02*
X178946000Y-19405000D01*
X178946000Y-15195000D02*
X178946000Y-14885000D01*
X178946000Y-19405000D02*
X178946000Y-19095000D01*
X187766000Y-19405000D02*
X187766000Y-19095000D01*
X180856000Y-14185000D02*
X181356000Y-14685000D01*
X181356000Y-14685000D02*
X181856000Y-14185000D01*
X181856000Y-14185000D02*
X180856000Y-14185000D01*
X195064000Y-14185000D02*
X194064000Y-14185000D01*
X194564000Y-14685000D02*
X195064000Y-14185000D01*
X194064000Y-14185000D02*
X194564000Y-14685000D01*
X200974000Y-19405000D02*
X200974000Y-19095000D01*
X192154000Y-19405000D02*
X192154000Y-19095000D01*
X192154000Y-15195000D02*
X192154000Y-14885000D01*
X200974000Y-19405000D02*
X192154000Y-19405000D01*
X200974000Y-14885000D02*
X200974000Y-15195000D01*
X192154000Y-14885000D02*
X200974000Y-14885000D01*
X205430000Y-14885000D02*
X214250000Y-14885000D01*
X214250000Y-14885000D02*
X214250000Y-15195000D01*
X214250000Y-19405000D02*
X205430000Y-19405000D01*
X205430000Y-15195000D02*
X205430000Y-14885000D01*
X205430000Y-19405000D02*
X205430000Y-19095000D01*
X214250000Y-19405000D02*
X214250000Y-19095000D01*
X207340000Y-14185000D02*
X207840000Y-14685000D01*
X207840000Y-14685000D02*
X208340000Y-14185000D01*
X208340000Y-14185000D02*
X207340000Y-14185000D01*
X218570000Y-14885000D02*
X227390000Y-14885000D01*
X227390000Y-14885000D02*
X227390000Y-15195000D01*
X227390000Y-19405000D02*
X218570000Y-19405000D01*
X218570000Y-15195000D02*
X218570000Y-14885000D01*
X218570000Y-19405000D02*
X218570000Y-19095000D01*
X227390000Y-19405000D02*
X227390000Y-19095000D01*
X220480000Y-14185000D02*
X220980000Y-14685000D01*
X220980000Y-14685000D02*
X221480000Y-14185000D01*
X221480000Y-14185000D02*
X220480000Y-14185000D01*
X63540000Y-80152000D02*
X63540000Y-81152000D01*
X64040000Y-80652000D02*
X63040000Y-80652000D01*
X60040000Y-86752000D02*
X57640000Y-86752000D01*
X64840000Y-86752000D02*
X62240000Y-86752000D01*
X69440000Y-86752000D02*
X67040000Y-86752000D01*
X67640000Y-73452000D02*
X67340000Y-73152000D01*
X67640000Y-72852000D02*
X67640000Y-73452000D01*
X67340000Y-73152000D02*
X67640000Y-72852000D01*
X69440000Y-74552000D02*
X57640000Y-74552000D01*
X69440000Y-78652000D02*
X69440000Y-74552000D01*
X57640000Y-78652000D02*
X57640000Y-74552000D01*
X57640000Y-86752000D02*
X57640000Y-82652000D01*
X69440000Y-82652000D02*
X69440000Y-86752000D01*
X66540000Y-80652000D02*
G75*
G03X66540000Y-80652000I-3000000J0D01*
G01*
X91940000Y-52712000D02*
G75*
G03X91940000Y-52712000I-3000000J0D01*
G01*
X94840000Y-54712000D02*
X94840000Y-58812000D01*
X83040000Y-58812000D02*
X83040000Y-54712000D01*
X83040000Y-50712000D02*
X83040000Y-46612000D01*
X94840000Y-50712000D02*
X94840000Y-46612000D01*
X94840000Y-46612000D02*
X83040000Y-46612000D01*
X92740000Y-45212000D02*
X93040000Y-44912000D01*
X93040000Y-44912000D02*
X93040000Y-45512000D01*
X93040000Y-45512000D02*
X92740000Y-45212000D01*
X94840000Y-58812000D02*
X92440000Y-58812000D01*
X90240000Y-58812000D02*
X87640000Y-58812000D01*
X85440000Y-58812000D02*
X83040000Y-58812000D01*
X89440000Y-52712000D02*
X88440000Y-52712000D01*
X88940000Y-52212000D02*
X88940000Y-53212000D01*
X88940000Y-80152000D02*
X88940000Y-81152000D01*
X89440000Y-80652000D02*
X88440000Y-80652000D01*
X85440000Y-86752000D02*
X83040000Y-86752000D01*
X90240000Y-86752000D02*
X87640000Y-86752000D01*
X94840000Y-86752000D02*
X92440000Y-86752000D01*
X93040000Y-73452000D02*
X92740000Y-73152000D01*
X93040000Y-72852000D02*
X93040000Y-73452000D01*
X92740000Y-73152000D02*
X93040000Y-72852000D01*
X94840000Y-74552000D02*
X83040000Y-74552000D01*
X94840000Y-78652000D02*
X94840000Y-74552000D01*
X83040000Y-78652000D02*
X83040000Y-74552000D01*
X83040000Y-86752000D02*
X83040000Y-82652000D01*
X94840000Y-82652000D02*
X94840000Y-86752000D01*
X91940000Y-80652000D02*
G75*
G03X91940000Y-80652000I-3000000J0D01*
G01*
X117340000Y-52712000D02*
G75*
G03X117340000Y-52712000I-3000000J0D01*
G01*
X120240000Y-54712000D02*
X120240000Y-58812000D01*
X108440000Y-58812000D02*
X108440000Y-54712000D01*
X108440000Y-50712000D02*
X108440000Y-46612000D01*
X120240000Y-50712000D02*
X120240000Y-46612000D01*
X120240000Y-46612000D02*
X108440000Y-46612000D01*
X118140000Y-45212000D02*
X118440000Y-44912000D01*
X118440000Y-44912000D02*
X118440000Y-45512000D01*
X118440000Y-45512000D02*
X118140000Y-45212000D01*
X120240000Y-58812000D02*
X117840000Y-58812000D01*
X115640000Y-58812000D02*
X113040000Y-58812000D01*
X110840000Y-58812000D02*
X108440000Y-58812000D01*
X114840000Y-52712000D02*
X113840000Y-52712000D01*
X114340000Y-52212000D02*
X114340000Y-53212000D01*
X114340000Y-80152000D02*
X114340000Y-81152000D01*
X114840000Y-80652000D02*
X113840000Y-80652000D01*
X110840000Y-86752000D02*
X108440000Y-86752000D01*
X115640000Y-86752000D02*
X113040000Y-86752000D01*
X120240000Y-86752000D02*
X117840000Y-86752000D01*
X118440000Y-73452000D02*
X118140000Y-73152000D01*
X118440000Y-72852000D02*
X118440000Y-73452000D01*
X118140000Y-73152000D02*
X118440000Y-72852000D01*
X120240000Y-74552000D02*
X108440000Y-74552000D01*
X120240000Y-78652000D02*
X120240000Y-74552000D01*
X108440000Y-78652000D02*
X108440000Y-74552000D01*
X108440000Y-86752000D02*
X108440000Y-82652000D01*
X120240000Y-82652000D02*
X120240000Y-86752000D01*
X117340000Y-80652000D02*
G75*
G03X117340000Y-80652000I-3000000J0D01*
G01*
X142740000Y-52712000D02*
G75*
G03X142740000Y-52712000I-3000000J0D01*
G01*
X145640000Y-54712000D02*
X145640000Y-58812000D01*
X133840000Y-58812000D02*
X133840000Y-54712000D01*
X133840000Y-50712000D02*
X133840000Y-46612000D01*
X145640000Y-50712000D02*
X145640000Y-46612000D01*
X145640000Y-46612000D02*
X133840000Y-46612000D01*
X143540000Y-45212000D02*
X143840000Y-44912000D01*
X143840000Y-44912000D02*
X143840000Y-45512000D01*
X143840000Y-45512000D02*
X143540000Y-45212000D01*
X145640000Y-58812000D02*
X143240000Y-58812000D01*
X141040000Y-58812000D02*
X138440000Y-58812000D01*
X136240000Y-58812000D02*
X133840000Y-58812000D01*
X140240000Y-52712000D02*
X139240000Y-52712000D01*
X139740000Y-52212000D02*
X139740000Y-53212000D01*
X142740000Y-80652000D02*
G75*
G03X142740000Y-80652000I-3000000J0D01*
G01*
X145640000Y-82652000D02*
X145640000Y-86752000D01*
X133840000Y-86752000D02*
X133840000Y-82652000D01*
X133840000Y-78652000D02*
X133840000Y-74552000D01*
X145640000Y-78652000D02*
X145640000Y-74552000D01*
X145640000Y-74552000D02*
X133840000Y-74552000D01*
X143540000Y-73152000D02*
X143840000Y-72852000D01*
X143840000Y-72852000D02*
X143840000Y-73452000D01*
X143840000Y-73452000D02*
X143540000Y-73152000D01*
X145640000Y-86752000D02*
X143240000Y-86752000D01*
X141040000Y-86752000D02*
X138440000Y-86752000D01*
X136240000Y-86752000D02*
X133840000Y-86752000D01*
X140240000Y-80652000D02*
X139240000Y-80652000D01*
X139740000Y-80152000D02*
X139740000Y-81152000D01*
X165140000Y-80152000D02*
X165140000Y-81152000D01*
X165640000Y-80652000D02*
X164640000Y-80652000D01*
X161640000Y-86752000D02*
X159240000Y-86752000D01*
X166440000Y-86752000D02*
X163840000Y-86752000D01*
X171040000Y-86752000D02*
X168640000Y-86752000D01*
X169240000Y-73452000D02*
X168940000Y-73152000D01*
X169240000Y-72852000D02*
X169240000Y-73452000D01*
X168940000Y-73152000D02*
X169240000Y-72852000D01*
X171040000Y-74552000D02*
X159240000Y-74552000D01*
X171040000Y-78652000D02*
X171040000Y-74552000D01*
X159240000Y-78652000D02*
X159240000Y-74552000D01*
X159240000Y-86752000D02*
X159240000Y-82652000D01*
X171040000Y-82652000D02*
X171040000Y-86752000D01*
X168140000Y-80652000D02*
G75*
G03X168140000Y-80652000I-3000000J0D01*
G01*
X190540000Y-80152000D02*
X190540000Y-81152000D01*
X191040000Y-80652000D02*
X190040000Y-80652000D01*
X187040000Y-86752000D02*
X184640000Y-86752000D01*
X191840000Y-86752000D02*
X189240000Y-86752000D01*
X196440000Y-86752000D02*
X194040000Y-86752000D01*
X194640000Y-73452000D02*
X194340000Y-73152000D01*
X194640000Y-72852000D02*
X194640000Y-73452000D01*
X194340000Y-73152000D02*
X194640000Y-72852000D01*
X196440000Y-74552000D02*
X184640000Y-74552000D01*
X196440000Y-78652000D02*
X196440000Y-74552000D01*
X184640000Y-78652000D02*
X184640000Y-74552000D01*
X184640000Y-86752000D02*
X184640000Y-82652000D01*
X196440000Y-82652000D02*
X196440000Y-86752000D01*
X193540000Y-80652000D02*
G75*
G03X193540000Y-80652000I-3000000J0D01*
G01*
X244340000Y-52712000D02*
G75*
G03X244340000Y-52712000I-3000000J0D01*
G01*
X247240000Y-54712000D02*
X247240000Y-58812000D01*
X235440000Y-58812000D02*
X235440000Y-54712000D01*
X235440000Y-50712000D02*
X235440000Y-46612000D01*
X247240000Y-50712000D02*
X247240000Y-46612000D01*
X247240000Y-46612000D02*
X235440000Y-46612000D01*
X245140000Y-45212000D02*
X245440000Y-44912000D01*
X245440000Y-44912000D02*
X245440000Y-45512000D01*
X245440000Y-45512000D02*
X245140000Y-45212000D01*
X247240000Y-58812000D02*
X244840000Y-58812000D01*
X242640000Y-58812000D02*
X240040000Y-58812000D01*
X237840000Y-58812000D02*
X235440000Y-58812000D01*
X241840000Y-52712000D02*
X240840000Y-52712000D01*
X241340000Y-52212000D02*
X241340000Y-53212000D01*
X241340000Y-80152000D02*
X241340000Y-81152000D01*
X241840000Y-80652000D02*
X240840000Y-80652000D01*
X237840000Y-86752000D02*
X235440000Y-86752000D01*
X242640000Y-86752000D02*
X240040000Y-86752000D01*
X247240000Y-86752000D02*
X244840000Y-86752000D01*
X245440000Y-73452000D02*
X245140000Y-73152000D01*
X245440000Y-72852000D02*
X245440000Y-73452000D01*
X245140000Y-73152000D02*
X245440000Y-72852000D01*
X247240000Y-74552000D02*
X235440000Y-74552000D01*
X247240000Y-78652000D02*
X247240000Y-74552000D01*
X235440000Y-78652000D02*
X235440000Y-74552000D01*
X235440000Y-86752000D02*
X235440000Y-82652000D01*
X247240000Y-82652000D02*
X247240000Y-86752000D01*
X244340000Y-80652000D02*
G75*
G03X244340000Y-80652000I-3000000J0D01*
G01*
X140910000Y-21650000D02*
X140910000Y-19050000D01*
X140910000Y-21650000D02*
X166430000Y-21650000D01*
X166430000Y-21650000D02*
X166430000Y-16450000D01*
X143510000Y-16450000D02*
X166430000Y-16450000D01*
X143510000Y-19050000D02*
X143510000Y-16450000D01*
X140910000Y-19050000D02*
X143510000Y-19050000D01*
X140910000Y-16450000D02*
X142240000Y-16450000D01*
X140910000Y-17780000D02*
X140910000Y-16450000D01*
X61880000Y-19676000D02*
X62710000Y-19676000D01*
X64330000Y-19676000D02*
X64860000Y-19676000D01*
X67230000Y-19676000D02*
X68410000Y-19676000D01*
X58670000Y-19676000D02*
X58670000Y-24396000D01*
X68410000Y-28206000D02*
X68410000Y-31266000D01*
X68420000Y-19676000D02*
X68420000Y-24396000D01*
X58670000Y-28206000D02*
X58670000Y-31266000D01*
X58670000Y-19676000D02*
X60160000Y-19676000D01*
X58670000Y-31266000D02*
X68410000Y-31266000D01*
X236470000Y-31266000D02*
X246210000Y-31266000D01*
X236470000Y-19676000D02*
X237960000Y-19676000D01*
X236470000Y-28206000D02*
X236470000Y-31266000D01*
X246220000Y-19676000D02*
X246220000Y-24396000D01*
X246210000Y-28206000D02*
X246210000Y-31266000D01*
X236470000Y-19676000D02*
X236470000Y-24396000D01*
X245030000Y-19676000D02*
X246210000Y-19676000D01*
X242130000Y-19676000D02*
X242660000Y-19676000D01*
X239680000Y-19676000D02*
X240510000Y-19676000D01*
X161941000Y-182824000D02*
X164626000Y-182824000D01*
X164626000Y-182824000D02*
X164626000Y-180904000D01*
X164626000Y-180904000D02*
X161941000Y-180904000D01*
X168944000Y-180904000D02*
X166259000Y-180904000D01*
X168944000Y-182824000D02*
X168944000Y-180904000D01*
X166259000Y-182824000D02*
X168944000Y-182824000D01*
X187214000Y-182824000D02*
X189899000Y-182824000D01*
X189899000Y-182824000D02*
X189899000Y-180904000D01*
X189899000Y-180904000D02*
X187214000Y-180904000D01*
X194217000Y-180904000D02*
X191532000Y-180904000D01*
X194217000Y-182824000D02*
X194217000Y-180904000D01*
X191532000Y-182824000D02*
X194217000Y-182824000D01*
X212614000Y-182824000D02*
X215299000Y-182824000D01*
X215299000Y-182824000D02*
X215299000Y-180904000D01*
X215299000Y-180904000D02*
X212614000Y-180904000D01*
X219617000Y-180904000D02*
X216932000Y-180904000D01*
X219617000Y-182824000D02*
X219617000Y-180904000D01*
X216932000Y-182824000D02*
X219617000Y-182824000D01*
X238014000Y-182824000D02*
X240699000Y-182824000D01*
X240699000Y-182824000D02*
X240699000Y-180904000D01*
X240699000Y-180904000D02*
X238014000Y-180904000D01*
X245017000Y-180904000D02*
X242332000Y-180904000D01*
X245017000Y-182824000D02*
X245017000Y-180904000D01*
X242332000Y-182824000D02*
X245017000Y-182824000D01*
D14*
X80507666Y-20782761D02*
X80650523Y-20830380D01*
X80888619Y-20830380D01*
X80983857Y-20782761D01*
X81031476Y-20735142D01*
X81079095Y-20639904D01*
X81079095Y-20544666D01*
X81031476Y-20449428D01*
X80983857Y-20401809D01*
X80888619Y-20354190D01*
X80698142Y-20306571D01*
X80602904Y-20258952D01*
X80555285Y-20211333D01*
X80507666Y-20116095D01*
X80507666Y-20020857D01*
X80555285Y-19925619D01*
X80602904Y-19878000D01*
X80698142Y-19830380D01*
X80936238Y-19830380D01*
X81079095Y-19878000D01*
X81412428Y-19830380D02*
X81650523Y-20830380D01*
X81841000Y-20116095D01*
X82031476Y-20830380D01*
X82269571Y-19830380D01*
X83174333Y-20830380D02*
X82602904Y-20830380D01*
X82888619Y-20830380D02*
X82888619Y-19830380D01*
X82793380Y-19973238D01*
X82698142Y-20068476D01*
X82602904Y-20116095D01*
X93715666Y-20782761D02*
X93858523Y-20830380D01*
X94096619Y-20830380D01*
X94191857Y-20782761D01*
X94239476Y-20735142D01*
X94287095Y-20639904D01*
X94287095Y-20544666D01*
X94239476Y-20449428D01*
X94191857Y-20401809D01*
X94096619Y-20354190D01*
X93906142Y-20306571D01*
X93810904Y-20258952D01*
X93763285Y-20211333D01*
X93715666Y-20116095D01*
X93715666Y-20020857D01*
X93763285Y-19925619D01*
X93810904Y-19878000D01*
X93906142Y-19830380D01*
X94144238Y-19830380D01*
X94287095Y-19878000D01*
X94620428Y-19830380D02*
X94858523Y-20830380D01*
X95049000Y-20116095D01*
X95239476Y-20830380D01*
X95477571Y-19830380D01*
X95810904Y-19925619D02*
X95858523Y-19878000D01*
X95953761Y-19830380D01*
X96191857Y-19830380D01*
X96287095Y-19878000D01*
X96334714Y-19925619D01*
X96382333Y-20020857D01*
X96382333Y-20116095D01*
X96334714Y-20258952D01*
X95763285Y-20830380D01*
X96382333Y-20830380D01*
X106923666Y-20782761D02*
X107066523Y-20830380D01*
X107304619Y-20830380D01*
X107399857Y-20782761D01*
X107447476Y-20735142D01*
X107495095Y-20639904D01*
X107495095Y-20544666D01*
X107447476Y-20449428D01*
X107399857Y-20401809D01*
X107304619Y-20354190D01*
X107114142Y-20306571D01*
X107018904Y-20258952D01*
X106971285Y-20211333D01*
X106923666Y-20116095D01*
X106923666Y-20020857D01*
X106971285Y-19925619D01*
X107018904Y-19878000D01*
X107114142Y-19830380D01*
X107352238Y-19830380D01*
X107495095Y-19878000D01*
X107828428Y-19830380D02*
X108066523Y-20830380D01*
X108257000Y-20116095D01*
X108447476Y-20830380D01*
X108685571Y-19830380D01*
X108971285Y-19830380D02*
X109590333Y-19830380D01*
X109257000Y-20211333D01*
X109399857Y-20211333D01*
X109495095Y-20258952D01*
X109542714Y-20306571D01*
X109590333Y-20401809D01*
X109590333Y-20639904D01*
X109542714Y-20735142D01*
X109495095Y-20782761D01*
X109399857Y-20830380D01*
X109114142Y-20830380D01*
X109018904Y-20782761D01*
X108971285Y-20735142D01*
X120131666Y-20782761D02*
X120274523Y-20830380D01*
X120512619Y-20830380D01*
X120607857Y-20782761D01*
X120655476Y-20735142D01*
X120703095Y-20639904D01*
X120703095Y-20544666D01*
X120655476Y-20449428D01*
X120607857Y-20401809D01*
X120512619Y-20354190D01*
X120322142Y-20306571D01*
X120226904Y-20258952D01*
X120179285Y-20211333D01*
X120131666Y-20116095D01*
X120131666Y-20020857D01*
X120179285Y-19925619D01*
X120226904Y-19878000D01*
X120322142Y-19830380D01*
X120560238Y-19830380D01*
X120703095Y-19878000D01*
X121036428Y-19830380D02*
X121274523Y-20830380D01*
X121465000Y-20116095D01*
X121655476Y-20830380D01*
X121893571Y-19830380D01*
X122703095Y-20163714D02*
X122703095Y-20830380D01*
X122465000Y-19782761D02*
X122226904Y-20497047D01*
X122845952Y-20497047D01*
X182107666Y-20782761D02*
X182250523Y-20830380D01*
X182488619Y-20830380D01*
X182583857Y-20782761D01*
X182631476Y-20735142D01*
X182679095Y-20639904D01*
X182679095Y-20544666D01*
X182631476Y-20449428D01*
X182583857Y-20401809D01*
X182488619Y-20354190D01*
X182298142Y-20306571D01*
X182202904Y-20258952D01*
X182155285Y-20211333D01*
X182107666Y-20116095D01*
X182107666Y-20020857D01*
X182155285Y-19925619D01*
X182202904Y-19878000D01*
X182298142Y-19830380D01*
X182536238Y-19830380D01*
X182679095Y-19878000D01*
X183012428Y-19830380D02*
X183250523Y-20830380D01*
X183441000Y-20116095D01*
X183631476Y-20830380D01*
X183869571Y-19830380D01*
X184726714Y-19830380D02*
X184250523Y-19830380D01*
X184202904Y-20306571D01*
X184250523Y-20258952D01*
X184345761Y-20211333D01*
X184583857Y-20211333D01*
X184679095Y-20258952D01*
X184726714Y-20306571D01*
X184774333Y-20401809D01*
X184774333Y-20639904D01*
X184726714Y-20735142D01*
X184679095Y-20782761D01*
X184583857Y-20830380D01*
X184345761Y-20830380D01*
X184250523Y-20782761D01*
X184202904Y-20735142D01*
X195315666Y-20782761D02*
X195458523Y-20830380D01*
X195696619Y-20830380D01*
X195791857Y-20782761D01*
X195839476Y-20735142D01*
X195887095Y-20639904D01*
X195887095Y-20544666D01*
X195839476Y-20449428D01*
X195791857Y-20401809D01*
X195696619Y-20354190D01*
X195506142Y-20306571D01*
X195410904Y-20258952D01*
X195363285Y-20211333D01*
X195315666Y-20116095D01*
X195315666Y-20020857D01*
X195363285Y-19925619D01*
X195410904Y-19878000D01*
X195506142Y-19830380D01*
X195744238Y-19830380D01*
X195887095Y-19878000D01*
X196220428Y-19830380D02*
X196458523Y-20830380D01*
X196649000Y-20116095D01*
X196839476Y-20830380D01*
X197077571Y-19830380D01*
X197887095Y-19830380D02*
X197696619Y-19830380D01*
X197601380Y-19878000D01*
X197553761Y-19925619D01*
X197458523Y-20068476D01*
X197410904Y-20258952D01*
X197410904Y-20639904D01*
X197458523Y-20735142D01*
X197506142Y-20782761D01*
X197601380Y-20830380D01*
X197791857Y-20830380D01*
X197887095Y-20782761D01*
X197934714Y-20735142D01*
X197982333Y-20639904D01*
X197982333Y-20401809D01*
X197934714Y-20306571D01*
X197887095Y-20258952D01*
X197791857Y-20211333D01*
X197601380Y-20211333D01*
X197506142Y-20258952D01*
X197458523Y-20306571D01*
X197410904Y-20401809D01*
X208591666Y-20782761D02*
X208734523Y-20830380D01*
X208972619Y-20830380D01*
X209067857Y-20782761D01*
X209115476Y-20735142D01*
X209163095Y-20639904D01*
X209163095Y-20544666D01*
X209115476Y-20449428D01*
X209067857Y-20401809D01*
X208972619Y-20354190D01*
X208782142Y-20306571D01*
X208686904Y-20258952D01*
X208639285Y-20211333D01*
X208591666Y-20116095D01*
X208591666Y-20020857D01*
X208639285Y-19925619D01*
X208686904Y-19878000D01*
X208782142Y-19830380D01*
X209020238Y-19830380D01*
X209163095Y-19878000D01*
X209496428Y-19830380D02*
X209734523Y-20830380D01*
X209925000Y-20116095D01*
X210115476Y-20830380D01*
X210353571Y-19830380D01*
X210639285Y-19830380D02*
X211305952Y-19830380D01*
X210877380Y-20830380D01*
X221731666Y-20782761D02*
X221874523Y-20830380D01*
X222112619Y-20830380D01*
X222207857Y-20782761D01*
X222255476Y-20735142D01*
X222303095Y-20639904D01*
X222303095Y-20544666D01*
X222255476Y-20449428D01*
X222207857Y-20401809D01*
X222112619Y-20354190D01*
X221922142Y-20306571D01*
X221826904Y-20258952D01*
X221779285Y-20211333D01*
X221731666Y-20116095D01*
X221731666Y-20020857D01*
X221779285Y-19925619D01*
X221826904Y-19878000D01*
X221922142Y-19830380D01*
X222160238Y-19830380D01*
X222303095Y-19878000D01*
X222636428Y-19830380D02*
X222874523Y-20830380D01*
X223065000Y-20116095D01*
X223255476Y-20830380D01*
X223493571Y-19830380D01*
X224017380Y-20258952D02*
X223922142Y-20211333D01*
X223874523Y-20163714D01*
X223826904Y-20068476D01*
X223826904Y-20020857D01*
X223874523Y-19925619D01*
X223922142Y-19878000D01*
X224017380Y-19830380D01*
X224207857Y-19830380D01*
X224303095Y-19878000D01*
X224350714Y-19925619D01*
X224398333Y-20020857D01*
X224398333Y-20068476D01*
X224350714Y-20163714D01*
X224303095Y-20211333D01*
X224207857Y-20258952D01*
X224017380Y-20258952D01*
X223922142Y-20306571D01*
X223874523Y-20354190D01*
X223826904Y-20449428D01*
X223826904Y-20639904D01*
X223874523Y-20735142D01*
X223922142Y-20782761D01*
X224017380Y-20830380D01*
X224207857Y-20830380D01*
X224303095Y-20782761D01*
X224350714Y-20735142D01*
X224398333Y-20639904D01*
X224398333Y-20449428D01*
X224350714Y-20354190D01*
X224303095Y-20306571D01*
X224207857Y-20258952D01*
X153122380Y-19383333D02*
X153836666Y-19383333D01*
X153979523Y-19430952D01*
X154074761Y-19526190D01*
X154122380Y-19669047D01*
X154122380Y-19764285D01*
X154122380Y-18383333D02*
X154122380Y-18954761D01*
X154122380Y-18669047D02*
X153122380Y-18669047D01*
X153265238Y-18764285D01*
X153360476Y-18859523D01*
X153408095Y-18954761D01*
M02*
