G04 #@! TF.GenerationSoftware,KiCad,Pcbnew,(5.1.4)-1*
G04 #@! TF.CreationDate,2019-10-13T10:06:27+02:00*
G04 #@! TF.ProjectId,ctrl_interface,6374726c-5f69-46e7-9465-72666163652e,rev?*
G04 #@! TF.SameCoordinates,Original*
G04 #@! TF.FileFunction,Legend,Bot*
G04 #@! TF.FilePolarity,Positive*
%FSLAX46Y46*%
G04 Gerber Fmt 4.6, Leading zero omitted, Abs format (unit mm)*
G04 Created by KiCad (PCBNEW (5.1.4)-1) date 2019-10-13 10:06:27*
%MOMM*%
%LPD*%
G04 APERTURE LIST*
%ADD10C,0.300000*%
%ADD11C,2.000000*%
%ADD12C,0.200000*%
%ADD13C,0.500000*%
%ADD14C,0.250000*%
%ADD15C,0.010000*%
%ADD16C,0.120000*%
%ADD17C,0.150000*%
G04 APERTURE END LIST*
D10*
X246548571Y-181502857D02*
X247048571Y-181502857D01*
X247048571Y-182288571D02*
X247048571Y-180788571D01*
X246334285Y-180788571D01*
X245762857Y-182288571D02*
X245762857Y-181288571D01*
X245762857Y-181574285D02*
X245691428Y-181431428D01*
X245620000Y-181360000D01*
X245477142Y-181288571D01*
X245334285Y-181288571D01*
X244262857Y-182217142D02*
X244405714Y-182288571D01*
X244691428Y-182288571D01*
X244834285Y-182217142D01*
X244905714Y-182074285D01*
X244905714Y-181502857D01*
X244834285Y-181360000D01*
X244691428Y-181288571D01*
X244405714Y-181288571D01*
X244262857Y-181360000D01*
X244191428Y-181502857D01*
X244191428Y-181645714D01*
X244905714Y-181788571D01*
X242905714Y-182288571D02*
X242905714Y-180788571D01*
X242905714Y-182217142D02*
X243048571Y-182288571D01*
X243334285Y-182288571D01*
X243477142Y-182217142D01*
X243548571Y-182145714D01*
X243620000Y-182002857D01*
X243620000Y-181574285D01*
X243548571Y-181431428D01*
X243477142Y-181360000D01*
X243334285Y-181288571D01*
X243048571Y-181288571D01*
X242905714Y-181360000D01*
X242191428Y-182288571D02*
X242191428Y-181288571D01*
X242191428Y-181574285D02*
X242120000Y-181431428D01*
X242048571Y-181360000D01*
X241905714Y-181288571D01*
X241762857Y-181288571D01*
X241262857Y-182288571D02*
X241262857Y-181288571D01*
X241262857Y-180788571D02*
X241334285Y-180860000D01*
X241262857Y-180931428D01*
X241191428Y-180860000D01*
X241262857Y-180788571D01*
X241262857Y-180931428D01*
X240548571Y-182288571D02*
X240548571Y-180788571D01*
X240405714Y-181717142D02*
X239977142Y-182288571D01*
X239977142Y-181288571D02*
X240548571Y-181860000D01*
X238262857Y-181860000D02*
X237548571Y-181860000D01*
X238405714Y-182288571D02*
X237905714Y-180788571D01*
X237405714Y-182288571D01*
X237905714Y-180788571D02*
X238048571Y-180717142D01*
X238120000Y-180574285D01*
X238048571Y-180431428D01*
X237905714Y-180360000D01*
X237762857Y-180431428D01*
X237691428Y-180574285D01*
X237762857Y-180717142D01*
X237905714Y-180788571D01*
X236905714Y-182288571D02*
X236905714Y-180788571D01*
X236762857Y-181717142D02*
X236334285Y-182288571D01*
X236334285Y-181288571D02*
X236905714Y-181860000D01*
X235120000Y-182217142D02*
X235262857Y-182288571D01*
X235548571Y-182288571D01*
X235691428Y-182217142D01*
X235762857Y-182074285D01*
X235762857Y-181502857D01*
X235691428Y-181360000D01*
X235548571Y-181288571D01*
X235262857Y-181288571D01*
X235120000Y-181360000D01*
X235048571Y-181502857D01*
X235048571Y-181645714D01*
X235762857Y-181788571D01*
X234405714Y-182288571D02*
X234405714Y-181288571D01*
X234405714Y-181574285D02*
X234334285Y-181431428D01*
X234262857Y-181360000D01*
X234120000Y-181288571D01*
X233977142Y-181288571D01*
X233262857Y-182288571D02*
X233405714Y-182217142D01*
X233477142Y-182074285D01*
X233477142Y-180788571D01*
X232048571Y-181288571D02*
X232048571Y-182288571D01*
X232691428Y-181288571D02*
X232691428Y-182074285D01*
X232620000Y-182217142D01*
X232477142Y-182288571D01*
X232262857Y-182288571D01*
X232120000Y-182217142D01*
X232048571Y-182145714D01*
X231334285Y-181288571D02*
X231334285Y-182288571D01*
X231334285Y-181431428D02*
X231262857Y-181360000D01*
X231120000Y-181288571D01*
X230905714Y-181288571D01*
X230762857Y-181360000D01*
X230691428Y-181502857D01*
X230691428Y-182288571D01*
X229334285Y-182288571D02*
X229334285Y-180788571D01*
X229334285Y-182217142D02*
X229477142Y-182288571D01*
X229762857Y-182288571D01*
X229905714Y-182217142D01*
X229977142Y-182145714D01*
X230048571Y-182002857D01*
X230048571Y-181574285D01*
X229977142Y-181431428D01*
X229905714Y-181360000D01*
X229762857Y-181288571D01*
X229477142Y-181288571D01*
X229334285Y-181360000D01*
X227191428Y-180788571D02*
X226905714Y-180788571D01*
X226762857Y-180860000D01*
X226620000Y-181002857D01*
X226548571Y-181288571D01*
X226548571Y-181788571D01*
X226620000Y-182074285D01*
X226762857Y-182217142D01*
X226905714Y-182288571D01*
X227191428Y-182288571D01*
X227334285Y-182217142D01*
X227477142Y-182074285D01*
X227548571Y-181788571D01*
X227548571Y-181288571D01*
X227477142Y-181002857D01*
X227334285Y-180860000D01*
X227191428Y-180788571D01*
X225262857Y-182217142D02*
X225405714Y-182288571D01*
X225691428Y-182288571D01*
X225834285Y-182217142D01*
X225905714Y-182145714D01*
X225977142Y-182002857D01*
X225977142Y-181574285D01*
X225905714Y-181431428D01*
X225834285Y-181360000D01*
X225691428Y-181288571D01*
X225405714Y-181288571D01*
X225262857Y-181360000D01*
X224834285Y-181288571D02*
X224262857Y-181288571D01*
X224620000Y-180788571D02*
X224620000Y-182074285D01*
X224548571Y-182217142D01*
X224405714Y-182288571D01*
X224262857Y-182288571D01*
X223548571Y-182288571D02*
X223691428Y-182217142D01*
X223762857Y-182145714D01*
X223834285Y-182002857D01*
X223834285Y-181574285D01*
X223762857Y-181431428D01*
X223691428Y-181360000D01*
X223548571Y-181288571D01*
X223334285Y-181288571D01*
X223191428Y-181360000D01*
X223120000Y-181431428D01*
X223048571Y-181574285D01*
X223048571Y-182002857D01*
X223120000Y-182145714D01*
X223191428Y-182217142D01*
X223334285Y-182288571D01*
X223548571Y-182288571D01*
X222405714Y-182288571D02*
X222405714Y-180788571D01*
X222405714Y-181360000D02*
X222262857Y-181288571D01*
X221977142Y-181288571D01*
X221834285Y-181360000D01*
X221762857Y-181431428D01*
X221691428Y-181574285D01*
X221691428Y-182002857D01*
X221762857Y-182145714D01*
X221834285Y-182217142D01*
X221977142Y-182288571D01*
X222262857Y-182288571D01*
X222405714Y-182217142D01*
X220477142Y-182217142D02*
X220620000Y-182288571D01*
X220905714Y-182288571D01*
X221048571Y-182217142D01*
X221120000Y-182074285D01*
X221120000Y-181502857D01*
X221048571Y-181360000D01*
X220905714Y-181288571D01*
X220620000Y-181288571D01*
X220477142Y-181360000D01*
X220405714Y-181502857D01*
X220405714Y-181645714D01*
X221120000Y-181788571D01*
X219762857Y-182288571D02*
X219762857Y-181288571D01*
X219762857Y-181574285D02*
X219691428Y-181431428D01*
X219620000Y-181360000D01*
X219477142Y-181288571D01*
X219334285Y-181288571D01*
X217762857Y-180931428D02*
X217691428Y-180860000D01*
X217548571Y-180788571D01*
X217191428Y-180788571D01*
X217048571Y-180860000D01*
X216977142Y-180931428D01*
X216905714Y-181074285D01*
X216905714Y-181217142D01*
X216977142Y-181431428D01*
X217834285Y-182288571D01*
X216905714Y-182288571D01*
X215977142Y-180788571D02*
X215834285Y-180788571D01*
X215691428Y-180860000D01*
X215620000Y-180931428D01*
X215548571Y-181074285D01*
X215477142Y-181360000D01*
X215477142Y-181717142D01*
X215548571Y-182002857D01*
X215620000Y-182145714D01*
X215691428Y-182217142D01*
X215834285Y-182288571D01*
X215977142Y-182288571D01*
X216120000Y-182217142D01*
X216191428Y-182145714D01*
X216262857Y-182002857D01*
X216334285Y-181717142D01*
X216334285Y-181360000D01*
X216262857Y-181074285D01*
X216191428Y-180931428D01*
X216120000Y-180860000D01*
X215977142Y-180788571D01*
X214048571Y-182288571D02*
X214905714Y-182288571D01*
X214477142Y-182288571D02*
X214477142Y-180788571D01*
X214620000Y-181002857D01*
X214762857Y-181145714D01*
X214905714Y-181217142D01*
X213334285Y-182288571D02*
X213048571Y-182288571D01*
X212905714Y-182217142D01*
X212834285Y-182145714D01*
X212691428Y-181931428D01*
X212620000Y-181645714D01*
X212620000Y-181074285D01*
X212691428Y-180931428D01*
X212762857Y-180860000D01*
X212905714Y-180788571D01*
X213191428Y-180788571D01*
X213334285Y-180860000D01*
X213405714Y-180931428D01*
X213477142Y-181074285D01*
X213477142Y-181431428D01*
X213405714Y-181574285D01*
X213334285Y-181645714D01*
X213191428Y-181717142D01*
X212905714Y-181717142D01*
X212762857Y-181645714D01*
X212691428Y-181574285D01*
X212620000Y-181431428D01*
D11*
X54864000Y-15240000D02*
X249936000Y-15240000D01*
X249936000Y-184912000D02*
X249936000Y-15240000D01*
X54864000Y-184912000D02*
X54864000Y-15240000D01*
X54864000Y-184912000D02*
X249936000Y-184912000D01*
D12*
X163449000Y-22225000D02*
X163449000Y-42799000D01*
X161036000Y-22225000D02*
X161036000Y-42799000D01*
X155956000Y-22225000D02*
X155956000Y-42799000D01*
X158369000Y-22098000D02*
X158369000Y-42672000D01*
X153416000Y-22225000D02*
X153416000Y-42799000D01*
X143383000Y-22098000D02*
X143383000Y-42672000D01*
X145923000Y-22098000D02*
X145923000Y-42672000D01*
X148336000Y-22225000D02*
X148336000Y-42799000D01*
X150876000Y-22225000D02*
X150876000Y-42799000D01*
X166370000Y-31750000D02*
X140589000Y-31750000D01*
D13*
X166370000Y-22225000D02*
X140589000Y-22225000D01*
X166370000Y-42799000D02*
X140589000Y-42799000D01*
X140589000Y-22225000D02*
X140589000Y-42799000D01*
X166370000Y-22225000D02*
X166370000Y-42799000D01*
D14*
X142828571Y-33674500D02*
X142042857Y-33674500D01*
X141900000Y-33603071D01*
X141828571Y-33460214D01*
X141828571Y-33174500D01*
X141900000Y-33031642D01*
X142757142Y-33674500D02*
X142828571Y-33531642D01*
X142828571Y-33174500D01*
X142757142Y-33031642D01*
X142614285Y-32960214D01*
X142471428Y-32960214D01*
X142328571Y-33031642D01*
X142257142Y-33174500D01*
X142257142Y-33531642D01*
X142185714Y-33674500D01*
X141828571Y-35031642D02*
X142828571Y-35031642D01*
X141828571Y-34388785D02*
X142614285Y-34388785D01*
X142757142Y-34460214D01*
X142828571Y-34603071D01*
X142828571Y-34817357D01*
X142757142Y-34960214D01*
X142685714Y-35031642D01*
X142828571Y-36388785D02*
X141328571Y-36388785D01*
X142757142Y-36388785D02*
X142828571Y-36245928D01*
X142828571Y-35960214D01*
X142757142Y-35817357D01*
X142685714Y-35745928D01*
X142542857Y-35674500D01*
X142114285Y-35674500D01*
X141971428Y-35745928D01*
X141900000Y-35817357D01*
X141828571Y-35960214D01*
X141828571Y-36245928D01*
X141900000Y-36388785D01*
X142971428Y-36745928D02*
X142971428Y-37888785D01*
X142828571Y-38245928D02*
X141828571Y-38245928D01*
X141328571Y-38245928D02*
X141400000Y-38174500D01*
X141471428Y-38245928D01*
X141400000Y-38317357D01*
X141328571Y-38245928D01*
X141471428Y-38245928D01*
X142828571Y-38960214D02*
X141828571Y-38960214D01*
X142114285Y-38960214D02*
X141971428Y-39031642D01*
X141900000Y-39103071D01*
X141828571Y-39245928D01*
X141828571Y-39388785D01*
X145257142Y-33674500D02*
X145328571Y-33531642D01*
X145328571Y-33245928D01*
X145257142Y-33103071D01*
X145185714Y-33031642D01*
X145042857Y-32960214D01*
X144614285Y-32960214D01*
X144471428Y-33031642D01*
X144400000Y-33103071D01*
X144328571Y-33245928D01*
X144328571Y-33531642D01*
X144400000Y-33674500D01*
X145328571Y-34531642D02*
X145257142Y-34388785D01*
X145114285Y-34317357D01*
X143828571Y-34317357D01*
X145328571Y-35103071D02*
X143828571Y-35103071D01*
X144757142Y-35245928D02*
X145328571Y-35674500D01*
X144328571Y-35674500D02*
X144900000Y-35103071D01*
X147828571Y-33245928D02*
X147757142Y-33103071D01*
X147614285Y-33031642D01*
X146328571Y-33031642D01*
X147757142Y-34388785D02*
X147828571Y-34245928D01*
X147828571Y-33960214D01*
X147757142Y-33817357D01*
X147614285Y-33745928D01*
X147042857Y-33745928D01*
X146900000Y-33817357D01*
X146828571Y-33960214D01*
X146828571Y-34245928D01*
X146900000Y-34388785D01*
X147042857Y-34460214D01*
X147185714Y-34460214D01*
X147328571Y-33745928D01*
X150328571Y-33031642D02*
X149328571Y-33031642D01*
X149471428Y-33031642D02*
X149400000Y-33103071D01*
X149328571Y-33245928D01*
X149328571Y-33460214D01*
X149400000Y-33603071D01*
X149542857Y-33674500D01*
X150328571Y-33674500D01*
X149542857Y-33674500D02*
X149400000Y-33745928D01*
X149328571Y-33888785D01*
X149328571Y-34103071D01*
X149400000Y-34245928D01*
X149542857Y-34317357D01*
X150328571Y-34317357D01*
X149328571Y-35674500D02*
X150328571Y-35674500D01*
X149328571Y-35031642D02*
X150114285Y-35031642D01*
X150257142Y-35103071D01*
X150328571Y-35245928D01*
X150328571Y-35460214D01*
X150257142Y-35603071D01*
X150185714Y-35674500D01*
X150328571Y-36245928D02*
X149328571Y-37031642D01*
X149328571Y-36245928D02*
X150328571Y-37031642D01*
X150471428Y-37245928D02*
X150471428Y-38388785D01*
X150257142Y-38674500D02*
X150328571Y-38817357D01*
X150328571Y-39103071D01*
X150257142Y-39245928D01*
X150114285Y-39317357D01*
X150042857Y-39317357D01*
X149900000Y-39245928D01*
X149828571Y-39103071D01*
X149828571Y-38888785D01*
X149757142Y-38745928D01*
X149614285Y-38674500D01*
X149542857Y-38674500D01*
X149400000Y-38745928D01*
X149328571Y-38888785D01*
X149328571Y-39103071D01*
X149400000Y-39245928D01*
X148828571Y-40245928D02*
X148828571Y-40388785D01*
X148900000Y-40531642D01*
X148971428Y-40603071D01*
X149114285Y-40674500D01*
X149400000Y-40745928D01*
X149757142Y-40745928D01*
X150042857Y-40674500D01*
X150185714Y-40603071D01*
X150257142Y-40531642D01*
X150328571Y-40388785D01*
X150328571Y-40245928D01*
X150257142Y-40103071D01*
X150185714Y-40031642D01*
X150042857Y-39960214D01*
X149757142Y-39888785D01*
X149400000Y-39888785D01*
X149114285Y-39960214D01*
X148971428Y-40031642D01*
X148900000Y-40103071D01*
X148828571Y-40245928D01*
X152828571Y-33031642D02*
X151828571Y-33031642D01*
X151971428Y-33031642D02*
X151900000Y-33103071D01*
X151828571Y-33245928D01*
X151828571Y-33460214D01*
X151900000Y-33603071D01*
X152042857Y-33674500D01*
X152828571Y-33674500D01*
X152042857Y-33674500D02*
X151900000Y-33745928D01*
X151828571Y-33888785D01*
X151828571Y-34103071D01*
X151900000Y-34245928D01*
X152042857Y-34317357D01*
X152828571Y-34317357D01*
X151828571Y-35674500D02*
X152828571Y-35674500D01*
X151828571Y-35031642D02*
X152614285Y-35031642D01*
X152757142Y-35103071D01*
X152828571Y-35245928D01*
X152828571Y-35460214D01*
X152757142Y-35603071D01*
X152685714Y-35674500D01*
X152828571Y-36245928D02*
X151828571Y-37031642D01*
X151828571Y-36245928D02*
X152828571Y-37031642D01*
X152971428Y-37245928D02*
X152971428Y-38388785D01*
X152757142Y-38674500D02*
X152828571Y-38817357D01*
X152828571Y-39103071D01*
X152757142Y-39245928D01*
X152614285Y-39317357D01*
X152542857Y-39317357D01*
X152400000Y-39245928D01*
X152328571Y-39103071D01*
X152328571Y-38888785D01*
X152257142Y-38745928D01*
X152114285Y-38674500D01*
X152042857Y-38674500D01*
X151900000Y-38745928D01*
X151828571Y-38888785D01*
X151828571Y-39103071D01*
X151900000Y-39245928D01*
X151471428Y-39888785D02*
X151400000Y-39960214D01*
X151328571Y-40103071D01*
X151328571Y-40460214D01*
X151400000Y-40603071D01*
X151471428Y-40674500D01*
X151614285Y-40745928D01*
X151757142Y-40745928D01*
X151971428Y-40674500D01*
X152828571Y-39817357D01*
X152828571Y-40745928D01*
X155257142Y-33603071D02*
X155328571Y-33460214D01*
X155328571Y-33174500D01*
X155257142Y-33031642D01*
X155114285Y-32960214D01*
X154542857Y-32960214D01*
X154400000Y-33031642D01*
X154328571Y-33174500D01*
X154328571Y-33460214D01*
X154400000Y-33603071D01*
X154542857Y-33674500D01*
X154685714Y-33674500D01*
X154828571Y-32960214D01*
X154328571Y-34317357D02*
X155328571Y-34317357D01*
X154471428Y-34317357D02*
X154400000Y-34388785D01*
X154328571Y-34531642D01*
X154328571Y-34745928D01*
X154400000Y-34888785D01*
X154542857Y-34960214D01*
X155328571Y-34960214D01*
X155257142Y-36317357D02*
X155328571Y-36174500D01*
X155328571Y-35888785D01*
X155257142Y-35745928D01*
X155185714Y-35674500D01*
X155042857Y-35603071D01*
X154614285Y-35603071D01*
X154471428Y-35674500D01*
X154400000Y-35745928D01*
X154328571Y-35888785D01*
X154328571Y-36174500D01*
X154400000Y-36317357D01*
X155471428Y-36603071D02*
X155471428Y-37745928D01*
X155328571Y-38745928D02*
X154542857Y-38745928D01*
X154400000Y-38674500D01*
X154328571Y-38531642D01*
X154328571Y-38245928D01*
X154400000Y-38103071D01*
X155257142Y-38745928D02*
X155328571Y-38603071D01*
X155328571Y-38245928D01*
X155257142Y-38103071D01*
X155114285Y-38031642D01*
X154971428Y-38031642D01*
X154828571Y-38103071D01*
X154757142Y-38245928D01*
X154757142Y-38603071D01*
X154685714Y-38745928D01*
X157757142Y-33603071D02*
X157828571Y-33460214D01*
X157828571Y-33174500D01*
X157757142Y-33031642D01*
X157614285Y-32960214D01*
X157042857Y-32960214D01*
X156900000Y-33031642D01*
X156828571Y-33174500D01*
X156828571Y-33460214D01*
X156900000Y-33603071D01*
X157042857Y-33674500D01*
X157185714Y-33674500D01*
X157328571Y-32960214D01*
X156828571Y-34317357D02*
X157828571Y-34317357D01*
X156971428Y-34317357D02*
X156900000Y-34388785D01*
X156828571Y-34531642D01*
X156828571Y-34745928D01*
X156900000Y-34888785D01*
X157042857Y-34960214D01*
X157828571Y-34960214D01*
X157757142Y-36317357D02*
X157828571Y-36174500D01*
X157828571Y-35888785D01*
X157757142Y-35745928D01*
X157685714Y-35674500D01*
X157542857Y-35603071D01*
X157114285Y-35603071D01*
X156971428Y-35674500D01*
X156900000Y-35745928D01*
X156828571Y-35888785D01*
X156828571Y-36174500D01*
X156900000Y-36317357D01*
X157971428Y-36603071D02*
X157971428Y-37745928D01*
X157828571Y-38103071D02*
X156328571Y-38103071D01*
X156900000Y-38103071D02*
X156828571Y-38245928D01*
X156828571Y-38531642D01*
X156900000Y-38674500D01*
X156971428Y-38745928D01*
X157114285Y-38817357D01*
X157542857Y-38817357D01*
X157685714Y-38745928D01*
X157757142Y-38674500D01*
X157828571Y-38531642D01*
X157828571Y-38245928D01*
X157757142Y-38103071D01*
X159328571Y-33674500D02*
X160542857Y-33674500D01*
X160685714Y-33603071D01*
X160757142Y-33531642D01*
X160828571Y-33388785D01*
X160828571Y-33174500D01*
X160757142Y-33031642D01*
X160257142Y-33674500D02*
X160328571Y-33531642D01*
X160328571Y-33245928D01*
X160257142Y-33103071D01*
X160185714Y-33031642D01*
X160042857Y-32960214D01*
X159614285Y-32960214D01*
X159471428Y-33031642D01*
X159400000Y-33103071D01*
X159328571Y-33245928D01*
X159328571Y-33531642D01*
X159400000Y-33674500D01*
X159328571Y-34388785D02*
X160328571Y-34388785D01*
X159471428Y-34388785D02*
X159400000Y-34460214D01*
X159328571Y-34603071D01*
X159328571Y-34817357D01*
X159400000Y-34960214D01*
X159542857Y-35031642D01*
X160328571Y-35031642D01*
X160328571Y-36388785D02*
X158828571Y-36388785D01*
X160257142Y-36388785D02*
X160328571Y-36245928D01*
X160328571Y-35960214D01*
X160257142Y-35817357D01*
X160185714Y-35745928D01*
X160042857Y-35674500D01*
X159614285Y-35674500D01*
X159471428Y-35745928D01*
X159400000Y-35817357D01*
X159328571Y-35960214D01*
X159328571Y-36245928D01*
X159400000Y-36388785D01*
X161828571Y-32888785D02*
X162828571Y-33245928D01*
X161828571Y-33603071D01*
X162757142Y-34817357D02*
X162828571Y-34674500D01*
X162828571Y-34388785D01*
X162757142Y-34245928D01*
X162685714Y-34174500D01*
X162542857Y-34103071D01*
X162114285Y-34103071D01*
X161971428Y-34174500D01*
X161900000Y-34245928D01*
X161828571Y-34388785D01*
X161828571Y-34674500D01*
X161900000Y-34817357D01*
X162757142Y-36103071D02*
X162828571Y-35960214D01*
X162828571Y-35674500D01*
X162757142Y-35531642D01*
X162685714Y-35460214D01*
X162542857Y-35388785D01*
X162114285Y-35388785D01*
X161971428Y-35460214D01*
X161900000Y-35531642D01*
X161828571Y-35674500D01*
X161828571Y-35960214D01*
X161900000Y-36103071D01*
X165257142Y-32960214D02*
X165328571Y-33103071D01*
X165328571Y-33388785D01*
X165257142Y-33531642D01*
X165114285Y-33603071D01*
X165042857Y-33603071D01*
X164900000Y-33531642D01*
X164828571Y-33388785D01*
X164828571Y-33174500D01*
X164757142Y-33031642D01*
X164614285Y-32960214D01*
X164542857Y-32960214D01*
X164400000Y-33031642D01*
X164328571Y-33174500D01*
X164328571Y-33388785D01*
X164400000Y-33531642D01*
X165328571Y-34460214D02*
X165257142Y-34317357D01*
X165114285Y-34245928D01*
X163828571Y-34245928D01*
X165328571Y-35031642D02*
X164328571Y-35031642D01*
X163828571Y-35031642D02*
X163900000Y-34960214D01*
X163971428Y-35031642D01*
X163900000Y-35103071D01*
X163828571Y-35031642D01*
X163971428Y-35031642D01*
X165328571Y-36388785D02*
X163828571Y-36388785D01*
X165257142Y-36388785D02*
X165328571Y-36245928D01*
X165328571Y-35960214D01*
X165257142Y-35817357D01*
X165185714Y-35745928D01*
X165042857Y-35674500D01*
X164614285Y-35674500D01*
X164471428Y-35745928D01*
X164400000Y-35817357D01*
X164328571Y-35960214D01*
X164328571Y-36245928D01*
X164400000Y-36388785D01*
X165257142Y-37674500D02*
X165328571Y-37531642D01*
X165328571Y-37245928D01*
X165257142Y-37103071D01*
X165114285Y-37031642D01*
X164542857Y-37031642D01*
X164400000Y-37103071D01*
X164328571Y-37245928D01*
X164328571Y-37531642D01*
X164400000Y-37674500D01*
X164542857Y-37745928D01*
X164685714Y-37745928D01*
X164828571Y-37031642D01*
X165471428Y-38031642D02*
X165471428Y-39174500D01*
X165257142Y-39460214D02*
X165328571Y-39603071D01*
X165328571Y-39888785D01*
X165257142Y-40031642D01*
X165114285Y-40103071D01*
X165042857Y-40103071D01*
X164900000Y-40031642D01*
X164828571Y-39888785D01*
X164828571Y-39674500D01*
X164757142Y-39531642D01*
X164614285Y-39460214D01*
X164542857Y-39460214D01*
X164400000Y-39531642D01*
X164328571Y-39674500D01*
X164328571Y-39888785D01*
X164400000Y-40031642D01*
X164328571Y-40603071D02*
X165328571Y-40888785D01*
X164614285Y-41174500D01*
X165328571Y-41460214D01*
X164328571Y-41745928D01*
X165328571Y-42317357D02*
X164328571Y-42317357D01*
X163828571Y-42317357D02*
X163900000Y-42245928D01*
X163971428Y-42317357D01*
X163900000Y-42388785D01*
X163828571Y-42317357D01*
X163971428Y-42317357D01*
X142828571Y-25365214D02*
X142042857Y-25365214D01*
X141900000Y-25293785D01*
X141828571Y-25150928D01*
X141828571Y-24865214D01*
X141900000Y-24722357D01*
X142757142Y-25365214D02*
X142828571Y-25222357D01*
X142828571Y-24865214D01*
X142757142Y-24722357D01*
X142614285Y-24650928D01*
X142471428Y-24650928D01*
X142328571Y-24722357D01*
X142257142Y-24865214D01*
X142257142Y-25222357D01*
X142185714Y-25365214D01*
X141828571Y-26722357D02*
X142828571Y-26722357D01*
X141828571Y-26079500D02*
X142614285Y-26079500D01*
X142757142Y-26150928D01*
X142828571Y-26293785D01*
X142828571Y-26508071D01*
X142757142Y-26650928D01*
X142685714Y-26722357D01*
X142828571Y-28079500D02*
X141328571Y-28079500D01*
X142757142Y-28079500D02*
X142828571Y-27936642D01*
X142828571Y-27650928D01*
X142757142Y-27508071D01*
X142685714Y-27436642D01*
X142542857Y-27365214D01*
X142114285Y-27365214D01*
X141971428Y-27436642D01*
X141900000Y-27508071D01*
X141828571Y-27650928D01*
X141828571Y-27936642D01*
X141900000Y-28079500D01*
X142971428Y-28436642D02*
X142971428Y-29579500D01*
X142828571Y-29936642D02*
X141828571Y-29936642D01*
X141328571Y-29936642D02*
X141400000Y-29865214D01*
X141471428Y-29936642D01*
X141400000Y-30008071D01*
X141328571Y-29936642D01*
X141471428Y-29936642D01*
X142828571Y-30865214D02*
X142757142Y-30722357D01*
X142614285Y-30650928D01*
X141328571Y-30650928D01*
X144328571Y-25293785D02*
X145828571Y-25293785D01*
X144400000Y-25293785D02*
X144328571Y-25436642D01*
X144328571Y-25722357D01*
X144400000Y-25865214D01*
X144471428Y-25936642D01*
X144614285Y-26008071D01*
X145042857Y-26008071D01*
X145185714Y-25936642D01*
X145257142Y-25865214D01*
X145328571Y-25722357D01*
X145328571Y-25436642D01*
X145257142Y-25293785D01*
X145328571Y-26865214D02*
X145257142Y-26722357D01*
X145185714Y-26650928D01*
X145042857Y-26579500D01*
X144614285Y-26579500D01*
X144471428Y-26650928D01*
X144400000Y-26722357D01*
X144328571Y-26865214D01*
X144328571Y-27079500D01*
X144400000Y-27222357D01*
X144471428Y-27293785D01*
X144614285Y-27365214D01*
X145042857Y-27365214D01*
X145185714Y-27293785D01*
X145257142Y-27222357D01*
X145328571Y-27079500D01*
X145328571Y-26865214D01*
X144328571Y-27793785D02*
X144328571Y-28365214D01*
X143828571Y-28008071D02*
X145114285Y-28008071D01*
X145257142Y-28079500D01*
X145328571Y-28222357D01*
X145328571Y-28365214D01*
X145471428Y-28508071D02*
X145471428Y-29650928D01*
X143828571Y-30293785D02*
X143828571Y-30436642D01*
X143900000Y-30579500D01*
X143971428Y-30650928D01*
X144114285Y-30722357D01*
X144400000Y-30793785D01*
X144757142Y-30793785D01*
X145042857Y-30722357D01*
X145185714Y-30650928D01*
X145257142Y-30579500D01*
X145328571Y-30436642D01*
X145328571Y-30293785D01*
X145257142Y-30150928D01*
X145185714Y-30079500D01*
X145042857Y-30008071D01*
X144757142Y-29936642D01*
X144400000Y-29936642D01*
X144114285Y-30008071D01*
X143971428Y-30079500D01*
X143900000Y-30150928D01*
X143828571Y-30293785D01*
X147757142Y-28079500D02*
X147828571Y-28222357D01*
X147828571Y-28508071D01*
X147757142Y-28650928D01*
X147614285Y-28722357D01*
X147542857Y-28722357D01*
X147400000Y-28650928D01*
X147328571Y-28508071D01*
X147328571Y-28293785D01*
X147257142Y-28150928D01*
X147114285Y-28079500D01*
X147042857Y-28079500D01*
X146900000Y-28150928D01*
X146828571Y-28293785D01*
X146828571Y-28508071D01*
X146900000Y-28650928D01*
X147828571Y-30008071D02*
X146328571Y-30008071D01*
X147757142Y-30008071D02*
X147828571Y-29865214D01*
X147828571Y-29579500D01*
X147757142Y-29436642D01*
X147685714Y-29365214D01*
X147542857Y-29293785D01*
X147114285Y-29293785D01*
X146971428Y-29365214D01*
X146900000Y-29436642D01*
X146828571Y-29579500D01*
X146828571Y-29865214D01*
X146900000Y-30008071D01*
X147828571Y-30722357D02*
X146828571Y-30722357D01*
X146328571Y-30722357D02*
X146400000Y-30650928D01*
X146471428Y-30722357D01*
X146400000Y-30793785D01*
X146328571Y-30722357D01*
X146471428Y-30722357D01*
X150328571Y-29008071D02*
X150257142Y-28865214D01*
X150185714Y-28793785D01*
X150042857Y-28722357D01*
X149614285Y-28722357D01*
X149471428Y-28793785D01*
X149400000Y-28865214D01*
X149328571Y-29008071D01*
X149328571Y-29222357D01*
X149400000Y-29365214D01*
X149471428Y-29436642D01*
X149614285Y-29508071D01*
X150042857Y-29508071D01*
X150185714Y-29436642D01*
X150257142Y-29365214D01*
X150328571Y-29222357D01*
X150328571Y-29008071D01*
X150257142Y-30722357D02*
X150328571Y-30579500D01*
X150328571Y-30293785D01*
X150257142Y-30150928D01*
X150114285Y-30079500D01*
X149542857Y-30079500D01*
X149400000Y-30150928D01*
X149328571Y-30293785D01*
X149328571Y-30579500D01*
X149400000Y-30722357D01*
X149542857Y-30793785D01*
X149685714Y-30793785D01*
X149828571Y-30079500D01*
X152828571Y-23079500D02*
X151828571Y-23079500D01*
X151971428Y-23079500D02*
X151900000Y-23150928D01*
X151828571Y-23293785D01*
X151828571Y-23508071D01*
X151900000Y-23650928D01*
X152042857Y-23722357D01*
X152828571Y-23722357D01*
X152042857Y-23722357D02*
X151900000Y-23793785D01*
X151828571Y-23936642D01*
X151828571Y-24150928D01*
X151900000Y-24293785D01*
X152042857Y-24365214D01*
X152828571Y-24365214D01*
X151828571Y-25722357D02*
X152828571Y-25722357D01*
X151828571Y-25079500D02*
X152614285Y-25079500D01*
X152757142Y-25150928D01*
X152828571Y-25293785D01*
X152828571Y-25508071D01*
X152757142Y-25650928D01*
X152685714Y-25722357D01*
X152828571Y-26293785D02*
X151828571Y-27079500D01*
X151828571Y-26293785D02*
X152828571Y-27079500D01*
X152971428Y-27293785D02*
X152971428Y-28436642D01*
X152757142Y-28722357D02*
X152828571Y-28865214D01*
X152828571Y-29150928D01*
X152757142Y-29293785D01*
X152614285Y-29365214D01*
X152542857Y-29365214D01*
X152400000Y-29293785D01*
X152328571Y-29150928D01*
X152328571Y-28936642D01*
X152257142Y-28793785D01*
X152114285Y-28722357D01*
X152042857Y-28722357D01*
X151900000Y-28793785D01*
X151828571Y-28936642D01*
X151828571Y-29150928D01*
X151900000Y-29293785D01*
X152828571Y-30793785D02*
X152828571Y-29936642D01*
X152828571Y-30365214D02*
X151328571Y-30365214D01*
X151542857Y-30222357D01*
X151685714Y-30079500D01*
X151757142Y-29936642D01*
X155328571Y-23079500D02*
X154328571Y-23079500D01*
X154471428Y-23079500D02*
X154400000Y-23150928D01*
X154328571Y-23293785D01*
X154328571Y-23508071D01*
X154400000Y-23650928D01*
X154542857Y-23722357D01*
X155328571Y-23722357D01*
X154542857Y-23722357D02*
X154400000Y-23793785D01*
X154328571Y-23936642D01*
X154328571Y-24150928D01*
X154400000Y-24293785D01*
X154542857Y-24365214D01*
X155328571Y-24365214D01*
X154328571Y-25722357D02*
X155328571Y-25722357D01*
X154328571Y-25079500D02*
X155114285Y-25079500D01*
X155257142Y-25150928D01*
X155328571Y-25293785D01*
X155328571Y-25508071D01*
X155257142Y-25650928D01*
X155185714Y-25722357D01*
X155328571Y-26293785D02*
X154328571Y-27079500D01*
X154328571Y-26293785D02*
X155328571Y-27079500D01*
X155471428Y-27293785D02*
X155471428Y-28436642D01*
X155257142Y-28722357D02*
X155328571Y-28865214D01*
X155328571Y-29150928D01*
X155257142Y-29293785D01*
X155114285Y-29365214D01*
X155042857Y-29365214D01*
X154900000Y-29293785D01*
X154828571Y-29150928D01*
X154828571Y-28936642D01*
X154757142Y-28793785D01*
X154614285Y-28722357D01*
X154542857Y-28722357D01*
X154400000Y-28793785D01*
X154328571Y-28936642D01*
X154328571Y-29150928D01*
X154400000Y-29293785D01*
X153828571Y-29865214D02*
X153828571Y-30793785D01*
X154400000Y-30293785D01*
X154400000Y-30508071D01*
X154471428Y-30650928D01*
X154542857Y-30722357D01*
X154685714Y-30793785D01*
X155042857Y-30793785D01*
X155185714Y-30722357D01*
X155257142Y-30650928D01*
X155328571Y-30508071D01*
X155328571Y-30079500D01*
X155257142Y-29936642D01*
X155185714Y-29865214D01*
X157757142Y-23365214D02*
X157828571Y-23222357D01*
X157828571Y-22936642D01*
X157757142Y-22793785D01*
X157614285Y-22722357D01*
X157042857Y-22722357D01*
X156900000Y-22793785D01*
X156828571Y-22936642D01*
X156828571Y-23222357D01*
X156900000Y-23365214D01*
X157042857Y-23436642D01*
X157185714Y-23436642D01*
X157328571Y-22722357D01*
X156828571Y-24079500D02*
X157828571Y-24079500D01*
X156971428Y-24079500D02*
X156900000Y-24150928D01*
X156828571Y-24293785D01*
X156828571Y-24508071D01*
X156900000Y-24650928D01*
X157042857Y-24722357D01*
X157828571Y-24722357D01*
X157757142Y-26079500D02*
X157828571Y-25936642D01*
X157828571Y-25650928D01*
X157757142Y-25508071D01*
X157685714Y-25436642D01*
X157542857Y-25365214D01*
X157114285Y-25365214D01*
X156971428Y-25436642D01*
X156900000Y-25508071D01*
X156828571Y-25650928D01*
X156828571Y-25936642D01*
X156900000Y-26079500D01*
X157971428Y-26365214D02*
X157971428Y-27508071D01*
X157828571Y-27865214D02*
X156328571Y-27865214D01*
X156900000Y-27865214D02*
X156828571Y-28008071D01*
X156828571Y-28293785D01*
X156900000Y-28436642D01*
X156971428Y-28508071D01*
X157114285Y-28579500D01*
X157542857Y-28579500D01*
X157685714Y-28508071D01*
X157757142Y-28436642D01*
X157828571Y-28293785D01*
X157828571Y-28008071D01*
X157757142Y-27865214D01*
X156828571Y-29008071D02*
X156828571Y-29579500D01*
X156328571Y-29222357D02*
X157614285Y-29222357D01*
X157757142Y-29293785D01*
X157828571Y-29436642D01*
X157828571Y-29579500D01*
X156828571Y-30079500D02*
X157828571Y-30079500D01*
X156971428Y-30079500D02*
X156900000Y-30150928D01*
X156828571Y-30293785D01*
X156828571Y-30508071D01*
X156900000Y-30650928D01*
X157042857Y-30722357D01*
X157828571Y-30722357D01*
X160328571Y-24722357D02*
X159542857Y-24722357D01*
X159400000Y-24650928D01*
X159328571Y-24508071D01*
X159328571Y-24222357D01*
X159400000Y-24079500D01*
X160257142Y-24722357D02*
X160328571Y-24579500D01*
X160328571Y-24222357D01*
X160257142Y-24079500D01*
X160114285Y-24008071D01*
X159971428Y-24008071D01*
X159828571Y-24079500D01*
X159757142Y-24222357D01*
X159757142Y-24579500D01*
X159685714Y-24722357D01*
X159328571Y-26079500D02*
X160328571Y-26079500D01*
X159328571Y-25436642D02*
X160114285Y-25436642D01*
X160257142Y-25508071D01*
X160328571Y-25650928D01*
X160328571Y-25865214D01*
X160257142Y-26008071D01*
X160185714Y-26079500D01*
X160328571Y-27436642D02*
X158828571Y-27436642D01*
X160257142Y-27436642D02*
X160328571Y-27293785D01*
X160328571Y-27008071D01*
X160257142Y-26865214D01*
X160185714Y-26793785D01*
X160042857Y-26722357D01*
X159614285Y-26722357D01*
X159471428Y-26793785D01*
X159400000Y-26865214D01*
X159328571Y-27008071D01*
X159328571Y-27293785D01*
X159400000Y-27436642D01*
X160471428Y-27793785D02*
X160471428Y-28936642D01*
X160328571Y-29508071D02*
X160257142Y-29365214D01*
X160185714Y-29293785D01*
X160042857Y-29222357D01*
X159614285Y-29222357D01*
X159471428Y-29293785D01*
X159400000Y-29365214D01*
X159328571Y-29508071D01*
X159328571Y-29722357D01*
X159400000Y-29865214D01*
X159471428Y-29936642D01*
X159614285Y-30008071D01*
X160042857Y-30008071D01*
X160185714Y-29936642D01*
X160257142Y-29865214D01*
X160328571Y-29722357D01*
X160328571Y-29508071D01*
X160328571Y-30865214D02*
X160257142Y-30722357D01*
X160114285Y-30650928D01*
X158828571Y-30650928D01*
X162828571Y-24579500D02*
X162042857Y-24579500D01*
X161900000Y-24508071D01*
X161828571Y-24365214D01*
X161828571Y-24079500D01*
X161900000Y-23936642D01*
X162757142Y-24579500D02*
X162828571Y-24436642D01*
X162828571Y-24079500D01*
X162757142Y-23936642D01*
X162614285Y-23865214D01*
X162471428Y-23865214D01*
X162328571Y-23936642D01*
X162257142Y-24079500D01*
X162257142Y-24436642D01*
X162185714Y-24579500D01*
X161828571Y-25936642D02*
X162828571Y-25936642D01*
X161828571Y-25293785D02*
X162614285Y-25293785D01*
X162757142Y-25365214D01*
X162828571Y-25508071D01*
X162828571Y-25722357D01*
X162757142Y-25865214D01*
X162685714Y-25936642D01*
X162828571Y-27293785D02*
X161328571Y-27293785D01*
X162757142Y-27293785D02*
X162828571Y-27150928D01*
X162828571Y-26865214D01*
X162757142Y-26722357D01*
X162685714Y-26650928D01*
X162542857Y-26579500D01*
X162114285Y-26579500D01*
X161971428Y-26650928D01*
X161900000Y-26722357D01*
X161828571Y-26865214D01*
X161828571Y-27150928D01*
X161900000Y-27293785D01*
X162971428Y-27650928D02*
X162971428Y-28793785D01*
X162828571Y-29365214D02*
X162757142Y-29222357D01*
X162685714Y-29150928D01*
X162542857Y-29079500D01*
X162114285Y-29079500D01*
X161971428Y-29150928D01*
X161900000Y-29222357D01*
X161828571Y-29365214D01*
X161828571Y-29579500D01*
X161900000Y-29722357D01*
X161971428Y-29793785D01*
X162114285Y-29865214D01*
X162542857Y-29865214D01*
X162685714Y-29793785D01*
X162757142Y-29722357D01*
X162828571Y-29579500D01*
X162828571Y-29365214D01*
X162828571Y-30508071D02*
X161828571Y-30508071D01*
X162114285Y-30508071D02*
X161971428Y-30579500D01*
X161900000Y-30650928D01*
X161828571Y-30793785D01*
X161828571Y-30936642D01*
X164328571Y-25293785D02*
X165828571Y-25293785D01*
X164400000Y-25293785D02*
X164328571Y-25436642D01*
X164328571Y-25722357D01*
X164400000Y-25865214D01*
X164471428Y-25936642D01*
X164614285Y-26008071D01*
X165042857Y-26008071D01*
X165185714Y-25936642D01*
X165257142Y-25865214D01*
X165328571Y-25722357D01*
X165328571Y-25436642D01*
X165257142Y-25293785D01*
X165328571Y-26865214D02*
X165257142Y-26722357D01*
X165185714Y-26650928D01*
X165042857Y-26579500D01*
X164614285Y-26579500D01*
X164471428Y-26650928D01*
X164400000Y-26722357D01*
X164328571Y-26865214D01*
X164328571Y-27079500D01*
X164400000Y-27222357D01*
X164471428Y-27293785D01*
X164614285Y-27365214D01*
X165042857Y-27365214D01*
X165185714Y-27293785D01*
X165257142Y-27222357D01*
X165328571Y-27079500D01*
X165328571Y-26865214D01*
X164328571Y-27793785D02*
X164328571Y-28365214D01*
X163828571Y-28008071D02*
X165114285Y-28008071D01*
X165257142Y-28079500D01*
X165328571Y-28222357D01*
X165328571Y-28365214D01*
X165471428Y-28508071D02*
X165471428Y-29650928D01*
X165328571Y-30793785D02*
X165328571Y-29936642D01*
X165328571Y-30365214D02*
X163828571Y-30365214D01*
X164042857Y-30222357D01*
X164185714Y-30079500D01*
X164257142Y-29936642D01*
D15*
G36*
X85761446Y-157153541D02*
G01*
X85235244Y-157153613D01*
X84990303Y-157153623D01*
X81069699Y-157153623D01*
X81069699Y-157384734D01*
X81045032Y-157665976D01*
X80970584Y-157925359D01*
X80845686Y-158164424D01*
X80669670Y-158384714D01*
X80610118Y-158444210D01*
X80395895Y-158612971D01*
X80159690Y-158736052D01*
X79908517Y-158813510D01*
X79649393Y-158845399D01*
X79389333Y-158831776D01*
X79135353Y-158772697D01*
X78894469Y-158668217D01*
X78673696Y-158518393D01*
X78574543Y-158428001D01*
X78389773Y-158206376D01*
X78254284Y-157962661D01*
X78169256Y-157699643D01*
X78135872Y-157420106D01*
X78135428Y-157392606D01*
X78133678Y-157153632D01*
X78028645Y-157153628D01*
X77935470Y-157166273D01*
X77850356Y-157197040D01*
X77844731Y-157200219D01*
X77825508Y-157210194D01*
X77807855Y-157217962D01*
X77791708Y-157225787D01*
X77777005Y-157235930D01*
X77763681Y-157250655D01*
X77751672Y-157272225D01*
X77740915Y-157302901D01*
X77731346Y-157344947D01*
X77722901Y-157400626D01*
X77715516Y-157472199D01*
X77709127Y-157561930D01*
X77703671Y-157672082D01*
X77699084Y-157804916D01*
X77695302Y-157962696D01*
X77692260Y-158147684D01*
X77689897Y-158362144D01*
X77688147Y-158608337D01*
X77686947Y-158888527D01*
X77686232Y-159204975D01*
X77685940Y-159559946D01*
X77686007Y-159955700D01*
X77686368Y-160394502D01*
X77686960Y-160878614D01*
X77687719Y-161410298D01*
X77688581Y-161991817D01*
X77689482Y-162625433D01*
X77689587Y-162702629D01*
X77690395Y-163340287D01*
X77691081Y-163925582D01*
X77691717Y-164460778D01*
X77692376Y-164948136D01*
X77693131Y-165389917D01*
X77694053Y-165788382D01*
X77695216Y-166145795D01*
X77696693Y-166464415D01*
X77698555Y-166746506D01*
X77700876Y-166994328D01*
X77703729Y-167210143D01*
X77707185Y-167396213D01*
X77711318Y-167554800D01*
X77716200Y-167688164D01*
X77721904Y-167798569D01*
X77728502Y-167888275D01*
X77736068Y-167959544D01*
X77744673Y-168014638D01*
X77754390Y-168055818D01*
X77765293Y-168085346D01*
X77777453Y-168105484D01*
X77790943Y-168118493D01*
X77805837Y-168126636D01*
X77822206Y-168132173D01*
X77840123Y-168137366D01*
X77859661Y-168144477D01*
X77864434Y-168146642D01*
X77879434Y-168151506D01*
X77904541Y-168155976D01*
X77941946Y-168160066D01*
X77993842Y-168163793D01*
X78062420Y-168167173D01*
X78149873Y-168170221D01*
X78258394Y-168172954D01*
X78390174Y-168175387D01*
X78547406Y-168177537D01*
X78732281Y-168179419D01*
X78946993Y-168181049D01*
X79193734Y-168182443D01*
X79474694Y-168183617D01*
X79792068Y-168184587D01*
X80148047Y-168185369D01*
X80544822Y-168185979D01*
X80984588Y-168186432D01*
X81469535Y-168186745D01*
X82001856Y-168186934D01*
X82583743Y-168187013D01*
X83217389Y-168187000D01*
X83422644Y-168186980D01*
X84070347Y-168186876D01*
X84665644Y-168186706D01*
X85210755Y-168186453D01*
X85707897Y-168186098D01*
X86159290Y-168185626D01*
X86567151Y-168185018D01*
X86933700Y-168184258D01*
X87261154Y-168183327D01*
X87551732Y-168182209D01*
X87807652Y-168180886D01*
X88031133Y-168179341D01*
X88224394Y-168177557D01*
X88389652Y-168175516D01*
X88529127Y-168173201D01*
X88645037Y-168170594D01*
X88739600Y-168167678D01*
X88815034Y-168164436D01*
X88873558Y-168160851D01*
X88917391Y-168156905D01*
X88948752Y-168152581D01*
X88969857Y-168147862D01*
X88981363Y-168143540D01*
X89001812Y-168134916D01*
X89020587Y-168128557D01*
X89037760Y-168122203D01*
X89053402Y-168113597D01*
X89067584Y-168100480D01*
X89080377Y-168080594D01*
X89091852Y-168051679D01*
X89102080Y-168011479D01*
X89111133Y-167957733D01*
X89119080Y-167888185D01*
X89125994Y-167800574D01*
X89131945Y-167692644D01*
X89137005Y-167562135D01*
X89141245Y-167406789D01*
X89144735Y-167224348D01*
X89147547Y-167012553D01*
X89148283Y-166931258D01*
X88419361Y-166931258D01*
X85842987Y-166931258D01*
X85892561Y-166856150D01*
X85941878Y-166778968D01*
X85983640Y-166705469D01*
X86018441Y-166630512D01*
X86046877Y-166548953D01*
X86069540Y-166455648D01*
X86087025Y-166345453D01*
X86099926Y-166213225D01*
X86108837Y-166053820D01*
X86114352Y-165862095D01*
X86117064Y-165632907D01*
X86117569Y-165361112D01*
X86116459Y-165041566D01*
X86115830Y-164922932D01*
X86108732Y-163651123D01*
X85303033Y-164748010D01*
X85074779Y-165059183D01*
X84877025Y-165330143D01*
X84707635Y-165564478D01*
X84564473Y-165765780D01*
X84445405Y-165937637D01*
X84348295Y-166083640D01*
X84271007Y-166207378D01*
X84211407Y-166312441D01*
X84167359Y-166402420D01*
X84136728Y-166480903D01*
X84117378Y-166551480D01*
X84107175Y-166617742D01*
X84103983Y-166683277D01*
X84105667Y-166751677D01*
X84106097Y-166760274D01*
X84114968Y-166931372D01*
X82703236Y-166931315D01*
X81291505Y-166931258D01*
X81501516Y-166719500D01*
X81558504Y-166661582D01*
X81612566Y-166605225D01*
X81666076Y-166547322D01*
X81721404Y-166484764D01*
X81780925Y-166414443D01*
X81847011Y-166333251D01*
X81922034Y-166238081D01*
X82008367Y-166125823D01*
X82108383Y-165993370D01*
X82224454Y-165837614D01*
X82358952Y-165655446D01*
X82514251Y-165443760D01*
X82692722Y-165199446D01*
X82896740Y-164919397D01*
X83128675Y-164600504D01*
X83318782Y-164338920D01*
X83557372Y-164010292D01*
X83765508Y-163722957D01*
X83945075Y-163474187D01*
X84097957Y-163261254D01*
X84226041Y-163081430D01*
X84331212Y-162931986D01*
X84415355Y-162810196D01*
X84480357Y-162713331D01*
X84528103Y-162638662D01*
X84560477Y-162583463D01*
X84579366Y-162545004D01*
X84586655Y-162520559D01*
X84584464Y-162507706D01*
X84557913Y-162473504D01*
X84500508Y-162401108D01*
X84415713Y-162294820D01*
X84306992Y-162158945D01*
X84177808Y-161997784D01*
X84031626Y-161815643D01*
X83871909Y-161616822D01*
X83702121Y-161405627D01*
X83525726Y-161186359D01*
X83346187Y-160963323D01*
X83247435Y-160840720D01*
X80795548Y-160840720D01*
X80591742Y-161209430D01*
X80591742Y-166562548D01*
X80795548Y-166931258D01*
X79590111Y-166931258D01*
X79302341Y-166931174D01*
X79064647Y-166930797D01*
X78872482Y-166929935D01*
X78721298Y-166928400D01*
X78606548Y-166926000D01*
X78523685Y-166922546D01*
X78468162Y-166917849D01*
X78435430Y-166911717D01*
X78420943Y-166903961D01*
X78420153Y-166894391D01*
X78428513Y-166882817D01*
X78428599Y-166882721D01*
X78463036Y-166832907D01*
X78508637Y-166751910D01*
X78548908Y-166671055D01*
X78625291Y-166507925D01*
X78633081Y-163674322D01*
X78640871Y-160840720D01*
X80795548Y-160840720D01*
X83247435Y-160840720D01*
X83166969Y-160740821D01*
X82991536Y-160523157D01*
X82823350Y-160314633D01*
X82665877Y-160119554D01*
X82522579Y-159942221D01*
X82396921Y-159786939D01*
X82292366Y-159658010D01*
X82212379Y-159559738D01*
X82165398Y-159502441D01*
X81982963Y-159288180D01*
X81807452Y-159094830D01*
X81645016Y-158928720D01*
X81501805Y-158796180D01*
X81400171Y-158714921D01*
X81279998Y-158628462D01*
X84043840Y-158628462D01*
X84043064Y-158790646D01*
X84050788Y-158909883D01*
X84079828Y-159020426D01*
X84124782Y-159125216D01*
X84154004Y-159184416D01*
X84185423Y-159243074D01*
X84221909Y-159305086D01*
X84266331Y-159374345D01*
X84321561Y-159454746D01*
X84390469Y-159550181D01*
X84475923Y-159664547D01*
X84580796Y-159801735D01*
X84707955Y-159965642D01*
X84860273Y-160160160D01*
X85040618Y-160389185D01*
X85251862Y-160656609D01*
X85275721Y-160686783D01*
X86108732Y-161740195D01*
X86116796Y-160573522D01*
X86118420Y-160224069D01*
X86118074Y-159928230D01*
X86115742Y-159685030D01*
X86111407Y-159493493D01*
X86105051Y-159352644D01*
X86096659Y-159261508D01*
X86093838Y-159244220D01*
X86049584Y-159062117D01*
X85991602Y-158897950D01*
X85925437Y-158765954D01*
X85885687Y-158709972D01*
X85817102Y-158628462D01*
X87118453Y-158628462D01*
X87428885Y-158628728D01*
X87688477Y-158629591D01*
X87901014Y-158631154D01*
X88070276Y-158633517D01*
X88200048Y-158636780D01*
X88294111Y-158641045D01*
X88356248Y-158646413D01*
X88390241Y-158652983D01*
X88399874Y-158660858D01*
X88399208Y-158662602D01*
X88371620Y-158704243D01*
X88325564Y-158770248D01*
X88301735Y-158803631D01*
X88277099Y-158836944D01*
X88254955Y-158866734D01*
X88235164Y-158895933D01*
X88217586Y-158927474D01*
X88202081Y-158964286D01*
X88188511Y-159009303D01*
X88176736Y-159065455D01*
X88166616Y-159135675D01*
X88158013Y-159222894D01*
X88150786Y-159330043D01*
X88144796Y-159460055D01*
X88139904Y-159615861D01*
X88135971Y-159800393D01*
X88132857Y-160016581D01*
X88130422Y-160267359D01*
X88128527Y-160555658D01*
X88127033Y-160884409D01*
X88125801Y-161256543D01*
X88124690Y-161674994D01*
X88123562Y-162142691D01*
X88122508Y-162572354D01*
X88121512Y-163051353D01*
X88120994Y-163508362D01*
X88120941Y-163940464D01*
X88121338Y-164344738D01*
X88122172Y-164718265D01*
X88123429Y-165058127D01*
X88125094Y-165361404D01*
X88127156Y-165625177D01*
X88129599Y-165846527D01*
X88132410Y-166022535D01*
X88135576Y-166150283D01*
X88139082Y-166226849D01*
X88139745Y-166234941D01*
X88163905Y-166420568D01*
X88201624Y-166569647D01*
X88259064Y-166699750D01*
X88342389Y-166828452D01*
X88352811Y-166842494D01*
X88419361Y-166931258D01*
X89148283Y-166931258D01*
X89149752Y-166769145D01*
X89151421Y-166491867D01*
X89152625Y-166178459D01*
X89153435Y-165826664D01*
X89153922Y-165434223D01*
X89154156Y-164998877D01*
X89154211Y-164518368D01*
X89154156Y-163990438D01*
X89154062Y-163412828D01*
X89154002Y-162783279D01*
X89154000Y-162658301D01*
X89153965Y-162022122D01*
X89153847Y-161438325D01*
X89153628Y-160904668D01*
X89153292Y-160418909D01*
X89152822Y-159978805D01*
X89152198Y-159582116D01*
X89151406Y-159226599D01*
X89150426Y-158910012D01*
X89149242Y-158630113D01*
X89147836Y-158384661D01*
X89146190Y-158171413D01*
X89144288Y-157988128D01*
X89142113Y-157832564D01*
X89139645Y-157702478D01*
X89136869Y-157595629D01*
X89133767Y-157509775D01*
X89130321Y-157442674D01*
X89126515Y-157392084D01*
X89122330Y-157355764D01*
X89117749Y-157331470D01*
X89112755Y-157316962D01*
X89112570Y-157316600D01*
X89102285Y-157294437D01*
X89093718Y-157274372D01*
X89084241Y-157256301D01*
X89071226Y-157240121D01*
X89052043Y-157225726D01*
X89024065Y-157213014D01*
X88984663Y-157201880D01*
X88931208Y-157192221D01*
X88861071Y-157183932D01*
X88771624Y-157176910D01*
X88660238Y-157171050D01*
X88524284Y-157166250D01*
X88361135Y-157162404D01*
X88168161Y-157159409D01*
X87942733Y-157157161D01*
X87682224Y-157155556D01*
X87384004Y-157154491D01*
X87045445Y-157153860D01*
X86663918Y-157153561D01*
X86236794Y-157153490D01*
X85761446Y-157153541D01*
X85761446Y-157153541D01*
G37*
X85761446Y-157153541D02*
X85235244Y-157153613D01*
X84990303Y-157153623D01*
X81069699Y-157153623D01*
X81069699Y-157384734D01*
X81045032Y-157665976D01*
X80970584Y-157925359D01*
X80845686Y-158164424D01*
X80669670Y-158384714D01*
X80610118Y-158444210D01*
X80395895Y-158612971D01*
X80159690Y-158736052D01*
X79908517Y-158813510D01*
X79649393Y-158845399D01*
X79389333Y-158831776D01*
X79135353Y-158772697D01*
X78894469Y-158668217D01*
X78673696Y-158518393D01*
X78574543Y-158428001D01*
X78389773Y-158206376D01*
X78254284Y-157962661D01*
X78169256Y-157699643D01*
X78135872Y-157420106D01*
X78135428Y-157392606D01*
X78133678Y-157153632D01*
X78028645Y-157153628D01*
X77935470Y-157166273D01*
X77850356Y-157197040D01*
X77844731Y-157200219D01*
X77825508Y-157210194D01*
X77807855Y-157217962D01*
X77791708Y-157225787D01*
X77777005Y-157235930D01*
X77763681Y-157250655D01*
X77751672Y-157272225D01*
X77740915Y-157302901D01*
X77731346Y-157344947D01*
X77722901Y-157400626D01*
X77715516Y-157472199D01*
X77709127Y-157561930D01*
X77703671Y-157672082D01*
X77699084Y-157804916D01*
X77695302Y-157962696D01*
X77692260Y-158147684D01*
X77689897Y-158362144D01*
X77688147Y-158608337D01*
X77686947Y-158888527D01*
X77686232Y-159204975D01*
X77685940Y-159559946D01*
X77686007Y-159955700D01*
X77686368Y-160394502D01*
X77686960Y-160878614D01*
X77687719Y-161410298D01*
X77688581Y-161991817D01*
X77689482Y-162625433D01*
X77689587Y-162702629D01*
X77690395Y-163340287D01*
X77691081Y-163925582D01*
X77691717Y-164460778D01*
X77692376Y-164948136D01*
X77693131Y-165389917D01*
X77694053Y-165788382D01*
X77695216Y-166145795D01*
X77696693Y-166464415D01*
X77698555Y-166746506D01*
X77700876Y-166994328D01*
X77703729Y-167210143D01*
X77707185Y-167396213D01*
X77711318Y-167554800D01*
X77716200Y-167688164D01*
X77721904Y-167798569D01*
X77728502Y-167888275D01*
X77736068Y-167959544D01*
X77744673Y-168014638D01*
X77754390Y-168055818D01*
X77765293Y-168085346D01*
X77777453Y-168105484D01*
X77790943Y-168118493D01*
X77805837Y-168126636D01*
X77822206Y-168132173D01*
X77840123Y-168137366D01*
X77859661Y-168144477D01*
X77864434Y-168146642D01*
X77879434Y-168151506D01*
X77904541Y-168155976D01*
X77941946Y-168160066D01*
X77993842Y-168163793D01*
X78062420Y-168167173D01*
X78149873Y-168170221D01*
X78258394Y-168172954D01*
X78390174Y-168175387D01*
X78547406Y-168177537D01*
X78732281Y-168179419D01*
X78946993Y-168181049D01*
X79193734Y-168182443D01*
X79474694Y-168183617D01*
X79792068Y-168184587D01*
X80148047Y-168185369D01*
X80544822Y-168185979D01*
X80984588Y-168186432D01*
X81469535Y-168186745D01*
X82001856Y-168186934D01*
X82583743Y-168187013D01*
X83217389Y-168187000D01*
X83422644Y-168186980D01*
X84070347Y-168186876D01*
X84665644Y-168186706D01*
X85210755Y-168186453D01*
X85707897Y-168186098D01*
X86159290Y-168185626D01*
X86567151Y-168185018D01*
X86933700Y-168184258D01*
X87261154Y-168183327D01*
X87551732Y-168182209D01*
X87807652Y-168180886D01*
X88031133Y-168179341D01*
X88224394Y-168177557D01*
X88389652Y-168175516D01*
X88529127Y-168173201D01*
X88645037Y-168170594D01*
X88739600Y-168167678D01*
X88815034Y-168164436D01*
X88873558Y-168160851D01*
X88917391Y-168156905D01*
X88948752Y-168152581D01*
X88969857Y-168147862D01*
X88981363Y-168143540D01*
X89001812Y-168134916D01*
X89020587Y-168128557D01*
X89037760Y-168122203D01*
X89053402Y-168113597D01*
X89067584Y-168100480D01*
X89080377Y-168080594D01*
X89091852Y-168051679D01*
X89102080Y-168011479D01*
X89111133Y-167957733D01*
X89119080Y-167888185D01*
X89125994Y-167800574D01*
X89131945Y-167692644D01*
X89137005Y-167562135D01*
X89141245Y-167406789D01*
X89144735Y-167224348D01*
X89147547Y-167012553D01*
X89148283Y-166931258D01*
X88419361Y-166931258D01*
X85842987Y-166931258D01*
X85892561Y-166856150D01*
X85941878Y-166778968D01*
X85983640Y-166705469D01*
X86018441Y-166630512D01*
X86046877Y-166548953D01*
X86069540Y-166455648D01*
X86087025Y-166345453D01*
X86099926Y-166213225D01*
X86108837Y-166053820D01*
X86114352Y-165862095D01*
X86117064Y-165632907D01*
X86117569Y-165361112D01*
X86116459Y-165041566D01*
X86115830Y-164922932D01*
X86108732Y-163651123D01*
X85303033Y-164748010D01*
X85074779Y-165059183D01*
X84877025Y-165330143D01*
X84707635Y-165564478D01*
X84564473Y-165765780D01*
X84445405Y-165937637D01*
X84348295Y-166083640D01*
X84271007Y-166207378D01*
X84211407Y-166312441D01*
X84167359Y-166402420D01*
X84136728Y-166480903D01*
X84117378Y-166551480D01*
X84107175Y-166617742D01*
X84103983Y-166683277D01*
X84105667Y-166751677D01*
X84106097Y-166760274D01*
X84114968Y-166931372D01*
X82703236Y-166931315D01*
X81291505Y-166931258D01*
X81501516Y-166719500D01*
X81558504Y-166661582D01*
X81612566Y-166605225D01*
X81666076Y-166547322D01*
X81721404Y-166484764D01*
X81780925Y-166414443D01*
X81847011Y-166333251D01*
X81922034Y-166238081D01*
X82008367Y-166125823D01*
X82108383Y-165993370D01*
X82224454Y-165837614D01*
X82358952Y-165655446D01*
X82514251Y-165443760D01*
X82692722Y-165199446D01*
X82896740Y-164919397D01*
X83128675Y-164600504D01*
X83318782Y-164338920D01*
X83557372Y-164010292D01*
X83765508Y-163722957D01*
X83945075Y-163474187D01*
X84097957Y-163261254D01*
X84226041Y-163081430D01*
X84331212Y-162931986D01*
X84415355Y-162810196D01*
X84480357Y-162713331D01*
X84528103Y-162638662D01*
X84560477Y-162583463D01*
X84579366Y-162545004D01*
X84586655Y-162520559D01*
X84584464Y-162507706D01*
X84557913Y-162473504D01*
X84500508Y-162401108D01*
X84415713Y-162294820D01*
X84306992Y-162158945D01*
X84177808Y-161997784D01*
X84031626Y-161815643D01*
X83871909Y-161616822D01*
X83702121Y-161405627D01*
X83525726Y-161186359D01*
X83346187Y-160963323D01*
X83247435Y-160840720D01*
X80795548Y-160840720D01*
X80591742Y-161209430D01*
X80591742Y-166562548D01*
X80795548Y-166931258D01*
X79590111Y-166931258D01*
X79302341Y-166931174D01*
X79064647Y-166930797D01*
X78872482Y-166929935D01*
X78721298Y-166928400D01*
X78606548Y-166926000D01*
X78523685Y-166922546D01*
X78468162Y-166917849D01*
X78435430Y-166911717D01*
X78420943Y-166903961D01*
X78420153Y-166894391D01*
X78428513Y-166882817D01*
X78428599Y-166882721D01*
X78463036Y-166832907D01*
X78508637Y-166751910D01*
X78548908Y-166671055D01*
X78625291Y-166507925D01*
X78633081Y-163674322D01*
X78640871Y-160840720D01*
X80795548Y-160840720D01*
X83247435Y-160840720D01*
X83166969Y-160740821D01*
X82991536Y-160523157D01*
X82823350Y-160314633D01*
X82665877Y-160119554D01*
X82522579Y-159942221D01*
X82396921Y-159786939D01*
X82292366Y-159658010D01*
X82212379Y-159559738D01*
X82165398Y-159502441D01*
X81982963Y-159288180D01*
X81807452Y-159094830D01*
X81645016Y-158928720D01*
X81501805Y-158796180D01*
X81400171Y-158714921D01*
X81279998Y-158628462D01*
X84043840Y-158628462D01*
X84043064Y-158790646D01*
X84050788Y-158909883D01*
X84079828Y-159020426D01*
X84124782Y-159125216D01*
X84154004Y-159184416D01*
X84185423Y-159243074D01*
X84221909Y-159305086D01*
X84266331Y-159374345D01*
X84321561Y-159454746D01*
X84390469Y-159550181D01*
X84475923Y-159664547D01*
X84580796Y-159801735D01*
X84707955Y-159965642D01*
X84860273Y-160160160D01*
X85040618Y-160389185D01*
X85251862Y-160656609D01*
X85275721Y-160686783D01*
X86108732Y-161740195D01*
X86116796Y-160573522D01*
X86118420Y-160224069D01*
X86118074Y-159928230D01*
X86115742Y-159685030D01*
X86111407Y-159493493D01*
X86105051Y-159352644D01*
X86096659Y-159261508D01*
X86093838Y-159244220D01*
X86049584Y-159062117D01*
X85991602Y-158897950D01*
X85925437Y-158765954D01*
X85885687Y-158709972D01*
X85817102Y-158628462D01*
X87118453Y-158628462D01*
X87428885Y-158628728D01*
X87688477Y-158629591D01*
X87901014Y-158631154D01*
X88070276Y-158633517D01*
X88200048Y-158636780D01*
X88294111Y-158641045D01*
X88356248Y-158646413D01*
X88390241Y-158652983D01*
X88399874Y-158660858D01*
X88399208Y-158662602D01*
X88371620Y-158704243D01*
X88325564Y-158770248D01*
X88301735Y-158803631D01*
X88277099Y-158836944D01*
X88254955Y-158866734D01*
X88235164Y-158895933D01*
X88217586Y-158927474D01*
X88202081Y-158964286D01*
X88188511Y-159009303D01*
X88176736Y-159065455D01*
X88166616Y-159135675D01*
X88158013Y-159222894D01*
X88150786Y-159330043D01*
X88144796Y-159460055D01*
X88139904Y-159615861D01*
X88135971Y-159800393D01*
X88132857Y-160016581D01*
X88130422Y-160267359D01*
X88128527Y-160555658D01*
X88127033Y-160884409D01*
X88125801Y-161256543D01*
X88124690Y-161674994D01*
X88123562Y-162142691D01*
X88122508Y-162572354D01*
X88121512Y-163051353D01*
X88120994Y-163508362D01*
X88120941Y-163940464D01*
X88121338Y-164344738D01*
X88122172Y-164718265D01*
X88123429Y-165058127D01*
X88125094Y-165361404D01*
X88127156Y-165625177D01*
X88129599Y-165846527D01*
X88132410Y-166022535D01*
X88135576Y-166150283D01*
X88139082Y-166226849D01*
X88139745Y-166234941D01*
X88163905Y-166420568D01*
X88201624Y-166569647D01*
X88259064Y-166699750D01*
X88342389Y-166828452D01*
X88352811Y-166842494D01*
X88419361Y-166931258D01*
X89148283Y-166931258D01*
X89149752Y-166769145D01*
X89151421Y-166491867D01*
X89152625Y-166178459D01*
X89153435Y-165826664D01*
X89153922Y-165434223D01*
X89154156Y-164998877D01*
X89154211Y-164518368D01*
X89154156Y-163990438D01*
X89154062Y-163412828D01*
X89154002Y-162783279D01*
X89154000Y-162658301D01*
X89153965Y-162022122D01*
X89153847Y-161438325D01*
X89153628Y-160904668D01*
X89153292Y-160418909D01*
X89152822Y-159978805D01*
X89152198Y-159582116D01*
X89151406Y-159226599D01*
X89150426Y-158910012D01*
X89149242Y-158630113D01*
X89147836Y-158384661D01*
X89146190Y-158171413D01*
X89144288Y-157988128D01*
X89142113Y-157832564D01*
X89139645Y-157702478D01*
X89136869Y-157595629D01*
X89133767Y-157509775D01*
X89130321Y-157442674D01*
X89126515Y-157392084D01*
X89122330Y-157355764D01*
X89117749Y-157331470D01*
X89112755Y-157316962D01*
X89112570Y-157316600D01*
X89102285Y-157294437D01*
X89093718Y-157274372D01*
X89084241Y-157256301D01*
X89071226Y-157240121D01*
X89052043Y-157225726D01*
X89024065Y-157213014D01*
X88984663Y-157201880D01*
X88931208Y-157192221D01*
X88861071Y-157183932D01*
X88771624Y-157176910D01*
X88660238Y-157171050D01*
X88524284Y-157166250D01*
X88361135Y-157162404D01*
X88168161Y-157159409D01*
X87942733Y-157157161D01*
X87682224Y-157155556D01*
X87384004Y-157154491D01*
X87045445Y-157153860D01*
X86663918Y-157153561D01*
X86236794Y-157153490D01*
X85761446Y-157153541D01*
G36*
X73038807Y-158519777D02*
G01*
X72744294Y-158552019D01*
X72458961Y-158609729D01*
X72171200Y-158695917D01*
X71869404Y-158813593D01*
X71541966Y-158965767D01*
X71482999Y-158995243D01*
X71347676Y-159061910D01*
X71220049Y-159121939D01*
X71112713Y-159169599D01*
X71038264Y-159199155D01*
X71026827Y-159202876D01*
X70917226Y-159235714D01*
X71407845Y-159949453D01*
X71527794Y-160123895D01*
X71637461Y-160283270D01*
X71733117Y-160422168D01*
X71811031Y-160535178D01*
X71867475Y-160616890D01*
X71898719Y-160661891D01*
X71903795Y-160669018D01*
X71924412Y-160654117D01*
X71975161Y-160609320D01*
X72046966Y-160542765D01*
X72086594Y-160505147D01*
X72311118Y-160326568D01*
X72563274Y-160190868D01*
X72780560Y-160116537D01*
X72910993Y-160093193D01*
X73074307Y-160078967D01*
X73251293Y-160074124D01*
X73422744Y-160078926D01*
X73569452Y-160093638D01*
X73627993Y-160104905D01*
X73891853Y-160195685D01*
X74129622Y-160334296D01*
X74341124Y-160520485D01*
X74526184Y-160753999D01*
X74684625Y-161034584D01*
X74816271Y-161361987D01*
X74920946Y-161735955D01*
X74983155Y-162056097D01*
X74999386Y-162197426D01*
X75010444Y-162380004D01*
X75016437Y-162590709D01*
X75017473Y-162816422D01*
X75013657Y-163044022D01*
X75005097Y-163260389D01*
X74991899Y-163452402D01*
X74974170Y-163606943D01*
X74970333Y-163630786D01*
X74885749Y-164014860D01*
X74770505Y-164354783D01*
X74623897Y-164652078D01*
X74445226Y-164908268D01*
X74318400Y-165046775D01*
X74090475Y-165234828D01*
X73840512Y-165374220D01*
X73572730Y-165464195D01*
X73291344Y-165503994D01*
X73000571Y-165492857D01*
X72704627Y-165430026D01*
X72529660Y-165368547D01*
X72287534Y-165245436D01*
X72037980Y-165068837D01*
X71898191Y-164949412D01*
X71819699Y-164880291D01*
X71758030Y-164829579D01*
X71722928Y-164805144D01*
X71718570Y-164804398D01*
X71702903Y-164829367D01*
X71662308Y-164895348D01*
X71600243Y-164996685D01*
X71520167Y-165127721D01*
X71425538Y-165282800D01*
X71319814Y-165456265D01*
X71260967Y-165552896D01*
X70811474Y-166291201D01*
X71372683Y-166568549D01*
X71575596Y-166668172D01*
X71739973Y-166746729D01*
X71875861Y-166808122D01*
X71993309Y-166856253D01*
X72102364Y-166895023D01*
X72213074Y-166928333D01*
X72335487Y-166960086D01*
X72452818Y-166987969D01*
X72557105Y-167009546D01*
X72666168Y-167025851D01*
X72790927Y-167037791D01*
X72942297Y-167046270D01*
X73131199Y-167052192D01*
X73258517Y-167054749D01*
X73440177Y-167056494D01*
X73614367Y-167055614D01*
X73769557Y-167052360D01*
X73894223Y-167046984D01*
X73976834Y-167039735D01*
X73981730Y-167039012D01*
X74410709Y-166946205D01*
X74813551Y-166805449D01*
X75190112Y-166616839D01*
X75540252Y-166380466D01*
X75863828Y-166096424D01*
X76160700Y-165764805D01*
X76375701Y-165470075D01*
X76604589Y-165084298D01*
X76789611Y-164676895D01*
X76931662Y-164244600D01*
X77031636Y-163784146D01*
X77090428Y-163292267D01*
X77108951Y-162792799D01*
X77093717Y-162309634D01*
X77045844Y-161863842D01*
X76963811Y-161447905D01*
X76846097Y-161054304D01*
X76691181Y-160675518D01*
X76672683Y-160636275D01*
X76468894Y-160269440D01*
X76218598Y-159920360D01*
X75928885Y-159596260D01*
X75606846Y-159304366D01*
X75259574Y-159051904D01*
X74935987Y-158866714D01*
X74609096Y-158721670D01*
X74281511Y-158616603D01*
X73940552Y-158548653D01*
X73573535Y-158514960D01*
X73354108Y-158509992D01*
X73038807Y-158519777D01*
X73038807Y-158519777D01*
G37*
X73038807Y-158519777D02*
X72744294Y-158552019D01*
X72458961Y-158609729D01*
X72171200Y-158695917D01*
X71869404Y-158813593D01*
X71541966Y-158965767D01*
X71482999Y-158995243D01*
X71347676Y-159061910D01*
X71220049Y-159121939D01*
X71112713Y-159169599D01*
X71038264Y-159199155D01*
X71026827Y-159202876D01*
X70917226Y-159235714D01*
X71407845Y-159949453D01*
X71527794Y-160123895D01*
X71637461Y-160283270D01*
X71733117Y-160422168D01*
X71811031Y-160535178D01*
X71867475Y-160616890D01*
X71898719Y-160661891D01*
X71903795Y-160669018D01*
X71924412Y-160654117D01*
X71975161Y-160609320D01*
X72046966Y-160542765D01*
X72086594Y-160505147D01*
X72311118Y-160326568D01*
X72563274Y-160190868D01*
X72780560Y-160116537D01*
X72910993Y-160093193D01*
X73074307Y-160078967D01*
X73251293Y-160074124D01*
X73422744Y-160078926D01*
X73569452Y-160093638D01*
X73627993Y-160104905D01*
X73891853Y-160195685D01*
X74129622Y-160334296D01*
X74341124Y-160520485D01*
X74526184Y-160753999D01*
X74684625Y-161034584D01*
X74816271Y-161361987D01*
X74920946Y-161735955D01*
X74983155Y-162056097D01*
X74999386Y-162197426D01*
X75010444Y-162380004D01*
X75016437Y-162590709D01*
X75017473Y-162816422D01*
X75013657Y-163044022D01*
X75005097Y-163260389D01*
X74991899Y-163452402D01*
X74974170Y-163606943D01*
X74970333Y-163630786D01*
X74885749Y-164014860D01*
X74770505Y-164354783D01*
X74623897Y-164652078D01*
X74445226Y-164908268D01*
X74318400Y-165046775D01*
X74090475Y-165234828D01*
X73840512Y-165374220D01*
X73572730Y-165464195D01*
X73291344Y-165503994D01*
X73000571Y-165492857D01*
X72704627Y-165430026D01*
X72529660Y-165368547D01*
X72287534Y-165245436D01*
X72037980Y-165068837D01*
X71898191Y-164949412D01*
X71819699Y-164880291D01*
X71758030Y-164829579D01*
X71722928Y-164805144D01*
X71718570Y-164804398D01*
X71702903Y-164829367D01*
X71662308Y-164895348D01*
X71600243Y-164996685D01*
X71520167Y-165127721D01*
X71425538Y-165282800D01*
X71319814Y-165456265D01*
X71260967Y-165552896D01*
X70811474Y-166291201D01*
X71372683Y-166568549D01*
X71575596Y-166668172D01*
X71739973Y-166746729D01*
X71875861Y-166808122D01*
X71993309Y-166856253D01*
X72102364Y-166895023D01*
X72213074Y-166928333D01*
X72335487Y-166960086D01*
X72452818Y-166987969D01*
X72557105Y-167009546D01*
X72666168Y-167025851D01*
X72790927Y-167037791D01*
X72942297Y-167046270D01*
X73131199Y-167052192D01*
X73258517Y-167054749D01*
X73440177Y-167056494D01*
X73614367Y-167055614D01*
X73769557Y-167052360D01*
X73894223Y-167046984D01*
X73976834Y-167039735D01*
X73981730Y-167039012D01*
X74410709Y-166946205D01*
X74813551Y-166805449D01*
X75190112Y-166616839D01*
X75540252Y-166380466D01*
X75863828Y-166096424D01*
X76160700Y-165764805D01*
X76375701Y-165470075D01*
X76604589Y-165084298D01*
X76789611Y-164676895D01*
X76931662Y-164244600D01*
X77031636Y-163784146D01*
X77090428Y-163292267D01*
X77108951Y-162792799D01*
X77093717Y-162309634D01*
X77045844Y-161863842D01*
X76963811Y-161447905D01*
X76846097Y-161054304D01*
X76691181Y-160675518D01*
X76672683Y-160636275D01*
X76468894Y-160269440D01*
X76218598Y-159920360D01*
X75928885Y-159596260D01*
X75606846Y-159304366D01*
X75259574Y-159051904D01*
X74935987Y-158866714D01*
X74609096Y-158721670D01*
X74281511Y-158616603D01*
X73940552Y-158548653D01*
X73573535Y-158514960D01*
X73354108Y-158509992D01*
X73038807Y-158519777D01*
G36*
X67613049Y-160715368D02*
G01*
X67477728Y-160725611D01*
X67090558Y-160777122D01*
X66747679Y-160859283D01*
X66447420Y-160973222D01*
X66188112Y-161120072D01*
X65968084Y-161300962D01*
X65785666Y-161517022D01*
X65639189Y-161769384D01*
X65532229Y-162042441D01*
X65505079Y-162129541D01*
X65481436Y-162211107D01*
X65461023Y-162291529D01*
X65443561Y-162375199D01*
X65428770Y-162466508D01*
X65416373Y-162569847D01*
X65406089Y-162689609D01*
X65397642Y-162830183D01*
X65390752Y-162995962D01*
X65385139Y-163191336D01*
X65380527Y-163420698D01*
X65376635Y-163688437D01*
X65373185Y-163998947D01*
X65369898Y-164356618D01*
X65367549Y-164637064D01*
X65351742Y-166562548D01*
X65249323Y-166747843D01*
X65200825Y-166837111D01*
X65164734Y-166906448D01*
X65147517Y-166943354D01*
X65146904Y-166945854D01*
X65173220Y-166948715D01*
X65248189Y-166951351D01*
X65365839Y-166953689D01*
X65520200Y-166955653D01*
X65705300Y-166957170D01*
X65915168Y-166958165D01*
X66143833Y-166958565D01*
X66171097Y-166958570D01*
X67195291Y-166958570D01*
X67195291Y-166726419D01*
X67197037Y-166621507D01*
X67201698Y-166541271D01*
X67208404Y-166498251D01*
X67211368Y-166494269D01*
X67238477Y-166510950D01*
X67294269Y-166554731D01*
X67366785Y-166616216D01*
X67368411Y-166617638D01*
X67500743Y-166716160D01*
X67667867Y-166815089D01*
X67850900Y-166904706D01*
X68030957Y-166975293D01*
X68110237Y-166999414D01*
X68268009Y-167030051D01*
X68461603Y-167049602D01*
X68673296Y-167057787D01*
X68885368Y-167054327D01*
X69080096Y-167038945D01*
X69216366Y-167016811D01*
X69550546Y-166918676D01*
X69851397Y-166778819D01*
X70116961Y-166598974D01*
X70345279Y-166380876D01*
X70534394Y-166126261D01*
X70682347Y-165836864D01*
X70746175Y-165661258D01*
X70786177Y-165490576D01*
X70812687Y-165285678D01*
X70824953Y-165065464D01*
X70824550Y-165033420D01*
X68977388Y-165033420D01*
X68962070Y-165197053D01*
X68911065Y-165333042D01*
X68816796Y-165459208D01*
X68780589Y-165496203D01*
X68651880Y-165596221D01*
X68503115Y-165660294D01*
X68324887Y-165691309D01*
X68137202Y-165693593D01*
X67959186Y-165678514D01*
X67822888Y-165649021D01*
X67763694Y-165626869D01*
X67657005Y-165566496D01*
X67543963Y-165481589D01*
X67440825Y-165386295D01*
X67363849Y-165294760D01*
X67343409Y-165261181D01*
X67327519Y-165214157D01*
X67316222Y-165139333D01*
X67308991Y-165029560D01*
X67305300Y-164877692D01*
X67304538Y-164733155D01*
X67305054Y-164564644D01*
X67307140Y-164442799D01*
X67311598Y-164359666D01*
X67319235Y-164307292D01*
X67330854Y-164277726D01*
X67347260Y-164263013D01*
X67352334Y-164260670D01*
X67396430Y-164253453D01*
X67483400Y-164247550D01*
X67601500Y-164243493D01*
X67738986Y-164241815D01*
X67768839Y-164241813D01*
X67952614Y-164244746D01*
X68094593Y-164253469D01*
X68207409Y-164269177D01*
X68300598Y-164292118D01*
X68531754Y-164379535D01*
X68713027Y-164487010D01*
X68845986Y-164616262D01*
X68932199Y-164769010D01*
X68973238Y-164946972D01*
X68977388Y-165033420D01*
X70824550Y-165033420D01*
X70822224Y-164848834D01*
X70803748Y-164654689D01*
X70789336Y-164576252D01*
X70697310Y-164285017D01*
X70557377Y-164017054D01*
X70372177Y-163774932D01*
X70144352Y-163561221D01*
X69876543Y-163378492D01*
X69571393Y-163229314D01*
X69311957Y-163138727D01*
X69138566Y-163091136D01*
X68972718Y-163054155D01*
X68803671Y-163026585D01*
X68620683Y-163007224D01*
X68413011Y-162994871D01*
X68169913Y-162988326D01*
X67950128Y-162986483D01*
X67298406Y-162984699D01*
X67310891Y-162788798D01*
X67346343Y-162576243D01*
X67421759Y-162393543D01*
X67533927Y-162245262D01*
X67679636Y-162135960D01*
X67807936Y-162082624D01*
X67991765Y-162049010D01*
X68210606Y-162044183D01*
X68454200Y-162066363D01*
X68712290Y-162113772D01*
X68974615Y-162184629D01*
X69230918Y-162277155D01*
X69417176Y-162361778D01*
X69506789Y-162405231D01*
X69575142Y-162435580D01*
X69609903Y-162447423D01*
X69611789Y-162447043D01*
X69623785Y-162420518D01*
X69653738Y-162350210D01*
X69698830Y-162242855D01*
X69756243Y-162105190D01*
X69823158Y-161943949D01*
X69891176Y-161779395D01*
X70163103Y-161120328D01*
X69969681Y-161088559D01*
X69885846Y-161072619D01*
X69759817Y-161045847D01*
X69602392Y-161010673D01*
X69424367Y-160969528D01*
X69236537Y-160924842D01*
X69161742Y-160906683D01*
X68838162Y-160831631D01*
X68554868Y-160775362D01*
X68301285Y-160736738D01*
X68066838Y-160714623D01*
X67840951Y-160707878D01*
X67613049Y-160715368D01*
X67613049Y-160715368D01*
G37*
X67613049Y-160715368D02*
X67477728Y-160725611D01*
X67090558Y-160777122D01*
X66747679Y-160859283D01*
X66447420Y-160973222D01*
X66188112Y-161120072D01*
X65968084Y-161300962D01*
X65785666Y-161517022D01*
X65639189Y-161769384D01*
X65532229Y-162042441D01*
X65505079Y-162129541D01*
X65481436Y-162211107D01*
X65461023Y-162291529D01*
X65443561Y-162375199D01*
X65428770Y-162466508D01*
X65416373Y-162569847D01*
X65406089Y-162689609D01*
X65397642Y-162830183D01*
X65390752Y-162995962D01*
X65385139Y-163191336D01*
X65380527Y-163420698D01*
X65376635Y-163688437D01*
X65373185Y-163998947D01*
X65369898Y-164356618D01*
X65367549Y-164637064D01*
X65351742Y-166562548D01*
X65249323Y-166747843D01*
X65200825Y-166837111D01*
X65164734Y-166906448D01*
X65147517Y-166943354D01*
X65146904Y-166945854D01*
X65173220Y-166948715D01*
X65248189Y-166951351D01*
X65365839Y-166953689D01*
X65520200Y-166955653D01*
X65705300Y-166957170D01*
X65915168Y-166958165D01*
X66143833Y-166958565D01*
X66171097Y-166958570D01*
X67195291Y-166958570D01*
X67195291Y-166726419D01*
X67197037Y-166621507D01*
X67201698Y-166541271D01*
X67208404Y-166498251D01*
X67211368Y-166494269D01*
X67238477Y-166510950D01*
X67294269Y-166554731D01*
X67366785Y-166616216D01*
X67368411Y-166617638D01*
X67500743Y-166716160D01*
X67667867Y-166815089D01*
X67850900Y-166904706D01*
X68030957Y-166975293D01*
X68110237Y-166999414D01*
X68268009Y-167030051D01*
X68461603Y-167049602D01*
X68673296Y-167057787D01*
X68885368Y-167054327D01*
X69080096Y-167038945D01*
X69216366Y-167016811D01*
X69550546Y-166918676D01*
X69851397Y-166778819D01*
X70116961Y-166598974D01*
X70345279Y-166380876D01*
X70534394Y-166126261D01*
X70682347Y-165836864D01*
X70746175Y-165661258D01*
X70786177Y-165490576D01*
X70812687Y-165285678D01*
X70824953Y-165065464D01*
X70824550Y-165033420D01*
X68977388Y-165033420D01*
X68962070Y-165197053D01*
X68911065Y-165333042D01*
X68816796Y-165459208D01*
X68780589Y-165496203D01*
X68651880Y-165596221D01*
X68503115Y-165660294D01*
X68324887Y-165691309D01*
X68137202Y-165693593D01*
X67959186Y-165678514D01*
X67822888Y-165649021D01*
X67763694Y-165626869D01*
X67657005Y-165566496D01*
X67543963Y-165481589D01*
X67440825Y-165386295D01*
X67363849Y-165294760D01*
X67343409Y-165261181D01*
X67327519Y-165214157D01*
X67316222Y-165139333D01*
X67308991Y-165029560D01*
X67305300Y-164877692D01*
X67304538Y-164733155D01*
X67305054Y-164564644D01*
X67307140Y-164442799D01*
X67311598Y-164359666D01*
X67319235Y-164307292D01*
X67330854Y-164277726D01*
X67347260Y-164263013D01*
X67352334Y-164260670D01*
X67396430Y-164253453D01*
X67483400Y-164247550D01*
X67601500Y-164243493D01*
X67738986Y-164241815D01*
X67768839Y-164241813D01*
X67952614Y-164244746D01*
X68094593Y-164253469D01*
X68207409Y-164269177D01*
X68300598Y-164292118D01*
X68531754Y-164379535D01*
X68713027Y-164487010D01*
X68845986Y-164616262D01*
X68932199Y-164769010D01*
X68973238Y-164946972D01*
X68977388Y-165033420D01*
X70824550Y-165033420D01*
X70822224Y-164848834D01*
X70803748Y-164654689D01*
X70789336Y-164576252D01*
X70697310Y-164285017D01*
X70557377Y-164017054D01*
X70372177Y-163774932D01*
X70144352Y-163561221D01*
X69876543Y-163378492D01*
X69571393Y-163229314D01*
X69311957Y-163138727D01*
X69138566Y-163091136D01*
X68972718Y-163054155D01*
X68803671Y-163026585D01*
X68620683Y-163007224D01*
X68413011Y-162994871D01*
X68169913Y-162988326D01*
X67950128Y-162986483D01*
X67298406Y-162984699D01*
X67310891Y-162788798D01*
X67346343Y-162576243D01*
X67421759Y-162393543D01*
X67533927Y-162245262D01*
X67679636Y-162135960D01*
X67807936Y-162082624D01*
X67991765Y-162049010D01*
X68210606Y-162044183D01*
X68454200Y-162066363D01*
X68712290Y-162113772D01*
X68974615Y-162184629D01*
X69230918Y-162277155D01*
X69417176Y-162361778D01*
X69506789Y-162405231D01*
X69575142Y-162435580D01*
X69609903Y-162447423D01*
X69611789Y-162447043D01*
X69623785Y-162420518D01*
X69653738Y-162350210D01*
X69698830Y-162242855D01*
X69756243Y-162105190D01*
X69823158Y-161943949D01*
X69891176Y-161779395D01*
X70163103Y-161120328D01*
X69969681Y-161088559D01*
X69885846Y-161072619D01*
X69759817Y-161045847D01*
X69602392Y-161010673D01*
X69424367Y-160969528D01*
X69236537Y-160924842D01*
X69161742Y-160906683D01*
X68838162Y-160831631D01*
X68554868Y-160775362D01*
X68301285Y-160736738D01*
X68066838Y-160714623D01*
X67840951Y-160707878D01*
X67613049Y-160715368D01*
G36*
X60303033Y-158114618D02*
G01*
X60070746Y-158115571D01*
X59991796Y-158116052D01*
X58906151Y-158123193D01*
X58892495Y-162288247D01*
X58890692Y-162853041D01*
X58889092Y-163365864D01*
X58887594Y-163829371D01*
X58886094Y-164246214D01*
X58884491Y-164619045D01*
X58882680Y-164950519D01*
X58880560Y-165243286D01*
X58878028Y-165500002D01*
X58874980Y-165723318D01*
X58871315Y-165915887D01*
X58866929Y-166080363D01*
X58861720Y-166219398D01*
X58855584Y-166335644D01*
X58848420Y-166431756D01*
X58840125Y-166510386D01*
X58830595Y-166574187D01*
X58819728Y-166625811D01*
X58807421Y-166667912D01*
X58793572Y-166703143D01*
X58778077Y-166734156D01*
X58760835Y-166763604D01*
X58741742Y-166794141D01*
X58720695Y-166828418D01*
X58716381Y-166835720D01*
X58644004Y-166959221D01*
X59690024Y-166952068D01*
X60736044Y-166944914D01*
X60749699Y-166715142D01*
X60757135Y-166604873D01*
X60764883Y-166541122D01*
X60775397Y-166515827D01*
X60791128Y-166520922D01*
X60804323Y-166535498D01*
X60861803Y-166588591D01*
X60955487Y-166656837D01*
X61072175Y-166732080D01*
X61198669Y-166806167D01*
X61321769Y-166870943D01*
X61416287Y-166913561D01*
X61637726Y-166983595D01*
X61891793Y-167033204D01*
X62159734Y-167060494D01*
X62422789Y-167063569D01*
X62662205Y-167040532D01*
X62666147Y-167039873D01*
X62993747Y-166957669D01*
X63300413Y-166826700D01*
X63583186Y-166649780D01*
X63839108Y-166429726D01*
X64065222Y-166169351D01*
X64258570Y-165871472D01*
X64416194Y-165538904D01*
X64502016Y-165292548D01*
X64558611Y-165086445D01*
X64600582Y-164886867D01*
X64629211Y-164681690D01*
X64645782Y-164458791D01*
X64651577Y-164206045D01*
X64649011Y-163999662D01*
X62633675Y-163999662D01*
X62624138Y-164345732D01*
X62594054Y-164643467D01*
X62542497Y-164895510D01*
X62468542Y-165104502D01*
X62371262Y-165273086D01*
X62249734Y-165403906D01*
X62109454Y-165496385D01*
X62036460Y-165530909D01*
X61973153Y-165551607D01*
X61902573Y-165561077D01*
X61807758Y-165561915D01*
X61705613Y-165558228D01*
X61504739Y-165540510D01*
X61345866Y-165505813D01*
X61295936Y-165488433D01*
X61181925Y-165437102D01*
X61061677Y-165372643D01*
X61009162Y-165340376D01*
X60872603Y-165250805D01*
X60872603Y-162411706D01*
X61022818Y-162321665D01*
X61232308Y-162219923D01*
X61446342Y-162159751D01*
X61657091Y-162140796D01*
X61856727Y-162162701D01*
X62037423Y-162225113D01*
X62191351Y-162327676D01*
X62241019Y-162376906D01*
X62360738Y-162538211D01*
X62457636Y-162733471D01*
X62532523Y-162966031D01*
X62586207Y-163239239D01*
X62619500Y-163556441D01*
X62633211Y-163920984D01*
X62633675Y-163999662D01*
X64649011Y-163999662D01*
X64647942Y-163913756D01*
X64624918Y-163464158D01*
X64578622Y-163058628D01*
X64507836Y-162691257D01*
X64411339Y-162356137D01*
X64287913Y-162047363D01*
X64243869Y-161955822D01*
X64066460Y-161657296D01*
X63852070Y-161392007D01*
X63605741Y-161164237D01*
X63332513Y-160978268D01*
X63037426Y-160838382D01*
X62860541Y-160780678D01*
X62686822Y-160746422D01*
X62477795Y-160726041D01*
X62250986Y-160719525D01*
X62023916Y-160726866D01*
X61814108Y-160748055D01*
X61645648Y-160781295D01*
X61445143Y-160846482D01*
X61250805Y-160930307D01*
X61080776Y-161024280D01*
X60990279Y-161088058D01*
X60927856Y-161135484D01*
X60884147Y-161164361D01*
X60874204Y-161168462D01*
X60871121Y-161142041D01*
X60868247Y-161066339D01*
X60865645Y-160946698D01*
X60863379Y-160788462D01*
X60861512Y-160596973D01*
X60860109Y-160377574D01*
X60859233Y-160135607D01*
X60858947Y-159889147D01*
X60859106Y-159573476D01*
X60859892Y-159307337D01*
X60861762Y-159085641D01*
X60865175Y-158903296D01*
X60870591Y-158755212D01*
X60878469Y-158636299D01*
X60889267Y-158541465D01*
X60903445Y-158465620D01*
X60921461Y-158403674D01*
X60943775Y-158350536D01*
X60970846Y-158301115D01*
X61003133Y-158250321D01*
X61007287Y-158244031D01*
X61048929Y-158178245D01*
X61074071Y-158133008D01*
X61077441Y-158123466D01*
X61051097Y-158120455D01*
X60975931Y-158118006D01*
X60857743Y-158116158D01*
X60702331Y-158114951D01*
X60515494Y-158114424D01*
X60303033Y-158114618D01*
X60303033Y-158114618D01*
G37*
X60303033Y-158114618D02*
X60070746Y-158115571D01*
X59991796Y-158116052D01*
X58906151Y-158123193D01*
X58892495Y-162288247D01*
X58890692Y-162853041D01*
X58889092Y-163365864D01*
X58887594Y-163829371D01*
X58886094Y-164246214D01*
X58884491Y-164619045D01*
X58882680Y-164950519D01*
X58880560Y-165243286D01*
X58878028Y-165500002D01*
X58874980Y-165723318D01*
X58871315Y-165915887D01*
X58866929Y-166080363D01*
X58861720Y-166219398D01*
X58855584Y-166335644D01*
X58848420Y-166431756D01*
X58840125Y-166510386D01*
X58830595Y-166574187D01*
X58819728Y-166625811D01*
X58807421Y-166667912D01*
X58793572Y-166703143D01*
X58778077Y-166734156D01*
X58760835Y-166763604D01*
X58741742Y-166794141D01*
X58720695Y-166828418D01*
X58716381Y-166835720D01*
X58644004Y-166959221D01*
X59690024Y-166952068D01*
X60736044Y-166944914D01*
X60749699Y-166715142D01*
X60757135Y-166604873D01*
X60764883Y-166541122D01*
X60775397Y-166515827D01*
X60791128Y-166520922D01*
X60804323Y-166535498D01*
X60861803Y-166588591D01*
X60955487Y-166656837D01*
X61072175Y-166732080D01*
X61198669Y-166806167D01*
X61321769Y-166870943D01*
X61416287Y-166913561D01*
X61637726Y-166983595D01*
X61891793Y-167033204D01*
X62159734Y-167060494D01*
X62422789Y-167063569D01*
X62662205Y-167040532D01*
X62666147Y-167039873D01*
X62993747Y-166957669D01*
X63300413Y-166826700D01*
X63583186Y-166649780D01*
X63839108Y-166429726D01*
X64065222Y-166169351D01*
X64258570Y-165871472D01*
X64416194Y-165538904D01*
X64502016Y-165292548D01*
X64558611Y-165086445D01*
X64600582Y-164886867D01*
X64629211Y-164681690D01*
X64645782Y-164458791D01*
X64651577Y-164206045D01*
X64649011Y-163999662D01*
X62633675Y-163999662D01*
X62624138Y-164345732D01*
X62594054Y-164643467D01*
X62542497Y-164895510D01*
X62468542Y-165104502D01*
X62371262Y-165273086D01*
X62249734Y-165403906D01*
X62109454Y-165496385D01*
X62036460Y-165530909D01*
X61973153Y-165551607D01*
X61902573Y-165561077D01*
X61807758Y-165561915D01*
X61705613Y-165558228D01*
X61504739Y-165540510D01*
X61345866Y-165505813D01*
X61295936Y-165488433D01*
X61181925Y-165437102D01*
X61061677Y-165372643D01*
X61009162Y-165340376D01*
X60872603Y-165250805D01*
X60872603Y-162411706D01*
X61022818Y-162321665D01*
X61232308Y-162219923D01*
X61446342Y-162159751D01*
X61657091Y-162140796D01*
X61856727Y-162162701D01*
X62037423Y-162225113D01*
X62191351Y-162327676D01*
X62241019Y-162376906D01*
X62360738Y-162538211D01*
X62457636Y-162733471D01*
X62532523Y-162966031D01*
X62586207Y-163239239D01*
X62619500Y-163556441D01*
X62633211Y-163920984D01*
X62633675Y-163999662D01*
X64649011Y-163999662D01*
X64647942Y-163913756D01*
X64624918Y-163464158D01*
X64578622Y-163058628D01*
X64507836Y-162691257D01*
X64411339Y-162356137D01*
X64287913Y-162047363D01*
X64243869Y-161955822D01*
X64066460Y-161657296D01*
X63852070Y-161392007D01*
X63605741Y-161164237D01*
X63332513Y-160978268D01*
X63037426Y-160838382D01*
X62860541Y-160780678D01*
X62686822Y-160746422D01*
X62477795Y-160726041D01*
X62250986Y-160719525D01*
X62023916Y-160726866D01*
X61814108Y-160748055D01*
X61645648Y-160781295D01*
X61445143Y-160846482D01*
X61250805Y-160930307D01*
X61080776Y-161024280D01*
X60990279Y-161088058D01*
X60927856Y-161135484D01*
X60884147Y-161164361D01*
X60874204Y-161168462D01*
X60871121Y-161142041D01*
X60868247Y-161066339D01*
X60865645Y-160946698D01*
X60863379Y-160788462D01*
X60861512Y-160596973D01*
X60860109Y-160377574D01*
X60859233Y-160135607D01*
X60858947Y-159889147D01*
X60859106Y-159573476D01*
X60859892Y-159307337D01*
X60861762Y-159085641D01*
X60865175Y-158903296D01*
X60870591Y-158755212D01*
X60878469Y-158636299D01*
X60889267Y-158541465D01*
X60903445Y-158465620D01*
X60921461Y-158403674D01*
X60943775Y-158350536D01*
X60970846Y-158301115D01*
X61003133Y-158250321D01*
X61007287Y-158244031D01*
X61048929Y-158178245D01*
X61074071Y-158133008D01*
X61077441Y-158123466D01*
X61051097Y-158120455D01*
X60975931Y-158118006D01*
X60857743Y-158116158D01*
X60702331Y-158114951D01*
X60515494Y-158114424D01*
X60303033Y-158114618D01*
G36*
X79336844Y-156283844D02*
G01*
X79131742Y-156354957D01*
X78940785Y-156466889D01*
X78770243Y-156619625D01*
X78626387Y-156813151D01*
X78561768Y-156935129D01*
X78505842Y-157105743D01*
X78478735Y-157302711D01*
X78481738Y-157505205D01*
X78515067Y-157688699D01*
X78606162Y-157912924D01*
X78738258Y-158107422D01*
X78904642Y-158268367D01*
X79098598Y-158391933D01*
X79313414Y-158474292D01*
X79542375Y-158511617D01*
X79778767Y-158500082D01*
X79895291Y-158475430D01*
X80122385Y-158387091D01*
X80324081Y-158252290D01*
X80495515Y-158075183D01*
X80631820Y-157859927D01*
X80643352Y-157836419D01*
X80683217Y-157748205D01*
X80708249Y-157673910D01*
X80721839Y-157595535D01*
X80727382Y-157495080D01*
X80728302Y-157385774D01*
X80726780Y-157254448D01*
X80719914Y-157159509D01*
X80704250Y-157082753D01*
X80676333Y-157005974D01*
X80641873Y-156930223D01*
X80513338Y-156715190D01*
X80355052Y-156541080D01*
X80173287Y-156407876D01*
X79974313Y-156315566D01*
X79764400Y-156264134D01*
X79549821Y-156253565D01*
X79336844Y-156283844D01*
X79336844Y-156283844D01*
G37*
X79336844Y-156283844D02*
X79131742Y-156354957D01*
X78940785Y-156466889D01*
X78770243Y-156619625D01*
X78626387Y-156813151D01*
X78561768Y-156935129D01*
X78505842Y-157105743D01*
X78478735Y-157302711D01*
X78481738Y-157505205D01*
X78515067Y-157688699D01*
X78606162Y-157912924D01*
X78738258Y-158107422D01*
X78904642Y-158268367D01*
X79098598Y-158391933D01*
X79313414Y-158474292D01*
X79542375Y-158511617D01*
X79778767Y-158500082D01*
X79895291Y-158475430D01*
X80122385Y-158387091D01*
X80324081Y-158252290D01*
X80495515Y-158075183D01*
X80631820Y-157859927D01*
X80643352Y-157836419D01*
X80683217Y-157748205D01*
X80708249Y-157673910D01*
X80721839Y-157595535D01*
X80727382Y-157495080D01*
X80728302Y-157385774D01*
X80726780Y-157254448D01*
X80719914Y-157159509D01*
X80704250Y-157082753D01*
X80676333Y-157005974D01*
X80641873Y-156930223D01*
X80513338Y-156715190D01*
X80355052Y-156541080D01*
X80173287Y-156407876D01*
X79974313Y-156315566D01*
X79764400Y-156264134D01*
X79549821Y-156253565D01*
X79336844Y-156283844D01*
G36*
X60306262Y-57705885D02*
G01*
X83624295Y-57705885D01*
X83624295Y-51959655D01*
X60306262Y-51959655D01*
X60306262Y-57705885D01*
X60306262Y-57705885D01*
G37*
X60306262Y-57705885D02*
X83624295Y-57705885D01*
X83624295Y-51959655D01*
X60306262Y-51959655D01*
X60306262Y-57705885D01*
G36*
X57812003Y-18279632D02*
G01*
X57816104Y-18856377D01*
X60807855Y-21896049D01*
X63799605Y-24935721D01*
X63803967Y-27725557D01*
X65625893Y-27725557D01*
X65672839Y-28079492D01*
X65690615Y-28240815D01*
X65720579Y-28544613D01*
X65761128Y-28972763D01*
X65810660Y-29507143D01*
X65867571Y-30129631D01*
X65930259Y-30822105D01*
X65997122Y-31566442D01*
X66066556Y-32344521D01*
X66136960Y-33138220D01*
X66206729Y-33929415D01*
X66274262Y-34699987D01*
X66337956Y-35431811D01*
X66396208Y-36106767D01*
X66447415Y-36706731D01*
X66489976Y-37213583D01*
X66522286Y-37609199D01*
X66542743Y-37875458D01*
X66549746Y-37994238D01*
X66549740Y-37994804D01*
X66498686Y-38090112D01*
X66345340Y-38286906D01*
X66087614Y-38587475D01*
X65723422Y-38994110D01*
X65250679Y-39509103D01*
X64667296Y-40134743D01*
X63971189Y-40873322D01*
X63160269Y-41727130D01*
X62932336Y-41966213D01*
X59317356Y-45755393D01*
X59609612Y-46046869D01*
X59901868Y-46338344D01*
X60374721Y-45823888D01*
X60547707Y-45637965D01*
X60817923Y-45350450D01*
X61167542Y-44980179D01*
X61578733Y-44545986D01*
X62033671Y-44066708D01*
X62514525Y-43561181D01*
X62802195Y-43259253D01*
X63342262Y-42693621D01*
X63778794Y-42240553D01*
X64122922Y-41891810D01*
X64385779Y-41639154D01*
X64578493Y-41474346D01*
X64712198Y-41389147D01*
X64798022Y-41375319D01*
X64847099Y-41424624D01*
X64870558Y-41528823D01*
X64879531Y-41679677D01*
X64880737Y-41720845D01*
X64943114Y-42004448D01*
X65096804Y-42347239D01*
X65311129Y-42695006D01*
X65555411Y-42993539D01*
X65653158Y-43085758D01*
X66154690Y-43408425D01*
X66740548Y-43588961D01*
X67258516Y-43631787D01*
X67845521Y-43551012D01*
X68387651Y-43314155D01*
X68867467Y-42929418D01*
X68955998Y-42833652D01*
X69279719Y-42465885D01*
X74880033Y-42465885D01*
X74880033Y-43631787D01*
X76379049Y-43631787D01*
X76379049Y-43087103D01*
X76397859Y-42715262D01*
X76461060Y-42457165D01*
X76537870Y-42316775D01*
X76592752Y-42216326D01*
X76639746Y-42070684D01*
X76681966Y-41858258D01*
X76722527Y-41557458D01*
X76764543Y-41146691D01*
X76811127Y-40604368D01*
X76843024Y-40200922D01*
X76989356Y-38310713D01*
X80581676Y-41949775D01*
X81231203Y-42608248D01*
X81854733Y-43241315D01*
X82440871Y-43837348D01*
X82978226Y-44384715D01*
X83455402Y-44871789D01*
X83861008Y-45286938D01*
X84183649Y-45618533D01*
X84411932Y-45854945D01*
X84534342Y-45984410D01*
X84735446Y-46189382D01*
X84903192Y-46332343D01*
X84993419Y-46379983D01*
X85108663Y-46324180D01*
X85276652Y-46184750D01*
X85333595Y-46127969D01*
X85575041Y-45875954D01*
X84245733Y-44525123D01*
X83906602Y-44181004D01*
X83469311Y-43738071D01*
X82953041Y-43215713D01*
X82376978Y-42633319D01*
X81760302Y-42010278D01*
X81122198Y-41365979D01*
X80481848Y-40719810D01*
X80022492Y-40256549D01*
X79324228Y-39550578D01*
X78737610Y-38952898D01*
X78255135Y-38455420D01*
X77869299Y-38050053D01*
X77572600Y-37728707D01*
X77425549Y-37560905D01*
X76244693Y-37560905D01*
X76096849Y-39451264D01*
X76052264Y-40005365D01*
X76009135Y-40512076D01*
X75969906Y-40944910D01*
X75937019Y-41277385D01*
X75912919Y-41483015D01*
X75905163Y-41529000D01*
X75861321Y-41716377D01*
X69573000Y-41716377D01*
X69531023Y-41193436D01*
X69404288Y-40575577D01*
X69139077Y-40029023D01*
X68752108Y-39573679D01*
X68260099Y-39229448D01*
X67707872Y-39022813D01*
X67528720Y-38925887D01*
X67439028Y-38717865D01*
X67437151Y-38708689D01*
X67426389Y-38620868D01*
X67439692Y-38530942D01*
X67490044Y-38422228D01*
X67590430Y-38278048D01*
X67753833Y-38081720D01*
X67993239Y-37816565D01*
X68321632Y-37465902D01*
X68751997Y-37013051D01*
X68779804Y-36983882D01*
X69242708Y-36497797D01*
X69734839Y-35980054D01*
X70222381Y-35466295D01*
X70671517Y-34992163D01*
X71048431Y-34593301D01*
X71132492Y-34504132D01*
X71454729Y-34167904D01*
X71740987Y-33880172D01*
X71970714Y-33660725D01*
X72123362Y-33529354D01*
X72174614Y-33500481D01*
X72251044Y-33560910D01*
X72429785Y-33726683D01*
X72696761Y-33983999D01*
X73037895Y-34319058D01*
X73439114Y-34718058D01*
X73886340Y-35167199D01*
X74251863Y-35537165D01*
X76244693Y-37560905D01*
X77425549Y-37560905D01*
X77357533Y-37483291D01*
X77216594Y-37305717D01*
X77142281Y-37187892D01*
X77125745Y-37133328D01*
X77132009Y-37014248D01*
X77151038Y-36744711D01*
X77181600Y-36340227D01*
X77222466Y-35816308D01*
X77272403Y-35188464D01*
X77330179Y-34472208D01*
X77394564Y-33683049D01*
X77464327Y-32836498D01*
X77520548Y-32159928D01*
X77838659Y-28345364D01*
X77020118Y-28345364D01*
X77016592Y-28427684D01*
X77000011Y-28659529D01*
X76971707Y-29024491D01*
X76933012Y-29506159D01*
X76885258Y-30088125D01*
X76829777Y-30753980D01*
X76767902Y-31487313D01*
X76708524Y-32183566D01*
X76641263Y-32973544D01*
X76578613Y-33719262D01*
X76522009Y-34402921D01*
X76472887Y-35006720D01*
X76432682Y-35512857D01*
X76402829Y-35903531D01*
X76384764Y-36160943D01*
X76379750Y-36260913D01*
X76371930Y-36323132D01*
X76340942Y-36347821D01*
X76274842Y-36324677D01*
X76161685Y-36243400D01*
X75989526Y-36093686D01*
X75746421Y-35865234D01*
X75420424Y-35547742D01*
X74999591Y-35130908D01*
X74553070Y-34685475D01*
X72727092Y-32860912D01*
X72739890Y-32847196D01*
X71532901Y-32847196D01*
X71477894Y-32922528D01*
X71323899Y-33099907D01*
X71086352Y-33363033D01*
X70780686Y-33695603D01*
X70422336Y-34081314D01*
X70026736Y-34503866D01*
X69609319Y-34946954D01*
X69185520Y-35394278D01*
X68770773Y-35829535D01*
X68380512Y-36236422D01*
X68030171Y-36598639D01*
X67735184Y-36899881D01*
X67510986Y-37123848D01*
X67373011Y-37254237D01*
X67335385Y-37280800D01*
X67322981Y-37195060D01*
X67297232Y-36958243D01*
X67259555Y-36585174D01*
X67211365Y-36090677D01*
X67154079Y-35489578D01*
X67089112Y-34796701D01*
X67017880Y-34026872D01*
X66941799Y-33194915D01*
X66881054Y-32524072D01*
X66803350Y-31654221D01*
X66731559Y-30834783D01*
X66666888Y-30080623D01*
X66610544Y-29406608D01*
X66563736Y-28827601D01*
X66527670Y-28358468D01*
X66503552Y-28014075D01*
X66492592Y-27809286D01*
X66493846Y-27756115D01*
X66559357Y-27803476D01*
X66726188Y-27955716D01*
X66979754Y-28198100D01*
X67305469Y-28515891D01*
X67688750Y-28894354D01*
X68115011Y-29318755D01*
X68569668Y-29774358D01*
X69038135Y-30246427D01*
X69505828Y-30720226D01*
X69958162Y-31181022D01*
X70380552Y-31614077D01*
X70758413Y-32004657D01*
X71077162Y-32338027D01*
X71322211Y-32599450D01*
X71478978Y-32774192D01*
X71532901Y-32847196D01*
X72739890Y-32847196D01*
X73407988Y-32131180D01*
X73754759Y-31760838D01*
X74143965Y-31347375D01*
X74560218Y-30906918D01*
X74988130Y-30455597D01*
X75412312Y-30009539D01*
X75817375Y-29584873D01*
X76187932Y-29197727D01*
X76508594Y-28864229D01*
X76763972Y-28600509D01*
X76938679Y-28422693D01*
X77017325Y-28346911D01*
X77020118Y-28345364D01*
X77838659Y-28345364D01*
X77918164Y-27392004D01*
X81895492Y-23209157D01*
X85872819Y-19026311D01*
X85866965Y-17857033D01*
X85224483Y-18543346D01*
X84864912Y-18926133D01*
X84440387Y-19375859D01*
X83962365Y-19880557D01*
X83442303Y-20428257D01*
X82891655Y-21006993D01*
X82321880Y-21604797D01*
X81744433Y-22209700D01*
X81170770Y-22809736D01*
X80612349Y-23392936D01*
X80080626Y-23947333D01*
X79587056Y-24460959D01*
X79143097Y-24921846D01*
X78760205Y-25318026D01*
X78449837Y-25637532D01*
X78223448Y-25868396D01*
X78092495Y-25998649D01*
X78063794Y-26023636D01*
X78061822Y-25936714D01*
X78072678Y-25714166D01*
X78094477Y-25386271D01*
X78125336Y-24983310D01*
X78138581Y-24822337D01*
X78237232Y-23644901D01*
X77464845Y-23644901D01*
X77424968Y-23832278D01*
X77404631Y-23980467D01*
X77376053Y-24259290D01*
X77342540Y-24633224D01*
X77307394Y-25066747D01*
X77295229Y-25227196D01*
X77259351Y-25687884D01*
X77223139Y-26115704D01*
X77190216Y-26470236D01*
X77164203Y-26711057D01*
X77158337Y-26754760D01*
X77136208Y-26844484D01*
X77088307Y-26949511D01*
X77004450Y-27081616D01*
X76874452Y-27252570D01*
X76688127Y-27474148D01*
X76435291Y-27758123D01*
X76105758Y-28116268D01*
X75689344Y-28560357D01*
X75175863Y-29102163D01*
X74652051Y-29651914D01*
X74130914Y-30195951D01*
X73644447Y-30699789D01*
X73204760Y-31151180D01*
X72823963Y-31537875D01*
X72514166Y-31847624D01*
X72287479Y-32068178D01*
X72156012Y-32187288D01*
X72127976Y-32205007D01*
X72054216Y-32140757D01*
X71881806Y-31973200D01*
X71627480Y-31719146D01*
X71307972Y-31395404D01*
X70940016Y-31018783D01*
X70673917Y-30744410D01*
X69284680Y-29307852D01*
X73381016Y-29307852D01*
X73381016Y-27725557D01*
X68384295Y-27725557D01*
X68384295Y-28430585D01*
X67468229Y-27517360D01*
X66818400Y-26869545D01*
X65552819Y-26869545D01*
X65540713Y-26971736D01*
X65479440Y-27028674D01*
X65331568Y-27053483D01*
X65059665Y-27059285D01*
X65011508Y-27059328D01*
X64470197Y-27059328D01*
X64470197Y-25606762D01*
X65011508Y-26143262D01*
X65316863Y-26469440D01*
X65499498Y-26719328D01*
X65552819Y-26869545D01*
X66818400Y-26869545D01*
X66552164Y-26604135D01*
X66552164Y-25790748D01*
X66549613Y-25416538D01*
X66537940Y-25178475D01*
X66511114Y-25046180D01*
X66463105Y-24989271D01*
X66390709Y-24977360D01*
X66310192Y-24959873D01*
X66250680Y-24889758D01*
X66204978Y-24740540D01*
X66165891Y-24485742D01*
X66126225Y-24098888D01*
X66113496Y-23957196D01*
X66085936Y-23644901D01*
X77464845Y-23644901D01*
X78237232Y-23644901D01*
X79293803Y-23644901D01*
X79293803Y-22895393D01*
X78844798Y-22895393D01*
X78582183Y-22888199D01*
X78439486Y-22853481D01*
X78422028Y-22832817D01*
X77502343Y-22832817D01*
X77453940Y-22880024D01*
X77286281Y-22894593D01*
X77173127Y-22895393D01*
X76795442Y-22895393D01*
X75387002Y-22895393D01*
X66018689Y-22895393D01*
X66335554Y-22570894D01*
X66827696Y-22170457D01*
X67436783Y-21861610D01*
X68173135Y-21640121D01*
X68904787Y-21517621D01*
X69383639Y-21460464D01*
X69383639Y-22062606D01*
X73214459Y-22062606D01*
X73214459Y-21379473D01*
X73776590Y-21436444D01*
X74169352Y-21484527D01*
X74587813Y-21548264D01*
X74838393Y-21593784D01*
X75338065Y-21694154D01*
X75362533Y-22294774D01*
X75387002Y-22895393D01*
X76795442Y-22895393D01*
X76795442Y-22562278D01*
X76806454Y-22353596D01*
X76833959Y-22237607D01*
X76845046Y-22229164D01*
X76968335Y-22282579D01*
X77148458Y-22412167D01*
X77329030Y-22571939D01*
X77453667Y-22715907D01*
X77464771Y-22734627D01*
X77502343Y-22832817D01*
X78422028Y-22832817D01*
X78370253Y-22771538D01*
X78342304Y-22682274D01*
X78228233Y-22450623D01*
X78009144Y-22172143D01*
X77722732Y-21885882D01*
X77406691Y-21630886D01*
X77199099Y-21498072D01*
X76962618Y-21352699D01*
X76841393Y-21230574D01*
X76798799Y-21086572D01*
X76795527Y-21000803D01*
X76795521Y-20979983D01*
X72548229Y-20979983D01*
X72548229Y-21396377D01*
X70049869Y-21396377D01*
X70049869Y-20979983D01*
X72548229Y-20979983D01*
X76795521Y-20979983D01*
X76795442Y-20730147D01*
X76094513Y-20730147D01*
X75772022Y-20737942D01*
X75520680Y-20758717D01*
X75380958Y-20788556D01*
X75365825Y-20800638D01*
X75277195Y-20819184D01*
X75061501Y-20811587D01*
X74755801Y-20780094D01*
X74546918Y-20751015D01*
X74168164Y-20693893D01*
X73821771Y-20642324D01*
X73561460Y-20604279D01*
X73485115Y-20593472D01*
X73285648Y-20531698D01*
X73214459Y-20434898D01*
X73192815Y-20395475D01*
X73115390Y-20365399D01*
X72963447Y-20343487D01*
X72718248Y-20328552D01*
X72361053Y-20319410D01*
X71873124Y-20314875D01*
X71299049Y-20313754D01*
X70686363Y-20314390D01*
X70220263Y-20317395D01*
X69880780Y-20324412D01*
X69647944Y-20337085D01*
X69501786Y-20357057D01*
X69422335Y-20385972D01*
X69389623Y-20425473D01*
X69383639Y-20471401D01*
X69332686Y-20617181D01*
X69165786Y-20700138D01*
X68861876Y-20729726D01*
X68807199Y-20730147D01*
X68292537Y-20783239D01*
X67707994Y-20929394D01*
X67106286Y-21148929D01*
X66540128Y-21422164D01*
X66062236Y-21729416D01*
X66000341Y-21778099D01*
X65798599Y-21936490D01*
X65679129Y-21999929D01*
X65595696Y-21979421D01*
X65510055Y-21894806D01*
X65257110Y-21729060D01*
X64927912Y-21665434D01*
X64573410Y-21698523D01*
X64244555Y-21822927D01*
X63992295Y-22033242D01*
X63974027Y-22057687D01*
X63785271Y-22450282D01*
X63750153Y-22856661D01*
X63864797Y-23244053D01*
X64125332Y-23579686D01*
X64157188Y-23607401D01*
X64342166Y-23739053D01*
X64529847Y-23797031D01*
X64793697Y-23801217D01*
X64859611Y-23797503D01*
X65117767Y-23788031D01*
X65250744Y-23809736D01*
X65298882Y-23875228D01*
X65303821Y-23936377D01*
X65313911Y-24113764D01*
X65338951Y-24380540D01*
X65356947Y-24540147D01*
X65383049Y-24793656D01*
X65372191Y-24923432D01*
X65309245Y-24970866D01*
X65197117Y-24977360D01*
X65130616Y-24955913D01*
X65023339Y-24886498D01*
X64867335Y-24761509D01*
X64654655Y-24573338D01*
X64377347Y-24314376D01*
X64027464Y-23977016D01*
X63597054Y-23553651D01*
X63078168Y-23036672D01*
X62462857Y-22418472D01*
X61743169Y-21691443D01*
X61396336Y-21340124D01*
X57807901Y-17702889D01*
X57812003Y-18279632D01*
X57812003Y-18279632D01*
G37*
X57812003Y-18279632D02*
X57816104Y-18856377D01*
X60807855Y-21896049D01*
X63799605Y-24935721D01*
X63803967Y-27725557D01*
X65625893Y-27725557D01*
X65672839Y-28079492D01*
X65690615Y-28240815D01*
X65720579Y-28544613D01*
X65761128Y-28972763D01*
X65810660Y-29507143D01*
X65867571Y-30129631D01*
X65930259Y-30822105D01*
X65997122Y-31566442D01*
X66066556Y-32344521D01*
X66136960Y-33138220D01*
X66206729Y-33929415D01*
X66274262Y-34699987D01*
X66337956Y-35431811D01*
X66396208Y-36106767D01*
X66447415Y-36706731D01*
X66489976Y-37213583D01*
X66522286Y-37609199D01*
X66542743Y-37875458D01*
X66549746Y-37994238D01*
X66549740Y-37994804D01*
X66498686Y-38090112D01*
X66345340Y-38286906D01*
X66087614Y-38587475D01*
X65723422Y-38994110D01*
X65250679Y-39509103D01*
X64667296Y-40134743D01*
X63971189Y-40873322D01*
X63160269Y-41727130D01*
X62932336Y-41966213D01*
X59317356Y-45755393D01*
X59609612Y-46046869D01*
X59901868Y-46338344D01*
X60374721Y-45823888D01*
X60547707Y-45637965D01*
X60817923Y-45350450D01*
X61167542Y-44980179D01*
X61578733Y-44545986D01*
X62033671Y-44066708D01*
X62514525Y-43561181D01*
X62802195Y-43259253D01*
X63342262Y-42693621D01*
X63778794Y-42240553D01*
X64122922Y-41891810D01*
X64385779Y-41639154D01*
X64578493Y-41474346D01*
X64712198Y-41389147D01*
X64798022Y-41375319D01*
X64847099Y-41424624D01*
X64870558Y-41528823D01*
X64879531Y-41679677D01*
X64880737Y-41720845D01*
X64943114Y-42004448D01*
X65096804Y-42347239D01*
X65311129Y-42695006D01*
X65555411Y-42993539D01*
X65653158Y-43085758D01*
X66154690Y-43408425D01*
X66740548Y-43588961D01*
X67258516Y-43631787D01*
X67845521Y-43551012D01*
X68387651Y-43314155D01*
X68867467Y-42929418D01*
X68955998Y-42833652D01*
X69279719Y-42465885D01*
X74880033Y-42465885D01*
X74880033Y-43631787D01*
X76379049Y-43631787D01*
X76379049Y-43087103D01*
X76397859Y-42715262D01*
X76461060Y-42457165D01*
X76537870Y-42316775D01*
X76592752Y-42216326D01*
X76639746Y-42070684D01*
X76681966Y-41858258D01*
X76722527Y-41557458D01*
X76764543Y-41146691D01*
X76811127Y-40604368D01*
X76843024Y-40200922D01*
X76989356Y-38310713D01*
X80581676Y-41949775D01*
X81231203Y-42608248D01*
X81854733Y-43241315D01*
X82440871Y-43837348D01*
X82978226Y-44384715D01*
X83455402Y-44871789D01*
X83861008Y-45286938D01*
X84183649Y-45618533D01*
X84411932Y-45854945D01*
X84534342Y-45984410D01*
X84735446Y-46189382D01*
X84903192Y-46332343D01*
X84993419Y-46379983D01*
X85108663Y-46324180D01*
X85276652Y-46184750D01*
X85333595Y-46127969D01*
X85575041Y-45875954D01*
X84245733Y-44525123D01*
X83906602Y-44181004D01*
X83469311Y-43738071D01*
X82953041Y-43215713D01*
X82376978Y-42633319D01*
X81760302Y-42010278D01*
X81122198Y-41365979D01*
X80481848Y-40719810D01*
X80022492Y-40256549D01*
X79324228Y-39550578D01*
X78737610Y-38952898D01*
X78255135Y-38455420D01*
X77869299Y-38050053D01*
X77572600Y-37728707D01*
X77425549Y-37560905D01*
X76244693Y-37560905D01*
X76096849Y-39451264D01*
X76052264Y-40005365D01*
X76009135Y-40512076D01*
X75969906Y-40944910D01*
X75937019Y-41277385D01*
X75912919Y-41483015D01*
X75905163Y-41529000D01*
X75861321Y-41716377D01*
X69573000Y-41716377D01*
X69531023Y-41193436D01*
X69404288Y-40575577D01*
X69139077Y-40029023D01*
X68752108Y-39573679D01*
X68260099Y-39229448D01*
X67707872Y-39022813D01*
X67528720Y-38925887D01*
X67439028Y-38717865D01*
X67437151Y-38708689D01*
X67426389Y-38620868D01*
X67439692Y-38530942D01*
X67490044Y-38422228D01*
X67590430Y-38278048D01*
X67753833Y-38081720D01*
X67993239Y-37816565D01*
X68321632Y-37465902D01*
X68751997Y-37013051D01*
X68779804Y-36983882D01*
X69242708Y-36497797D01*
X69734839Y-35980054D01*
X70222381Y-35466295D01*
X70671517Y-34992163D01*
X71048431Y-34593301D01*
X71132492Y-34504132D01*
X71454729Y-34167904D01*
X71740987Y-33880172D01*
X71970714Y-33660725D01*
X72123362Y-33529354D01*
X72174614Y-33500481D01*
X72251044Y-33560910D01*
X72429785Y-33726683D01*
X72696761Y-33983999D01*
X73037895Y-34319058D01*
X73439114Y-34718058D01*
X73886340Y-35167199D01*
X74251863Y-35537165D01*
X76244693Y-37560905D01*
X77425549Y-37560905D01*
X77357533Y-37483291D01*
X77216594Y-37305717D01*
X77142281Y-37187892D01*
X77125745Y-37133328D01*
X77132009Y-37014248D01*
X77151038Y-36744711D01*
X77181600Y-36340227D01*
X77222466Y-35816308D01*
X77272403Y-35188464D01*
X77330179Y-34472208D01*
X77394564Y-33683049D01*
X77464327Y-32836498D01*
X77520548Y-32159928D01*
X77838659Y-28345364D01*
X77020118Y-28345364D01*
X77016592Y-28427684D01*
X77000011Y-28659529D01*
X76971707Y-29024491D01*
X76933012Y-29506159D01*
X76885258Y-30088125D01*
X76829777Y-30753980D01*
X76767902Y-31487313D01*
X76708524Y-32183566D01*
X76641263Y-32973544D01*
X76578613Y-33719262D01*
X76522009Y-34402921D01*
X76472887Y-35006720D01*
X76432682Y-35512857D01*
X76402829Y-35903531D01*
X76384764Y-36160943D01*
X76379750Y-36260913D01*
X76371930Y-36323132D01*
X76340942Y-36347821D01*
X76274842Y-36324677D01*
X76161685Y-36243400D01*
X75989526Y-36093686D01*
X75746421Y-35865234D01*
X75420424Y-35547742D01*
X74999591Y-35130908D01*
X74553070Y-34685475D01*
X72727092Y-32860912D01*
X72739890Y-32847196D01*
X71532901Y-32847196D01*
X71477894Y-32922528D01*
X71323899Y-33099907D01*
X71086352Y-33363033D01*
X70780686Y-33695603D01*
X70422336Y-34081314D01*
X70026736Y-34503866D01*
X69609319Y-34946954D01*
X69185520Y-35394278D01*
X68770773Y-35829535D01*
X68380512Y-36236422D01*
X68030171Y-36598639D01*
X67735184Y-36899881D01*
X67510986Y-37123848D01*
X67373011Y-37254237D01*
X67335385Y-37280800D01*
X67322981Y-37195060D01*
X67297232Y-36958243D01*
X67259555Y-36585174D01*
X67211365Y-36090677D01*
X67154079Y-35489578D01*
X67089112Y-34796701D01*
X67017880Y-34026872D01*
X66941799Y-33194915D01*
X66881054Y-32524072D01*
X66803350Y-31654221D01*
X66731559Y-30834783D01*
X66666888Y-30080623D01*
X66610544Y-29406608D01*
X66563736Y-28827601D01*
X66527670Y-28358468D01*
X66503552Y-28014075D01*
X66492592Y-27809286D01*
X66493846Y-27756115D01*
X66559357Y-27803476D01*
X66726188Y-27955716D01*
X66979754Y-28198100D01*
X67305469Y-28515891D01*
X67688750Y-28894354D01*
X68115011Y-29318755D01*
X68569668Y-29774358D01*
X69038135Y-30246427D01*
X69505828Y-30720226D01*
X69958162Y-31181022D01*
X70380552Y-31614077D01*
X70758413Y-32004657D01*
X71077162Y-32338027D01*
X71322211Y-32599450D01*
X71478978Y-32774192D01*
X71532901Y-32847196D01*
X72739890Y-32847196D01*
X73407988Y-32131180D01*
X73754759Y-31760838D01*
X74143965Y-31347375D01*
X74560218Y-30906918D01*
X74988130Y-30455597D01*
X75412312Y-30009539D01*
X75817375Y-29584873D01*
X76187932Y-29197727D01*
X76508594Y-28864229D01*
X76763972Y-28600509D01*
X76938679Y-28422693D01*
X77017325Y-28346911D01*
X77020118Y-28345364D01*
X77838659Y-28345364D01*
X77918164Y-27392004D01*
X81895492Y-23209157D01*
X85872819Y-19026311D01*
X85866965Y-17857033D01*
X85224483Y-18543346D01*
X84864912Y-18926133D01*
X84440387Y-19375859D01*
X83962365Y-19880557D01*
X83442303Y-20428257D01*
X82891655Y-21006993D01*
X82321880Y-21604797D01*
X81744433Y-22209700D01*
X81170770Y-22809736D01*
X80612349Y-23392936D01*
X80080626Y-23947333D01*
X79587056Y-24460959D01*
X79143097Y-24921846D01*
X78760205Y-25318026D01*
X78449837Y-25637532D01*
X78223448Y-25868396D01*
X78092495Y-25998649D01*
X78063794Y-26023636D01*
X78061822Y-25936714D01*
X78072678Y-25714166D01*
X78094477Y-25386271D01*
X78125336Y-24983310D01*
X78138581Y-24822337D01*
X78237232Y-23644901D01*
X77464845Y-23644901D01*
X77424968Y-23832278D01*
X77404631Y-23980467D01*
X77376053Y-24259290D01*
X77342540Y-24633224D01*
X77307394Y-25066747D01*
X77295229Y-25227196D01*
X77259351Y-25687884D01*
X77223139Y-26115704D01*
X77190216Y-26470236D01*
X77164203Y-26711057D01*
X77158337Y-26754760D01*
X77136208Y-26844484D01*
X77088307Y-26949511D01*
X77004450Y-27081616D01*
X76874452Y-27252570D01*
X76688127Y-27474148D01*
X76435291Y-27758123D01*
X76105758Y-28116268D01*
X75689344Y-28560357D01*
X75175863Y-29102163D01*
X74652051Y-29651914D01*
X74130914Y-30195951D01*
X73644447Y-30699789D01*
X73204760Y-31151180D01*
X72823963Y-31537875D01*
X72514166Y-31847624D01*
X72287479Y-32068178D01*
X72156012Y-32187288D01*
X72127976Y-32205007D01*
X72054216Y-32140757D01*
X71881806Y-31973200D01*
X71627480Y-31719146D01*
X71307972Y-31395404D01*
X70940016Y-31018783D01*
X70673917Y-30744410D01*
X69284680Y-29307852D01*
X73381016Y-29307852D01*
X73381016Y-27725557D01*
X68384295Y-27725557D01*
X68384295Y-28430585D01*
X67468229Y-27517360D01*
X66818400Y-26869545D01*
X65552819Y-26869545D01*
X65540713Y-26971736D01*
X65479440Y-27028674D01*
X65331568Y-27053483D01*
X65059665Y-27059285D01*
X65011508Y-27059328D01*
X64470197Y-27059328D01*
X64470197Y-25606762D01*
X65011508Y-26143262D01*
X65316863Y-26469440D01*
X65499498Y-26719328D01*
X65552819Y-26869545D01*
X66818400Y-26869545D01*
X66552164Y-26604135D01*
X66552164Y-25790748D01*
X66549613Y-25416538D01*
X66537940Y-25178475D01*
X66511114Y-25046180D01*
X66463105Y-24989271D01*
X66390709Y-24977360D01*
X66310192Y-24959873D01*
X66250680Y-24889758D01*
X66204978Y-24740540D01*
X66165891Y-24485742D01*
X66126225Y-24098888D01*
X66113496Y-23957196D01*
X66085936Y-23644901D01*
X77464845Y-23644901D01*
X78237232Y-23644901D01*
X79293803Y-23644901D01*
X79293803Y-22895393D01*
X78844798Y-22895393D01*
X78582183Y-22888199D01*
X78439486Y-22853481D01*
X78422028Y-22832817D01*
X77502343Y-22832817D01*
X77453940Y-22880024D01*
X77286281Y-22894593D01*
X77173127Y-22895393D01*
X76795442Y-22895393D01*
X75387002Y-22895393D01*
X66018689Y-22895393D01*
X66335554Y-22570894D01*
X66827696Y-22170457D01*
X67436783Y-21861610D01*
X68173135Y-21640121D01*
X68904787Y-21517621D01*
X69383639Y-21460464D01*
X69383639Y-22062606D01*
X73214459Y-22062606D01*
X73214459Y-21379473D01*
X73776590Y-21436444D01*
X74169352Y-21484527D01*
X74587813Y-21548264D01*
X74838393Y-21593784D01*
X75338065Y-21694154D01*
X75362533Y-22294774D01*
X75387002Y-22895393D01*
X76795442Y-22895393D01*
X76795442Y-22562278D01*
X76806454Y-22353596D01*
X76833959Y-22237607D01*
X76845046Y-22229164D01*
X76968335Y-22282579D01*
X77148458Y-22412167D01*
X77329030Y-22571939D01*
X77453667Y-22715907D01*
X77464771Y-22734627D01*
X77502343Y-22832817D01*
X78422028Y-22832817D01*
X78370253Y-22771538D01*
X78342304Y-22682274D01*
X78228233Y-22450623D01*
X78009144Y-22172143D01*
X77722732Y-21885882D01*
X77406691Y-21630886D01*
X77199099Y-21498072D01*
X76962618Y-21352699D01*
X76841393Y-21230574D01*
X76798799Y-21086572D01*
X76795527Y-21000803D01*
X76795521Y-20979983D01*
X72548229Y-20979983D01*
X72548229Y-21396377D01*
X70049869Y-21396377D01*
X70049869Y-20979983D01*
X72548229Y-20979983D01*
X76795521Y-20979983D01*
X76795442Y-20730147D01*
X76094513Y-20730147D01*
X75772022Y-20737942D01*
X75520680Y-20758717D01*
X75380958Y-20788556D01*
X75365825Y-20800638D01*
X75277195Y-20819184D01*
X75061501Y-20811587D01*
X74755801Y-20780094D01*
X74546918Y-20751015D01*
X74168164Y-20693893D01*
X73821771Y-20642324D01*
X73561460Y-20604279D01*
X73485115Y-20593472D01*
X73285648Y-20531698D01*
X73214459Y-20434898D01*
X73192815Y-20395475D01*
X73115390Y-20365399D01*
X72963447Y-20343487D01*
X72718248Y-20328552D01*
X72361053Y-20319410D01*
X71873124Y-20314875D01*
X71299049Y-20313754D01*
X70686363Y-20314390D01*
X70220263Y-20317395D01*
X69880780Y-20324412D01*
X69647944Y-20337085D01*
X69501786Y-20357057D01*
X69422335Y-20385972D01*
X69389623Y-20425473D01*
X69383639Y-20471401D01*
X69332686Y-20617181D01*
X69165786Y-20700138D01*
X68861876Y-20729726D01*
X68807199Y-20730147D01*
X68292537Y-20783239D01*
X67707994Y-20929394D01*
X67106286Y-21148929D01*
X66540128Y-21422164D01*
X66062236Y-21729416D01*
X66000341Y-21778099D01*
X65798599Y-21936490D01*
X65679129Y-21999929D01*
X65595696Y-21979421D01*
X65510055Y-21894806D01*
X65257110Y-21729060D01*
X64927912Y-21665434D01*
X64573410Y-21698523D01*
X64244555Y-21822927D01*
X63992295Y-22033242D01*
X63974027Y-22057687D01*
X63785271Y-22450282D01*
X63750153Y-22856661D01*
X63864797Y-23244053D01*
X64125332Y-23579686D01*
X64157188Y-23607401D01*
X64342166Y-23739053D01*
X64529847Y-23797031D01*
X64793697Y-23801217D01*
X64859611Y-23797503D01*
X65117767Y-23788031D01*
X65250744Y-23809736D01*
X65298882Y-23875228D01*
X65303821Y-23936377D01*
X65313911Y-24113764D01*
X65338951Y-24380540D01*
X65356947Y-24540147D01*
X65383049Y-24793656D01*
X65372191Y-24923432D01*
X65309245Y-24970866D01*
X65197117Y-24977360D01*
X65130616Y-24955913D01*
X65023339Y-24886498D01*
X64867335Y-24761509D01*
X64654655Y-24573338D01*
X64377347Y-24314376D01*
X64027464Y-23977016D01*
X63597054Y-23553651D01*
X63078168Y-23036672D01*
X62462857Y-22418472D01*
X61743169Y-21691443D01*
X61396336Y-21340124D01*
X57807901Y-17702889D01*
X57812003Y-18279632D01*
D16*
X167547500Y-26532500D02*
X168172500Y-26532500D01*
X167860000Y-26220000D02*
X167860000Y-26845000D01*
X171240563Y-27085000D02*
X172305000Y-28149437D01*
X167849437Y-27085000D02*
X166785000Y-28149437D01*
X167849437Y-27085000D02*
X168485000Y-27085000D01*
X171240563Y-27085000D02*
X170605000Y-27085000D01*
X172305000Y-28149437D02*
X172305000Y-32605000D01*
X166785000Y-28149437D02*
X166785000Y-32605000D01*
X166785000Y-32605000D02*
X168485000Y-32605000D01*
X172305000Y-32605000D02*
X170605000Y-32605000D01*
X128612000Y-87100000D02*
X128612000Y-88100000D01*
X124372000Y-87100000D02*
X124372000Y-88100000D01*
X103572000Y-40623000D02*
X103572000Y-38973000D01*
X126552000Y-40623000D02*
X103572000Y-40623000D01*
X126552000Y-35323000D02*
X126552000Y-40623000D01*
X103572000Y-35323000D02*
X126552000Y-35323000D01*
X103572000Y-36973000D02*
X103572000Y-35323000D01*
X103572000Y-38973000D02*
G75*
G03X103572000Y-36973000I0J1000000D01*
G01*
X79500000Y-44922221D02*
X79500000Y-45247779D01*
X80520000Y-44922221D02*
X80520000Y-45247779D01*
X205680000Y-40623000D02*
X205680000Y-38973000D01*
X228660000Y-40623000D02*
X205680000Y-40623000D01*
X228660000Y-35323000D02*
X228660000Y-40623000D01*
X205680000Y-35323000D02*
X228660000Y-35323000D01*
X205680000Y-36973000D02*
X205680000Y-35323000D01*
X205680000Y-38973000D02*
G75*
G03X205680000Y-36973000I0J1000000D01*
G01*
X99120000Y-36973000D02*
G75*
G03X99120000Y-38973000I0J-1000000D01*
G01*
X99120000Y-38973000D02*
X99120000Y-40623000D01*
X99120000Y-40623000D02*
X76140000Y-40623000D01*
X76140000Y-40623000D02*
X76140000Y-35323000D01*
X76140000Y-35323000D02*
X99120000Y-35323000D01*
X99120000Y-35323000D02*
X99120000Y-36973000D01*
D17*
X97379000Y-129625000D02*
X97854000Y-129625000D01*
X97379000Y-133775000D02*
X97936500Y-133775000D01*
X106329000Y-133775000D02*
X105771500Y-133775000D01*
X106329000Y-129625000D02*
X105771500Y-129625000D01*
X97379000Y-129625000D02*
X97379000Y-133775000D01*
X106329000Y-129625000D02*
X106329000Y-133775000D01*
X97854000Y-129625000D02*
X97854000Y-128500000D01*
D16*
X95539779Y-134876000D02*
X95214221Y-134876000D01*
X95539779Y-133856000D02*
X95214221Y-133856000D01*
X198249000Y-133766779D02*
X198249000Y-133441221D01*
X197229000Y-133766779D02*
X197229000Y-133441221D01*
X95468221Y-43813000D02*
X95793779Y-43813000D01*
X95468221Y-44833000D02*
X95793779Y-44833000D01*
X107731779Y-43813000D02*
X107406221Y-43813000D01*
X107731779Y-44833000D02*
X107406221Y-44833000D01*
X156466000Y-54193221D02*
X156466000Y-54518779D01*
X155446000Y-54193221D02*
X155446000Y-54518779D01*
X156809221Y-66550000D02*
X157134779Y-66550000D01*
X156809221Y-65530000D02*
X157134779Y-65530000D01*
X156809221Y-77214000D02*
X157134779Y-77214000D01*
X156809221Y-78234000D02*
X157134779Y-78234000D01*
X158079221Y-129034000D02*
X158404779Y-129034000D01*
X158079221Y-128014000D02*
X158404779Y-128014000D01*
X198880000Y-137322779D02*
X198880000Y-136997221D01*
X199900000Y-137322779D02*
X199900000Y-136997221D01*
X83060000Y-44922221D02*
X83060000Y-45247779D01*
X82040000Y-44922221D02*
X82040000Y-45247779D01*
D17*
X198979000Y-129625000D02*
X199454000Y-129625000D01*
X198979000Y-133775000D02*
X199536500Y-133775000D01*
X207929000Y-133775000D02*
X207371500Y-133775000D01*
X207929000Y-129625000D02*
X207371500Y-129625000D01*
X198979000Y-129625000D02*
X198979000Y-133775000D01*
X207929000Y-129625000D02*
X207929000Y-133775000D01*
X199454000Y-129625000D02*
X199454000Y-128500000D01*
X149525000Y-52585000D02*
X149525000Y-52360000D01*
X155275000Y-52585000D02*
X155275000Y-52285000D01*
X155275000Y-43935000D02*
X155275000Y-44235000D01*
X149525000Y-43935000D02*
X149525000Y-44235000D01*
X149525000Y-52585000D02*
X155275000Y-52585000D01*
X149525000Y-43935000D02*
X155275000Y-43935000D01*
X149525000Y-52360000D02*
X147925000Y-52360000D01*
X149525000Y-64777000D02*
X149525000Y-64552000D01*
X155275000Y-64777000D02*
X155275000Y-64477000D01*
X155275000Y-56127000D02*
X155275000Y-56427000D01*
X149525000Y-56127000D02*
X149525000Y-56427000D01*
X149525000Y-64777000D02*
X155275000Y-64777000D01*
X149525000Y-56127000D02*
X155275000Y-56127000D01*
X149525000Y-64552000D02*
X147925000Y-64552000D01*
X149525000Y-76236000D02*
X147925000Y-76236000D01*
X149525000Y-67811000D02*
X155275000Y-67811000D01*
X149525000Y-76461000D02*
X155275000Y-76461000D01*
X149525000Y-67811000D02*
X149525000Y-68111000D01*
X155275000Y-67811000D02*
X155275000Y-68111000D01*
X155275000Y-76461000D02*
X155275000Y-76161000D01*
X149525000Y-76461000D02*
X149525000Y-76236000D01*
X155865000Y-135082000D02*
X155865000Y-136682000D01*
X147440000Y-135082000D02*
X147440000Y-129332000D01*
X156090000Y-135082000D02*
X156090000Y-129332000D01*
X147440000Y-135082000D02*
X147740000Y-135082000D01*
X147440000Y-129332000D02*
X147740000Y-129332000D01*
X156090000Y-129332000D02*
X155790000Y-129332000D01*
X156090000Y-135082000D02*
X155865000Y-135082000D01*
D16*
X154520000Y-122674000D02*
X154520000Y-121674000D01*
X150280000Y-122674000D02*
X150280000Y-121674000D01*
X77812000Y-87100000D02*
X77812000Y-88100000D01*
X73572000Y-87100000D02*
X73572000Y-88100000D01*
X98972000Y-87100000D02*
X98972000Y-88100000D01*
X103212000Y-87100000D02*
X103212000Y-88100000D01*
X204812000Y-87100000D02*
X204812000Y-88100000D01*
X200572000Y-87100000D02*
X200572000Y-88100000D01*
X225972000Y-87100000D02*
X225972000Y-88100000D01*
X230212000Y-87100000D02*
X230212000Y-88100000D01*
X197068221Y-45341000D02*
X197393779Y-45341000D01*
X197068221Y-44321000D02*
X197393779Y-44321000D01*
X211330000Y-44541221D02*
X211330000Y-44866779D01*
X210310000Y-44541221D02*
X210310000Y-44866779D01*
X119378000Y-45120779D02*
X119378000Y-44795221D01*
X120398000Y-45120779D02*
X120398000Y-44795221D01*
X121664000Y-44795221D02*
X121664000Y-45120779D01*
X122684000Y-44795221D02*
X122684000Y-45120779D01*
X184910000Y-44414221D02*
X184910000Y-44739779D01*
X185930000Y-44414221D02*
X185930000Y-44739779D01*
X181993000Y-44668221D02*
X181993000Y-44993779D01*
X180973000Y-44668221D02*
X180973000Y-44993779D01*
X221617000Y-44541221D02*
X221617000Y-44866779D01*
X220597000Y-44541221D02*
X220597000Y-44866779D01*
X222883000Y-44541221D02*
X222883000Y-44866779D01*
X223903000Y-44541221D02*
X223903000Y-44866779D01*
X200720000Y-36973000D02*
G75*
G03X200720000Y-38973000I0J-1000000D01*
G01*
X200720000Y-38973000D02*
X200720000Y-40623000D01*
X200720000Y-40623000D02*
X177740000Y-40623000D01*
X177740000Y-40623000D02*
X177740000Y-35323000D01*
X177740000Y-35323000D02*
X200720000Y-35323000D01*
X200720000Y-35323000D02*
X200720000Y-36973000D01*
X98300000Y-137322779D02*
X98300000Y-136997221D01*
X97280000Y-137322779D02*
X97280000Y-136997221D01*
X175807000Y-87100000D02*
X175807000Y-88100000D01*
X180047000Y-87100000D02*
X180047000Y-88100000D01*
D17*
X166202142Y-29202142D02*
X166249761Y-29154523D01*
X166297380Y-29011666D01*
X166297380Y-28916428D01*
X166249761Y-28773571D01*
X166154523Y-28678333D01*
X166059285Y-28630714D01*
X165868809Y-28583095D01*
X165725952Y-28583095D01*
X165535476Y-28630714D01*
X165440238Y-28678333D01*
X165345000Y-28773571D01*
X165297380Y-28916428D01*
X165297380Y-29011666D01*
X165345000Y-29154523D01*
X165392619Y-29202142D01*
X166297380Y-30154523D02*
X166297380Y-29583095D01*
X166297380Y-29868809D02*
X165297380Y-29868809D01*
X165440238Y-29773571D01*
X165535476Y-29678333D01*
X165583095Y-29583095D01*
X166297380Y-31106904D02*
X166297380Y-30535476D01*
X166297380Y-30821190D02*
X165297380Y-30821190D01*
X165440238Y-30725952D01*
X165535476Y-30630714D01*
X165583095Y-30535476D01*
X129944380Y-86909523D02*
X129468190Y-86576190D01*
X129944380Y-86338095D02*
X128944380Y-86338095D01*
X128944380Y-86719047D01*
X128992000Y-86814285D01*
X129039619Y-86861904D01*
X129134857Y-86909523D01*
X129277714Y-86909523D01*
X129372952Y-86861904D01*
X129420571Y-86814285D01*
X129468190Y-86719047D01*
X129468190Y-86338095D01*
X129944380Y-87338095D02*
X128944380Y-87338095D01*
X129944380Y-87909523D01*
X128944380Y-87909523D01*
X129277714Y-88814285D02*
X129944380Y-88814285D01*
X128896761Y-88576190D02*
X129611047Y-88338095D01*
X129611047Y-88957142D01*
X102024380Y-37211095D02*
X102833904Y-37211095D01*
X102929142Y-37258714D01*
X102976761Y-37306333D01*
X103024380Y-37401571D01*
X103024380Y-37592047D01*
X102976761Y-37687285D01*
X102929142Y-37734904D01*
X102833904Y-37782523D01*
X102024380Y-37782523D01*
X102357714Y-38687285D02*
X103024380Y-38687285D01*
X101976761Y-38449190D02*
X102691047Y-38211095D01*
X102691047Y-38830142D01*
X80049666Y-47950380D02*
X80383000Y-47474190D01*
X80621095Y-47950380D02*
X80621095Y-46950380D01*
X80240142Y-46950380D01*
X80144904Y-46998000D01*
X80097285Y-47045619D01*
X80049666Y-47140857D01*
X80049666Y-47283714D01*
X80097285Y-47378952D01*
X80144904Y-47426571D01*
X80240142Y-47474190D01*
X80621095Y-47474190D01*
X79192523Y-47283714D02*
X79192523Y-47950380D01*
X79430619Y-46902761D02*
X79668714Y-47617047D01*
X79049666Y-47617047D01*
X204132380Y-36734904D02*
X204941904Y-36734904D01*
X205037142Y-36782523D01*
X205084761Y-36830142D01*
X205132380Y-36925380D01*
X205132380Y-37115857D01*
X205084761Y-37211095D01*
X205037142Y-37258714D01*
X204941904Y-37306333D01*
X204132380Y-37306333D01*
X205132380Y-38306333D02*
X205132380Y-37734904D01*
X205132380Y-38020619D02*
X204132380Y-38020619D01*
X204275238Y-37925380D01*
X204370476Y-37830142D01*
X204418095Y-37734904D01*
X204132380Y-38925380D02*
X204132380Y-39020619D01*
X204180000Y-39115857D01*
X204227619Y-39163476D01*
X204322857Y-39211095D01*
X204513333Y-39258714D01*
X204751428Y-39258714D01*
X204941904Y-39211095D01*
X205037142Y-39163476D01*
X205084761Y-39115857D01*
X205132380Y-39020619D01*
X205132380Y-38925380D01*
X205084761Y-38830142D01*
X205037142Y-38782523D01*
X204941904Y-38734904D01*
X204751428Y-38687285D01*
X204513333Y-38687285D01*
X204322857Y-38734904D01*
X204227619Y-38782523D01*
X204180000Y-38830142D01*
X204132380Y-38925380D01*
X100667619Y-38734904D02*
X99858095Y-38734904D01*
X99762857Y-38687285D01*
X99715238Y-38639666D01*
X99667619Y-38544428D01*
X99667619Y-38353952D01*
X99715238Y-38258714D01*
X99762857Y-38211095D01*
X99858095Y-38163476D01*
X100667619Y-38163476D01*
X100667619Y-37782523D02*
X100667619Y-37163476D01*
X100286666Y-37496809D01*
X100286666Y-37353952D01*
X100239047Y-37258714D01*
X100191428Y-37211095D01*
X100096190Y-37163476D01*
X99858095Y-37163476D01*
X99762857Y-37211095D01*
X99715238Y-37258714D01*
X99667619Y-37353952D01*
X99667619Y-37639666D01*
X99715238Y-37734904D01*
X99762857Y-37782523D01*
X106703880Y-130938095D02*
X107513404Y-130938095D01*
X107608642Y-130985714D01*
X107656261Y-131033333D01*
X107703880Y-131128571D01*
X107703880Y-131319047D01*
X107656261Y-131414285D01*
X107608642Y-131461904D01*
X107513404Y-131509523D01*
X106703880Y-131509523D01*
X107703880Y-132509523D02*
X107703880Y-131938095D01*
X107703880Y-132223809D02*
X106703880Y-132223809D01*
X106846738Y-132128571D01*
X106941976Y-132033333D01*
X106989595Y-131938095D01*
X93537142Y-134199333D02*
X93584761Y-134151714D01*
X93632380Y-134008857D01*
X93632380Y-133913619D01*
X93584761Y-133770761D01*
X93489523Y-133675523D01*
X93394285Y-133627904D01*
X93203809Y-133580285D01*
X93060952Y-133580285D01*
X92870476Y-133627904D01*
X92775238Y-133675523D01*
X92680000Y-133770761D01*
X92632380Y-133913619D01*
X92632380Y-134008857D01*
X92680000Y-134151714D01*
X92727619Y-134199333D01*
X93632380Y-135151714D02*
X93632380Y-134580285D01*
X93632380Y-134866000D02*
X92632380Y-134866000D01*
X92775238Y-134770761D01*
X92870476Y-134675523D01*
X92918095Y-134580285D01*
X197905666Y-131675142D02*
X197953285Y-131722761D01*
X198096142Y-131770380D01*
X198191380Y-131770380D01*
X198334238Y-131722761D01*
X198429476Y-131627523D01*
X198477095Y-131532285D01*
X198524714Y-131341809D01*
X198524714Y-131198952D01*
X198477095Y-131008476D01*
X198429476Y-130913238D01*
X198334238Y-130818000D01*
X198191380Y-130770380D01*
X198096142Y-130770380D01*
X197953285Y-130818000D01*
X197905666Y-130865619D01*
X197524714Y-130865619D02*
X197477095Y-130818000D01*
X197381857Y-130770380D01*
X197143761Y-130770380D01*
X197048523Y-130818000D01*
X197000904Y-130865619D01*
X196953285Y-130960857D01*
X196953285Y-131056095D01*
X197000904Y-131198952D01*
X197572333Y-131770380D01*
X196953285Y-131770380D01*
X93829142Y-44156333D02*
X93876761Y-44108714D01*
X93924380Y-43965857D01*
X93924380Y-43870619D01*
X93876761Y-43727761D01*
X93781523Y-43632523D01*
X93686285Y-43584904D01*
X93495809Y-43537285D01*
X93352952Y-43537285D01*
X93162476Y-43584904D01*
X93067238Y-43632523D01*
X92972000Y-43727761D01*
X92924380Y-43870619D01*
X92924380Y-43965857D01*
X92972000Y-44108714D01*
X93019619Y-44156333D01*
X92924380Y-44489666D02*
X92924380Y-45108714D01*
X93305333Y-44775380D01*
X93305333Y-44918238D01*
X93352952Y-45013476D01*
X93400571Y-45061095D01*
X93495809Y-45108714D01*
X93733904Y-45108714D01*
X93829142Y-45061095D01*
X93876761Y-45013476D01*
X93924380Y-44918238D01*
X93924380Y-44632523D01*
X93876761Y-44537285D01*
X93829142Y-44489666D01*
X105665642Y-44156333D02*
X105713261Y-44108714D01*
X105760880Y-43965857D01*
X105760880Y-43870619D01*
X105713261Y-43727761D01*
X105618023Y-43632523D01*
X105522785Y-43584904D01*
X105332309Y-43537285D01*
X105189452Y-43537285D01*
X104998976Y-43584904D01*
X104903738Y-43632523D01*
X104808500Y-43727761D01*
X104760880Y-43870619D01*
X104760880Y-43965857D01*
X104808500Y-44108714D01*
X104856119Y-44156333D01*
X105094214Y-45013476D02*
X105760880Y-45013476D01*
X104713261Y-44775380D02*
X105427547Y-44537285D01*
X105427547Y-45156333D01*
X154598666Y-54713142D02*
X154646285Y-54760761D01*
X154789142Y-54808380D01*
X154884380Y-54808380D01*
X155027238Y-54760761D01*
X155122476Y-54665523D01*
X155170095Y-54570285D01*
X155217714Y-54379809D01*
X155217714Y-54236952D01*
X155170095Y-54046476D01*
X155122476Y-53951238D01*
X155027238Y-53856000D01*
X154884380Y-53808380D01*
X154789142Y-53808380D01*
X154646285Y-53856000D01*
X154598666Y-53903619D01*
X153693904Y-53808380D02*
X154170095Y-53808380D01*
X154217714Y-54284571D01*
X154170095Y-54236952D01*
X154074857Y-54189333D01*
X153836761Y-54189333D01*
X153741523Y-54236952D01*
X153693904Y-54284571D01*
X153646285Y-54379809D01*
X153646285Y-54617904D01*
X153693904Y-54713142D01*
X153741523Y-54760761D01*
X153836761Y-54808380D01*
X154074857Y-54808380D01*
X154170095Y-54760761D01*
X154217714Y-54713142D01*
X159678666Y-66397142D02*
X159726285Y-66444761D01*
X159869142Y-66492380D01*
X159964380Y-66492380D01*
X160107238Y-66444761D01*
X160202476Y-66349523D01*
X160250095Y-66254285D01*
X160297714Y-66063809D01*
X160297714Y-65920952D01*
X160250095Y-65730476D01*
X160202476Y-65635238D01*
X160107238Y-65540000D01*
X159964380Y-65492380D01*
X159869142Y-65492380D01*
X159726285Y-65540000D01*
X159678666Y-65587619D01*
X158821523Y-65492380D02*
X159012000Y-65492380D01*
X159107238Y-65540000D01*
X159154857Y-65587619D01*
X159250095Y-65730476D01*
X159297714Y-65920952D01*
X159297714Y-66301904D01*
X159250095Y-66397142D01*
X159202476Y-66444761D01*
X159107238Y-66492380D01*
X158916761Y-66492380D01*
X158821523Y-66444761D01*
X158773904Y-66397142D01*
X158726285Y-66301904D01*
X158726285Y-66063809D01*
X158773904Y-65968571D01*
X158821523Y-65920952D01*
X158916761Y-65873333D01*
X159107238Y-65873333D01*
X159202476Y-65920952D01*
X159250095Y-65968571D01*
X159297714Y-66063809D01*
X159678666Y-78081142D02*
X159726285Y-78128761D01*
X159869142Y-78176380D01*
X159964380Y-78176380D01*
X160107238Y-78128761D01*
X160202476Y-78033523D01*
X160250095Y-77938285D01*
X160297714Y-77747809D01*
X160297714Y-77604952D01*
X160250095Y-77414476D01*
X160202476Y-77319238D01*
X160107238Y-77224000D01*
X159964380Y-77176380D01*
X159869142Y-77176380D01*
X159726285Y-77224000D01*
X159678666Y-77271619D01*
X159345333Y-77176380D02*
X158678666Y-77176380D01*
X159107238Y-78176380D01*
X158408666Y-130405142D02*
X158456285Y-130452761D01*
X158599142Y-130500380D01*
X158694380Y-130500380D01*
X158837238Y-130452761D01*
X158932476Y-130357523D01*
X158980095Y-130262285D01*
X159027714Y-130071809D01*
X159027714Y-129928952D01*
X158980095Y-129738476D01*
X158932476Y-129643238D01*
X158837238Y-129548000D01*
X158694380Y-129500380D01*
X158599142Y-129500380D01*
X158456285Y-129548000D01*
X158408666Y-129595619D01*
X157837238Y-129928952D02*
X157932476Y-129881333D01*
X157980095Y-129833714D01*
X158027714Y-129738476D01*
X158027714Y-129690857D01*
X157980095Y-129595619D01*
X157932476Y-129548000D01*
X157837238Y-129500380D01*
X157646761Y-129500380D01*
X157551523Y-129548000D01*
X157503904Y-129595619D01*
X157456285Y-129690857D01*
X157456285Y-129738476D01*
X157503904Y-129833714D01*
X157551523Y-129881333D01*
X157646761Y-129928952D01*
X157837238Y-129928952D01*
X157932476Y-129976571D01*
X157980095Y-130024190D01*
X158027714Y-130119428D01*
X158027714Y-130309904D01*
X157980095Y-130405142D01*
X157932476Y-130452761D01*
X157837238Y-130500380D01*
X157646761Y-130500380D01*
X157551523Y-130452761D01*
X157503904Y-130405142D01*
X157456285Y-130309904D01*
X157456285Y-130119428D01*
X157503904Y-130024190D01*
X157551523Y-129976571D01*
X157646761Y-129928952D01*
X199556666Y-139809380D02*
X199890000Y-139333190D01*
X200128095Y-139809380D02*
X200128095Y-138809380D01*
X199747142Y-138809380D01*
X199651904Y-138857000D01*
X199604285Y-138904619D01*
X199556666Y-138999857D01*
X199556666Y-139142714D01*
X199604285Y-139237952D01*
X199651904Y-139285571D01*
X199747142Y-139333190D01*
X200128095Y-139333190D01*
X199175714Y-138904619D02*
X199128095Y-138857000D01*
X199032857Y-138809380D01*
X198794761Y-138809380D01*
X198699523Y-138857000D01*
X198651904Y-138904619D01*
X198604285Y-138999857D01*
X198604285Y-139095095D01*
X198651904Y-139237952D01*
X199223333Y-139809380D01*
X198604285Y-139809380D01*
X82716666Y-47950380D02*
X83050000Y-47474190D01*
X83288095Y-47950380D02*
X83288095Y-46950380D01*
X82907142Y-46950380D01*
X82811904Y-46998000D01*
X82764285Y-47045619D01*
X82716666Y-47140857D01*
X82716666Y-47283714D01*
X82764285Y-47378952D01*
X82811904Y-47426571D01*
X82907142Y-47474190D01*
X83288095Y-47474190D01*
X82383333Y-46950380D02*
X81764285Y-46950380D01*
X82097619Y-47331333D01*
X81954761Y-47331333D01*
X81859523Y-47378952D01*
X81811904Y-47426571D01*
X81764285Y-47521809D01*
X81764285Y-47759904D01*
X81811904Y-47855142D01*
X81859523Y-47902761D01*
X81954761Y-47950380D01*
X82240476Y-47950380D01*
X82335714Y-47902761D01*
X82383333Y-47855142D01*
X208303880Y-130874595D02*
X209113404Y-130874595D01*
X209208642Y-130922214D01*
X209256261Y-130969833D01*
X209303880Y-131065071D01*
X209303880Y-131255547D01*
X209256261Y-131350785D01*
X209208642Y-131398404D01*
X209113404Y-131446023D01*
X208303880Y-131446023D01*
X208399119Y-131874595D02*
X208351500Y-131922214D01*
X208303880Y-132017452D01*
X208303880Y-132255547D01*
X208351500Y-132350785D01*
X208399119Y-132398404D01*
X208494357Y-132446023D01*
X208589595Y-132446023D01*
X208732452Y-132398404D01*
X209303880Y-131826976D01*
X209303880Y-132446023D01*
X153161904Y-52962380D02*
X153161904Y-53771904D01*
X153114285Y-53867142D01*
X153066666Y-53914761D01*
X152971428Y-53962380D01*
X152780952Y-53962380D01*
X152685714Y-53914761D01*
X152638095Y-53867142D01*
X152590476Y-53771904D01*
X152590476Y-52962380D01*
X151638095Y-52962380D02*
X152114285Y-52962380D01*
X152161904Y-53438571D01*
X152114285Y-53390952D01*
X152019047Y-53343333D01*
X151780952Y-53343333D01*
X151685714Y-53390952D01*
X151638095Y-53438571D01*
X151590476Y-53533809D01*
X151590476Y-53771904D01*
X151638095Y-53867142D01*
X151685714Y-53914761D01*
X151780952Y-53962380D01*
X152019047Y-53962380D01*
X152114285Y-53914761D01*
X152161904Y-53867142D01*
X153161904Y-65154380D02*
X153161904Y-65963904D01*
X153114285Y-66059142D01*
X153066666Y-66106761D01*
X152971428Y-66154380D01*
X152780952Y-66154380D01*
X152685714Y-66106761D01*
X152638095Y-66059142D01*
X152590476Y-65963904D01*
X152590476Y-65154380D01*
X151685714Y-65154380D02*
X151876190Y-65154380D01*
X151971428Y-65202000D01*
X152019047Y-65249619D01*
X152114285Y-65392476D01*
X152161904Y-65582952D01*
X152161904Y-65963904D01*
X152114285Y-66059142D01*
X152066666Y-66106761D01*
X151971428Y-66154380D01*
X151780952Y-66154380D01*
X151685714Y-66106761D01*
X151638095Y-66059142D01*
X151590476Y-65963904D01*
X151590476Y-65725809D01*
X151638095Y-65630571D01*
X151685714Y-65582952D01*
X151780952Y-65535333D01*
X151971428Y-65535333D01*
X152066666Y-65582952D01*
X152114285Y-65630571D01*
X152161904Y-65725809D01*
X153161904Y-76838380D02*
X153161904Y-77647904D01*
X153114285Y-77743142D01*
X153066666Y-77790761D01*
X152971428Y-77838380D01*
X152780952Y-77838380D01*
X152685714Y-77790761D01*
X152638095Y-77743142D01*
X152590476Y-77647904D01*
X152590476Y-76838380D01*
X152209523Y-76838380D02*
X151542857Y-76838380D01*
X151971428Y-77838380D01*
X156467380Y-131445095D02*
X157276904Y-131445095D01*
X157372142Y-131492714D01*
X157419761Y-131540333D01*
X157467380Y-131635571D01*
X157467380Y-131826047D01*
X157419761Y-131921285D01*
X157372142Y-131968904D01*
X157276904Y-132016523D01*
X156467380Y-132016523D01*
X156895952Y-132635571D02*
X156848333Y-132540333D01*
X156800714Y-132492714D01*
X156705476Y-132445095D01*
X156657857Y-132445095D01*
X156562619Y-132492714D01*
X156515000Y-132540333D01*
X156467380Y-132635571D01*
X156467380Y-132826047D01*
X156515000Y-132921285D01*
X156562619Y-132968904D01*
X156657857Y-133016523D01*
X156705476Y-133016523D01*
X156800714Y-132968904D01*
X156848333Y-132921285D01*
X156895952Y-132826047D01*
X156895952Y-132635571D01*
X156943571Y-132540333D01*
X156991190Y-132492714D01*
X157086428Y-132445095D01*
X157276904Y-132445095D01*
X157372142Y-132492714D01*
X157419761Y-132540333D01*
X157467380Y-132635571D01*
X157467380Y-132826047D01*
X157419761Y-132921285D01*
X157372142Y-132968904D01*
X157276904Y-133016523D01*
X157086428Y-133016523D01*
X156991190Y-132968904D01*
X156943571Y-132921285D01*
X156895952Y-132826047D01*
X149852380Y-121483523D02*
X149376190Y-121150190D01*
X149852380Y-120912095D02*
X148852380Y-120912095D01*
X148852380Y-121293047D01*
X148900000Y-121388285D01*
X148947619Y-121435904D01*
X149042857Y-121483523D01*
X149185714Y-121483523D01*
X149280952Y-121435904D01*
X149328571Y-121388285D01*
X149376190Y-121293047D01*
X149376190Y-120912095D01*
X149852380Y-121912095D02*
X148852380Y-121912095D01*
X149852380Y-122483523D01*
X148852380Y-122483523D01*
X149852380Y-123483523D02*
X149852380Y-122912095D01*
X149852380Y-123197809D02*
X148852380Y-123197809D01*
X148995238Y-123102571D01*
X149090476Y-123007333D01*
X149138095Y-122912095D01*
X79144380Y-86909523D02*
X78668190Y-86576190D01*
X79144380Y-86338095D02*
X78144380Y-86338095D01*
X78144380Y-86719047D01*
X78192000Y-86814285D01*
X78239619Y-86861904D01*
X78334857Y-86909523D01*
X78477714Y-86909523D01*
X78572952Y-86861904D01*
X78620571Y-86814285D01*
X78668190Y-86719047D01*
X78668190Y-86338095D01*
X79144380Y-87338095D02*
X78144380Y-87338095D01*
X79144380Y-87909523D01*
X78144380Y-87909523D01*
X78239619Y-88338095D02*
X78192000Y-88385714D01*
X78144380Y-88480952D01*
X78144380Y-88719047D01*
X78192000Y-88814285D01*
X78239619Y-88861904D01*
X78334857Y-88909523D01*
X78430095Y-88909523D01*
X78572952Y-88861904D01*
X79144380Y-88290476D01*
X79144380Y-88909523D01*
X104544380Y-86909523D02*
X104068190Y-86576190D01*
X104544380Y-86338095D02*
X103544380Y-86338095D01*
X103544380Y-86719047D01*
X103592000Y-86814285D01*
X103639619Y-86861904D01*
X103734857Y-86909523D01*
X103877714Y-86909523D01*
X103972952Y-86861904D01*
X104020571Y-86814285D01*
X104068190Y-86719047D01*
X104068190Y-86338095D01*
X104544380Y-87338095D02*
X103544380Y-87338095D01*
X104544380Y-87909523D01*
X103544380Y-87909523D01*
X103544380Y-88290476D02*
X103544380Y-88909523D01*
X103925333Y-88576190D01*
X103925333Y-88719047D01*
X103972952Y-88814285D01*
X104020571Y-88861904D01*
X104115809Y-88909523D01*
X104353904Y-88909523D01*
X104449142Y-88861904D01*
X104496761Y-88814285D01*
X104544380Y-88719047D01*
X104544380Y-88433333D01*
X104496761Y-88338095D01*
X104449142Y-88290476D01*
X206144380Y-86909523D02*
X205668190Y-86576190D01*
X206144380Y-86338095D02*
X205144380Y-86338095D01*
X205144380Y-86719047D01*
X205192000Y-86814285D01*
X205239619Y-86861904D01*
X205334857Y-86909523D01*
X205477714Y-86909523D01*
X205572952Y-86861904D01*
X205620571Y-86814285D01*
X205668190Y-86719047D01*
X205668190Y-86338095D01*
X206144380Y-87338095D02*
X205144380Y-87338095D01*
X206144380Y-87909523D01*
X205144380Y-87909523D01*
X205144380Y-88814285D02*
X205144380Y-88623809D01*
X205192000Y-88528571D01*
X205239619Y-88480952D01*
X205382476Y-88385714D01*
X205572952Y-88338095D01*
X205953904Y-88338095D01*
X206049142Y-88385714D01*
X206096761Y-88433333D01*
X206144380Y-88528571D01*
X206144380Y-88719047D01*
X206096761Y-88814285D01*
X206049142Y-88861904D01*
X205953904Y-88909523D01*
X205715809Y-88909523D01*
X205620571Y-88861904D01*
X205572952Y-88814285D01*
X205525333Y-88719047D01*
X205525333Y-88528571D01*
X205572952Y-88433333D01*
X205620571Y-88385714D01*
X205715809Y-88338095D01*
X231544380Y-86909523D02*
X231068190Y-86576190D01*
X231544380Y-86338095D02*
X230544380Y-86338095D01*
X230544380Y-86719047D01*
X230592000Y-86814285D01*
X230639619Y-86861904D01*
X230734857Y-86909523D01*
X230877714Y-86909523D01*
X230972952Y-86861904D01*
X231020571Y-86814285D01*
X231068190Y-86719047D01*
X231068190Y-86338095D01*
X231544380Y-87338095D02*
X230544380Y-87338095D01*
X231544380Y-87909523D01*
X230544380Y-87909523D01*
X230544380Y-88290476D02*
X230544380Y-88957142D01*
X231544380Y-88528571D01*
X195327642Y-44664333D02*
X195375261Y-44616714D01*
X195422880Y-44473857D01*
X195422880Y-44378619D01*
X195375261Y-44235761D01*
X195280023Y-44140523D01*
X195184785Y-44092904D01*
X194994309Y-44045285D01*
X194851452Y-44045285D01*
X194660976Y-44092904D01*
X194565738Y-44140523D01*
X194470500Y-44235761D01*
X194422880Y-44378619D01*
X194422880Y-44473857D01*
X194470500Y-44616714D01*
X194518119Y-44664333D01*
X195422880Y-45140523D02*
X195422880Y-45331000D01*
X195375261Y-45426238D01*
X195327642Y-45473857D01*
X195184785Y-45569095D01*
X194994309Y-45616714D01*
X194613357Y-45616714D01*
X194518119Y-45569095D01*
X194470500Y-45521476D01*
X194422880Y-45426238D01*
X194422880Y-45235761D01*
X194470500Y-45140523D01*
X194518119Y-45092904D01*
X194613357Y-45045285D01*
X194851452Y-45045285D01*
X194946690Y-45092904D01*
X194994309Y-45140523D01*
X195041928Y-45235761D01*
X195041928Y-45426238D01*
X194994309Y-45521476D01*
X194946690Y-45569095D01*
X194851452Y-45616714D01*
X211462857Y-47347142D02*
X211510476Y-47394761D01*
X211653333Y-47442380D01*
X211748571Y-47442380D01*
X211891428Y-47394761D01*
X211986666Y-47299523D01*
X212034285Y-47204285D01*
X212081904Y-47013809D01*
X212081904Y-46870952D01*
X212034285Y-46680476D01*
X211986666Y-46585238D01*
X211891428Y-46490000D01*
X211748571Y-46442380D01*
X211653333Y-46442380D01*
X211510476Y-46490000D01*
X211462857Y-46537619D01*
X210510476Y-47442380D02*
X211081904Y-47442380D01*
X210796190Y-47442380D02*
X210796190Y-46442380D01*
X210891428Y-46585238D01*
X210986666Y-46680476D01*
X211081904Y-46728095D01*
X209891428Y-46442380D02*
X209796190Y-46442380D01*
X209700952Y-46490000D01*
X209653333Y-46537619D01*
X209605714Y-46632857D01*
X209558095Y-46823333D01*
X209558095Y-47061428D01*
X209605714Y-47251904D01*
X209653333Y-47347142D01*
X209700952Y-47394761D01*
X209796190Y-47442380D01*
X209891428Y-47442380D01*
X209986666Y-47394761D01*
X210034285Y-47347142D01*
X210081904Y-47251904D01*
X210129523Y-47061428D01*
X210129523Y-46823333D01*
X210081904Y-46632857D01*
X210034285Y-46537619D01*
X209986666Y-46490000D01*
X209891428Y-46442380D01*
X120054666Y-47696380D02*
X120388000Y-47220190D01*
X120626095Y-47696380D02*
X120626095Y-46696380D01*
X120245142Y-46696380D01*
X120149904Y-46744000D01*
X120102285Y-46791619D01*
X120054666Y-46886857D01*
X120054666Y-47029714D01*
X120102285Y-47124952D01*
X120149904Y-47172571D01*
X120245142Y-47220190D01*
X120626095Y-47220190D01*
X119149904Y-46696380D02*
X119626095Y-46696380D01*
X119673714Y-47172571D01*
X119626095Y-47124952D01*
X119530857Y-47077333D01*
X119292761Y-47077333D01*
X119197523Y-47124952D01*
X119149904Y-47172571D01*
X119102285Y-47267809D01*
X119102285Y-47505904D01*
X119149904Y-47601142D01*
X119197523Y-47648761D01*
X119292761Y-47696380D01*
X119530857Y-47696380D01*
X119626095Y-47648761D01*
X119673714Y-47601142D01*
X122340666Y-47696380D02*
X122674000Y-47220190D01*
X122912095Y-47696380D02*
X122912095Y-46696380D01*
X122531142Y-46696380D01*
X122435904Y-46744000D01*
X122388285Y-46791619D01*
X122340666Y-46886857D01*
X122340666Y-47029714D01*
X122388285Y-47124952D01*
X122435904Y-47172571D01*
X122531142Y-47220190D01*
X122912095Y-47220190D01*
X121483523Y-46696380D02*
X121674000Y-46696380D01*
X121769238Y-46744000D01*
X121816857Y-46791619D01*
X121912095Y-46934476D01*
X121959714Y-47124952D01*
X121959714Y-47505904D01*
X121912095Y-47601142D01*
X121864476Y-47648761D01*
X121769238Y-47696380D01*
X121578761Y-47696380D01*
X121483523Y-47648761D01*
X121435904Y-47601142D01*
X121388285Y-47505904D01*
X121388285Y-47267809D01*
X121435904Y-47172571D01*
X121483523Y-47124952D01*
X121578761Y-47077333D01*
X121769238Y-47077333D01*
X121864476Y-47124952D01*
X121912095Y-47172571D01*
X121959714Y-47267809D01*
X185586666Y-47569380D02*
X185920000Y-47093190D01*
X186158095Y-47569380D02*
X186158095Y-46569380D01*
X185777142Y-46569380D01*
X185681904Y-46617000D01*
X185634285Y-46664619D01*
X185586666Y-46759857D01*
X185586666Y-46902714D01*
X185634285Y-46997952D01*
X185681904Y-47045571D01*
X185777142Y-47093190D01*
X186158095Y-47093190D01*
X185253333Y-46569380D02*
X184586666Y-46569380D01*
X185015238Y-47569380D01*
X181522666Y-47569380D02*
X181856000Y-47093190D01*
X182094095Y-47569380D02*
X182094095Y-46569380D01*
X181713142Y-46569380D01*
X181617904Y-46617000D01*
X181570285Y-46664619D01*
X181522666Y-46759857D01*
X181522666Y-46902714D01*
X181570285Y-46997952D01*
X181617904Y-47045571D01*
X181713142Y-47093190D01*
X182094095Y-47093190D01*
X180951238Y-46997952D02*
X181046476Y-46950333D01*
X181094095Y-46902714D01*
X181141714Y-46807476D01*
X181141714Y-46759857D01*
X181094095Y-46664619D01*
X181046476Y-46617000D01*
X180951238Y-46569380D01*
X180760761Y-46569380D01*
X180665523Y-46617000D01*
X180617904Y-46664619D01*
X180570285Y-46759857D01*
X180570285Y-46807476D01*
X180617904Y-46902714D01*
X180665523Y-46950333D01*
X180760761Y-46997952D01*
X180951238Y-46997952D01*
X181046476Y-47045571D01*
X181094095Y-47093190D01*
X181141714Y-47188428D01*
X181141714Y-47378904D01*
X181094095Y-47474142D01*
X181046476Y-47521761D01*
X180951238Y-47569380D01*
X180760761Y-47569380D01*
X180665523Y-47521761D01*
X180617904Y-47474142D01*
X180570285Y-47378904D01*
X180570285Y-47188428D01*
X180617904Y-47093190D01*
X180665523Y-47045571D01*
X180760761Y-46997952D01*
X221273666Y-47442380D02*
X221607000Y-46966190D01*
X221845095Y-47442380D02*
X221845095Y-46442380D01*
X221464142Y-46442380D01*
X221368904Y-46490000D01*
X221321285Y-46537619D01*
X221273666Y-46632857D01*
X221273666Y-46775714D01*
X221321285Y-46870952D01*
X221368904Y-46918571D01*
X221464142Y-46966190D01*
X221845095Y-46966190D01*
X220797476Y-47442380D02*
X220607000Y-47442380D01*
X220511761Y-47394761D01*
X220464142Y-47347142D01*
X220368904Y-47204285D01*
X220321285Y-47013809D01*
X220321285Y-46632857D01*
X220368904Y-46537619D01*
X220416523Y-46490000D01*
X220511761Y-46442380D01*
X220702238Y-46442380D01*
X220797476Y-46490000D01*
X220845095Y-46537619D01*
X220892714Y-46632857D01*
X220892714Y-46870952D01*
X220845095Y-46966190D01*
X220797476Y-47013809D01*
X220702238Y-47061428D01*
X220511761Y-47061428D01*
X220416523Y-47013809D01*
X220368904Y-46966190D01*
X220321285Y-46870952D01*
X224035857Y-47442380D02*
X224369190Y-46966190D01*
X224607285Y-47442380D02*
X224607285Y-46442380D01*
X224226333Y-46442380D01*
X224131095Y-46490000D01*
X224083476Y-46537619D01*
X224035857Y-46632857D01*
X224035857Y-46775714D01*
X224083476Y-46870952D01*
X224131095Y-46918571D01*
X224226333Y-46966190D01*
X224607285Y-46966190D01*
X223083476Y-47442380D02*
X223654904Y-47442380D01*
X223369190Y-47442380D02*
X223369190Y-46442380D01*
X223464428Y-46585238D01*
X223559666Y-46680476D01*
X223654904Y-46728095D01*
X222464428Y-46442380D02*
X222369190Y-46442380D01*
X222273952Y-46490000D01*
X222226333Y-46537619D01*
X222178714Y-46632857D01*
X222131095Y-46823333D01*
X222131095Y-47061428D01*
X222178714Y-47251904D01*
X222226333Y-47347142D01*
X222273952Y-47394761D01*
X222369190Y-47442380D01*
X222464428Y-47442380D01*
X222559666Y-47394761D01*
X222607285Y-47347142D01*
X222654904Y-47251904D01*
X222702523Y-47061428D01*
X222702523Y-46823333D01*
X222654904Y-46632857D01*
X222607285Y-46537619D01*
X222559666Y-46490000D01*
X222464428Y-46442380D01*
X202267619Y-38734904D02*
X201458095Y-38734904D01*
X201362857Y-38687285D01*
X201315238Y-38639666D01*
X201267619Y-38544428D01*
X201267619Y-38353952D01*
X201315238Y-38258714D01*
X201362857Y-38211095D01*
X201458095Y-38163476D01*
X202267619Y-38163476D01*
X201267619Y-37639666D02*
X201267619Y-37449190D01*
X201315238Y-37353952D01*
X201362857Y-37306333D01*
X201505714Y-37211095D01*
X201696190Y-37163476D01*
X202077142Y-37163476D01*
X202172380Y-37211095D01*
X202220000Y-37258714D01*
X202267619Y-37353952D01*
X202267619Y-37544428D01*
X202220000Y-37639666D01*
X202172380Y-37687285D01*
X202077142Y-37734904D01*
X201839047Y-37734904D01*
X201743809Y-37687285D01*
X201696190Y-37639666D01*
X201648571Y-37544428D01*
X201648571Y-37353952D01*
X201696190Y-37258714D01*
X201743809Y-37211095D01*
X201839047Y-37163476D01*
X99672380Y-136993333D02*
X99196190Y-136660000D01*
X99672380Y-136421904D02*
X98672380Y-136421904D01*
X98672380Y-136802857D01*
X98720000Y-136898095D01*
X98767619Y-136945714D01*
X98862857Y-136993333D01*
X99005714Y-136993333D01*
X99100952Y-136945714D01*
X99148571Y-136898095D01*
X99196190Y-136802857D01*
X99196190Y-136421904D01*
X99672380Y-137945714D02*
X99672380Y-137374285D01*
X99672380Y-137660000D02*
X98672380Y-137660000D01*
X98815238Y-137564761D01*
X98910476Y-137469523D01*
X98958095Y-137374285D01*
X181379380Y-86909523D02*
X180903190Y-86576190D01*
X181379380Y-86338095D02*
X180379380Y-86338095D01*
X180379380Y-86719047D01*
X180427000Y-86814285D01*
X180474619Y-86861904D01*
X180569857Y-86909523D01*
X180712714Y-86909523D01*
X180807952Y-86861904D01*
X180855571Y-86814285D01*
X180903190Y-86719047D01*
X180903190Y-86338095D01*
X181379380Y-87338095D02*
X180379380Y-87338095D01*
X181379380Y-87909523D01*
X180379380Y-87909523D01*
X180379380Y-88861904D02*
X180379380Y-88385714D01*
X180855571Y-88338095D01*
X180807952Y-88385714D01*
X180760333Y-88480952D01*
X180760333Y-88719047D01*
X180807952Y-88814285D01*
X180855571Y-88861904D01*
X180950809Y-88909523D01*
X181188904Y-88909523D01*
X181284142Y-88861904D01*
X181331761Y-88814285D01*
X181379380Y-88719047D01*
X181379380Y-88480952D01*
X181331761Y-88385714D01*
X181284142Y-88338095D01*
M02*
