G04 #@! TF.GenerationSoftware,KiCad,Pcbnew,(5.1.4)-1*
G04 #@! TF.CreationDate,2019-10-13T10:06:27+02:00*
G04 #@! TF.ProjectId,ctrl_interface,6374726c-5f69-46e7-9465-72666163652e,rev?*
G04 #@! TF.SameCoordinates,Original*
G04 #@! TF.FileFunction,Paste,Top*
G04 #@! TF.FilePolarity,Positive*
%FSLAX46Y46*%
G04 Gerber Fmt 4.6, Leading zero omitted, Abs format (unit mm)*
G04 Created by KiCad (PCBNEW (5.1.4)-1) date 2019-10-13 10:06:27*
%MOMM*%
%LPD*%
G04 APERTURE LIST*
%ADD10C,0.100000*%
%ADD11C,0.975000*%
G04 APERTURE END LIST*
D10*
G36*
X62908642Y-63309174D02*
G01*
X62932303Y-63312684D01*
X62955507Y-63318496D01*
X62978029Y-63326554D01*
X62999653Y-63336782D01*
X63020170Y-63349079D01*
X63039383Y-63363329D01*
X63057107Y-63379393D01*
X63073171Y-63397117D01*
X63087421Y-63416330D01*
X63099718Y-63436847D01*
X63109946Y-63458471D01*
X63118004Y-63480993D01*
X63123816Y-63504197D01*
X63127326Y-63527858D01*
X63128500Y-63551750D01*
X63128500Y-64464250D01*
X63127326Y-64488142D01*
X63123816Y-64511803D01*
X63118004Y-64535007D01*
X63109946Y-64557529D01*
X63099718Y-64579153D01*
X63087421Y-64599670D01*
X63073171Y-64618883D01*
X63057107Y-64636607D01*
X63039383Y-64652671D01*
X63020170Y-64666921D01*
X62999653Y-64679218D01*
X62978029Y-64689446D01*
X62955507Y-64697504D01*
X62932303Y-64703316D01*
X62908642Y-64706826D01*
X62884750Y-64708000D01*
X62397250Y-64708000D01*
X62373358Y-64706826D01*
X62349697Y-64703316D01*
X62326493Y-64697504D01*
X62303971Y-64689446D01*
X62282347Y-64679218D01*
X62261830Y-64666921D01*
X62242617Y-64652671D01*
X62224893Y-64636607D01*
X62208829Y-64618883D01*
X62194579Y-64599670D01*
X62182282Y-64579153D01*
X62172054Y-64557529D01*
X62163996Y-64535007D01*
X62158184Y-64511803D01*
X62154674Y-64488142D01*
X62153500Y-64464250D01*
X62153500Y-63551750D01*
X62154674Y-63527858D01*
X62158184Y-63504197D01*
X62163996Y-63480993D01*
X62172054Y-63458471D01*
X62182282Y-63436847D01*
X62194579Y-63416330D01*
X62208829Y-63397117D01*
X62224893Y-63379393D01*
X62242617Y-63363329D01*
X62261830Y-63349079D01*
X62282347Y-63336782D01*
X62303971Y-63326554D01*
X62326493Y-63318496D01*
X62349697Y-63312684D01*
X62373358Y-63309174D01*
X62397250Y-63308000D01*
X62884750Y-63308000D01*
X62908642Y-63309174D01*
X62908642Y-63309174D01*
G37*
D11*
X62641000Y-64008000D03*
D10*
G36*
X64783642Y-63309174D02*
G01*
X64807303Y-63312684D01*
X64830507Y-63318496D01*
X64853029Y-63326554D01*
X64874653Y-63336782D01*
X64895170Y-63349079D01*
X64914383Y-63363329D01*
X64932107Y-63379393D01*
X64948171Y-63397117D01*
X64962421Y-63416330D01*
X64974718Y-63436847D01*
X64984946Y-63458471D01*
X64993004Y-63480993D01*
X64998816Y-63504197D01*
X65002326Y-63527858D01*
X65003500Y-63551750D01*
X65003500Y-64464250D01*
X65002326Y-64488142D01*
X64998816Y-64511803D01*
X64993004Y-64535007D01*
X64984946Y-64557529D01*
X64974718Y-64579153D01*
X64962421Y-64599670D01*
X64948171Y-64618883D01*
X64932107Y-64636607D01*
X64914383Y-64652671D01*
X64895170Y-64666921D01*
X64874653Y-64679218D01*
X64853029Y-64689446D01*
X64830507Y-64697504D01*
X64807303Y-64703316D01*
X64783642Y-64706826D01*
X64759750Y-64708000D01*
X64272250Y-64708000D01*
X64248358Y-64706826D01*
X64224697Y-64703316D01*
X64201493Y-64697504D01*
X64178971Y-64689446D01*
X64157347Y-64679218D01*
X64136830Y-64666921D01*
X64117617Y-64652671D01*
X64099893Y-64636607D01*
X64083829Y-64618883D01*
X64069579Y-64599670D01*
X64057282Y-64579153D01*
X64047054Y-64557529D01*
X64038996Y-64535007D01*
X64033184Y-64511803D01*
X64029674Y-64488142D01*
X64028500Y-64464250D01*
X64028500Y-63551750D01*
X64029674Y-63527858D01*
X64033184Y-63504197D01*
X64038996Y-63480993D01*
X64047054Y-63458471D01*
X64057282Y-63436847D01*
X64069579Y-63416330D01*
X64083829Y-63397117D01*
X64099893Y-63379393D01*
X64117617Y-63363329D01*
X64136830Y-63349079D01*
X64157347Y-63336782D01*
X64178971Y-63326554D01*
X64201493Y-63318496D01*
X64224697Y-63312684D01*
X64248358Y-63309174D01*
X64272250Y-63308000D01*
X64759750Y-63308000D01*
X64783642Y-63309174D01*
X64783642Y-63309174D01*
G37*
D11*
X64516000Y-64008000D03*
D10*
G36*
X64783642Y-91249174D02*
G01*
X64807303Y-91252684D01*
X64830507Y-91258496D01*
X64853029Y-91266554D01*
X64874653Y-91276782D01*
X64895170Y-91289079D01*
X64914383Y-91303329D01*
X64932107Y-91319393D01*
X64948171Y-91337117D01*
X64962421Y-91356330D01*
X64974718Y-91376847D01*
X64984946Y-91398471D01*
X64993004Y-91420993D01*
X64998816Y-91444197D01*
X65002326Y-91467858D01*
X65003500Y-91491750D01*
X65003500Y-92404250D01*
X65002326Y-92428142D01*
X64998816Y-92451803D01*
X64993004Y-92475007D01*
X64984946Y-92497529D01*
X64974718Y-92519153D01*
X64962421Y-92539670D01*
X64948171Y-92558883D01*
X64932107Y-92576607D01*
X64914383Y-92592671D01*
X64895170Y-92606921D01*
X64874653Y-92619218D01*
X64853029Y-92629446D01*
X64830507Y-92637504D01*
X64807303Y-92643316D01*
X64783642Y-92646826D01*
X64759750Y-92648000D01*
X64272250Y-92648000D01*
X64248358Y-92646826D01*
X64224697Y-92643316D01*
X64201493Y-92637504D01*
X64178971Y-92629446D01*
X64157347Y-92619218D01*
X64136830Y-92606921D01*
X64117617Y-92592671D01*
X64099893Y-92576607D01*
X64083829Y-92558883D01*
X64069579Y-92539670D01*
X64057282Y-92519153D01*
X64047054Y-92497529D01*
X64038996Y-92475007D01*
X64033184Y-92451803D01*
X64029674Y-92428142D01*
X64028500Y-92404250D01*
X64028500Y-91491750D01*
X64029674Y-91467858D01*
X64033184Y-91444197D01*
X64038996Y-91420993D01*
X64047054Y-91398471D01*
X64057282Y-91376847D01*
X64069579Y-91356330D01*
X64083829Y-91337117D01*
X64099893Y-91319393D01*
X64117617Y-91303329D01*
X64136830Y-91289079D01*
X64157347Y-91276782D01*
X64178971Y-91266554D01*
X64201493Y-91258496D01*
X64224697Y-91252684D01*
X64248358Y-91249174D01*
X64272250Y-91248000D01*
X64759750Y-91248000D01*
X64783642Y-91249174D01*
X64783642Y-91249174D01*
G37*
D11*
X64516000Y-91948000D03*
D10*
G36*
X62908642Y-91249174D02*
G01*
X62932303Y-91252684D01*
X62955507Y-91258496D01*
X62978029Y-91266554D01*
X62999653Y-91276782D01*
X63020170Y-91289079D01*
X63039383Y-91303329D01*
X63057107Y-91319393D01*
X63073171Y-91337117D01*
X63087421Y-91356330D01*
X63099718Y-91376847D01*
X63109946Y-91398471D01*
X63118004Y-91420993D01*
X63123816Y-91444197D01*
X63127326Y-91467858D01*
X63128500Y-91491750D01*
X63128500Y-92404250D01*
X63127326Y-92428142D01*
X63123816Y-92451803D01*
X63118004Y-92475007D01*
X63109946Y-92497529D01*
X63099718Y-92519153D01*
X63087421Y-92539670D01*
X63073171Y-92558883D01*
X63057107Y-92576607D01*
X63039383Y-92592671D01*
X63020170Y-92606921D01*
X62999653Y-92619218D01*
X62978029Y-92629446D01*
X62955507Y-92637504D01*
X62932303Y-92643316D01*
X62908642Y-92646826D01*
X62884750Y-92648000D01*
X62397250Y-92648000D01*
X62373358Y-92646826D01*
X62349697Y-92643316D01*
X62326493Y-92637504D01*
X62303971Y-92629446D01*
X62282347Y-92619218D01*
X62261830Y-92606921D01*
X62242617Y-92592671D01*
X62224893Y-92576607D01*
X62208829Y-92558883D01*
X62194579Y-92539670D01*
X62182282Y-92519153D01*
X62172054Y-92497529D01*
X62163996Y-92475007D01*
X62158184Y-92451803D01*
X62154674Y-92428142D01*
X62153500Y-92404250D01*
X62153500Y-91491750D01*
X62154674Y-91467858D01*
X62158184Y-91444197D01*
X62163996Y-91420993D01*
X62172054Y-91398471D01*
X62182282Y-91376847D01*
X62194579Y-91356330D01*
X62208829Y-91337117D01*
X62224893Y-91319393D01*
X62242617Y-91303329D01*
X62261830Y-91289079D01*
X62282347Y-91276782D01*
X62303971Y-91266554D01*
X62326493Y-91258496D01*
X62349697Y-91252684D01*
X62373358Y-91249174D01*
X62397250Y-91248000D01*
X62884750Y-91248000D01*
X62908642Y-91249174D01*
X62908642Y-91249174D01*
G37*
D11*
X62641000Y-91948000D03*
D10*
G36*
X88308642Y-63309174D02*
G01*
X88332303Y-63312684D01*
X88355507Y-63318496D01*
X88378029Y-63326554D01*
X88399653Y-63336782D01*
X88420170Y-63349079D01*
X88439383Y-63363329D01*
X88457107Y-63379393D01*
X88473171Y-63397117D01*
X88487421Y-63416330D01*
X88499718Y-63436847D01*
X88509946Y-63458471D01*
X88518004Y-63480993D01*
X88523816Y-63504197D01*
X88527326Y-63527858D01*
X88528500Y-63551750D01*
X88528500Y-64464250D01*
X88527326Y-64488142D01*
X88523816Y-64511803D01*
X88518004Y-64535007D01*
X88509946Y-64557529D01*
X88499718Y-64579153D01*
X88487421Y-64599670D01*
X88473171Y-64618883D01*
X88457107Y-64636607D01*
X88439383Y-64652671D01*
X88420170Y-64666921D01*
X88399653Y-64679218D01*
X88378029Y-64689446D01*
X88355507Y-64697504D01*
X88332303Y-64703316D01*
X88308642Y-64706826D01*
X88284750Y-64708000D01*
X87797250Y-64708000D01*
X87773358Y-64706826D01*
X87749697Y-64703316D01*
X87726493Y-64697504D01*
X87703971Y-64689446D01*
X87682347Y-64679218D01*
X87661830Y-64666921D01*
X87642617Y-64652671D01*
X87624893Y-64636607D01*
X87608829Y-64618883D01*
X87594579Y-64599670D01*
X87582282Y-64579153D01*
X87572054Y-64557529D01*
X87563996Y-64535007D01*
X87558184Y-64511803D01*
X87554674Y-64488142D01*
X87553500Y-64464250D01*
X87553500Y-63551750D01*
X87554674Y-63527858D01*
X87558184Y-63504197D01*
X87563996Y-63480993D01*
X87572054Y-63458471D01*
X87582282Y-63436847D01*
X87594579Y-63416330D01*
X87608829Y-63397117D01*
X87624893Y-63379393D01*
X87642617Y-63363329D01*
X87661830Y-63349079D01*
X87682347Y-63336782D01*
X87703971Y-63326554D01*
X87726493Y-63318496D01*
X87749697Y-63312684D01*
X87773358Y-63309174D01*
X87797250Y-63308000D01*
X88284750Y-63308000D01*
X88308642Y-63309174D01*
X88308642Y-63309174D01*
G37*
D11*
X88041000Y-64008000D03*
D10*
G36*
X90183642Y-63309174D02*
G01*
X90207303Y-63312684D01*
X90230507Y-63318496D01*
X90253029Y-63326554D01*
X90274653Y-63336782D01*
X90295170Y-63349079D01*
X90314383Y-63363329D01*
X90332107Y-63379393D01*
X90348171Y-63397117D01*
X90362421Y-63416330D01*
X90374718Y-63436847D01*
X90384946Y-63458471D01*
X90393004Y-63480993D01*
X90398816Y-63504197D01*
X90402326Y-63527858D01*
X90403500Y-63551750D01*
X90403500Y-64464250D01*
X90402326Y-64488142D01*
X90398816Y-64511803D01*
X90393004Y-64535007D01*
X90384946Y-64557529D01*
X90374718Y-64579153D01*
X90362421Y-64599670D01*
X90348171Y-64618883D01*
X90332107Y-64636607D01*
X90314383Y-64652671D01*
X90295170Y-64666921D01*
X90274653Y-64679218D01*
X90253029Y-64689446D01*
X90230507Y-64697504D01*
X90207303Y-64703316D01*
X90183642Y-64706826D01*
X90159750Y-64708000D01*
X89672250Y-64708000D01*
X89648358Y-64706826D01*
X89624697Y-64703316D01*
X89601493Y-64697504D01*
X89578971Y-64689446D01*
X89557347Y-64679218D01*
X89536830Y-64666921D01*
X89517617Y-64652671D01*
X89499893Y-64636607D01*
X89483829Y-64618883D01*
X89469579Y-64599670D01*
X89457282Y-64579153D01*
X89447054Y-64557529D01*
X89438996Y-64535007D01*
X89433184Y-64511803D01*
X89429674Y-64488142D01*
X89428500Y-64464250D01*
X89428500Y-63551750D01*
X89429674Y-63527858D01*
X89433184Y-63504197D01*
X89438996Y-63480993D01*
X89447054Y-63458471D01*
X89457282Y-63436847D01*
X89469579Y-63416330D01*
X89483829Y-63397117D01*
X89499893Y-63379393D01*
X89517617Y-63363329D01*
X89536830Y-63349079D01*
X89557347Y-63336782D01*
X89578971Y-63326554D01*
X89601493Y-63318496D01*
X89624697Y-63312684D01*
X89648358Y-63309174D01*
X89672250Y-63308000D01*
X90159750Y-63308000D01*
X90183642Y-63309174D01*
X90183642Y-63309174D01*
G37*
D11*
X89916000Y-64008000D03*
D10*
G36*
X90183642Y-91249174D02*
G01*
X90207303Y-91252684D01*
X90230507Y-91258496D01*
X90253029Y-91266554D01*
X90274653Y-91276782D01*
X90295170Y-91289079D01*
X90314383Y-91303329D01*
X90332107Y-91319393D01*
X90348171Y-91337117D01*
X90362421Y-91356330D01*
X90374718Y-91376847D01*
X90384946Y-91398471D01*
X90393004Y-91420993D01*
X90398816Y-91444197D01*
X90402326Y-91467858D01*
X90403500Y-91491750D01*
X90403500Y-92404250D01*
X90402326Y-92428142D01*
X90398816Y-92451803D01*
X90393004Y-92475007D01*
X90384946Y-92497529D01*
X90374718Y-92519153D01*
X90362421Y-92539670D01*
X90348171Y-92558883D01*
X90332107Y-92576607D01*
X90314383Y-92592671D01*
X90295170Y-92606921D01*
X90274653Y-92619218D01*
X90253029Y-92629446D01*
X90230507Y-92637504D01*
X90207303Y-92643316D01*
X90183642Y-92646826D01*
X90159750Y-92648000D01*
X89672250Y-92648000D01*
X89648358Y-92646826D01*
X89624697Y-92643316D01*
X89601493Y-92637504D01*
X89578971Y-92629446D01*
X89557347Y-92619218D01*
X89536830Y-92606921D01*
X89517617Y-92592671D01*
X89499893Y-92576607D01*
X89483829Y-92558883D01*
X89469579Y-92539670D01*
X89457282Y-92519153D01*
X89447054Y-92497529D01*
X89438996Y-92475007D01*
X89433184Y-92451803D01*
X89429674Y-92428142D01*
X89428500Y-92404250D01*
X89428500Y-91491750D01*
X89429674Y-91467858D01*
X89433184Y-91444197D01*
X89438996Y-91420993D01*
X89447054Y-91398471D01*
X89457282Y-91376847D01*
X89469579Y-91356330D01*
X89483829Y-91337117D01*
X89499893Y-91319393D01*
X89517617Y-91303329D01*
X89536830Y-91289079D01*
X89557347Y-91276782D01*
X89578971Y-91266554D01*
X89601493Y-91258496D01*
X89624697Y-91252684D01*
X89648358Y-91249174D01*
X89672250Y-91248000D01*
X90159750Y-91248000D01*
X90183642Y-91249174D01*
X90183642Y-91249174D01*
G37*
D11*
X89916000Y-91948000D03*
D10*
G36*
X88308642Y-91249174D02*
G01*
X88332303Y-91252684D01*
X88355507Y-91258496D01*
X88378029Y-91266554D01*
X88399653Y-91276782D01*
X88420170Y-91289079D01*
X88439383Y-91303329D01*
X88457107Y-91319393D01*
X88473171Y-91337117D01*
X88487421Y-91356330D01*
X88499718Y-91376847D01*
X88509946Y-91398471D01*
X88518004Y-91420993D01*
X88523816Y-91444197D01*
X88527326Y-91467858D01*
X88528500Y-91491750D01*
X88528500Y-92404250D01*
X88527326Y-92428142D01*
X88523816Y-92451803D01*
X88518004Y-92475007D01*
X88509946Y-92497529D01*
X88499718Y-92519153D01*
X88487421Y-92539670D01*
X88473171Y-92558883D01*
X88457107Y-92576607D01*
X88439383Y-92592671D01*
X88420170Y-92606921D01*
X88399653Y-92619218D01*
X88378029Y-92629446D01*
X88355507Y-92637504D01*
X88332303Y-92643316D01*
X88308642Y-92646826D01*
X88284750Y-92648000D01*
X87797250Y-92648000D01*
X87773358Y-92646826D01*
X87749697Y-92643316D01*
X87726493Y-92637504D01*
X87703971Y-92629446D01*
X87682347Y-92619218D01*
X87661830Y-92606921D01*
X87642617Y-92592671D01*
X87624893Y-92576607D01*
X87608829Y-92558883D01*
X87594579Y-92539670D01*
X87582282Y-92519153D01*
X87572054Y-92497529D01*
X87563996Y-92475007D01*
X87558184Y-92451803D01*
X87554674Y-92428142D01*
X87553500Y-92404250D01*
X87553500Y-91491750D01*
X87554674Y-91467858D01*
X87558184Y-91444197D01*
X87563996Y-91420993D01*
X87572054Y-91398471D01*
X87582282Y-91376847D01*
X87594579Y-91356330D01*
X87608829Y-91337117D01*
X87624893Y-91319393D01*
X87642617Y-91303329D01*
X87661830Y-91289079D01*
X87682347Y-91276782D01*
X87703971Y-91266554D01*
X87726493Y-91258496D01*
X87749697Y-91252684D01*
X87773358Y-91249174D01*
X87797250Y-91248000D01*
X88284750Y-91248000D01*
X88308642Y-91249174D01*
X88308642Y-91249174D01*
G37*
D11*
X88041000Y-91948000D03*
D10*
G36*
X113708642Y-63309174D02*
G01*
X113732303Y-63312684D01*
X113755507Y-63318496D01*
X113778029Y-63326554D01*
X113799653Y-63336782D01*
X113820170Y-63349079D01*
X113839383Y-63363329D01*
X113857107Y-63379393D01*
X113873171Y-63397117D01*
X113887421Y-63416330D01*
X113899718Y-63436847D01*
X113909946Y-63458471D01*
X113918004Y-63480993D01*
X113923816Y-63504197D01*
X113927326Y-63527858D01*
X113928500Y-63551750D01*
X113928500Y-64464250D01*
X113927326Y-64488142D01*
X113923816Y-64511803D01*
X113918004Y-64535007D01*
X113909946Y-64557529D01*
X113899718Y-64579153D01*
X113887421Y-64599670D01*
X113873171Y-64618883D01*
X113857107Y-64636607D01*
X113839383Y-64652671D01*
X113820170Y-64666921D01*
X113799653Y-64679218D01*
X113778029Y-64689446D01*
X113755507Y-64697504D01*
X113732303Y-64703316D01*
X113708642Y-64706826D01*
X113684750Y-64708000D01*
X113197250Y-64708000D01*
X113173358Y-64706826D01*
X113149697Y-64703316D01*
X113126493Y-64697504D01*
X113103971Y-64689446D01*
X113082347Y-64679218D01*
X113061830Y-64666921D01*
X113042617Y-64652671D01*
X113024893Y-64636607D01*
X113008829Y-64618883D01*
X112994579Y-64599670D01*
X112982282Y-64579153D01*
X112972054Y-64557529D01*
X112963996Y-64535007D01*
X112958184Y-64511803D01*
X112954674Y-64488142D01*
X112953500Y-64464250D01*
X112953500Y-63551750D01*
X112954674Y-63527858D01*
X112958184Y-63504197D01*
X112963996Y-63480993D01*
X112972054Y-63458471D01*
X112982282Y-63436847D01*
X112994579Y-63416330D01*
X113008829Y-63397117D01*
X113024893Y-63379393D01*
X113042617Y-63363329D01*
X113061830Y-63349079D01*
X113082347Y-63336782D01*
X113103971Y-63326554D01*
X113126493Y-63318496D01*
X113149697Y-63312684D01*
X113173358Y-63309174D01*
X113197250Y-63308000D01*
X113684750Y-63308000D01*
X113708642Y-63309174D01*
X113708642Y-63309174D01*
G37*
D11*
X113441000Y-64008000D03*
D10*
G36*
X115583642Y-63309174D02*
G01*
X115607303Y-63312684D01*
X115630507Y-63318496D01*
X115653029Y-63326554D01*
X115674653Y-63336782D01*
X115695170Y-63349079D01*
X115714383Y-63363329D01*
X115732107Y-63379393D01*
X115748171Y-63397117D01*
X115762421Y-63416330D01*
X115774718Y-63436847D01*
X115784946Y-63458471D01*
X115793004Y-63480993D01*
X115798816Y-63504197D01*
X115802326Y-63527858D01*
X115803500Y-63551750D01*
X115803500Y-64464250D01*
X115802326Y-64488142D01*
X115798816Y-64511803D01*
X115793004Y-64535007D01*
X115784946Y-64557529D01*
X115774718Y-64579153D01*
X115762421Y-64599670D01*
X115748171Y-64618883D01*
X115732107Y-64636607D01*
X115714383Y-64652671D01*
X115695170Y-64666921D01*
X115674653Y-64679218D01*
X115653029Y-64689446D01*
X115630507Y-64697504D01*
X115607303Y-64703316D01*
X115583642Y-64706826D01*
X115559750Y-64708000D01*
X115072250Y-64708000D01*
X115048358Y-64706826D01*
X115024697Y-64703316D01*
X115001493Y-64697504D01*
X114978971Y-64689446D01*
X114957347Y-64679218D01*
X114936830Y-64666921D01*
X114917617Y-64652671D01*
X114899893Y-64636607D01*
X114883829Y-64618883D01*
X114869579Y-64599670D01*
X114857282Y-64579153D01*
X114847054Y-64557529D01*
X114838996Y-64535007D01*
X114833184Y-64511803D01*
X114829674Y-64488142D01*
X114828500Y-64464250D01*
X114828500Y-63551750D01*
X114829674Y-63527858D01*
X114833184Y-63504197D01*
X114838996Y-63480993D01*
X114847054Y-63458471D01*
X114857282Y-63436847D01*
X114869579Y-63416330D01*
X114883829Y-63397117D01*
X114899893Y-63379393D01*
X114917617Y-63363329D01*
X114936830Y-63349079D01*
X114957347Y-63336782D01*
X114978971Y-63326554D01*
X115001493Y-63318496D01*
X115024697Y-63312684D01*
X115048358Y-63309174D01*
X115072250Y-63308000D01*
X115559750Y-63308000D01*
X115583642Y-63309174D01*
X115583642Y-63309174D01*
G37*
D11*
X115316000Y-64008000D03*
D10*
G36*
X115583642Y-91249174D02*
G01*
X115607303Y-91252684D01*
X115630507Y-91258496D01*
X115653029Y-91266554D01*
X115674653Y-91276782D01*
X115695170Y-91289079D01*
X115714383Y-91303329D01*
X115732107Y-91319393D01*
X115748171Y-91337117D01*
X115762421Y-91356330D01*
X115774718Y-91376847D01*
X115784946Y-91398471D01*
X115793004Y-91420993D01*
X115798816Y-91444197D01*
X115802326Y-91467858D01*
X115803500Y-91491750D01*
X115803500Y-92404250D01*
X115802326Y-92428142D01*
X115798816Y-92451803D01*
X115793004Y-92475007D01*
X115784946Y-92497529D01*
X115774718Y-92519153D01*
X115762421Y-92539670D01*
X115748171Y-92558883D01*
X115732107Y-92576607D01*
X115714383Y-92592671D01*
X115695170Y-92606921D01*
X115674653Y-92619218D01*
X115653029Y-92629446D01*
X115630507Y-92637504D01*
X115607303Y-92643316D01*
X115583642Y-92646826D01*
X115559750Y-92648000D01*
X115072250Y-92648000D01*
X115048358Y-92646826D01*
X115024697Y-92643316D01*
X115001493Y-92637504D01*
X114978971Y-92629446D01*
X114957347Y-92619218D01*
X114936830Y-92606921D01*
X114917617Y-92592671D01*
X114899893Y-92576607D01*
X114883829Y-92558883D01*
X114869579Y-92539670D01*
X114857282Y-92519153D01*
X114847054Y-92497529D01*
X114838996Y-92475007D01*
X114833184Y-92451803D01*
X114829674Y-92428142D01*
X114828500Y-92404250D01*
X114828500Y-91491750D01*
X114829674Y-91467858D01*
X114833184Y-91444197D01*
X114838996Y-91420993D01*
X114847054Y-91398471D01*
X114857282Y-91376847D01*
X114869579Y-91356330D01*
X114883829Y-91337117D01*
X114899893Y-91319393D01*
X114917617Y-91303329D01*
X114936830Y-91289079D01*
X114957347Y-91276782D01*
X114978971Y-91266554D01*
X115001493Y-91258496D01*
X115024697Y-91252684D01*
X115048358Y-91249174D01*
X115072250Y-91248000D01*
X115559750Y-91248000D01*
X115583642Y-91249174D01*
X115583642Y-91249174D01*
G37*
D11*
X115316000Y-91948000D03*
D10*
G36*
X113708642Y-91249174D02*
G01*
X113732303Y-91252684D01*
X113755507Y-91258496D01*
X113778029Y-91266554D01*
X113799653Y-91276782D01*
X113820170Y-91289079D01*
X113839383Y-91303329D01*
X113857107Y-91319393D01*
X113873171Y-91337117D01*
X113887421Y-91356330D01*
X113899718Y-91376847D01*
X113909946Y-91398471D01*
X113918004Y-91420993D01*
X113923816Y-91444197D01*
X113927326Y-91467858D01*
X113928500Y-91491750D01*
X113928500Y-92404250D01*
X113927326Y-92428142D01*
X113923816Y-92451803D01*
X113918004Y-92475007D01*
X113909946Y-92497529D01*
X113899718Y-92519153D01*
X113887421Y-92539670D01*
X113873171Y-92558883D01*
X113857107Y-92576607D01*
X113839383Y-92592671D01*
X113820170Y-92606921D01*
X113799653Y-92619218D01*
X113778029Y-92629446D01*
X113755507Y-92637504D01*
X113732303Y-92643316D01*
X113708642Y-92646826D01*
X113684750Y-92648000D01*
X113197250Y-92648000D01*
X113173358Y-92646826D01*
X113149697Y-92643316D01*
X113126493Y-92637504D01*
X113103971Y-92629446D01*
X113082347Y-92619218D01*
X113061830Y-92606921D01*
X113042617Y-92592671D01*
X113024893Y-92576607D01*
X113008829Y-92558883D01*
X112994579Y-92539670D01*
X112982282Y-92519153D01*
X112972054Y-92497529D01*
X112963996Y-92475007D01*
X112958184Y-92451803D01*
X112954674Y-92428142D01*
X112953500Y-92404250D01*
X112953500Y-91491750D01*
X112954674Y-91467858D01*
X112958184Y-91444197D01*
X112963996Y-91420993D01*
X112972054Y-91398471D01*
X112982282Y-91376847D01*
X112994579Y-91356330D01*
X113008829Y-91337117D01*
X113024893Y-91319393D01*
X113042617Y-91303329D01*
X113061830Y-91289079D01*
X113082347Y-91276782D01*
X113103971Y-91266554D01*
X113126493Y-91258496D01*
X113149697Y-91252684D01*
X113173358Y-91249174D01*
X113197250Y-91248000D01*
X113684750Y-91248000D01*
X113708642Y-91249174D01*
X113708642Y-91249174D01*
G37*
D11*
X113441000Y-91948000D03*
D10*
G36*
X139108642Y-63309174D02*
G01*
X139132303Y-63312684D01*
X139155507Y-63318496D01*
X139178029Y-63326554D01*
X139199653Y-63336782D01*
X139220170Y-63349079D01*
X139239383Y-63363329D01*
X139257107Y-63379393D01*
X139273171Y-63397117D01*
X139287421Y-63416330D01*
X139299718Y-63436847D01*
X139309946Y-63458471D01*
X139318004Y-63480993D01*
X139323816Y-63504197D01*
X139327326Y-63527858D01*
X139328500Y-63551750D01*
X139328500Y-64464250D01*
X139327326Y-64488142D01*
X139323816Y-64511803D01*
X139318004Y-64535007D01*
X139309946Y-64557529D01*
X139299718Y-64579153D01*
X139287421Y-64599670D01*
X139273171Y-64618883D01*
X139257107Y-64636607D01*
X139239383Y-64652671D01*
X139220170Y-64666921D01*
X139199653Y-64679218D01*
X139178029Y-64689446D01*
X139155507Y-64697504D01*
X139132303Y-64703316D01*
X139108642Y-64706826D01*
X139084750Y-64708000D01*
X138597250Y-64708000D01*
X138573358Y-64706826D01*
X138549697Y-64703316D01*
X138526493Y-64697504D01*
X138503971Y-64689446D01*
X138482347Y-64679218D01*
X138461830Y-64666921D01*
X138442617Y-64652671D01*
X138424893Y-64636607D01*
X138408829Y-64618883D01*
X138394579Y-64599670D01*
X138382282Y-64579153D01*
X138372054Y-64557529D01*
X138363996Y-64535007D01*
X138358184Y-64511803D01*
X138354674Y-64488142D01*
X138353500Y-64464250D01*
X138353500Y-63551750D01*
X138354674Y-63527858D01*
X138358184Y-63504197D01*
X138363996Y-63480993D01*
X138372054Y-63458471D01*
X138382282Y-63436847D01*
X138394579Y-63416330D01*
X138408829Y-63397117D01*
X138424893Y-63379393D01*
X138442617Y-63363329D01*
X138461830Y-63349079D01*
X138482347Y-63336782D01*
X138503971Y-63326554D01*
X138526493Y-63318496D01*
X138549697Y-63312684D01*
X138573358Y-63309174D01*
X138597250Y-63308000D01*
X139084750Y-63308000D01*
X139108642Y-63309174D01*
X139108642Y-63309174D01*
G37*
D11*
X138841000Y-64008000D03*
D10*
G36*
X140983642Y-63309174D02*
G01*
X141007303Y-63312684D01*
X141030507Y-63318496D01*
X141053029Y-63326554D01*
X141074653Y-63336782D01*
X141095170Y-63349079D01*
X141114383Y-63363329D01*
X141132107Y-63379393D01*
X141148171Y-63397117D01*
X141162421Y-63416330D01*
X141174718Y-63436847D01*
X141184946Y-63458471D01*
X141193004Y-63480993D01*
X141198816Y-63504197D01*
X141202326Y-63527858D01*
X141203500Y-63551750D01*
X141203500Y-64464250D01*
X141202326Y-64488142D01*
X141198816Y-64511803D01*
X141193004Y-64535007D01*
X141184946Y-64557529D01*
X141174718Y-64579153D01*
X141162421Y-64599670D01*
X141148171Y-64618883D01*
X141132107Y-64636607D01*
X141114383Y-64652671D01*
X141095170Y-64666921D01*
X141074653Y-64679218D01*
X141053029Y-64689446D01*
X141030507Y-64697504D01*
X141007303Y-64703316D01*
X140983642Y-64706826D01*
X140959750Y-64708000D01*
X140472250Y-64708000D01*
X140448358Y-64706826D01*
X140424697Y-64703316D01*
X140401493Y-64697504D01*
X140378971Y-64689446D01*
X140357347Y-64679218D01*
X140336830Y-64666921D01*
X140317617Y-64652671D01*
X140299893Y-64636607D01*
X140283829Y-64618883D01*
X140269579Y-64599670D01*
X140257282Y-64579153D01*
X140247054Y-64557529D01*
X140238996Y-64535007D01*
X140233184Y-64511803D01*
X140229674Y-64488142D01*
X140228500Y-64464250D01*
X140228500Y-63551750D01*
X140229674Y-63527858D01*
X140233184Y-63504197D01*
X140238996Y-63480993D01*
X140247054Y-63458471D01*
X140257282Y-63436847D01*
X140269579Y-63416330D01*
X140283829Y-63397117D01*
X140299893Y-63379393D01*
X140317617Y-63363329D01*
X140336830Y-63349079D01*
X140357347Y-63336782D01*
X140378971Y-63326554D01*
X140401493Y-63318496D01*
X140424697Y-63312684D01*
X140448358Y-63309174D01*
X140472250Y-63308000D01*
X140959750Y-63308000D01*
X140983642Y-63309174D01*
X140983642Y-63309174D01*
G37*
D11*
X140716000Y-64008000D03*
D10*
G36*
X140983642Y-91249174D02*
G01*
X141007303Y-91252684D01*
X141030507Y-91258496D01*
X141053029Y-91266554D01*
X141074653Y-91276782D01*
X141095170Y-91289079D01*
X141114383Y-91303329D01*
X141132107Y-91319393D01*
X141148171Y-91337117D01*
X141162421Y-91356330D01*
X141174718Y-91376847D01*
X141184946Y-91398471D01*
X141193004Y-91420993D01*
X141198816Y-91444197D01*
X141202326Y-91467858D01*
X141203500Y-91491750D01*
X141203500Y-92404250D01*
X141202326Y-92428142D01*
X141198816Y-92451803D01*
X141193004Y-92475007D01*
X141184946Y-92497529D01*
X141174718Y-92519153D01*
X141162421Y-92539670D01*
X141148171Y-92558883D01*
X141132107Y-92576607D01*
X141114383Y-92592671D01*
X141095170Y-92606921D01*
X141074653Y-92619218D01*
X141053029Y-92629446D01*
X141030507Y-92637504D01*
X141007303Y-92643316D01*
X140983642Y-92646826D01*
X140959750Y-92648000D01*
X140472250Y-92648000D01*
X140448358Y-92646826D01*
X140424697Y-92643316D01*
X140401493Y-92637504D01*
X140378971Y-92629446D01*
X140357347Y-92619218D01*
X140336830Y-92606921D01*
X140317617Y-92592671D01*
X140299893Y-92576607D01*
X140283829Y-92558883D01*
X140269579Y-92539670D01*
X140257282Y-92519153D01*
X140247054Y-92497529D01*
X140238996Y-92475007D01*
X140233184Y-92451803D01*
X140229674Y-92428142D01*
X140228500Y-92404250D01*
X140228500Y-91491750D01*
X140229674Y-91467858D01*
X140233184Y-91444197D01*
X140238996Y-91420993D01*
X140247054Y-91398471D01*
X140257282Y-91376847D01*
X140269579Y-91356330D01*
X140283829Y-91337117D01*
X140299893Y-91319393D01*
X140317617Y-91303329D01*
X140336830Y-91289079D01*
X140357347Y-91276782D01*
X140378971Y-91266554D01*
X140401493Y-91258496D01*
X140424697Y-91252684D01*
X140448358Y-91249174D01*
X140472250Y-91248000D01*
X140959750Y-91248000D01*
X140983642Y-91249174D01*
X140983642Y-91249174D01*
G37*
D11*
X140716000Y-91948000D03*
D10*
G36*
X139108642Y-91249174D02*
G01*
X139132303Y-91252684D01*
X139155507Y-91258496D01*
X139178029Y-91266554D01*
X139199653Y-91276782D01*
X139220170Y-91289079D01*
X139239383Y-91303329D01*
X139257107Y-91319393D01*
X139273171Y-91337117D01*
X139287421Y-91356330D01*
X139299718Y-91376847D01*
X139309946Y-91398471D01*
X139318004Y-91420993D01*
X139323816Y-91444197D01*
X139327326Y-91467858D01*
X139328500Y-91491750D01*
X139328500Y-92404250D01*
X139327326Y-92428142D01*
X139323816Y-92451803D01*
X139318004Y-92475007D01*
X139309946Y-92497529D01*
X139299718Y-92519153D01*
X139287421Y-92539670D01*
X139273171Y-92558883D01*
X139257107Y-92576607D01*
X139239383Y-92592671D01*
X139220170Y-92606921D01*
X139199653Y-92619218D01*
X139178029Y-92629446D01*
X139155507Y-92637504D01*
X139132303Y-92643316D01*
X139108642Y-92646826D01*
X139084750Y-92648000D01*
X138597250Y-92648000D01*
X138573358Y-92646826D01*
X138549697Y-92643316D01*
X138526493Y-92637504D01*
X138503971Y-92629446D01*
X138482347Y-92619218D01*
X138461830Y-92606921D01*
X138442617Y-92592671D01*
X138424893Y-92576607D01*
X138408829Y-92558883D01*
X138394579Y-92539670D01*
X138382282Y-92519153D01*
X138372054Y-92497529D01*
X138363996Y-92475007D01*
X138358184Y-92451803D01*
X138354674Y-92428142D01*
X138353500Y-92404250D01*
X138353500Y-91491750D01*
X138354674Y-91467858D01*
X138358184Y-91444197D01*
X138363996Y-91420993D01*
X138372054Y-91398471D01*
X138382282Y-91376847D01*
X138394579Y-91356330D01*
X138408829Y-91337117D01*
X138424893Y-91319393D01*
X138442617Y-91303329D01*
X138461830Y-91289079D01*
X138482347Y-91276782D01*
X138503971Y-91266554D01*
X138526493Y-91258496D01*
X138549697Y-91252684D01*
X138573358Y-91249174D01*
X138597250Y-91248000D01*
X139084750Y-91248000D01*
X139108642Y-91249174D01*
X139108642Y-91249174D01*
G37*
D11*
X138841000Y-91948000D03*
D10*
G36*
X164508642Y-63309174D02*
G01*
X164532303Y-63312684D01*
X164555507Y-63318496D01*
X164578029Y-63326554D01*
X164599653Y-63336782D01*
X164620170Y-63349079D01*
X164639383Y-63363329D01*
X164657107Y-63379393D01*
X164673171Y-63397117D01*
X164687421Y-63416330D01*
X164699718Y-63436847D01*
X164709946Y-63458471D01*
X164718004Y-63480993D01*
X164723816Y-63504197D01*
X164727326Y-63527858D01*
X164728500Y-63551750D01*
X164728500Y-64464250D01*
X164727326Y-64488142D01*
X164723816Y-64511803D01*
X164718004Y-64535007D01*
X164709946Y-64557529D01*
X164699718Y-64579153D01*
X164687421Y-64599670D01*
X164673171Y-64618883D01*
X164657107Y-64636607D01*
X164639383Y-64652671D01*
X164620170Y-64666921D01*
X164599653Y-64679218D01*
X164578029Y-64689446D01*
X164555507Y-64697504D01*
X164532303Y-64703316D01*
X164508642Y-64706826D01*
X164484750Y-64708000D01*
X163997250Y-64708000D01*
X163973358Y-64706826D01*
X163949697Y-64703316D01*
X163926493Y-64697504D01*
X163903971Y-64689446D01*
X163882347Y-64679218D01*
X163861830Y-64666921D01*
X163842617Y-64652671D01*
X163824893Y-64636607D01*
X163808829Y-64618883D01*
X163794579Y-64599670D01*
X163782282Y-64579153D01*
X163772054Y-64557529D01*
X163763996Y-64535007D01*
X163758184Y-64511803D01*
X163754674Y-64488142D01*
X163753500Y-64464250D01*
X163753500Y-63551750D01*
X163754674Y-63527858D01*
X163758184Y-63504197D01*
X163763996Y-63480993D01*
X163772054Y-63458471D01*
X163782282Y-63436847D01*
X163794579Y-63416330D01*
X163808829Y-63397117D01*
X163824893Y-63379393D01*
X163842617Y-63363329D01*
X163861830Y-63349079D01*
X163882347Y-63336782D01*
X163903971Y-63326554D01*
X163926493Y-63318496D01*
X163949697Y-63312684D01*
X163973358Y-63309174D01*
X163997250Y-63308000D01*
X164484750Y-63308000D01*
X164508642Y-63309174D01*
X164508642Y-63309174D01*
G37*
D11*
X164241000Y-64008000D03*
D10*
G36*
X166383642Y-63309174D02*
G01*
X166407303Y-63312684D01*
X166430507Y-63318496D01*
X166453029Y-63326554D01*
X166474653Y-63336782D01*
X166495170Y-63349079D01*
X166514383Y-63363329D01*
X166532107Y-63379393D01*
X166548171Y-63397117D01*
X166562421Y-63416330D01*
X166574718Y-63436847D01*
X166584946Y-63458471D01*
X166593004Y-63480993D01*
X166598816Y-63504197D01*
X166602326Y-63527858D01*
X166603500Y-63551750D01*
X166603500Y-64464250D01*
X166602326Y-64488142D01*
X166598816Y-64511803D01*
X166593004Y-64535007D01*
X166584946Y-64557529D01*
X166574718Y-64579153D01*
X166562421Y-64599670D01*
X166548171Y-64618883D01*
X166532107Y-64636607D01*
X166514383Y-64652671D01*
X166495170Y-64666921D01*
X166474653Y-64679218D01*
X166453029Y-64689446D01*
X166430507Y-64697504D01*
X166407303Y-64703316D01*
X166383642Y-64706826D01*
X166359750Y-64708000D01*
X165872250Y-64708000D01*
X165848358Y-64706826D01*
X165824697Y-64703316D01*
X165801493Y-64697504D01*
X165778971Y-64689446D01*
X165757347Y-64679218D01*
X165736830Y-64666921D01*
X165717617Y-64652671D01*
X165699893Y-64636607D01*
X165683829Y-64618883D01*
X165669579Y-64599670D01*
X165657282Y-64579153D01*
X165647054Y-64557529D01*
X165638996Y-64535007D01*
X165633184Y-64511803D01*
X165629674Y-64488142D01*
X165628500Y-64464250D01*
X165628500Y-63551750D01*
X165629674Y-63527858D01*
X165633184Y-63504197D01*
X165638996Y-63480993D01*
X165647054Y-63458471D01*
X165657282Y-63436847D01*
X165669579Y-63416330D01*
X165683829Y-63397117D01*
X165699893Y-63379393D01*
X165717617Y-63363329D01*
X165736830Y-63349079D01*
X165757347Y-63336782D01*
X165778971Y-63326554D01*
X165801493Y-63318496D01*
X165824697Y-63312684D01*
X165848358Y-63309174D01*
X165872250Y-63308000D01*
X166359750Y-63308000D01*
X166383642Y-63309174D01*
X166383642Y-63309174D01*
G37*
D11*
X166116000Y-64008000D03*
D10*
G36*
X166383642Y-91249174D02*
G01*
X166407303Y-91252684D01*
X166430507Y-91258496D01*
X166453029Y-91266554D01*
X166474653Y-91276782D01*
X166495170Y-91289079D01*
X166514383Y-91303329D01*
X166532107Y-91319393D01*
X166548171Y-91337117D01*
X166562421Y-91356330D01*
X166574718Y-91376847D01*
X166584946Y-91398471D01*
X166593004Y-91420993D01*
X166598816Y-91444197D01*
X166602326Y-91467858D01*
X166603500Y-91491750D01*
X166603500Y-92404250D01*
X166602326Y-92428142D01*
X166598816Y-92451803D01*
X166593004Y-92475007D01*
X166584946Y-92497529D01*
X166574718Y-92519153D01*
X166562421Y-92539670D01*
X166548171Y-92558883D01*
X166532107Y-92576607D01*
X166514383Y-92592671D01*
X166495170Y-92606921D01*
X166474653Y-92619218D01*
X166453029Y-92629446D01*
X166430507Y-92637504D01*
X166407303Y-92643316D01*
X166383642Y-92646826D01*
X166359750Y-92648000D01*
X165872250Y-92648000D01*
X165848358Y-92646826D01*
X165824697Y-92643316D01*
X165801493Y-92637504D01*
X165778971Y-92629446D01*
X165757347Y-92619218D01*
X165736830Y-92606921D01*
X165717617Y-92592671D01*
X165699893Y-92576607D01*
X165683829Y-92558883D01*
X165669579Y-92539670D01*
X165657282Y-92519153D01*
X165647054Y-92497529D01*
X165638996Y-92475007D01*
X165633184Y-92451803D01*
X165629674Y-92428142D01*
X165628500Y-92404250D01*
X165628500Y-91491750D01*
X165629674Y-91467858D01*
X165633184Y-91444197D01*
X165638996Y-91420993D01*
X165647054Y-91398471D01*
X165657282Y-91376847D01*
X165669579Y-91356330D01*
X165683829Y-91337117D01*
X165699893Y-91319393D01*
X165717617Y-91303329D01*
X165736830Y-91289079D01*
X165757347Y-91276782D01*
X165778971Y-91266554D01*
X165801493Y-91258496D01*
X165824697Y-91252684D01*
X165848358Y-91249174D01*
X165872250Y-91248000D01*
X166359750Y-91248000D01*
X166383642Y-91249174D01*
X166383642Y-91249174D01*
G37*
D11*
X166116000Y-91948000D03*
D10*
G36*
X164508642Y-91249174D02*
G01*
X164532303Y-91252684D01*
X164555507Y-91258496D01*
X164578029Y-91266554D01*
X164599653Y-91276782D01*
X164620170Y-91289079D01*
X164639383Y-91303329D01*
X164657107Y-91319393D01*
X164673171Y-91337117D01*
X164687421Y-91356330D01*
X164699718Y-91376847D01*
X164709946Y-91398471D01*
X164718004Y-91420993D01*
X164723816Y-91444197D01*
X164727326Y-91467858D01*
X164728500Y-91491750D01*
X164728500Y-92404250D01*
X164727326Y-92428142D01*
X164723816Y-92451803D01*
X164718004Y-92475007D01*
X164709946Y-92497529D01*
X164699718Y-92519153D01*
X164687421Y-92539670D01*
X164673171Y-92558883D01*
X164657107Y-92576607D01*
X164639383Y-92592671D01*
X164620170Y-92606921D01*
X164599653Y-92619218D01*
X164578029Y-92629446D01*
X164555507Y-92637504D01*
X164532303Y-92643316D01*
X164508642Y-92646826D01*
X164484750Y-92648000D01*
X163997250Y-92648000D01*
X163973358Y-92646826D01*
X163949697Y-92643316D01*
X163926493Y-92637504D01*
X163903971Y-92629446D01*
X163882347Y-92619218D01*
X163861830Y-92606921D01*
X163842617Y-92592671D01*
X163824893Y-92576607D01*
X163808829Y-92558883D01*
X163794579Y-92539670D01*
X163782282Y-92519153D01*
X163772054Y-92497529D01*
X163763996Y-92475007D01*
X163758184Y-92451803D01*
X163754674Y-92428142D01*
X163753500Y-92404250D01*
X163753500Y-91491750D01*
X163754674Y-91467858D01*
X163758184Y-91444197D01*
X163763996Y-91420993D01*
X163772054Y-91398471D01*
X163782282Y-91376847D01*
X163794579Y-91356330D01*
X163808829Y-91337117D01*
X163824893Y-91319393D01*
X163842617Y-91303329D01*
X163861830Y-91289079D01*
X163882347Y-91276782D01*
X163903971Y-91266554D01*
X163926493Y-91258496D01*
X163949697Y-91252684D01*
X163973358Y-91249174D01*
X163997250Y-91248000D01*
X164484750Y-91248000D01*
X164508642Y-91249174D01*
X164508642Y-91249174D01*
G37*
D11*
X164241000Y-91948000D03*
D10*
G36*
X191783642Y-63309174D02*
G01*
X191807303Y-63312684D01*
X191830507Y-63318496D01*
X191853029Y-63326554D01*
X191874653Y-63336782D01*
X191895170Y-63349079D01*
X191914383Y-63363329D01*
X191932107Y-63379393D01*
X191948171Y-63397117D01*
X191962421Y-63416330D01*
X191974718Y-63436847D01*
X191984946Y-63458471D01*
X191993004Y-63480993D01*
X191998816Y-63504197D01*
X192002326Y-63527858D01*
X192003500Y-63551750D01*
X192003500Y-64464250D01*
X192002326Y-64488142D01*
X191998816Y-64511803D01*
X191993004Y-64535007D01*
X191984946Y-64557529D01*
X191974718Y-64579153D01*
X191962421Y-64599670D01*
X191948171Y-64618883D01*
X191932107Y-64636607D01*
X191914383Y-64652671D01*
X191895170Y-64666921D01*
X191874653Y-64679218D01*
X191853029Y-64689446D01*
X191830507Y-64697504D01*
X191807303Y-64703316D01*
X191783642Y-64706826D01*
X191759750Y-64708000D01*
X191272250Y-64708000D01*
X191248358Y-64706826D01*
X191224697Y-64703316D01*
X191201493Y-64697504D01*
X191178971Y-64689446D01*
X191157347Y-64679218D01*
X191136830Y-64666921D01*
X191117617Y-64652671D01*
X191099893Y-64636607D01*
X191083829Y-64618883D01*
X191069579Y-64599670D01*
X191057282Y-64579153D01*
X191047054Y-64557529D01*
X191038996Y-64535007D01*
X191033184Y-64511803D01*
X191029674Y-64488142D01*
X191028500Y-64464250D01*
X191028500Y-63551750D01*
X191029674Y-63527858D01*
X191033184Y-63504197D01*
X191038996Y-63480993D01*
X191047054Y-63458471D01*
X191057282Y-63436847D01*
X191069579Y-63416330D01*
X191083829Y-63397117D01*
X191099893Y-63379393D01*
X191117617Y-63363329D01*
X191136830Y-63349079D01*
X191157347Y-63336782D01*
X191178971Y-63326554D01*
X191201493Y-63318496D01*
X191224697Y-63312684D01*
X191248358Y-63309174D01*
X191272250Y-63308000D01*
X191759750Y-63308000D01*
X191783642Y-63309174D01*
X191783642Y-63309174D01*
G37*
D11*
X191516000Y-64008000D03*
D10*
G36*
X189908642Y-63309174D02*
G01*
X189932303Y-63312684D01*
X189955507Y-63318496D01*
X189978029Y-63326554D01*
X189999653Y-63336782D01*
X190020170Y-63349079D01*
X190039383Y-63363329D01*
X190057107Y-63379393D01*
X190073171Y-63397117D01*
X190087421Y-63416330D01*
X190099718Y-63436847D01*
X190109946Y-63458471D01*
X190118004Y-63480993D01*
X190123816Y-63504197D01*
X190127326Y-63527858D01*
X190128500Y-63551750D01*
X190128500Y-64464250D01*
X190127326Y-64488142D01*
X190123816Y-64511803D01*
X190118004Y-64535007D01*
X190109946Y-64557529D01*
X190099718Y-64579153D01*
X190087421Y-64599670D01*
X190073171Y-64618883D01*
X190057107Y-64636607D01*
X190039383Y-64652671D01*
X190020170Y-64666921D01*
X189999653Y-64679218D01*
X189978029Y-64689446D01*
X189955507Y-64697504D01*
X189932303Y-64703316D01*
X189908642Y-64706826D01*
X189884750Y-64708000D01*
X189397250Y-64708000D01*
X189373358Y-64706826D01*
X189349697Y-64703316D01*
X189326493Y-64697504D01*
X189303971Y-64689446D01*
X189282347Y-64679218D01*
X189261830Y-64666921D01*
X189242617Y-64652671D01*
X189224893Y-64636607D01*
X189208829Y-64618883D01*
X189194579Y-64599670D01*
X189182282Y-64579153D01*
X189172054Y-64557529D01*
X189163996Y-64535007D01*
X189158184Y-64511803D01*
X189154674Y-64488142D01*
X189153500Y-64464250D01*
X189153500Y-63551750D01*
X189154674Y-63527858D01*
X189158184Y-63504197D01*
X189163996Y-63480993D01*
X189172054Y-63458471D01*
X189182282Y-63436847D01*
X189194579Y-63416330D01*
X189208829Y-63397117D01*
X189224893Y-63379393D01*
X189242617Y-63363329D01*
X189261830Y-63349079D01*
X189282347Y-63336782D01*
X189303971Y-63326554D01*
X189326493Y-63318496D01*
X189349697Y-63312684D01*
X189373358Y-63309174D01*
X189397250Y-63308000D01*
X189884750Y-63308000D01*
X189908642Y-63309174D01*
X189908642Y-63309174D01*
G37*
D11*
X189641000Y-64008000D03*
D10*
G36*
X189908642Y-91249174D02*
G01*
X189932303Y-91252684D01*
X189955507Y-91258496D01*
X189978029Y-91266554D01*
X189999653Y-91276782D01*
X190020170Y-91289079D01*
X190039383Y-91303329D01*
X190057107Y-91319393D01*
X190073171Y-91337117D01*
X190087421Y-91356330D01*
X190099718Y-91376847D01*
X190109946Y-91398471D01*
X190118004Y-91420993D01*
X190123816Y-91444197D01*
X190127326Y-91467858D01*
X190128500Y-91491750D01*
X190128500Y-92404250D01*
X190127326Y-92428142D01*
X190123816Y-92451803D01*
X190118004Y-92475007D01*
X190109946Y-92497529D01*
X190099718Y-92519153D01*
X190087421Y-92539670D01*
X190073171Y-92558883D01*
X190057107Y-92576607D01*
X190039383Y-92592671D01*
X190020170Y-92606921D01*
X189999653Y-92619218D01*
X189978029Y-92629446D01*
X189955507Y-92637504D01*
X189932303Y-92643316D01*
X189908642Y-92646826D01*
X189884750Y-92648000D01*
X189397250Y-92648000D01*
X189373358Y-92646826D01*
X189349697Y-92643316D01*
X189326493Y-92637504D01*
X189303971Y-92629446D01*
X189282347Y-92619218D01*
X189261830Y-92606921D01*
X189242617Y-92592671D01*
X189224893Y-92576607D01*
X189208829Y-92558883D01*
X189194579Y-92539670D01*
X189182282Y-92519153D01*
X189172054Y-92497529D01*
X189163996Y-92475007D01*
X189158184Y-92451803D01*
X189154674Y-92428142D01*
X189153500Y-92404250D01*
X189153500Y-91491750D01*
X189154674Y-91467858D01*
X189158184Y-91444197D01*
X189163996Y-91420993D01*
X189172054Y-91398471D01*
X189182282Y-91376847D01*
X189194579Y-91356330D01*
X189208829Y-91337117D01*
X189224893Y-91319393D01*
X189242617Y-91303329D01*
X189261830Y-91289079D01*
X189282347Y-91276782D01*
X189303971Y-91266554D01*
X189326493Y-91258496D01*
X189349697Y-91252684D01*
X189373358Y-91249174D01*
X189397250Y-91248000D01*
X189884750Y-91248000D01*
X189908642Y-91249174D01*
X189908642Y-91249174D01*
G37*
D11*
X189641000Y-91948000D03*
D10*
G36*
X191783642Y-91249174D02*
G01*
X191807303Y-91252684D01*
X191830507Y-91258496D01*
X191853029Y-91266554D01*
X191874653Y-91276782D01*
X191895170Y-91289079D01*
X191914383Y-91303329D01*
X191932107Y-91319393D01*
X191948171Y-91337117D01*
X191962421Y-91356330D01*
X191974718Y-91376847D01*
X191984946Y-91398471D01*
X191993004Y-91420993D01*
X191998816Y-91444197D01*
X192002326Y-91467858D01*
X192003500Y-91491750D01*
X192003500Y-92404250D01*
X192002326Y-92428142D01*
X191998816Y-92451803D01*
X191993004Y-92475007D01*
X191984946Y-92497529D01*
X191974718Y-92519153D01*
X191962421Y-92539670D01*
X191948171Y-92558883D01*
X191932107Y-92576607D01*
X191914383Y-92592671D01*
X191895170Y-92606921D01*
X191874653Y-92619218D01*
X191853029Y-92629446D01*
X191830507Y-92637504D01*
X191807303Y-92643316D01*
X191783642Y-92646826D01*
X191759750Y-92648000D01*
X191272250Y-92648000D01*
X191248358Y-92646826D01*
X191224697Y-92643316D01*
X191201493Y-92637504D01*
X191178971Y-92629446D01*
X191157347Y-92619218D01*
X191136830Y-92606921D01*
X191117617Y-92592671D01*
X191099893Y-92576607D01*
X191083829Y-92558883D01*
X191069579Y-92539670D01*
X191057282Y-92519153D01*
X191047054Y-92497529D01*
X191038996Y-92475007D01*
X191033184Y-92451803D01*
X191029674Y-92428142D01*
X191028500Y-92404250D01*
X191028500Y-91491750D01*
X191029674Y-91467858D01*
X191033184Y-91444197D01*
X191038996Y-91420993D01*
X191047054Y-91398471D01*
X191057282Y-91376847D01*
X191069579Y-91356330D01*
X191083829Y-91337117D01*
X191099893Y-91319393D01*
X191117617Y-91303329D01*
X191136830Y-91289079D01*
X191157347Y-91276782D01*
X191178971Y-91266554D01*
X191201493Y-91258496D01*
X191224697Y-91252684D01*
X191248358Y-91249174D01*
X191272250Y-91248000D01*
X191759750Y-91248000D01*
X191783642Y-91249174D01*
X191783642Y-91249174D01*
G37*
D11*
X191516000Y-91948000D03*
D10*
G36*
X217183642Y-63309174D02*
G01*
X217207303Y-63312684D01*
X217230507Y-63318496D01*
X217253029Y-63326554D01*
X217274653Y-63336782D01*
X217295170Y-63349079D01*
X217314383Y-63363329D01*
X217332107Y-63379393D01*
X217348171Y-63397117D01*
X217362421Y-63416330D01*
X217374718Y-63436847D01*
X217384946Y-63458471D01*
X217393004Y-63480993D01*
X217398816Y-63504197D01*
X217402326Y-63527858D01*
X217403500Y-63551750D01*
X217403500Y-64464250D01*
X217402326Y-64488142D01*
X217398816Y-64511803D01*
X217393004Y-64535007D01*
X217384946Y-64557529D01*
X217374718Y-64579153D01*
X217362421Y-64599670D01*
X217348171Y-64618883D01*
X217332107Y-64636607D01*
X217314383Y-64652671D01*
X217295170Y-64666921D01*
X217274653Y-64679218D01*
X217253029Y-64689446D01*
X217230507Y-64697504D01*
X217207303Y-64703316D01*
X217183642Y-64706826D01*
X217159750Y-64708000D01*
X216672250Y-64708000D01*
X216648358Y-64706826D01*
X216624697Y-64703316D01*
X216601493Y-64697504D01*
X216578971Y-64689446D01*
X216557347Y-64679218D01*
X216536830Y-64666921D01*
X216517617Y-64652671D01*
X216499893Y-64636607D01*
X216483829Y-64618883D01*
X216469579Y-64599670D01*
X216457282Y-64579153D01*
X216447054Y-64557529D01*
X216438996Y-64535007D01*
X216433184Y-64511803D01*
X216429674Y-64488142D01*
X216428500Y-64464250D01*
X216428500Y-63551750D01*
X216429674Y-63527858D01*
X216433184Y-63504197D01*
X216438996Y-63480993D01*
X216447054Y-63458471D01*
X216457282Y-63436847D01*
X216469579Y-63416330D01*
X216483829Y-63397117D01*
X216499893Y-63379393D01*
X216517617Y-63363329D01*
X216536830Y-63349079D01*
X216557347Y-63336782D01*
X216578971Y-63326554D01*
X216601493Y-63318496D01*
X216624697Y-63312684D01*
X216648358Y-63309174D01*
X216672250Y-63308000D01*
X217159750Y-63308000D01*
X217183642Y-63309174D01*
X217183642Y-63309174D01*
G37*
D11*
X216916000Y-64008000D03*
D10*
G36*
X215308642Y-63309174D02*
G01*
X215332303Y-63312684D01*
X215355507Y-63318496D01*
X215378029Y-63326554D01*
X215399653Y-63336782D01*
X215420170Y-63349079D01*
X215439383Y-63363329D01*
X215457107Y-63379393D01*
X215473171Y-63397117D01*
X215487421Y-63416330D01*
X215499718Y-63436847D01*
X215509946Y-63458471D01*
X215518004Y-63480993D01*
X215523816Y-63504197D01*
X215527326Y-63527858D01*
X215528500Y-63551750D01*
X215528500Y-64464250D01*
X215527326Y-64488142D01*
X215523816Y-64511803D01*
X215518004Y-64535007D01*
X215509946Y-64557529D01*
X215499718Y-64579153D01*
X215487421Y-64599670D01*
X215473171Y-64618883D01*
X215457107Y-64636607D01*
X215439383Y-64652671D01*
X215420170Y-64666921D01*
X215399653Y-64679218D01*
X215378029Y-64689446D01*
X215355507Y-64697504D01*
X215332303Y-64703316D01*
X215308642Y-64706826D01*
X215284750Y-64708000D01*
X214797250Y-64708000D01*
X214773358Y-64706826D01*
X214749697Y-64703316D01*
X214726493Y-64697504D01*
X214703971Y-64689446D01*
X214682347Y-64679218D01*
X214661830Y-64666921D01*
X214642617Y-64652671D01*
X214624893Y-64636607D01*
X214608829Y-64618883D01*
X214594579Y-64599670D01*
X214582282Y-64579153D01*
X214572054Y-64557529D01*
X214563996Y-64535007D01*
X214558184Y-64511803D01*
X214554674Y-64488142D01*
X214553500Y-64464250D01*
X214553500Y-63551750D01*
X214554674Y-63527858D01*
X214558184Y-63504197D01*
X214563996Y-63480993D01*
X214572054Y-63458471D01*
X214582282Y-63436847D01*
X214594579Y-63416330D01*
X214608829Y-63397117D01*
X214624893Y-63379393D01*
X214642617Y-63363329D01*
X214661830Y-63349079D01*
X214682347Y-63336782D01*
X214703971Y-63326554D01*
X214726493Y-63318496D01*
X214749697Y-63312684D01*
X214773358Y-63309174D01*
X214797250Y-63308000D01*
X215284750Y-63308000D01*
X215308642Y-63309174D01*
X215308642Y-63309174D01*
G37*
D11*
X215041000Y-64008000D03*
D10*
G36*
X215308642Y-91249174D02*
G01*
X215332303Y-91252684D01*
X215355507Y-91258496D01*
X215378029Y-91266554D01*
X215399653Y-91276782D01*
X215420170Y-91289079D01*
X215439383Y-91303329D01*
X215457107Y-91319393D01*
X215473171Y-91337117D01*
X215487421Y-91356330D01*
X215499718Y-91376847D01*
X215509946Y-91398471D01*
X215518004Y-91420993D01*
X215523816Y-91444197D01*
X215527326Y-91467858D01*
X215528500Y-91491750D01*
X215528500Y-92404250D01*
X215527326Y-92428142D01*
X215523816Y-92451803D01*
X215518004Y-92475007D01*
X215509946Y-92497529D01*
X215499718Y-92519153D01*
X215487421Y-92539670D01*
X215473171Y-92558883D01*
X215457107Y-92576607D01*
X215439383Y-92592671D01*
X215420170Y-92606921D01*
X215399653Y-92619218D01*
X215378029Y-92629446D01*
X215355507Y-92637504D01*
X215332303Y-92643316D01*
X215308642Y-92646826D01*
X215284750Y-92648000D01*
X214797250Y-92648000D01*
X214773358Y-92646826D01*
X214749697Y-92643316D01*
X214726493Y-92637504D01*
X214703971Y-92629446D01*
X214682347Y-92619218D01*
X214661830Y-92606921D01*
X214642617Y-92592671D01*
X214624893Y-92576607D01*
X214608829Y-92558883D01*
X214594579Y-92539670D01*
X214582282Y-92519153D01*
X214572054Y-92497529D01*
X214563996Y-92475007D01*
X214558184Y-92451803D01*
X214554674Y-92428142D01*
X214553500Y-92404250D01*
X214553500Y-91491750D01*
X214554674Y-91467858D01*
X214558184Y-91444197D01*
X214563996Y-91420993D01*
X214572054Y-91398471D01*
X214582282Y-91376847D01*
X214594579Y-91356330D01*
X214608829Y-91337117D01*
X214624893Y-91319393D01*
X214642617Y-91303329D01*
X214661830Y-91289079D01*
X214682347Y-91276782D01*
X214703971Y-91266554D01*
X214726493Y-91258496D01*
X214749697Y-91252684D01*
X214773358Y-91249174D01*
X214797250Y-91248000D01*
X215284750Y-91248000D01*
X215308642Y-91249174D01*
X215308642Y-91249174D01*
G37*
D11*
X215041000Y-91948000D03*
D10*
G36*
X217183642Y-91249174D02*
G01*
X217207303Y-91252684D01*
X217230507Y-91258496D01*
X217253029Y-91266554D01*
X217274653Y-91276782D01*
X217295170Y-91289079D01*
X217314383Y-91303329D01*
X217332107Y-91319393D01*
X217348171Y-91337117D01*
X217362421Y-91356330D01*
X217374718Y-91376847D01*
X217384946Y-91398471D01*
X217393004Y-91420993D01*
X217398816Y-91444197D01*
X217402326Y-91467858D01*
X217403500Y-91491750D01*
X217403500Y-92404250D01*
X217402326Y-92428142D01*
X217398816Y-92451803D01*
X217393004Y-92475007D01*
X217384946Y-92497529D01*
X217374718Y-92519153D01*
X217362421Y-92539670D01*
X217348171Y-92558883D01*
X217332107Y-92576607D01*
X217314383Y-92592671D01*
X217295170Y-92606921D01*
X217274653Y-92619218D01*
X217253029Y-92629446D01*
X217230507Y-92637504D01*
X217207303Y-92643316D01*
X217183642Y-92646826D01*
X217159750Y-92648000D01*
X216672250Y-92648000D01*
X216648358Y-92646826D01*
X216624697Y-92643316D01*
X216601493Y-92637504D01*
X216578971Y-92629446D01*
X216557347Y-92619218D01*
X216536830Y-92606921D01*
X216517617Y-92592671D01*
X216499893Y-92576607D01*
X216483829Y-92558883D01*
X216469579Y-92539670D01*
X216457282Y-92519153D01*
X216447054Y-92497529D01*
X216438996Y-92475007D01*
X216433184Y-92451803D01*
X216429674Y-92428142D01*
X216428500Y-92404250D01*
X216428500Y-91491750D01*
X216429674Y-91467858D01*
X216433184Y-91444197D01*
X216438996Y-91420993D01*
X216447054Y-91398471D01*
X216457282Y-91376847D01*
X216469579Y-91356330D01*
X216483829Y-91337117D01*
X216499893Y-91319393D01*
X216517617Y-91303329D01*
X216536830Y-91289079D01*
X216557347Y-91276782D01*
X216578971Y-91266554D01*
X216601493Y-91258496D01*
X216624697Y-91252684D01*
X216648358Y-91249174D01*
X216672250Y-91248000D01*
X217159750Y-91248000D01*
X217183642Y-91249174D01*
X217183642Y-91249174D01*
G37*
D11*
X216916000Y-91948000D03*
D10*
G36*
X242583642Y-63309174D02*
G01*
X242607303Y-63312684D01*
X242630507Y-63318496D01*
X242653029Y-63326554D01*
X242674653Y-63336782D01*
X242695170Y-63349079D01*
X242714383Y-63363329D01*
X242732107Y-63379393D01*
X242748171Y-63397117D01*
X242762421Y-63416330D01*
X242774718Y-63436847D01*
X242784946Y-63458471D01*
X242793004Y-63480993D01*
X242798816Y-63504197D01*
X242802326Y-63527858D01*
X242803500Y-63551750D01*
X242803500Y-64464250D01*
X242802326Y-64488142D01*
X242798816Y-64511803D01*
X242793004Y-64535007D01*
X242784946Y-64557529D01*
X242774718Y-64579153D01*
X242762421Y-64599670D01*
X242748171Y-64618883D01*
X242732107Y-64636607D01*
X242714383Y-64652671D01*
X242695170Y-64666921D01*
X242674653Y-64679218D01*
X242653029Y-64689446D01*
X242630507Y-64697504D01*
X242607303Y-64703316D01*
X242583642Y-64706826D01*
X242559750Y-64708000D01*
X242072250Y-64708000D01*
X242048358Y-64706826D01*
X242024697Y-64703316D01*
X242001493Y-64697504D01*
X241978971Y-64689446D01*
X241957347Y-64679218D01*
X241936830Y-64666921D01*
X241917617Y-64652671D01*
X241899893Y-64636607D01*
X241883829Y-64618883D01*
X241869579Y-64599670D01*
X241857282Y-64579153D01*
X241847054Y-64557529D01*
X241838996Y-64535007D01*
X241833184Y-64511803D01*
X241829674Y-64488142D01*
X241828500Y-64464250D01*
X241828500Y-63551750D01*
X241829674Y-63527858D01*
X241833184Y-63504197D01*
X241838996Y-63480993D01*
X241847054Y-63458471D01*
X241857282Y-63436847D01*
X241869579Y-63416330D01*
X241883829Y-63397117D01*
X241899893Y-63379393D01*
X241917617Y-63363329D01*
X241936830Y-63349079D01*
X241957347Y-63336782D01*
X241978971Y-63326554D01*
X242001493Y-63318496D01*
X242024697Y-63312684D01*
X242048358Y-63309174D01*
X242072250Y-63308000D01*
X242559750Y-63308000D01*
X242583642Y-63309174D01*
X242583642Y-63309174D01*
G37*
D11*
X242316000Y-64008000D03*
D10*
G36*
X240708642Y-63309174D02*
G01*
X240732303Y-63312684D01*
X240755507Y-63318496D01*
X240778029Y-63326554D01*
X240799653Y-63336782D01*
X240820170Y-63349079D01*
X240839383Y-63363329D01*
X240857107Y-63379393D01*
X240873171Y-63397117D01*
X240887421Y-63416330D01*
X240899718Y-63436847D01*
X240909946Y-63458471D01*
X240918004Y-63480993D01*
X240923816Y-63504197D01*
X240927326Y-63527858D01*
X240928500Y-63551750D01*
X240928500Y-64464250D01*
X240927326Y-64488142D01*
X240923816Y-64511803D01*
X240918004Y-64535007D01*
X240909946Y-64557529D01*
X240899718Y-64579153D01*
X240887421Y-64599670D01*
X240873171Y-64618883D01*
X240857107Y-64636607D01*
X240839383Y-64652671D01*
X240820170Y-64666921D01*
X240799653Y-64679218D01*
X240778029Y-64689446D01*
X240755507Y-64697504D01*
X240732303Y-64703316D01*
X240708642Y-64706826D01*
X240684750Y-64708000D01*
X240197250Y-64708000D01*
X240173358Y-64706826D01*
X240149697Y-64703316D01*
X240126493Y-64697504D01*
X240103971Y-64689446D01*
X240082347Y-64679218D01*
X240061830Y-64666921D01*
X240042617Y-64652671D01*
X240024893Y-64636607D01*
X240008829Y-64618883D01*
X239994579Y-64599670D01*
X239982282Y-64579153D01*
X239972054Y-64557529D01*
X239963996Y-64535007D01*
X239958184Y-64511803D01*
X239954674Y-64488142D01*
X239953500Y-64464250D01*
X239953500Y-63551750D01*
X239954674Y-63527858D01*
X239958184Y-63504197D01*
X239963996Y-63480993D01*
X239972054Y-63458471D01*
X239982282Y-63436847D01*
X239994579Y-63416330D01*
X240008829Y-63397117D01*
X240024893Y-63379393D01*
X240042617Y-63363329D01*
X240061830Y-63349079D01*
X240082347Y-63336782D01*
X240103971Y-63326554D01*
X240126493Y-63318496D01*
X240149697Y-63312684D01*
X240173358Y-63309174D01*
X240197250Y-63308000D01*
X240684750Y-63308000D01*
X240708642Y-63309174D01*
X240708642Y-63309174D01*
G37*
D11*
X240441000Y-64008000D03*
D10*
G36*
X240708642Y-91249174D02*
G01*
X240732303Y-91252684D01*
X240755507Y-91258496D01*
X240778029Y-91266554D01*
X240799653Y-91276782D01*
X240820170Y-91289079D01*
X240839383Y-91303329D01*
X240857107Y-91319393D01*
X240873171Y-91337117D01*
X240887421Y-91356330D01*
X240899718Y-91376847D01*
X240909946Y-91398471D01*
X240918004Y-91420993D01*
X240923816Y-91444197D01*
X240927326Y-91467858D01*
X240928500Y-91491750D01*
X240928500Y-92404250D01*
X240927326Y-92428142D01*
X240923816Y-92451803D01*
X240918004Y-92475007D01*
X240909946Y-92497529D01*
X240899718Y-92519153D01*
X240887421Y-92539670D01*
X240873171Y-92558883D01*
X240857107Y-92576607D01*
X240839383Y-92592671D01*
X240820170Y-92606921D01*
X240799653Y-92619218D01*
X240778029Y-92629446D01*
X240755507Y-92637504D01*
X240732303Y-92643316D01*
X240708642Y-92646826D01*
X240684750Y-92648000D01*
X240197250Y-92648000D01*
X240173358Y-92646826D01*
X240149697Y-92643316D01*
X240126493Y-92637504D01*
X240103971Y-92629446D01*
X240082347Y-92619218D01*
X240061830Y-92606921D01*
X240042617Y-92592671D01*
X240024893Y-92576607D01*
X240008829Y-92558883D01*
X239994579Y-92539670D01*
X239982282Y-92519153D01*
X239972054Y-92497529D01*
X239963996Y-92475007D01*
X239958184Y-92451803D01*
X239954674Y-92428142D01*
X239953500Y-92404250D01*
X239953500Y-91491750D01*
X239954674Y-91467858D01*
X239958184Y-91444197D01*
X239963996Y-91420993D01*
X239972054Y-91398471D01*
X239982282Y-91376847D01*
X239994579Y-91356330D01*
X240008829Y-91337117D01*
X240024893Y-91319393D01*
X240042617Y-91303329D01*
X240061830Y-91289079D01*
X240082347Y-91276782D01*
X240103971Y-91266554D01*
X240126493Y-91258496D01*
X240149697Y-91252684D01*
X240173358Y-91249174D01*
X240197250Y-91248000D01*
X240684750Y-91248000D01*
X240708642Y-91249174D01*
X240708642Y-91249174D01*
G37*
D11*
X240441000Y-91948000D03*
D10*
G36*
X242583642Y-91249174D02*
G01*
X242607303Y-91252684D01*
X242630507Y-91258496D01*
X242653029Y-91266554D01*
X242674653Y-91276782D01*
X242695170Y-91289079D01*
X242714383Y-91303329D01*
X242732107Y-91319393D01*
X242748171Y-91337117D01*
X242762421Y-91356330D01*
X242774718Y-91376847D01*
X242784946Y-91398471D01*
X242793004Y-91420993D01*
X242798816Y-91444197D01*
X242802326Y-91467858D01*
X242803500Y-91491750D01*
X242803500Y-92404250D01*
X242802326Y-92428142D01*
X242798816Y-92451803D01*
X242793004Y-92475007D01*
X242784946Y-92497529D01*
X242774718Y-92519153D01*
X242762421Y-92539670D01*
X242748171Y-92558883D01*
X242732107Y-92576607D01*
X242714383Y-92592671D01*
X242695170Y-92606921D01*
X242674653Y-92619218D01*
X242653029Y-92629446D01*
X242630507Y-92637504D01*
X242607303Y-92643316D01*
X242583642Y-92646826D01*
X242559750Y-92648000D01*
X242072250Y-92648000D01*
X242048358Y-92646826D01*
X242024697Y-92643316D01*
X242001493Y-92637504D01*
X241978971Y-92629446D01*
X241957347Y-92619218D01*
X241936830Y-92606921D01*
X241917617Y-92592671D01*
X241899893Y-92576607D01*
X241883829Y-92558883D01*
X241869579Y-92539670D01*
X241857282Y-92519153D01*
X241847054Y-92497529D01*
X241838996Y-92475007D01*
X241833184Y-92451803D01*
X241829674Y-92428142D01*
X241828500Y-92404250D01*
X241828500Y-91491750D01*
X241829674Y-91467858D01*
X241833184Y-91444197D01*
X241838996Y-91420993D01*
X241847054Y-91398471D01*
X241857282Y-91376847D01*
X241869579Y-91356330D01*
X241883829Y-91337117D01*
X241899893Y-91319393D01*
X241917617Y-91303329D01*
X241936830Y-91289079D01*
X241957347Y-91276782D01*
X241978971Y-91266554D01*
X242001493Y-91258496D01*
X242024697Y-91252684D01*
X242048358Y-91249174D01*
X242072250Y-91248000D01*
X242559750Y-91248000D01*
X242583642Y-91249174D01*
X242583642Y-91249174D01*
G37*
D11*
X242316000Y-91948000D03*
D10*
G36*
X60465642Y-181165174D02*
G01*
X60489303Y-181168684D01*
X60512507Y-181174496D01*
X60535029Y-181182554D01*
X60556653Y-181192782D01*
X60577170Y-181205079D01*
X60596383Y-181219329D01*
X60614107Y-181235393D01*
X60630171Y-181253117D01*
X60644421Y-181272330D01*
X60656718Y-181292847D01*
X60666946Y-181314471D01*
X60675004Y-181336993D01*
X60680816Y-181360197D01*
X60684326Y-181383858D01*
X60685500Y-181407750D01*
X60685500Y-182320250D01*
X60684326Y-182344142D01*
X60680816Y-182367803D01*
X60675004Y-182391007D01*
X60666946Y-182413529D01*
X60656718Y-182435153D01*
X60644421Y-182455670D01*
X60630171Y-182474883D01*
X60614107Y-182492607D01*
X60596383Y-182508671D01*
X60577170Y-182522921D01*
X60556653Y-182535218D01*
X60535029Y-182545446D01*
X60512507Y-182553504D01*
X60489303Y-182559316D01*
X60465642Y-182562826D01*
X60441750Y-182564000D01*
X59954250Y-182564000D01*
X59930358Y-182562826D01*
X59906697Y-182559316D01*
X59883493Y-182553504D01*
X59860971Y-182545446D01*
X59839347Y-182535218D01*
X59818830Y-182522921D01*
X59799617Y-182508671D01*
X59781893Y-182492607D01*
X59765829Y-182474883D01*
X59751579Y-182455670D01*
X59739282Y-182435153D01*
X59729054Y-182413529D01*
X59720996Y-182391007D01*
X59715184Y-182367803D01*
X59711674Y-182344142D01*
X59710500Y-182320250D01*
X59710500Y-181407750D01*
X59711674Y-181383858D01*
X59715184Y-181360197D01*
X59720996Y-181336993D01*
X59729054Y-181314471D01*
X59739282Y-181292847D01*
X59751579Y-181272330D01*
X59765829Y-181253117D01*
X59781893Y-181235393D01*
X59799617Y-181219329D01*
X59818830Y-181205079D01*
X59839347Y-181192782D01*
X59860971Y-181182554D01*
X59883493Y-181174496D01*
X59906697Y-181168684D01*
X59930358Y-181165174D01*
X59954250Y-181164000D01*
X60441750Y-181164000D01*
X60465642Y-181165174D01*
X60465642Y-181165174D01*
G37*
D11*
X60198000Y-181864000D03*
D10*
G36*
X62340642Y-181165174D02*
G01*
X62364303Y-181168684D01*
X62387507Y-181174496D01*
X62410029Y-181182554D01*
X62431653Y-181192782D01*
X62452170Y-181205079D01*
X62471383Y-181219329D01*
X62489107Y-181235393D01*
X62505171Y-181253117D01*
X62519421Y-181272330D01*
X62531718Y-181292847D01*
X62541946Y-181314471D01*
X62550004Y-181336993D01*
X62555816Y-181360197D01*
X62559326Y-181383858D01*
X62560500Y-181407750D01*
X62560500Y-182320250D01*
X62559326Y-182344142D01*
X62555816Y-182367803D01*
X62550004Y-182391007D01*
X62541946Y-182413529D01*
X62531718Y-182435153D01*
X62519421Y-182455670D01*
X62505171Y-182474883D01*
X62489107Y-182492607D01*
X62471383Y-182508671D01*
X62452170Y-182522921D01*
X62431653Y-182535218D01*
X62410029Y-182545446D01*
X62387507Y-182553504D01*
X62364303Y-182559316D01*
X62340642Y-182562826D01*
X62316750Y-182564000D01*
X61829250Y-182564000D01*
X61805358Y-182562826D01*
X61781697Y-182559316D01*
X61758493Y-182553504D01*
X61735971Y-182545446D01*
X61714347Y-182535218D01*
X61693830Y-182522921D01*
X61674617Y-182508671D01*
X61656893Y-182492607D01*
X61640829Y-182474883D01*
X61626579Y-182455670D01*
X61614282Y-182435153D01*
X61604054Y-182413529D01*
X61595996Y-182391007D01*
X61590184Y-182367803D01*
X61586674Y-182344142D01*
X61585500Y-182320250D01*
X61585500Y-181407750D01*
X61586674Y-181383858D01*
X61590184Y-181360197D01*
X61595996Y-181336993D01*
X61604054Y-181314471D01*
X61614282Y-181292847D01*
X61626579Y-181272330D01*
X61640829Y-181253117D01*
X61656893Y-181235393D01*
X61674617Y-181219329D01*
X61693830Y-181205079D01*
X61714347Y-181192782D01*
X61735971Y-181182554D01*
X61758493Y-181174496D01*
X61781697Y-181168684D01*
X61805358Y-181165174D01*
X61829250Y-181164000D01*
X62316750Y-181164000D01*
X62340642Y-181165174D01*
X62340642Y-181165174D01*
G37*
D11*
X62073000Y-181864000D03*
D10*
G36*
X66610142Y-181165174D02*
G01*
X66633803Y-181168684D01*
X66657007Y-181174496D01*
X66679529Y-181182554D01*
X66701153Y-181192782D01*
X66721670Y-181205079D01*
X66740883Y-181219329D01*
X66758607Y-181235393D01*
X66774671Y-181253117D01*
X66788921Y-181272330D01*
X66801218Y-181292847D01*
X66811446Y-181314471D01*
X66819504Y-181336993D01*
X66825316Y-181360197D01*
X66828826Y-181383858D01*
X66830000Y-181407750D01*
X66830000Y-182320250D01*
X66828826Y-182344142D01*
X66825316Y-182367803D01*
X66819504Y-182391007D01*
X66811446Y-182413529D01*
X66801218Y-182435153D01*
X66788921Y-182455670D01*
X66774671Y-182474883D01*
X66758607Y-182492607D01*
X66740883Y-182508671D01*
X66721670Y-182522921D01*
X66701153Y-182535218D01*
X66679529Y-182545446D01*
X66657007Y-182553504D01*
X66633803Y-182559316D01*
X66610142Y-182562826D01*
X66586250Y-182564000D01*
X66098750Y-182564000D01*
X66074858Y-182562826D01*
X66051197Y-182559316D01*
X66027993Y-182553504D01*
X66005471Y-182545446D01*
X65983847Y-182535218D01*
X65963330Y-182522921D01*
X65944117Y-182508671D01*
X65926393Y-182492607D01*
X65910329Y-182474883D01*
X65896079Y-182455670D01*
X65883782Y-182435153D01*
X65873554Y-182413529D01*
X65865496Y-182391007D01*
X65859684Y-182367803D01*
X65856174Y-182344142D01*
X65855000Y-182320250D01*
X65855000Y-181407750D01*
X65856174Y-181383858D01*
X65859684Y-181360197D01*
X65865496Y-181336993D01*
X65873554Y-181314471D01*
X65883782Y-181292847D01*
X65896079Y-181272330D01*
X65910329Y-181253117D01*
X65926393Y-181235393D01*
X65944117Y-181219329D01*
X65963330Y-181205079D01*
X65983847Y-181192782D01*
X66005471Y-181182554D01*
X66027993Y-181174496D01*
X66051197Y-181168684D01*
X66074858Y-181165174D01*
X66098750Y-181164000D01*
X66586250Y-181164000D01*
X66610142Y-181165174D01*
X66610142Y-181165174D01*
G37*
D11*
X66342500Y-181864000D03*
D10*
G36*
X64735142Y-181165174D02*
G01*
X64758803Y-181168684D01*
X64782007Y-181174496D01*
X64804529Y-181182554D01*
X64826153Y-181192782D01*
X64846670Y-181205079D01*
X64865883Y-181219329D01*
X64883607Y-181235393D01*
X64899671Y-181253117D01*
X64913921Y-181272330D01*
X64926218Y-181292847D01*
X64936446Y-181314471D01*
X64944504Y-181336993D01*
X64950316Y-181360197D01*
X64953826Y-181383858D01*
X64955000Y-181407750D01*
X64955000Y-182320250D01*
X64953826Y-182344142D01*
X64950316Y-182367803D01*
X64944504Y-182391007D01*
X64936446Y-182413529D01*
X64926218Y-182435153D01*
X64913921Y-182455670D01*
X64899671Y-182474883D01*
X64883607Y-182492607D01*
X64865883Y-182508671D01*
X64846670Y-182522921D01*
X64826153Y-182535218D01*
X64804529Y-182545446D01*
X64782007Y-182553504D01*
X64758803Y-182559316D01*
X64735142Y-182562826D01*
X64711250Y-182564000D01*
X64223750Y-182564000D01*
X64199858Y-182562826D01*
X64176197Y-182559316D01*
X64152993Y-182553504D01*
X64130471Y-182545446D01*
X64108847Y-182535218D01*
X64088330Y-182522921D01*
X64069117Y-182508671D01*
X64051393Y-182492607D01*
X64035329Y-182474883D01*
X64021079Y-182455670D01*
X64008782Y-182435153D01*
X63998554Y-182413529D01*
X63990496Y-182391007D01*
X63984684Y-182367803D01*
X63981174Y-182344142D01*
X63980000Y-182320250D01*
X63980000Y-181407750D01*
X63981174Y-181383858D01*
X63984684Y-181360197D01*
X63990496Y-181336993D01*
X63998554Y-181314471D01*
X64008782Y-181292847D01*
X64021079Y-181272330D01*
X64035329Y-181253117D01*
X64051393Y-181235393D01*
X64069117Y-181219329D01*
X64088330Y-181205079D01*
X64108847Y-181192782D01*
X64130471Y-181182554D01*
X64152993Y-181174496D01*
X64176197Y-181168684D01*
X64199858Y-181165174D01*
X64223750Y-181164000D01*
X64711250Y-181164000D01*
X64735142Y-181165174D01*
X64735142Y-181165174D01*
G37*
D11*
X64467500Y-181864000D03*
D10*
G36*
X85817142Y-181165174D02*
G01*
X85840803Y-181168684D01*
X85864007Y-181174496D01*
X85886529Y-181182554D01*
X85908153Y-181192782D01*
X85928670Y-181205079D01*
X85947883Y-181219329D01*
X85965607Y-181235393D01*
X85981671Y-181253117D01*
X85995921Y-181272330D01*
X86008218Y-181292847D01*
X86018446Y-181314471D01*
X86026504Y-181336993D01*
X86032316Y-181360197D01*
X86035826Y-181383858D01*
X86037000Y-181407750D01*
X86037000Y-182320250D01*
X86035826Y-182344142D01*
X86032316Y-182367803D01*
X86026504Y-182391007D01*
X86018446Y-182413529D01*
X86008218Y-182435153D01*
X85995921Y-182455670D01*
X85981671Y-182474883D01*
X85965607Y-182492607D01*
X85947883Y-182508671D01*
X85928670Y-182522921D01*
X85908153Y-182535218D01*
X85886529Y-182545446D01*
X85864007Y-182553504D01*
X85840803Y-182559316D01*
X85817142Y-182562826D01*
X85793250Y-182564000D01*
X85305750Y-182564000D01*
X85281858Y-182562826D01*
X85258197Y-182559316D01*
X85234993Y-182553504D01*
X85212471Y-182545446D01*
X85190847Y-182535218D01*
X85170330Y-182522921D01*
X85151117Y-182508671D01*
X85133393Y-182492607D01*
X85117329Y-182474883D01*
X85103079Y-182455670D01*
X85090782Y-182435153D01*
X85080554Y-182413529D01*
X85072496Y-182391007D01*
X85066684Y-182367803D01*
X85063174Y-182344142D01*
X85062000Y-182320250D01*
X85062000Y-181407750D01*
X85063174Y-181383858D01*
X85066684Y-181360197D01*
X85072496Y-181336993D01*
X85080554Y-181314471D01*
X85090782Y-181292847D01*
X85103079Y-181272330D01*
X85117329Y-181253117D01*
X85133393Y-181235393D01*
X85151117Y-181219329D01*
X85170330Y-181205079D01*
X85190847Y-181192782D01*
X85212471Y-181182554D01*
X85234993Y-181174496D01*
X85258197Y-181168684D01*
X85281858Y-181165174D01*
X85305750Y-181164000D01*
X85793250Y-181164000D01*
X85817142Y-181165174D01*
X85817142Y-181165174D01*
G37*
D11*
X85549500Y-181864000D03*
D10*
G36*
X87692142Y-181165174D02*
G01*
X87715803Y-181168684D01*
X87739007Y-181174496D01*
X87761529Y-181182554D01*
X87783153Y-181192782D01*
X87803670Y-181205079D01*
X87822883Y-181219329D01*
X87840607Y-181235393D01*
X87856671Y-181253117D01*
X87870921Y-181272330D01*
X87883218Y-181292847D01*
X87893446Y-181314471D01*
X87901504Y-181336993D01*
X87907316Y-181360197D01*
X87910826Y-181383858D01*
X87912000Y-181407750D01*
X87912000Y-182320250D01*
X87910826Y-182344142D01*
X87907316Y-182367803D01*
X87901504Y-182391007D01*
X87893446Y-182413529D01*
X87883218Y-182435153D01*
X87870921Y-182455670D01*
X87856671Y-182474883D01*
X87840607Y-182492607D01*
X87822883Y-182508671D01*
X87803670Y-182522921D01*
X87783153Y-182535218D01*
X87761529Y-182545446D01*
X87739007Y-182553504D01*
X87715803Y-182559316D01*
X87692142Y-182562826D01*
X87668250Y-182564000D01*
X87180750Y-182564000D01*
X87156858Y-182562826D01*
X87133197Y-182559316D01*
X87109993Y-182553504D01*
X87087471Y-182545446D01*
X87065847Y-182535218D01*
X87045330Y-182522921D01*
X87026117Y-182508671D01*
X87008393Y-182492607D01*
X86992329Y-182474883D01*
X86978079Y-182455670D01*
X86965782Y-182435153D01*
X86955554Y-182413529D01*
X86947496Y-182391007D01*
X86941684Y-182367803D01*
X86938174Y-182344142D01*
X86937000Y-182320250D01*
X86937000Y-181407750D01*
X86938174Y-181383858D01*
X86941684Y-181360197D01*
X86947496Y-181336993D01*
X86955554Y-181314471D01*
X86965782Y-181292847D01*
X86978079Y-181272330D01*
X86992329Y-181253117D01*
X87008393Y-181235393D01*
X87026117Y-181219329D01*
X87045330Y-181205079D01*
X87065847Y-181192782D01*
X87087471Y-181182554D01*
X87109993Y-181174496D01*
X87133197Y-181168684D01*
X87156858Y-181165174D01*
X87180750Y-181164000D01*
X87668250Y-181164000D01*
X87692142Y-181165174D01*
X87692142Y-181165174D01*
G37*
D11*
X87424500Y-181864000D03*
D10*
G36*
X92010142Y-181165174D02*
G01*
X92033803Y-181168684D01*
X92057007Y-181174496D01*
X92079529Y-181182554D01*
X92101153Y-181192782D01*
X92121670Y-181205079D01*
X92140883Y-181219329D01*
X92158607Y-181235393D01*
X92174671Y-181253117D01*
X92188921Y-181272330D01*
X92201218Y-181292847D01*
X92211446Y-181314471D01*
X92219504Y-181336993D01*
X92225316Y-181360197D01*
X92228826Y-181383858D01*
X92230000Y-181407750D01*
X92230000Y-182320250D01*
X92228826Y-182344142D01*
X92225316Y-182367803D01*
X92219504Y-182391007D01*
X92211446Y-182413529D01*
X92201218Y-182435153D01*
X92188921Y-182455670D01*
X92174671Y-182474883D01*
X92158607Y-182492607D01*
X92140883Y-182508671D01*
X92121670Y-182522921D01*
X92101153Y-182535218D01*
X92079529Y-182545446D01*
X92057007Y-182553504D01*
X92033803Y-182559316D01*
X92010142Y-182562826D01*
X91986250Y-182564000D01*
X91498750Y-182564000D01*
X91474858Y-182562826D01*
X91451197Y-182559316D01*
X91427993Y-182553504D01*
X91405471Y-182545446D01*
X91383847Y-182535218D01*
X91363330Y-182522921D01*
X91344117Y-182508671D01*
X91326393Y-182492607D01*
X91310329Y-182474883D01*
X91296079Y-182455670D01*
X91283782Y-182435153D01*
X91273554Y-182413529D01*
X91265496Y-182391007D01*
X91259684Y-182367803D01*
X91256174Y-182344142D01*
X91255000Y-182320250D01*
X91255000Y-181407750D01*
X91256174Y-181383858D01*
X91259684Y-181360197D01*
X91265496Y-181336993D01*
X91273554Y-181314471D01*
X91283782Y-181292847D01*
X91296079Y-181272330D01*
X91310329Y-181253117D01*
X91326393Y-181235393D01*
X91344117Y-181219329D01*
X91363330Y-181205079D01*
X91383847Y-181192782D01*
X91405471Y-181182554D01*
X91427993Y-181174496D01*
X91451197Y-181168684D01*
X91474858Y-181165174D01*
X91498750Y-181164000D01*
X91986250Y-181164000D01*
X92010142Y-181165174D01*
X92010142Y-181165174D01*
G37*
D11*
X91742500Y-181864000D03*
D10*
G36*
X90135142Y-181165174D02*
G01*
X90158803Y-181168684D01*
X90182007Y-181174496D01*
X90204529Y-181182554D01*
X90226153Y-181192782D01*
X90246670Y-181205079D01*
X90265883Y-181219329D01*
X90283607Y-181235393D01*
X90299671Y-181253117D01*
X90313921Y-181272330D01*
X90326218Y-181292847D01*
X90336446Y-181314471D01*
X90344504Y-181336993D01*
X90350316Y-181360197D01*
X90353826Y-181383858D01*
X90355000Y-181407750D01*
X90355000Y-182320250D01*
X90353826Y-182344142D01*
X90350316Y-182367803D01*
X90344504Y-182391007D01*
X90336446Y-182413529D01*
X90326218Y-182435153D01*
X90313921Y-182455670D01*
X90299671Y-182474883D01*
X90283607Y-182492607D01*
X90265883Y-182508671D01*
X90246670Y-182522921D01*
X90226153Y-182535218D01*
X90204529Y-182545446D01*
X90182007Y-182553504D01*
X90158803Y-182559316D01*
X90135142Y-182562826D01*
X90111250Y-182564000D01*
X89623750Y-182564000D01*
X89599858Y-182562826D01*
X89576197Y-182559316D01*
X89552993Y-182553504D01*
X89530471Y-182545446D01*
X89508847Y-182535218D01*
X89488330Y-182522921D01*
X89469117Y-182508671D01*
X89451393Y-182492607D01*
X89435329Y-182474883D01*
X89421079Y-182455670D01*
X89408782Y-182435153D01*
X89398554Y-182413529D01*
X89390496Y-182391007D01*
X89384684Y-182367803D01*
X89381174Y-182344142D01*
X89380000Y-182320250D01*
X89380000Y-181407750D01*
X89381174Y-181383858D01*
X89384684Y-181360197D01*
X89390496Y-181336993D01*
X89398554Y-181314471D01*
X89408782Y-181292847D01*
X89421079Y-181272330D01*
X89435329Y-181253117D01*
X89451393Y-181235393D01*
X89469117Y-181219329D01*
X89488330Y-181205079D01*
X89508847Y-181192782D01*
X89530471Y-181182554D01*
X89552993Y-181174496D01*
X89576197Y-181168684D01*
X89599858Y-181165174D01*
X89623750Y-181164000D01*
X90111250Y-181164000D01*
X90135142Y-181165174D01*
X90135142Y-181165174D01*
G37*
D11*
X89867500Y-181864000D03*
D10*
G36*
X111471142Y-181165174D02*
G01*
X111494803Y-181168684D01*
X111518007Y-181174496D01*
X111540529Y-181182554D01*
X111562153Y-181192782D01*
X111582670Y-181205079D01*
X111601883Y-181219329D01*
X111619607Y-181235393D01*
X111635671Y-181253117D01*
X111649921Y-181272330D01*
X111662218Y-181292847D01*
X111672446Y-181314471D01*
X111680504Y-181336993D01*
X111686316Y-181360197D01*
X111689826Y-181383858D01*
X111691000Y-181407750D01*
X111691000Y-182320250D01*
X111689826Y-182344142D01*
X111686316Y-182367803D01*
X111680504Y-182391007D01*
X111672446Y-182413529D01*
X111662218Y-182435153D01*
X111649921Y-182455670D01*
X111635671Y-182474883D01*
X111619607Y-182492607D01*
X111601883Y-182508671D01*
X111582670Y-182522921D01*
X111562153Y-182535218D01*
X111540529Y-182545446D01*
X111518007Y-182553504D01*
X111494803Y-182559316D01*
X111471142Y-182562826D01*
X111447250Y-182564000D01*
X110959750Y-182564000D01*
X110935858Y-182562826D01*
X110912197Y-182559316D01*
X110888993Y-182553504D01*
X110866471Y-182545446D01*
X110844847Y-182535218D01*
X110824330Y-182522921D01*
X110805117Y-182508671D01*
X110787393Y-182492607D01*
X110771329Y-182474883D01*
X110757079Y-182455670D01*
X110744782Y-182435153D01*
X110734554Y-182413529D01*
X110726496Y-182391007D01*
X110720684Y-182367803D01*
X110717174Y-182344142D01*
X110716000Y-182320250D01*
X110716000Y-181407750D01*
X110717174Y-181383858D01*
X110720684Y-181360197D01*
X110726496Y-181336993D01*
X110734554Y-181314471D01*
X110744782Y-181292847D01*
X110757079Y-181272330D01*
X110771329Y-181253117D01*
X110787393Y-181235393D01*
X110805117Y-181219329D01*
X110824330Y-181205079D01*
X110844847Y-181192782D01*
X110866471Y-181182554D01*
X110888993Y-181174496D01*
X110912197Y-181168684D01*
X110935858Y-181165174D01*
X110959750Y-181164000D01*
X111447250Y-181164000D01*
X111471142Y-181165174D01*
X111471142Y-181165174D01*
G37*
D11*
X111203500Y-181864000D03*
D10*
G36*
X113346142Y-181165174D02*
G01*
X113369803Y-181168684D01*
X113393007Y-181174496D01*
X113415529Y-181182554D01*
X113437153Y-181192782D01*
X113457670Y-181205079D01*
X113476883Y-181219329D01*
X113494607Y-181235393D01*
X113510671Y-181253117D01*
X113524921Y-181272330D01*
X113537218Y-181292847D01*
X113547446Y-181314471D01*
X113555504Y-181336993D01*
X113561316Y-181360197D01*
X113564826Y-181383858D01*
X113566000Y-181407750D01*
X113566000Y-182320250D01*
X113564826Y-182344142D01*
X113561316Y-182367803D01*
X113555504Y-182391007D01*
X113547446Y-182413529D01*
X113537218Y-182435153D01*
X113524921Y-182455670D01*
X113510671Y-182474883D01*
X113494607Y-182492607D01*
X113476883Y-182508671D01*
X113457670Y-182522921D01*
X113437153Y-182535218D01*
X113415529Y-182545446D01*
X113393007Y-182553504D01*
X113369803Y-182559316D01*
X113346142Y-182562826D01*
X113322250Y-182564000D01*
X112834750Y-182564000D01*
X112810858Y-182562826D01*
X112787197Y-182559316D01*
X112763993Y-182553504D01*
X112741471Y-182545446D01*
X112719847Y-182535218D01*
X112699330Y-182522921D01*
X112680117Y-182508671D01*
X112662393Y-182492607D01*
X112646329Y-182474883D01*
X112632079Y-182455670D01*
X112619782Y-182435153D01*
X112609554Y-182413529D01*
X112601496Y-182391007D01*
X112595684Y-182367803D01*
X112592174Y-182344142D01*
X112591000Y-182320250D01*
X112591000Y-181407750D01*
X112592174Y-181383858D01*
X112595684Y-181360197D01*
X112601496Y-181336993D01*
X112609554Y-181314471D01*
X112619782Y-181292847D01*
X112632079Y-181272330D01*
X112646329Y-181253117D01*
X112662393Y-181235393D01*
X112680117Y-181219329D01*
X112699330Y-181205079D01*
X112719847Y-181192782D01*
X112741471Y-181182554D01*
X112763993Y-181174496D01*
X112787197Y-181168684D01*
X112810858Y-181165174D01*
X112834750Y-181164000D01*
X113322250Y-181164000D01*
X113346142Y-181165174D01*
X113346142Y-181165174D01*
G37*
D11*
X113078500Y-181864000D03*
D10*
G36*
X117664142Y-181165174D02*
G01*
X117687803Y-181168684D01*
X117711007Y-181174496D01*
X117733529Y-181182554D01*
X117755153Y-181192782D01*
X117775670Y-181205079D01*
X117794883Y-181219329D01*
X117812607Y-181235393D01*
X117828671Y-181253117D01*
X117842921Y-181272330D01*
X117855218Y-181292847D01*
X117865446Y-181314471D01*
X117873504Y-181336993D01*
X117879316Y-181360197D01*
X117882826Y-181383858D01*
X117884000Y-181407750D01*
X117884000Y-182320250D01*
X117882826Y-182344142D01*
X117879316Y-182367803D01*
X117873504Y-182391007D01*
X117865446Y-182413529D01*
X117855218Y-182435153D01*
X117842921Y-182455670D01*
X117828671Y-182474883D01*
X117812607Y-182492607D01*
X117794883Y-182508671D01*
X117775670Y-182522921D01*
X117755153Y-182535218D01*
X117733529Y-182545446D01*
X117711007Y-182553504D01*
X117687803Y-182559316D01*
X117664142Y-182562826D01*
X117640250Y-182564000D01*
X117152750Y-182564000D01*
X117128858Y-182562826D01*
X117105197Y-182559316D01*
X117081993Y-182553504D01*
X117059471Y-182545446D01*
X117037847Y-182535218D01*
X117017330Y-182522921D01*
X116998117Y-182508671D01*
X116980393Y-182492607D01*
X116964329Y-182474883D01*
X116950079Y-182455670D01*
X116937782Y-182435153D01*
X116927554Y-182413529D01*
X116919496Y-182391007D01*
X116913684Y-182367803D01*
X116910174Y-182344142D01*
X116909000Y-182320250D01*
X116909000Y-181407750D01*
X116910174Y-181383858D01*
X116913684Y-181360197D01*
X116919496Y-181336993D01*
X116927554Y-181314471D01*
X116937782Y-181292847D01*
X116950079Y-181272330D01*
X116964329Y-181253117D01*
X116980393Y-181235393D01*
X116998117Y-181219329D01*
X117017330Y-181205079D01*
X117037847Y-181192782D01*
X117059471Y-181182554D01*
X117081993Y-181174496D01*
X117105197Y-181168684D01*
X117128858Y-181165174D01*
X117152750Y-181164000D01*
X117640250Y-181164000D01*
X117664142Y-181165174D01*
X117664142Y-181165174D01*
G37*
D11*
X117396500Y-181864000D03*
D10*
G36*
X115789142Y-181165174D02*
G01*
X115812803Y-181168684D01*
X115836007Y-181174496D01*
X115858529Y-181182554D01*
X115880153Y-181192782D01*
X115900670Y-181205079D01*
X115919883Y-181219329D01*
X115937607Y-181235393D01*
X115953671Y-181253117D01*
X115967921Y-181272330D01*
X115980218Y-181292847D01*
X115990446Y-181314471D01*
X115998504Y-181336993D01*
X116004316Y-181360197D01*
X116007826Y-181383858D01*
X116009000Y-181407750D01*
X116009000Y-182320250D01*
X116007826Y-182344142D01*
X116004316Y-182367803D01*
X115998504Y-182391007D01*
X115990446Y-182413529D01*
X115980218Y-182435153D01*
X115967921Y-182455670D01*
X115953671Y-182474883D01*
X115937607Y-182492607D01*
X115919883Y-182508671D01*
X115900670Y-182522921D01*
X115880153Y-182535218D01*
X115858529Y-182545446D01*
X115836007Y-182553504D01*
X115812803Y-182559316D01*
X115789142Y-182562826D01*
X115765250Y-182564000D01*
X115277750Y-182564000D01*
X115253858Y-182562826D01*
X115230197Y-182559316D01*
X115206993Y-182553504D01*
X115184471Y-182545446D01*
X115162847Y-182535218D01*
X115142330Y-182522921D01*
X115123117Y-182508671D01*
X115105393Y-182492607D01*
X115089329Y-182474883D01*
X115075079Y-182455670D01*
X115062782Y-182435153D01*
X115052554Y-182413529D01*
X115044496Y-182391007D01*
X115038684Y-182367803D01*
X115035174Y-182344142D01*
X115034000Y-182320250D01*
X115034000Y-181407750D01*
X115035174Y-181383858D01*
X115038684Y-181360197D01*
X115044496Y-181336993D01*
X115052554Y-181314471D01*
X115062782Y-181292847D01*
X115075079Y-181272330D01*
X115089329Y-181253117D01*
X115105393Y-181235393D01*
X115123117Y-181219329D01*
X115142330Y-181205079D01*
X115162847Y-181192782D01*
X115184471Y-181182554D01*
X115206993Y-181174496D01*
X115230197Y-181168684D01*
X115253858Y-181165174D01*
X115277750Y-181164000D01*
X115765250Y-181164000D01*
X115789142Y-181165174D01*
X115789142Y-181165174D01*
G37*
D11*
X115521500Y-181864000D03*
D10*
G36*
X136871142Y-181165174D02*
G01*
X136894803Y-181168684D01*
X136918007Y-181174496D01*
X136940529Y-181182554D01*
X136962153Y-181192782D01*
X136982670Y-181205079D01*
X137001883Y-181219329D01*
X137019607Y-181235393D01*
X137035671Y-181253117D01*
X137049921Y-181272330D01*
X137062218Y-181292847D01*
X137072446Y-181314471D01*
X137080504Y-181336993D01*
X137086316Y-181360197D01*
X137089826Y-181383858D01*
X137091000Y-181407750D01*
X137091000Y-182320250D01*
X137089826Y-182344142D01*
X137086316Y-182367803D01*
X137080504Y-182391007D01*
X137072446Y-182413529D01*
X137062218Y-182435153D01*
X137049921Y-182455670D01*
X137035671Y-182474883D01*
X137019607Y-182492607D01*
X137001883Y-182508671D01*
X136982670Y-182522921D01*
X136962153Y-182535218D01*
X136940529Y-182545446D01*
X136918007Y-182553504D01*
X136894803Y-182559316D01*
X136871142Y-182562826D01*
X136847250Y-182564000D01*
X136359750Y-182564000D01*
X136335858Y-182562826D01*
X136312197Y-182559316D01*
X136288993Y-182553504D01*
X136266471Y-182545446D01*
X136244847Y-182535218D01*
X136224330Y-182522921D01*
X136205117Y-182508671D01*
X136187393Y-182492607D01*
X136171329Y-182474883D01*
X136157079Y-182455670D01*
X136144782Y-182435153D01*
X136134554Y-182413529D01*
X136126496Y-182391007D01*
X136120684Y-182367803D01*
X136117174Y-182344142D01*
X136116000Y-182320250D01*
X136116000Y-181407750D01*
X136117174Y-181383858D01*
X136120684Y-181360197D01*
X136126496Y-181336993D01*
X136134554Y-181314471D01*
X136144782Y-181292847D01*
X136157079Y-181272330D01*
X136171329Y-181253117D01*
X136187393Y-181235393D01*
X136205117Y-181219329D01*
X136224330Y-181205079D01*
X136244847Y-181192782D01*
X136266471Y-181182554D01*
X136288993Y-181174496D01*
X136312197Y-181168684D01*
X136335858Y-181165174D01*
X136359750Y-181164000D01*
X136847250Y-181164000D01*
X136871142Y-181165174D01*
X136871142Y-181165174D01*
G37*
D11*
X136603500Y-181864000D03*
D10*
G36*
X138746142Y-181165174D02*
G01*
X138769803Y-181168684D01*
X138793007Y-181174496D01*
X138815529Y-181182554D01*
X138837153Y-181192782D01*
X138857670Y-181205079D01*
X138876883Y-181219329D01*
X138894607Y-181235393D01*
X138910671Y-181253117D01*
X138924921Y-181272330D01*
X138937218Y-181292847D01*
X138947446Y-181314471D01*
X138955504Y-181336993D01*
X138961316Y-181360197D01*
X138964826Y-181383858D01*
X138966000Y-181407750D01*
X138966000Y-182320250D01*
X138964826Y-182344142D01*
X138961316Y-182367803D01*
X138955504Y-182391007D01*
X138947446Y-182413529D01*
X138937218Y-182435153D01*
X138924921Y-182455670D01*
X138910671Y-182474883D01*
X138894607Y-182492607D01*
X138876883Y-182508671D01*
X138857670Y-182522921D01*
X138837153Y-182535218D01*
X138815529Y-182545446D01*
X138793007Y-182553504D01*
X138769803Y-182559316D01*
X138746142Y-182562826D01*
X138722250Y-182564000D01*
X138234750Y-182564000D01*
X138210858Y-182562826D01*
X138187197Y-182559316D01*
X138163993Y-182553504D01*
X138141471Y-182545446D01*
X138119847Y-182535218D01*
X138099330Y-182522921D01*
X138080117Y-182508671D01*
X138062393Y-182492607D01*
X138046329Y-182474883D01*
X138032079Y-182455670D01*
X138019782Y-182435153D01*
X138009554Y-182413529D01*
X138001496Y-182391007D01*
X137995684Y-182367803D01*
X137992174Y-182344142D01*
X137991000Y-182320250D01*
X137991000Y-181407750D01*
X137992174Y-181383858D01*
X137995684Y-181360197D01*
X138001496Y-181336993D01*
X138009554Y-181314471D01*
X138019782Y-181292847D01*
X138032079Y-181272330D01*
X138046329Y-181253117D01*
X138062393Y-181235393D01*
X138080117Y-181219329D01*
X138099330Y-181205079D01*
X138119847Y-181192782D01*
X138141471Y-181182554D01*
X138163993Y-181174496D01*
X138187197Y-181168684D01*
X138210858Y-181165174D01*
X138234750Y-181164000D01*
X138722250Y-181164000D01*
X138746142Y-181165174D01*
X138746142Y-181165174D01*
G37*
D11*
X138478500Y-181864000D03*
D10*
G36*
X143064142Y-181165174D02*
G01*
X143087803Y-181168684D01*
X143111007Y-181174496D01*
X143133529Y-181182554D01*
X143155153Y-181192782D01*
X143175670Y-181205079D01*
X143194883Y-181219329D01*
X143212607Y-181235393D01*
X143228671Y-181253117D01*
X143242921Y-181272330D01*
X143255218Y-181292847D01*
X143265446Y-181314471D01*
X143273504Y-181336993D01*
X143279316Y-181360197D01*
X143282826Y-181383858D01*
X143284000Y-181407750D01*
X143284000Y-182320250D01*
X143282826Y-182344142D01*
X143279316Y-182367803D01*
X143273504Y-182391007D01*
X143265446Y-182413529D01*
X143255218Y-182435153D01*
X143242921Y-182455670D01*
X143228671Y-182474883D01*
X143212607Y-182492607D01*
X143194883Y-182508671D01*
X143175670Y-182522921D01*
X143155153Y-182535218D01*
X143133529Y-182545446D01*
X143111007Y-182553504D01*
X143087803Y-182559316D01*
X143064142Y-182562826D01*
X143040250Y-182564000D01*
X142552750Y-182564000D01*
X142528858Y-182562826D01*
X142505197Y-182559316D01*
X142481993Y-182553504D01*
X142459471Y-182545446D01*
X142437847Y-182535218D01*
X142417330Y-182522921D01*
X142398117Y-182508671D01*
X142380393Y-182492607D01*
X142364329Y-182474883D01*
X142350079Y-182455670D01*
X142337782Y-182435153D01*
X142327554Y-182413529D01*
X142319496Y-182391007D01*
X142313684Y-182367803D01*
X142310174Y-182344142D01*
X142309000Y-182320250D01*
X142309000Y-181407750D01*
X142310174Y-181383858D01*
X142313684Y-181360197D01*
X142319496Y-181336993D01*
X142327554Y-181314471D01*
X142337782Y-181292847D01*
X142350079Y-181272330D01*
X142364329Y-181253117D01*
X142380393Y-181235393D01*
X142398117Y-181219329D01*
X142417330Y-181205079D01*
X142437847Y-181192782D01*
X142459471Y-181182554D01*
X142481993Y-181174496D01*
X142505197Y-181168684D01*
X142528858Y-181165174D01*
X142552750Y-181164000D01*
X143040250Y-181164000D01*
X143064142Y-181165174D01*
X143064142Y-181165174D01*
G37*
D11*
X142796500Y-181864000D03*
D10*
G36*
X141189142Y-181165174D02*
G01*
X141212803Y-181168684D01*
X141236007Y-181174496D01*
X141258529Y-181182554D01*
X141280153Y-181192782D01*
X141300670Y-181205079D01*
X141319883Y-181219329D01*
X141337607Y-181235393D01*
X141353671Y-181253117D01*
X141367921Y-181272330D01*
X141380218Y-181292847D01*
X141390446Y-181314471D01*
X141398504Y-181336993D01*
X141404316Y-181360197D01*
X141407826Y-181383858D01*
X141409000Y-181407750D01*
X141409000Y-182320250D01*
X141407826Y-182344142D01*
X141404316Y-182367803D01*
X141398504Y-182391007D01*
X141390446Y-182413529D01*
X141380218Y-182435153D01*
X141367921Y-182455670D01*
X141353671Y-182474883D01*
X141337607Y-182492607D01*
X141319883Y-182508671D01*
X141300670Y-182522921D01*
X141280153Y-182535218D01*
X141258529Y-182545446D01*
X141236007Y-182553504D01*
X141212803Y-182559316D01*
X141189142Y-182562826D01*
X141165250Y-182564000D01*
X140677750Y-182564000D01*
X140653858Y-182562826D01*
X140630197Y-182559316D01*
X140606993Y-182553504D01*
X140584471Y-182545446D01*
X140562847Y-182535218D01*
X140542330Y-182522921D01*
X140523117Y-182508671D01*
X140505393Y-182492607D01*
X140489329Y-182474883D01*
X140475079Y-182455670D01*
X140462782Y-182435153D01*
X140452554Y-182413529D01*
X140444496Y-182391007D01*
X140438684Y-182367803D01*
X140435174Y-182344142D01*
X140434000Y-182320250D01*
X140434000Y-181407750D01*
X140435174Y-181383858D01*
X140438684Y-181360197D01*
X140444496Y-181336993D01*
X140452554Y-181314471D01*
X140462782Y-181292847D01*
X140475079Y-181272330D01*
X140489329Y-181253117D01*
X140505393Y-181235393D01*
X140523117Y-181219329D01*
X140542330Y-181205079D01*
X140562847Y-181192782D01*
X140584471Y-181182554D01*
X140606993Y-181174496D01*
X140630197Y-181168684D01*
X140653858Y-181165174D01*
X140677750Y-181164000D01*
X141165250Y-181164000D01*
X141189142Y-181165174D01*
X141189142Y-181165174D01*
G37*
D11*
X140921500Y-181864000D03*
D10*
G36*
X164146142Y-181165174D02*
G01*
X164169803Y-181168684D01*
X164193007Y-181174496D01*
X164215529Y-181182554D01*
X164237153Y-181192782D01*
X164257670Y-181205079D01*
X164276883Y-181219329D01*
X164294607Y-181235393D01*
X164310671Y-181253117D01*
X164324921Y-181272330D01*
X164337218Y-181292847D01*
X164347446Y-181314471D01*
X164355504Y-181336993D01*
X164361316Y-181360197D01*
X164364826Y-181383858D01*
X164366000Y-181407750D01*
X164366000Y-182320250D01*
X164364826Y-182344142D01*
X164361316Y-182367803D01*
X164355504Y-182391007D01*
X164347446Y-182413529D01*
X164337218Y-182435153D01*
X164324921Y-182455670D01*
X164310671Y-182474883D01*
X164294607Y-182492607D01*
X164276883Y-182508671D01*
X164257670Y-182522921D01*
X164237153Y-182535218D01*
X164215529Y-182545446D01*
X164193007Y-182553504D01*
X164169803Y-182559316D01*
X164146142Y-182562826D01*
X164122250Y-182564000D01*
X163634750Y-182564000D01*
X163610858Y-182562826D01*
X163587197Y-182559316D01*
X163563993Y-182553504D01*
X163541471Y-182545446D01*
X163519847Y-182535218D01*
X163499330Y-182522921D01*
X163480117Y-182508671D01*
X163462393Y-182492607D01*
X163446329Y-182474883D01*
X163432079Y-182455670D01*
X163419782Y-182435153D01*
X163409554Y-182413529D01*
X163401496Y-182391007D01*
X163395684Y-182367803D01*
X163392174Y-182344142D01*
X163391000Y-182320250D01*
X163391000Y-181407750D01*
X163392174Y-181383858D01*
X163395684Y-181360197D01*
X163401496Y-181336993D01*
X163409554Y-181314471D01*
X163419782Y-181292847D01*
X163432079Y-181272330D01*
X163446329Y-181253117D01*
X163462393Y-181235393D01*
X163480117Y-181219329D01*
X163499330Y-181205079D01*
X163519847Y-181192782D01*
X163541471Y-181182554D01*
X163563993Y-181174496D01*
X163587197Y-181168684D01*
X163610858Y-181165174D01*
X163634750Y-181164000D01*
X164122250Y-181164000D01*
X164146142Y-181165174D01*
X164146142Y-181165174D01*
G37*
D11*
X163878500Y-181864000D03*
D10*
G36*
X162271142Y-181165174D02*
G01*
X162294803Y-181168684D01*
X162318007Y-181174496D01*
X162340529Y-181182554D01*
X162362153Y-181192782D01*
X162382670Y-181205079D01*
X162401883Y-181219329D01*
X162419607Y-181235393D01*
X162435671Y-181253117D01*
X162449921Y-181272330D01*
X162462218Y-181292847D01*
X162472446Y-181314471D01*
X162480504Y-181336993D01*
X162486316Y-181360197D01*
X162489826Y-181383858D01*
X162491000Y-181407750D01*
X162491000Y-182320250D01*
X162489826Y-182344142D01*
X162486316Y-182367803D01*
X162480504Y-182391007D01*
X162472446Y-182413529D01*
X162462218Y-182435153D01*
X162449921Y-182455670D01*
X162435671Y-182474883D01*
X162419607Y-182492607D01*
X162401883Y-182508671D01*
X162382670Y-182522921D01*
X162362153Y-182535218D01*
X162340529Y-182545446D01*
X162318007Y-182553504D01*
X162294803Y-182559316D01*
X162271142Y-182562826D01*
X162247250Y-182564000D01*
X161759750Y-182564000D01*
X161735858Y-182562826D01*
X161712197Y-182559316D01*
X161688993Y-182553504D01*
X161666471Y-182545446D01*
X161644847Y-182535218D01*
X161624330Y-182522921D01*
X161605117Y-182508671D01*
X161587393Y-182492607D01*
X161571329Y-182474883D01*
X161557079Y-182455670D01*
X161544782Y-182435153D01*
X161534554Y-182413529D01*
X161526496Y-182391007D01*
X161520684Y-182367803D01*
X161517174Y-182344142D01*
X161516000Y-182320250D01*
X161516000Y-181407750D01*
X161517174Y-181383858D01*
X161520684Y-181360197D01*
X161526496Y-181336993D01*
X161534554Y-181314471D01*
X161544782Y-181292847D01*
X161557079Y-181272330D01*
X161571329Y-181253117D01*
X161587393Y-181235393D01*
X161605117Y-181219329D01*
X161624330Y-181205079D01*
X161644847Y-181192782D01*
X161666471Y-181182554D01*
X161688993Y-181174496D01*
X161712197Y-181168684D01*
X161735858Y-181165174D01*
X161759750Y-181164000D01*
X162247250Y-181164000D01*
X162271142Y-181165174D01*
X162271142Y-181165174D01*
G37*
D11*
X162003500Y-181864000D03*
D10*
G36*
X166589142Y-181165174D02*
G01*
X166612803Y-181168684D01*
X166636007Y-181174496D01*
X166658529Y-181182554D01*
X166680153Y-181192782D01*
X166700670Y-181205079D01*
X166719883Y-181219329D01*
X166737607Y-181235393D01*
X166753671Y-181253117D01*
X166767921Y-181272330D01*
X166780218Y-181292847D01*
X166790446Y-181314471D01*
X166798504Y-181336993D01*
X166804316Y-181360197D01*
X166807826Y-181383858D01*
X166809000Y-181407750D01*
X166809000Y-182320250D01*
X166807826Y-182344142D01*
X166804316Y-182367803D01*
X166798504Y-182391007D01*
X166790446Y-182413529D01*
X166780218Y-182435153D01*
X166767921Y-182455670D01*
X166753671Y-182474883D01*
X166737607Y-182492607D01*
X166719883Y-182508671D01*
X166700670Y-182522921D01*
X166680153Y-182535218D01*
X166658529Y-182545446D01*
X166636007Y-182553504D01*
X166612803Y-182559316D01*
X166589142Y-182562826D01*
X166565250Y-182564000D01*
X166077750Y-182564000D01*
X166053858Y-182562826D01*
X166030197Y-182559316D01*
X166006993Y-182553504D01*
X165984471Y-182545446D01*
X165962847Y-182535218D01*
X165942330Y-182522921D01*
X165923117Y-182508671D01*
X165905393Y-182492607D01*
X165889329Y-182474883D01*
X165875079Y-182455670D01*
X165862782Y-182435153D01*
X165852554Y-182413529D01*
X165844496Y-182391007D01*
X165838684Y-182367803D01*
X165835174Y-182344142D01*
X165834000Y-182320250D01*
X165834000Y-181407750D01*
X165835174Y-181383858D01*
X165838684Y-181360197D01*
X165844496Y-181336993D01*
X165852554Y-181314471D01*
X165862782Y-181292847D01*
X165875079Y-181272330D01*
X165889329Y-181253117D01*
X165905393Y-181235393D01*
X165923117Y-181219329D01*
X165942330Y-181205079D01*
X165962847Y-181192782D01*
X165984471Y-181182554D01*
X166006993Y-181174496D01*
X166030197Y-181168684D01*
X166053858Y-181165174D01*
X166077750Y-181164000D01*
X166565250Y-181164000D01*
X166589142Y-181165174D01*
X166589142Y-181165174D01*
G37*
D11*
X166321500Y-181864000D03*
D10*
G36*
X168464142Y-181165174D02*
G01*
X168487803Y-181168684D01*
X168511007Y-181174496D01*
X168533529Y-181182554D01*
X168555153Y-181192782D01*
X168575670Y-181205079D01*
X168594883Y-181219329D01*
X168612607Y-181235393D01*
X168628671Y-181253117D01*
X168642921Y-181272330D01*
X168655218Y-181292847D01*
X168665446Y-181314471D01*
X168673504Y-181336993D01*
X168679316Y-181360197D01*
X168682826Y-181383858D01*
X168684000Y-181407750D01*
X168684000Y-182320250D01*
X168682826Y-182344142D01*
X168679316Y-182367803D01*
X168673504Y-182391007D01*
X168665446Y-182413529D01*
X168655218Y-182435153D01*
X168642921Y-182455670D01*
X168628671Y-182474883D01*
X168612607Y-182492607D01*
X168594883Y-182508671D01*
X168575670Y-182522921D01*
X168555153Y-182535218D01*
X168533529Y-182545446D01*
X168511007Y-182553504D01*
X168487803Y-182559316D01*
X168464142Y-182562826D01*
X168440250Y-182564000D01*
X167952750Y-182564000D01*
X167928858Y-182562826D01*
X167905197Y-182559316D01*
X167881993Y-182553504D01*
X167859471Y-182545446D01*
X167837847Y-182535218D01*
X167817330Y-182522921D01*
X167798117Y-182508671D01*
X167780393Y-182492607D01*
X167764329Y-182474883D01*
X167750079Y-182455670D01*
X167737782Y-182435153D01*
X167727554Y-182413529D01*
X167719496Y-182391007D01*
X167713684Y-182367803D01*
X167710174Y-182344142D01*
X167709000Y-182320250D01*
X167709000Y-181407750D01*
X167710174Y-181383858D01*
X167713684Y-181360197D01*
X167719496Y-181336993D01*
X167727554Y-181314471D01*
X167737782Y-181292847D01*
X167750079Y-181272330D01*
X167764329Y-181253117D01*
X167780393Y-181235393D01*
X167798117Y-181219329D01*
X167817330Y-181205079D01*
X167837847Y-181192782D01*
X167859471Y-181182554D01*
X167881993Y-181174496D01*
X167905197Y-181168684D01*
X167928858Y-181165174D01*
X167952750Y-181164000D01*
X168440250Y-181164000D01*
X168464142Y-181165174D01*
X168464142Y-181165174D01*
G37*
D11*
X168196500Y-181864000D03*
D10*
G36*
X189419142Y-181165174D02*
G01*
X189442803Y-181168684D01*
X189466007Y-181174496D01*
X189488529Y-181182554D01*
X189510153Y-181192782D01*
X189530670Y-181205079D01*
X189549883Y-181219329D01*
X189567607Y-181235393D01*
X189583671Y-181253117D01*
X189597921Y-181272330D01*
X189610218Y-181292847D01*
X189620446Y-181314471D01*
X189628504Y-181336993D01*
X189634316Y-181360197D01*
X189637826Y-181383858D01*
X189639000Y-181407750D01*
X189639000Y-182320250D01*
X189637826Y-182344142D01*
X189634316Y-182367803D01*
X189628504Y-182391007D01*
X189620446Y-182413529D01*
X189610218Y-182435153D01*
X189597921Y-182455670D01*
X189583671Y-182474883D01*
X189567607Y-182492607D01*
X189549883Y-182508671D01*
X189530670Y-182522921D01*
X189510153Y-182535218D01*
X189488529Y-182545446D01*
X189466007Y-182553504D01*
X189442803Y-182559316D01*
X189419142Y-182562826D01*
X189395250Y-182564000D01*
X188907750Y-182564000D01*
X188883858Y-182562826D01*
X188860197Y-182559316D01*
X188836993Y-182553504D01*
X188814471Y-182545446D01*
X188792847Y-182535218D01*
X188772330Y-182522921D01*
X188753117Y-182508671D01*
X188735393Y-182492607D01*
X188719329Y-182474883D01*
X188705079Y-182455670D01*
X188692782Y-182435153D01*
X188682554Y-182413529D01*
X188674496Y-182391007D01*
X188668684Y-182367803D01*
X188665174Y-182344142D01*
X188664000Y-182320250D01*
X188664000Y-181407750D01*
X188665174Y-181383858D01*
X188668684Y-181360197D01*
X188674496Y-181336993D01*
X188682554Y-181314471D01*
X188692782Y-181292847D01*
X188705079Y-181272330D01*
X188719329Y-181253117D01*
X188735393Y-181235393D01*
X188753117Y-181219329D01*
X188772330Y-181205079D01*
X188792847Y-181192782D01*
X188814471Y-181182554D01*
X188836993Y-181174496D01*
X188860197Y-181168684D01*
X188883858Y-181165174D01*
X188907750Y-181164000D01*
X189395250Y-181164000D01*
X189419142Y-181165174D01*
X189419142Y-181165174D01*
G37*
D11*
X189151500Y-181864000D03*
D10*
G36*
X187544142Y-181165174D02*
G01*
X187567803Y-181168684D01*
X187591007Y-181174496D01*
X187613529Y-181182554D01*
X187635153Y-181192782D01*
X187655670Y-181205079D01*
X187674883Y-181219329D01*
X187692607Y-181235393D01*
X187708671Y-181253117D01*
X187722921Y-181272330D01*
X187735218Y-181292847D01*
X187745446Y-181314471D01*
X187753504Y-181336993D01*
X187759316Y-181360197D01*
X187762826Y-181383858D01*
X187764000Y-181407750D01*
X187764000Y-182320250D01*
X187762826Y-182344142D01*
X187759316Y-182367803D01*
X187753504Y-182391007D01*
X187745446Y-182413529D01*
X187735218Y-182435153D01*
X187722921Y-182455670D01*
X187708671Y-182474883D01*
X187692607Y-182492607D01*
X187674883Y-182508671D01*
X187655670Y-182522921D01*
X187635153Y-182535218D01*
X187613529Y-182545446D01*
X187591007Y-182553504D01*
X187567803Y-182559316D01*
X187544142Y-182562826D01*
X187520250Y-182564000D01*
X187032750Y-182564000D01*
X187008858Y-182562826D01*
X186985197Y-182559316D01*
X186961993Y-182553504D01*
X186939471Y-182545446D01*
X186917847Y-182535218D01*
X186897330Y-182522921D01*
X186878117Y-182508671D01*
X186860393Y-182492607D01*
X186844329Y-182474883D01*
X186830079Y-182455670D01*
X186817782Y-182435153D01*
X186807554Y-182413529D01*
X186799496Y-182391007D01*
X186793684Y-182367803D01*
X186790174Y-182344142D01*
X186789000Y-182320250D01*
X186789000Y-181407750D01*
X186790174Y-181383858D01*
X186793684Y-181360197D01*
X186799496Y-181336993D01*
X186807554Y-181314471D01*
X186817782Y-181292847D01*
X186830079Y-181272330D01*
X186844329Y-181253117D01*
X186860393Y-181235393D01*
X186878117Y-181219329D01*
X186897330Y-181205079D01*
X186917847Y-181192782D01*
X186939471Y-181182554D01*
X186961993Y-181174496D01*
X186985197Y-181168684D01*
X187008858Y-181165174D01*
X187032750Y-181164000D01*
X187520250Y-181164000D01*
X187544142Y-181165174D01*
X187544142Y-181165174D01*
G37*
D11*
X187276500Y-181864000D03*
D10*
G36*
X191862142Y-181165174D02*
G01*
X191885803Y-181168684D01*
X191909007Y-181174496D01*
X191931529Y-181182554D01*
X191953153Y-181192782D01*
X191973670Y-181205079D01*
X191992883Y-181219329D01*
X192010607Y-181235393D01*
X192026671Y-181253117D01*
X192040921Y-181272330D01*
X192053218Y-181292847D01*
X192063446Y-181314471D01*
X192071504Y-181336993D01*
X192077316Y-181360197D01*
X192080826Y-181383858D01*
X192082000Y-181407750D01*
X192082000Y-182320250D01*
X192080826Y-182344142D01*
X192077316Y-182367803D01*
X192071504Y-182391007D01*
X192063446Y-182413529D01*
X192053218Y-182435153D01*
X192040921Y-182455670D01*
X192026671Y-182474883D01*
X192010607Y-182492607D01*
X191992883Y-182508671D01*
X191973670Y-182522921D01*
X191953153Y-182535218D01*
X191931529Y-182545446D01*
X191909007Y-182553504D01*
X191885803Y-182559316D01*
X191862142Y-182562826D01*
X191838250Y-182564000D01*
X191350750Y-182564000D01*
X191326858Y-182562826D01*
X191303197Y-182559316D01*
X191279993Y-182553504D01*
X191257471Y-182545446D01*
X191235847Y-182535218D01*
X191215330Y-182522921D01*
X191196117Y-182508671D01*
X191178393Y-182492607D01*
X191162329Y-182474883D01*
X191148079Y-182455670D01*
X191135782Y-182435153D01*
X191125554Y-182413529D01*
X191117496Y-182391007D01*
X191111684Y-182367803D01*
X191108174Y-182344142D01*
X191107000Y-182320250D01*
X191107000Y-181407750D01*
X191108174Y-181383858D01*
X191111684Y-181360197D01*
X191117496Y-181336993D01*
X191125554Y-181314471D01*
X191135782Y-181292847D01*
X191148079Y-181272330D01*
X191162329Y-181253117D01*
X191178393Y-181235393D01*
X191196117Y-181219329D01*
X191215330Y-181205079D01*
X191235847Y-181192782D01*
X191257471Y-181182554D01*
X191279993Y-181174496D01*
X191303197Y-181168684D01*
X191326858Y-181165174D01*
X191350750Y-181164000D01*
X191838250Y-181164000D01*
X191862142Y-181165174D01*
X191862142Y-181165174D01*
G37*
D11*
X191594500Y-181864000D03*
D10*
G36*
X193737142Y-181165174D02*
G01*
X193760803Y-181168684D01*
X193784007Y-181174496D01*
X193806529Y-181182554D01*
X193828153Y-181192782D01*
X193848670Y-181205079D01*
X193867883Y-181219329D01*
X193885607Y-181235393D01*
X193901671Y-181253117D01*
X193915921Y-181272330D01*
X193928218Y-181292847D01*
X193938446Y-181314471D01*
X193946504Y-181336993D01*
X193952316Y-181360197D01*
X193955826Y-181383858D01*
X193957000Y-181407750D01*
X193957000Y-182320250D01*
X193955826Y-182344142D01*
X193952316Y-182367803D01*
X193946504Y-182391007D01*
X193938446Y-182413529D01*
X193928218Y-182435153D01*
X193915921Y-182455670D01*
X193901671Y-182474883D01*
X193885607Y-182492607D01*
X193867883Y-182508671D01*
X193848670Y-182522921D01*
X193828153Y-182535218D01*
X193806529Y-182545446D01*
X193784007Y-182553504D01*
X193760803Y-182559316D01*
X193737142Y-182562826D01*
X193713250Y-182564000D01*
X193225750Y-182564000D01*
X193201858Y-182562826D01*
X193178197Y-182559316D01*
X193154993Y-182553504D01*
X193132471Y-182545446D01*
X193110847Y-182535218D01*
X193090330Y-182522921D01*
X193071117Y-182508671D01*
X193053393Y-182492607D01*
X193037329Y-182474883D01*
X193023079Y-182455670D01*
X193010782Y-182435153D01*
X193000554Y-182413529D01*
X192992496Y-182391007D01*
X192986684Y-182367803D01*
X192983174Y-182344142D01*
X192982000Y-182320250D01*
X192982000Y-181407750D01*
X192983174Y-181383858D01*
X192986684Y-181360197D01*
X192992496Y-181336993D01*
X193000554Y-181314471D01*
X193010782Y-181292847D01*
X193023079Y-181272330D01*
X193037329Y-181253117D01*
X193053393Y-181235393D01*
X193071117Y-181219329D01*
X193090330Y-181205079D01*
X193110847Y-181192782D01*
X193132471Y-181182554D01*
X193154993Y-181174496D01*
X193178197Y-181168684D01*
X193201858Y-181165174D01*
X193225750Y-181164000D01*
X193713250Y-181164000D01*
X193737142Y-181165174D01*
X193737142Y-181165174D01*
G37*
D11*
X193469500Y-181864000D03*
D10*
G36*
X214819142Y-181165174D02*
G01*
X214842803Y-181168684D01*
X214866007Y-181174496D01*
X214888529Y-181182554D01*
X214910153Y-181192782D01*
X214930670Y-181205079D01*
X214949883Y-181219329D01*
X214967607Y-181235393D01*
X214983671Y-181253117D01*
X214997921Y-181272330D01*
X215010218Y-181292847D01*
X215020446Y-181314471D01*
X215028504Y-181336993D01*
X215034316Y-181360197D01*
X215037826Y-181383858D01*
X215039000Y-181407750D01*
X215039000Y-182320250D01*
X215037826Y-182344142D01*
X215034316Y-182367803D01*
X215028504Y-182391007D01*
X215020446Y-182413529D01*
X215010218Y-182435153D01*
X214997921Y-182455670D01*
X214983671Y-182474883D01*
X214967607Y-182492607D01*
X214949883Y-182508671D01*
X214930670Y-182522921D01*
X214910153Y-182535218D01*
X214888529Y-182545446D01*
X214866007Y-182553504D01*
X214842803Y-182559316D01*
X214819142Y-182562826D01*
X214795250Y-182564000D01*
X214307750Y-182564000D01*
X214283858Y-182562826D01*
X214260197Y-182559316D01*
X214236993Y-182553504D01*
X214214471Y-182545446D01*
X214192847Y-182535218D01*
X214172330Y-182522921D01*
X214153117Y-182508671D01*
X214135393Y-182492607D01*
X214119329Y-182474883D01*
X214105079Y-182455670D01*
X214092782Y-182435153D01*
X214082554Y-182413529D01*
X214074496Y-182391007D01*
X214068684Y-182367803D01*
X214065174Y-182344142D01*
X214064000Y-182320250D01*
X214064000Y-181407750D01*
X214065174Y-181383858D01*
X214068684Y-181360197D01*
X214074496Y-181336993D01*
X214082554Y-181314471D01*
X214092782Y-181292847D01*
X214105079Y-181272330D01*
X214119329Y-181253117D01*
X214135393Y-181235393D01*
X214153117Y-181219329D01*
X214172330Y-181205079D01*
X214192847Y-181192782D01*
X214214471Y-181182554D01*
X214236993Y-181174496D01*
X214260197Y-181168684D01*
X214283858Y-181165174D01*
X214307750Y-181164000D01*
X214795250Y-181164000D01*
X214819142Y-181165174D01*
X214819142Y-181165174D01*
G37*
D11*
X214551500Y-181864000D03*
D10*
G36*
X212944142Y-181165174D02*
G01*
X212967803Y-181168684D01*
X212991007Y-181174496D01*
X213013529Y-181182554D01*
X213035153Y-181192782D01*
X213055670Y-181205079D01*
X213074883Y-181219329D01*
X213092607Y-181235393D01*
X213108671Y-181253117D01*
X213122921Y-181272330D01*
X213135218Y-181292847D01*
X213145446Y-181314471D01*
X213153504Y-181336993D01*
X213159316Y-181360197D01*
X213162826Y-181383858D01*
X213164000Y-181407750D01*
X213164000Y-182320250D01*
X213162826Y-182344142D01*
X213159316Y-182367803D01*
X213153504Y-182391007D01*
X213145446Y-182413529D01*
X213135218Y-182435153D01*
X213122921Y-182455670D01*
X213108671Y-182474883D01*
X213092607Y-182492607D01*
X213074883Y-182508671D01*
X213055670Y-182522921D01*
X213035153Y-182535218D01*
X213013529Y-182545446D01*
X212991007Y-182553504D01*
X212967803Y-182559316D01*
X212944142Y-182562826D01*
X212920250Y-182564000D01*
X212432750Y-182564000D01*
X212408858Y-182562826D01*
X212385197Y-182559316D01*
X212361993Y-182553504D01*
X212339471Y-182545446D01*
X212317847Y-182535218D01*
X212297330Y-182522921D01*
X212278117Y-182508671D01*
X212260393Y-182492607D01*
X212244329Y-182474883D01*
X212230079Y-182455670D01*
X212217782Y-182435153D01*
X212207554Y-182413529D01*
X212199496Y-182391007D01*
X212193684Y-182367803D01*
X212190174Y-182344142D01*
X212189000Y-182320250D01*
X212189000Y-181407750D01*
X212190174Y-181383858D01*
X212193684Y-181360197D01*
X212199496Y-181336993D01*
X212207554Y-181314471D01*
X212217782Y-181292847D01*
X212230079Y-181272330D01*
X212244329Y-181253117D01*
X212260393Y-181235393D01*
X212278117Y-181219329D01*
X212297330Y-181205079D01*
X212317847Y-181192782D01*
X212339471Y-181182554D01*
X212361993Y-181174496D01*
X212385197Y-181168684D01*
X212408858Y-181165174D01*
X212432750Y-181164000D01*
X212920250Y-181164000D01*
X212944142Y-181165174D01*
X212944142Y-181165174D01*
G37*
D11*
X212676500Y-181864000D03*
D10*
G36*
X217262142Y-181165174D02*
G01*
X217285803Y-181168684D01*
X217309007Y-181174496D01*
X217331529Y-181182554D01*
X217353153Y-181192782D01*
X217373670Y-181205079D01*
X217392883Y-181219329D01*
X217410607Y-181235393D01*
X217426671Y-181253117D01*
X217440921Y-181272330D01*
X217453218Y-181292847D01*
X217463446Y-181314471D01*
X217471504Y-181336993D01*
X217477316Y-181360197D01*
X217480826Y-181383858D01*
X217482000Y-181407750D01*
X217482000Y-182320250D01*
X217480826Y-182344142D01*
X217477316Y-182367803D01*
X217471504Y-182391007D01*
X217463446Y-182413529D01*
X217453218Y-182435153D01*
X217440921Y-182455670D01*
X217426671Y-182474883D01*
X217410607Y-182492607D01*
X217392883Y-182508671D01*
X217373670Y-182522921D01*
X217353153Y-182535218D01*
X217331529Y-182545446D01*
X217309007Y-182553504D01*
X217285803Y-182559316D01*
X217262142Y-182562826D01*
X217238250Y-182564000D01*
X216750750Y-182564000D01*
X216726858Y-182562826D01*
X216703197Y-182559316D01*
X216679993Y-182553504D01*
X216657471Y-182545446D01*
X216635847Y-182535218D01*
X216615330Y-182522921D01*
X216596117Y-182508671D01*
X216578393Y-182492607D01*
X216562329Y-182474883D01*
X216548079Y-182455670D01*
X216535782Y-182435153D01*
X216525554Y-182413529D01*
X216517496Y-182391007D01*
X216511684Y-182367803D01*
X216508174Y-182344142D01*
X216507000Y-182320250D01*
X216507000Y-181407750D01*
X216508174Y-181383858D01*
X216511684Y-181360197D01*
X216517496Y-181336993D01*
X216525554Y-181314471D01*
X216535782Y-181292847D01*
X216548079Y-181272330D01*
X216562329Y-181253117D01*
X216578393Y-181235393D01*
X216596117Y-181219329D01*
X216615330Y-181205079D01*
X216635847Y-181192782D01*
X216657471Y-181182554D01*
X216679993Y-181174496D01*
X216703197Y-181168684D01*
X216726858Y-181165174D01*
X216750750Y-181164000D01*
X217238250Y-181164000D01*
X217262142Y-181165174D01*
X217262142Y-181165174D01*
G37*
D11*
X216994500Y-181864000D03*
D10*
G36*
X219137142Y-181165174D02*
G01*
X219160803Y-181168684D01*
X219184007Y-181174496D01*
X219206529Y-181182554D01*
X219228153Y-181192782D01*
X219248670Y-181205079D01*
X219267883Y-181219329D01*
X219285607Y-181235393D01*
X219301671Y-181253117D01*
X219315921Y-181272330D01*
X219328218Y-181292847D01*
X219338446Y-181314471D01*
X219346504Y-181336993D01*
X219352316Y-181360197D01*
X219355826Y-181383858D01*
X219357000Y-181407750D01*
X219357000Y-182320250D01*
X219355826Y-182344142D01*
X219352316Y-182367803D01*
X219346504Y-182391007D01*
X219338446Y-182413529D01*
X219328218Y-182435153D01*
X219315921Y-182455670D01*
X219301671Y-182474883D01*
X219285607Y-182492607D01*
X219267883Y-182508671D01*
X219248670Y-182522921D01*
X219228153Y-182535218D01*
X219206529Y-182545446D01*
X219184007Y-182553504D01*
X219160803Y-182559316D01*
X219137142Y-182562826D01*
X219113250Y-182564000D01*
X218625750Y-182564000D01*
X218601858Y-182562826D01*
X218578197Y-182559316D01*
X218554993Y-182553504D01*
X218532471Y-182545446D01*
X218510847Y-182535218D01*
X218490330Y-182522921D01*
X218471117Y-182508671D01*
X218453393Y-182492607D01*
X218437329Y-182474883D01*
X218423079Y-182455670D01*
X218410782Y-182435153D01*
X218400554Y-182413529D01*
X218392496Y-182391007D01*
X218386684Y-182367803D01*
X218383174Y-182344142D01*
X218382000Y-182320250D01*
X218382000Y-181407750D01*
X218383174Y-181383858D01*
X218386684Y-181360197D01*
X218392496Y-181336993D01*
X218400554Y-181314471D01*
X218410782Y-181292847D01*
X218423079Y-181272330D01*
X218437329Y-181253117D01*
X218453393Y-181235393D01*
X218471117Y-181219329D01*
X218490330Y-181205079D01*
X218510847Y-181192782D01*
X218532471Y-181182554D01*
X218554993Y-181174496D01*
X218578197Y-181168684D01*
X218601858Y-181165174D01*
X218625750Y-181164000D01*
X219113250Y-181164000D01*
X219137142Y-181165174D01*
X219137142Y-181165174D01*
G37*
D11*
X218869500Y-181864000D03*
D10*
G36*
X240219142Y-181165174D02*
G01*
X240242803Y-181168684D01*
X240266007Y-181174496D01*
X240288529Y-181182554D01*
X240310153Y-181192782D01*
X240330670Y-181205079D01*
X240349883Y-181219329D01*
X240367607Y-181235393D01*
X240383671Y-181253117D01*
X240397921Y-181272330D01*
X240410218Y-181292847D01*
X240420446Y-181314471D01*
X240428504Y-181336993D01*
X240434316Y-181360197D01*
X240437826Y-181383858D01*
X240439000Y-181407750D01*
X240439000Y-182320250D01*
X240437826Y-182344142D01*
X240434316Y-182367803D01*
X240428504Y-182391007D01*
X240420446Y-182413529D01*
X240410218Y-182435153D01*
X240397921Y-182455670D01*
X240383671Y-182474883D01*
X240367607Y-182492607D01*
X240349883Y-182508671D01*
X240330670Y-182522921D01*
X240310153Y-182535218D01*
X240288529Y-182545446D01*
X240266007Y-182553504D01*
X240242803Y-182559316D01*
X240219142Y-182562826D01*
X240195250Y-182564000D01*
X239707750Y-182564000D01*
X239683858Y-182562826D01*
X239660197Y-182559316D01*
X239636993Y-182553504D01*
X239614471Y-182545446D01*
X239592847Y-182535218D01*
X239572330Y-182522921D01*
X239553117Y-182508671D01*
X239535393Y-182492607D01*
X239519329Y-182474883D01*
X239505079Y-182455670D01*
X239492782Y-182435153D01*
X239482554Y-182413529D01*
X239474496Y-182391007D01*
X239468684Y-182367803D01*
X239465174Y-182344142D01*
X239464000Y-182320250D01*
X239464000Y-181407750D01*
X239465174Y-181383858D01*
X239468684Y-181360197D01*
X239474496Y-181336993D01*
X239482554Y-181314471D01*
X239492782Y-181292847D01*
X239505079Y-181272330D01*
X239519329Y-181253117D01*
X239535393Y-181235393D01*
X239553117Y-181219329D01*
X239572330Y-181205079D01*
X239592847Y-181192782D01*
X239614471Y-181182554D01*
X239636993Y-181174496D01*
X239660197Y-181168684D01*
X239683858Y-181165174D01*
X239707750Y-181164000D01*
X240195250Y-181164000D01*
X240219142Y-181165174D01*
X240219142Y-181165174D01*
G37*
D11*
X239951500Y-181864000D03*
D10*
G36*
X238344142Y-181165174D02*
G01*
X238367803Y-181168684D01*
X238391007Y-181174496D01*
X238413529Y-181182554D01*
X238435153Y-181192782D01*
X238455670Y-181205079D01*
X238474883Y-181219329D01*
X238492607Y-181235393D01*
X238508671Y-181253117D01*
X238522921Y-181272330D01*
X238535218Y-181292847D01*
X238545446Y-181314471D01*
X238553504Y-181336993D01*
X238559316Y-181360197D01*
X238562826Y-181383858D01*
X238564000Y-181407750D01*
X238564000Y-182320250D01*
X238562826Y-182344142D01*
X238559316Y-182367803D01*
X238553504Y-182391007D01*
X238545446Y-182413529D01*
X238535218Y-182435153D01*
X238522921Y-182455670D01*
X238508671Y-182474883D01*
X238492607Y-182492607D01*
X238474883Y-182508671D01*
X238455670Y-182522921D01*
X238435153Y-182535218D01*
X238413529Y-182545446D01*
X238391007Y-182553504D01*
X238367803Y-182559316D01*
X238344142Y-182562826D01*
X238320250Y-182564000D01*
X237832750Y-182564000D01*
X237808858Y-182562826D01*
X237785197Y-182559316D01*
X237761993Y-182553504D01*
X237739471Y-182545446D01*
X237717847Y-182535218D01*
X237697330Y-182522921D01*
X237678117Y-182508671D01*
X237660393Y-182492607D01*
X237644329Y-182474883D01*
X237630079Y-182455670D01*
X237617782Y-182435153D01*
X237607554Y-182413529D01*
X237599496Y-182391007D01*
X237593684Y-182367803D01*
X237590174Y-182344142D01*
X237589000Y-182320250D01*
X237589000Y-181407750D01*
X237590174Y-181383858D01*
X237593684Y-181360197D01*
X237599496Y-181336993D01*
X237607554Y-181314471D01*
X237617782Y-181292847D01*
X237630079Y-181272330D01*
X237644329Y-181253117D01*
X237660393Y-181235393D01*
X237678117Y-181219329D01*
X237697330Y-181205079D01*
X237717847Y-181192782D01*
X237739471Y-181182554D01*
X237761993Y-181174496D01*
X237785197Y-181168684D01*
X237808858Y-181165174D01*
X237832750Y-181164000D01*
X238320250Y-181164000D01*
X238344142Y-181165174D01*
X238344142Y-181165174D01*
G37*
D11*
X238076500Y-181864000D03*
D10*
G36*
X242662142Y-181165174D02*
G01*
X242685803Y-181168684D01*
X242709007Y-181174496D01*
X242731529Y-181182554D01*
X242753153Y-181192782D01*
X242773670Y-181205079D01*
X242792883Y-181219329D01*
X242810607Y-181235393D01*
X242826671Y-181253117D01*
X242840921Y-181272330D01*
X242853218Y-181292847D01*
X242863446Y-181314471D01*
X242871504Y-181336993D01*
X242877316Y-181360197D01*
X242880826Y-181383858D01*
X242882000Y-181407750D01*
X242882000Y-182320250D01*
X242880826Y-182344142D01*
X242877316Y-182367803D01*
X242871504Y-182391007D01*
X242863446Y-182413529D01*
X242853218Y-182435153D01*
X242840921Y-182455670D01*
X242826671Y-182474883D01*
X242810607Y-182492607D01*
X242792883Y-182508671D01*
X242773670Y-182522921D01*
X242753153Y-182535218D01*
X242731529Y-182545446D01*
X242709007Y-182553504D01*
X242685803Y-182559316D01*
X242662142Y-182562826D01*
X242638250Y-182564000D01*
X242150750Y-182564000D01*
X242126858Y-182562826D01*
X242103197Y-182559316D01*
X242079993Y-182553504D01*
X242057471Y-182545446D01*
X242035847Y-182535218D01*
X242015330Y-182522921D01*
X241996117Y-182508671D01*
X241978393Y-182492607D01*
X241962329Y-182474883D01*
X241948079Y-182455670D01*
X241935782Y-182435153D01*
X241925554Y-182413529D01*
X241917496Y-182391007D01*
X241911684Y-182367803D01*
X241908174Y-182344142D01*
X241907000Y-182320250D01*
X241907000Y-181407750D01*
X241908174Y-181383858D01*
X241911684Y-181360197D01*
X241917496Y-181336993D01*
X241925554Y-181314471D01*
X241935782Y-181292847D01*
X241948079Y-181272330D01*
X241962329Y-181253117D01*
X241978393Y-181235393D01*
X241996117Y-181219329D01*
X242015330Y-181205079D01*
X242035847Y-181192782D01*
X242057471Y-181182554D01*
X242079993Y-181174496D01*
X242103197Y-181168684D01*
X242126858Y-181165174D01*
X242150750Y-181164000D01*
X242638250Y-181164000D01*
X242662142Y-181165174D01*
X242662142Y-181165174D01*
G37*
D11*
X242394500Y-181864000D03*
D10*
G36*
X244537142Y-181165174D02*
G01*
X244560803Y-181168684D01*
X244584007Y-181174496D01*
X244606529Y-181182554D01*
X244628153Y-181192782D01*
X244648670Y-181205079D01*
X244667883Y-181219329D01*
X244685607Y-181235393D01*
X244701671Y-181253117D01*
X244715921Y-181272330D01*
X244728218Y-181292847D01*
X244738446Y-181314471D01*
X244746504Y-181336993D01*
X244752316Y-181360197D01*
X244755826Y-181383858D01*
X244757000Y-181407750D01*
X244757000Y-182320250D01*
X244755826Y-182344142D01*
X244752316Y-182367803D01*
X244746504Y-182391007D01*
X244738446Y-182413529D01*
X244728218Y-182435153D01*
X244715921Y-182455670D01*
X244701671Y-182474883D01*
X244685607Y-182492607D01*
X244667883Y-182508671D01*
X244648670Y-182522921D01*
X244628153Y-182535218D01*
X244606529Y-182545446D01*
X244584007Y-182553504D01*
X244560803Y-182559316D01*
X244537142Y-182562826D01*
X244513250Y-182564000D01*
X244025750Y-182564000D01*
X244001858Y-182562826D01*
X243978197Y-182559316D01*
X243954993Y-182553504D01*
X243932471Y-182545446D01*
X243910847Y-182535218D01*
X243890330Y-182522921D01*
X243871117Y-182508671D01*
X243853393Y-182492607D01*
X243837329Y-182474883D01*
X243823079Y-182455670D01*
X243810782Y-182435153D01*
X243800554Y-182413529D01*
X243792496Y-182391007D01*
X243786684Y-182367803D01*
X243783174Y-182344142D01*
X243782000Y-182320250D01*
X243782000Y-181407750D01*
X243783174Y-181383858D01*
X243786684Y-181360197D01*
X243792496Y-181336993D01*
X243800554Y-181314471D01*
X243810782Y-181292847D01*
X243823079Y-181272330D01*
X243837329Y-181253117D01*
X243853393Y-181235393D01*
X243871117Y-181219329D01*
X243890330Y-181205079D01*
X243910847Y-181192782D01*
X243932471Y-181182554D01*
X243954993Y-181174496D01*
X243978197Y-181168684D01*
X244001858Y-181165174D01*
X244025750Y-181164000D01*
X244513250Y-181164000D01*
X244537142Y-181165174D01*
X244537142Y-181165174D01*
G37*
D11*
X244269500Y-181864000D03*
M02*
